<?xml version="1.0" encoding="UTF-8" standalone="no"?><svg xmlns="http://www.w3.org/2000/svg" xmlns:xlink="http://www.w3.org/1999/xlink" contentScriptType="application/ecmascript" contentStyleType="text/css" height="546px" preserveAspectRatio="none" style="width:406px;height:546px;" version="1.1" viewBox="0 0 406 546" width="406px" zoomAndPan="magnify"><defs><filter height="300%" id="f9qk5x3paxtp2" width="300%" x="-1" y="-1"><feGaussianBlur result="blurOut" stdDeviation="2.0"/><feColorMatrix in="blurOut" result="blurOut2" type="matrix" values="0 0 0 0 0 0 0 0 0 0 0 0 0 0 0 0 0 0 .4 0"/><feOffset dx="4.0" dy="4.0" in="blurOut2" result="blurOut3"/><feBlend in="SourceGraphic" in2="blurOut3" mode="normal"/></filter></defs><g><text fill="#000000" font-family="sans-serif" font-size="18" lengthAdjust="spacing" textLength="295" x="54.5" y="26.708">Definition: Node#previousSibling</text><ellipse cx="200" cy="40.9531" fill="#000000" filter="url(#f9qk5x3paxtp2)" rx="10" ry="10" style="stroke:none;stroke-width:1.0;"/><rect fill="#FFFFFF" filter="url(#f9qk5x3paxtp2)" height="428.9766" style="stroke:#000000;stroke-width:2.0;" width="378" x="11" y="60.9531"/><path d="M87,60.9531 L87,70.25 L77,80.25 L11,80.25 " fill="none" style="stroke:#000000;stroke-width:2.0;"/><text fill="#000000" font-family="sans-serif" font-size="14" lengthAdjust="spacing" textLength="66" x="14" y="74.9482">SyncTask</text><rect fill="#FEFECE" filter="url(#f9qk5x3paxtp2)" height="33.9688" style="stroke:#A80036;stroke-width:1.5;" width="358" x="21" y="97.25"/><text fill="#000000" font-family="sans-serif" font-size="12" lengthAdjust="spacing" textLength="338" x="31" y="118.3887">const parent = internal.nodesIndices.get(this).parent</text><rect fill="#FEFECE" filter="url(#f9qk5x3paxtp2)" height="33.9688" style="stroke:#A80036;stroke-width:1.5;" width="293" x="53.5" y="199.6211"/><text fill="#000000" font-family="sans-serif" font-size="12" lengthAdjust="spacing" textLength="269" x="63.5" y="220.7598">const index = parent.children.indexOf(this)</text><polygon fill="#FEFECE" filter="url(#f9qk5x3paxtp2)" points="97,301.9922,313,301.9922,303,335.9609,87,335.9609" style="stroke:#A80036;stroke-width:1.5;"/><text fill="#000000" font-family="sans-serif" font-size="12" lengthAdjust="spacing" textLength="202" x="97" y="323.1309">return parent.children[index - 1]</text><polygon fill="#FEFECE" filter="url(#f9qk5x3paxtp2)" points="173,253.5898,227,253.5898,239,265.5898,227,277.5898,173,277.5898,161,265.5898,173,253.5898" style="stroke:#A80036;stroke-width:1.5;"/><text fill="#000000" font-family="sans-serif" font-size="11" lengthAdjust="spacing" textLength="20" x="204" y="287.8003">yes</text><text fill="#000000" font-family="sans-serif" font-size="11" lengthAdjust="spacing" textLength="54" x="173" y="269.3979">index &gt; 0</text><polygon fill="#FEFECE" filter="url(#f9qk5x3paxtp2)" points="200,355.9609,212,367.9609,200,379.9609,188,367.9609,200,355.9609" style="stroke:#A80036;stroke-width:1.5;"/><polygon fill="#FEFECE" filter="url(#f9qk5x3paxtp2)" points="181.5,151.2188,218.5,151.2188,230.5,163.2188,218.5,175.2188,181.5,175.2188,169.5,163.2188,181.5,151.2188" style="stroke:#A80036;stroke-width:1.5;"/><text fill="#000000" font-family="sans-serif" font-size="11" lengthAdjust="spacing" textLength="20" x="204" y="185.4292">yes</text><text fill="#000000" font-family="sans-serif" font-size="11" lengthAdjust="spacing" textLength="37" x="181.5" y="167.0269">parent</text><polygon fill="#FEFECE" filter="url(#f9qk5x3paxtp2)" points="200,399.9609,212,411.9609,200,423.9609,188,411.9609,200,399.9609" style="stroke:#A80036;stroke-width:1.5;"/><polygon fill="#FEFECE" filter="url(#f9qk5x3paxtp2)" points="167.5,443.9609,242.5,443.9609,232.5,477.9297,157.5,477.9297" style="stroke:#A80036;stroke-width:1.5;"/><text fill="#000000" font-family="sans-serif" font-size="12" lengthAdjust="spacing" textLength="65" x="167.5" y="465.0996">return null</text><ellipse cx="200" cy="519.9297" fill="#FFFFFF" filter="url(#f9qk5x3paxtp2)" rx="10" ry="10" style="stroke:#000000;stroke-width:1.5;"/><line style="stroke:#000000;stroke-width:2.5;" x1="193.8128" x2="206.1872" y1="513.7425" y2="526.1169"/><line style="stroke:#000000;stroke-width:2.5;" x1="206.1872" x2="193.8128" y1="513.7425" y2="526.1169"/><line style="stroke:#A80036;stroke-width:1.5;" x1="200" x2="200" y1="277.5898" y2="301.9922"/><polygon fill="#A80036" points="196,291.9922,200,301.9922,204,291.9922,200,295.9922" style="stroke:#A80036;stroke-width:1.0;"/><line style="stroke:#A80036;stroke-width:1.5;" x1="239" x2="323" y1="265.5898" y2="265.5898"/><polygon fill="#A80036" points="319,308.9766,323,318.9766,327,308.9766,323,312.9766" style="stroke:#A80036;stroke-width:1.5;"/><line style="stroke:#A80036;stroke-width:1.5;" x1="323" x2="323" y1="265.5898" y2="367.9609"/><line style="stroke:#A80036;stroke-width:1.5;" x1="323" x2="212" y1="367.9609" y2="367.9609"/><polygon fill="#A80036" points="222,363.9609,212,367.9609,222,371.9609,218,367.9609" style="stroke:#A80036;stroke-width:1.0;"/><line style="stroke:#A80036;stroke-width:1.5;" x1="200" x2="200" y1="335.9609" y2="355.9609"/><polygon fill="#A80036" points="196,345.9609,200,355.9609,204,345.9609,200,349.9609" style="stroke:#A80036;stroke-width:1.0;"/><line style="stroke:#A80036;stroke-width:1.5;" x1="200" x2="200" y1="233.5898" y2="253.5898"/><polygon fill="#A80036" points="196,243.5898,200,253.5898,204,243.5898,200,247.5898" style="stroke:#A80036;stroke-width:1.0;"/><line style="stroke:#A80036;stroke-width:1.5;" x1="200" x2="200" y1="175.2188" y2="199.6211"/><polygon fill="#A80036" points="196,189.6211,200,199.6211,204,189.6211,200,193.6211" style="stroke:#A80036;stroke-width:1.0;"/><line style="stroke:#A80036;stroke-width:1.5;" x1="230.5" x2="356.5" y1="163.2188" y2="163.2188"/><polygon fill="#A80036" points="352.5,274.4922,356.5,284.4922,360.5,274.4922,356.5,278.4922" style="stroke:#A80036;stroke-width:1.5;"/><line style="stroke:#A80036;stroke-width:1.5;" x1="356.5" x2="356.5" y1="163.2188" y2="411.9609"/><line style="stroke:#A80036;stroke-width:1.5;" x1="356.5" x2="212" y1="411.9609" y2="411.9609"/><polygon fill="#A80036" points="222,407.9609,212,411.9609,222,415.9609,218,411.9609" style="stroke:#A80036;stroke-width:1.0;"/><line style="stroke:#A80036;stroke-width:1.5;" x1="200" x2="200" y1="379.9609" y2="399.9609"/><polygon fill="#A80036" points="196,389.9609,200,399.9609,204,389.9609,200,393.9609" style="stroke:#A80036;stroke-width:1.0;"/><line style="stroke:#A80036;stroke-width:1.5;" x1="200" x2="200" y1="131.2188" y2="151.2188"/><polygon fill="#A80036" points="196,141.2188,200,151.2188,204,141.2188,200,145.2188" style="stroke:#A80036;stroke-width:1.0;"/><line style="stroke:#A80036;stroke-width:1.5;" x1="200" x2="200" y1="423.9609" y2="443.9609"/><polygon fill="#A80036" points="196,433.9609,200,443.9609,204,433.9609,200,437.9609" style="stroke:#A80036;stroke-width:1.0;"/><line style="stroke:#A80036;stroke-width:1.5;" x1="200" x2="200" y1="50.9531" y2="97.25"/><polygon fill="#A80036" points="196,87.25,200,97.25,204,87.25,200,91.25" style="stroke:#A80036;stroke-width:1.0;"/><line style="stroke:#A80036;stroke-width:1.5;" x1="200" x2="200" y1="477.9297" y2="509.9297"/><polygon fill="#A80036" points="196,499.9297,200,509.9297,204,499.9297,200,503.9297" style="stroke:#A80036;stroke-width:1.0;"/><!--MD5=[dc83c0597b992861c3f9fa728ccb3b9a]
@startuml Definition_Node.previousSibling
    title Definition: Node#previousSibling

    start
        partition SyncTask {
            :const parent = internal.nodesIndices.get(this).parent]
            if (parent) then (yes)
                :const index = parent.children.indexOf(this) ]
                if (index > 0) then (yes)
                    :return parent.children[index - 1] /
                endif
            endif
            :return null/
        }
    end
@enduml

PlantUML version 1.2021.00(Sun Jan 10 12:25:05 EET 2021)
(GPL source distribution)
Java Runtime: OpenJDK Runtime Environment
JVM: OpenJDK 64-Bit Server VM
Default Encoding: UTF-8
Language: en
Country: US
--></g></svg>