<?xml version="1.0" encoding="UTF-8" standalone="no"?><svg xmlns="http://www.w3.org/2000/svg" xmlns:xlink="http://www.w3.org/1999/xlink" contentScriptType="application/ecmascript" contentStyleType="text/css" height="400px" preserveAspectRatio="none" style="width:422px;height:400px;" version="1.1" viewBox="0 0 422 400" width="422px" zoomAndPan="magnify"><defs><filter height="300%" id="f1iunrcgu66uy1" width="300%" x="-1" y="-1"><feGaussianBlur result="blurOut" stdDeviation="2.0"/><feColorMatrix in="blurOut" result="blurOut2" type="matrix" values="0 0 0 0 0 0 0 0 0 0 0 0 0 0 0 0 0 0 .4 0"/><feOffset dx="4.0" dy="4.0" in="blurOut2" result="blurOut3"/><feBlend in="SourceGraphic" in2="blurOut3" mode="normal"/></filter></defs><g><text fill="#000000" font-family="sans-serif" font-size="18" lengthAdjust="spacing" textLength="239" x="90.5" y="26.708">Definition: Node#firstChild</text><ellipse cx="208" cy="40.9531" fill="#000000" filter="url(#f1iunrcgu66uy1)" rx="10" ry="10" style="stroke:none;stroke-width:1.0;"/><rect fill="#FFFFFF" filter="url(#f1iunrcgu66uy1)" height="282.6055" style="stroke:#000000;stroke-width:2.0;" width="394" x="11" y="60.9531"/><path d="M87,60.9531 L87,70.25 L77,80.25 L11,80.25 " fill="none" style="stroke:#000000;stroke-width:2.0;"/><text fill="#000000" font-family="sans-serif" font-size="14" lengthAdjust="spacing" textLength="66" x="14" y="74.9482">SyncTask</text><rect fill="#FEFECE" filter="url(#f1iunrcgu66uy1)" height="33.9688" style="stroke:#A80036;stroke-width:1.5;" width="374" x="21" y="97.25"/><text fill="#000000" font-family="sans-serif" font-size="12" lengthAdjust="spacing" textLength="354" x="31" y="118.3887">const children = internal.nodesIndices.get(this).children</text><polygon fill="#FEFECE" filter="url(#f1iunrcgu66uy1)" points="150.5,199.6211,275.5,199.6211,265.5,233.5898,140.5,233.5898" style="stroke:#A80036;stroke-width:1.5;"/><text fill="#000000" font-family="sans-serif" font-size="12" lengthAdjust="spacing" textLength="111" x="150.5" y="220.7598">return children[0]</text><polygon fill="#FEFECE" filter="url(#f1iunrcgu66uy1)" points="154,151.2188,262,151.2188,274,163.2188,262,175.2188,154,175.2188,142,163.2188,154,151.2188" style="stroke:#A80036;stroke-width:1.5;"/><text fill="#000000" font-family="sans-serif" font-size="11" lengthAdjust="spacing" textLength="20" x="212" y="185.4292">yes</text><text fill="#000000" font-family="sans-serif" font-size="11" lengthAdjust="spacing" textLength="108" x="154" y="167.0269">children.length &gt; 0</text><polygon fill="#FEFECE" filter="url(#f1iunrcgu66uy1)" points="208,253.5898,220,265.5898,208,277.5898,196,265.5898,208,253.5898" style="stroke:#A80036;stroke-width:1.5;"/><polygon fill="#FEFECE" filter="url(#f1iunrcgu66uy1)" points="175.5,297.5898,250.5,297.5898,240.5,331.5586,165.5,331.5586" style="stroke:#A80036;stroke-width:1.5;"/><text fill="#000000" font-family="sans-serif" font-size="12" lengthAdjust="spacing" textLength="65" x="175.5" y="318.7285">return null</text><ellipse cx="208" cy="373.5586" fill="#FFFFFF" filter="url(#f1iunrcgu66uy1)" rx="10" ry="10" style="stroke:#000000;stroke-width:1.5;"/><line style="stroke:#000000;stroke-width:2.5;" x1="201.8128" x2="214.1872" y1="367.3714" y2="379.7458"/><line style="stroke:#000000;stroke-width:2.5;" x1="214.1872" x2="201.8128" y1="367.3714" y2="379.7458"/><line style="stroke:#A80036;stroke-width:1.5;" x1="208" x2="208" y1="175.2188" y2="199.6211"/><polygon fill="#A80036" points="204,189.6211,208,199.6211,212,189.6211,208,193.6211" style="stroke:#A80036;stroke-width:1.0;"/><line style="stroke:#A80036;stroke-width:1.5;" x1="274" x2="286" y1="163.2188" y2="163.2188"/><polygon fill="#A80036" points="282,206.6055,286,216.6055,290,206.6055,286,210.6055" style="stroke:#A80036;stroke-width:1.5;"/><line style="stroke:#A80036;stroke-width:1.5;" x1="286" x2="286" y1="163.2188" y2="265.5898"/><line style="stroke:#A80036;stroke-width:1.5;" x1="286" x2="220" y1="265.5898" y2="265.5898"/><polygon fill="#A80036" points="230,261.5898,220,265.5898,230,269.5898,226,265.5898" style="stroke:#A80036;stroke-width:1.0;"/><line style="stroke:#A80036;stroke-width:1.5;" x1="208" x2="208" y1="233.5898" y2="253.5898"/><polygon fill="#A80036" points="204,243.5898,208,253.5898,212,243.5898,208,247.5898" style="stroke:#A80036;stroke-width:1.0;"/><line style="stroke:#A80036;stroke-width:1.5;" x1="208" x2="208" y1="131.2188" y2="151.2188"/><polygon fill="#A80036" points="204,141.2188,208,151.2188,212,141.2188,208,145.2188" style="stroke:#A80036;stroke-width:1.0;"/><line style="stroke:#A80036;stroke-width:1.5;" x1="208" x2="208" y1="277.5898" y2="297.5898"/><polygon fill="#A80036" points="204,287.5898,208,297.5898,212,287.5898,208,291.5898" style="stroke:#A80036;stroke-width:1.0;"/><line style="stroke:#A80036;stroke-width:1.5;" x1="208" x2="208" y1="50.9531" y2="97.25"/><polygon fill="#A80036" points="204,87.25,208,97.25,212,87.25,208,91.25" style="stroke:#A80036;stroke-width:1.0;"/><line style="stroke:#A80036;stroke-width:1.5;" x1="208" x2="208" y1="331.5586" y2="363.5586"/><polygon fill="#A80036" points="204,353.5586,208,363.5586,212,353.5586,208,357.5586" style="stroke:#A80036;stroke-width:1.0;"/><!--MD5=[959d91d11f5de04df2d754a187b4655f]
@startuml Definition_Node.firstChild
    title Definition: Node#firstChild

    start
        partition SyncTask {
            :const children = internal.nodesIndices.get(this).children]
            if (children.length > 0) then (yes)
                :return children[0] /
            endif
            :return null/
        }
    end
@enduml

PlantUML version 1.2021.00(Sun Jan 10 12:25:05 EET 2021)
(GPL source distribution)
Java Runtime: OpenJDK Runtime Environment
JVM: OpenJDK 64-Bit Server VM
Default Encoding: UTF-8
Language: en
Country: US
--></g></svg>