<?xml version="1.0" encoding="UTF-8" standalone="no"?><svg xmlns="http://www.w3.org/2000/svg" xmlns:xlink="http://www.w3.org/1999/xlink" contentScriptType="application/ecmascript" contentStyleType="text/css" height="292px" preserveAspectRatio="none" style="width:345px;height:292px;" version="1.1" viewBox="0 0 345 292" width="345px" zoomAndPan="magnify"><defs><filter height="300%" id="fccx1l811qjvj" width="300%" x="-1" y="-1"><feGaussianBlur result="blurOut" stdDeviation="2.0"/><feColorMatrix in="blurOut" result="blurOut2" type="matrix" values="0 0 0 0 0 0 0 0 0 0 0 0 0 0 0 0 0 0 .4 0"/><feOffset dx="4.0" dy="4.0" in="blurOut2" result="blurOut3"/><feBlend in="SourceGraphic" in2="blurOut3" mode="normal"/></filter></defs><g><text fill="#000000" font-family="sans-serif" font-size="18" lengthAdjust="spacing" textLength="321" x="12" y="26.708">Definition: Event#stopPropagation()</text><ellipse cx="163.5" cy="40.9531" fill="#000000" filter="url(#fccx1l811qjvj)" rx="10" ry="10" style="stroke:none;stroke-width:1.0;"/><rect fill="#FFFFFF" filter="url(#fccx1l811qjvj)" height="174.668" style="stroke:#000000;stroke-width:2.0;" width="231" x="55" y="60.9531"/><path d="M131,60.9531 L131,70.25 L121,80.25 L55,80.25 " fill="none" style="stroke:#000000;stroke-width:2.0;"/><text fill="#000000" font-family="sans-serif" font-size="14" lengthAdjust="spacing" textLength="66" x="58" y="74.9482">SyncTask</text><rect fill="#FEFECE" filter="url(#fccx1l811qjvj)" height="33.9688" style="stroke:#A80036;stroke-width:1.5;" width="193" x="67" y="145.6523"/><text fill="#000000" font-family="sans-serif" font-size="12" lengthAdjust="spacing" textLength="173" x="77" y="166.791">this._binder.stopped = true</text><polygon fill="#FEFECE" filter="url(#fccx1l811qjvj)" points="104.5,97.25,222.5,97.25,234.5,109.25,222.5,121.25,104.5,121.25,92.5,109.25,104.5,97.25" style="stroke:#A80036;stroke-width:1.5;"/><text fill="#000000" font-family="sans-serif" font-size="11" lengthAdjust="spacing" textLength="20" x="167.5" y="131.4604">yes</text><text fill="#000000" font-family="sans-serif" font-size="11" lengthAdjust="spacing" textLength="118" x="104.5" y="113.0581">!this._binder.passive</text><polygon fill="#FEFECE" filter="url(#fccx1l811qjvj)" points="163.5,199.6211,175.5,211.6211,163.5,223.6211,151.5,211.6211,163.5,199.6211" style="stroke:#A80036;stroke-width:1.5;"/><ellipse cx="163.5" cy="265.6211" fill="#FFFFFF" filter="url(#fccx1l811qjvj)" rx="10" ry="10" style="stroke:#000000;stroke-width:1.5;"/><line style="stroke:#000000;stroke-width:2.5;" x1="157.3128" x2="169.6872" y1="259.4339" y2="271.8083"/><line style="stroke:#000000;stroke-width:2.5;" x1="169.6872" x2="157.3128" y1="259.4339" y2="271.8083"/><line style="stroke:#A80036;stroke-width:1.5;" x1="163.5" x2="163.5" y1="121.25" y2="145.6523"/><polygon fill="#A80036" points="159.5,135.6523,163.5,145.6523,167.5,135.6523,163.5,139.6523" style="stroke:#A80036;stroke-width:1.0;"/><line style="stroke:#A80036;stroke-width:1.5;" x1="234.5" x2="270" y1="109.25" y2="109.25"/><polygon fill="#A80036" points="266,152.6367,270,162.6367,274,152.6367,270,156.6367" style="stroke:#A80036;stroke-width:1.5;"/><line style="stroke:#A80036;stroke-width:1.5;" x1="270" x2="270" y1="109.25" y2="211.6211"/><line style="stroke:#A80036;stroke-width:1.5;" x1="270" x2="175.5" y1="211.6211" y2="211.6211"/><polygon fill="#A80036" points="185.5,207.6211,175.5,211.6211,185.5,215.6211,181.5,211.6211" style="stroke:#A80036;stroke-width:1.0;"/><line style="stroke:#A80036;stroke-width:1.5;" x1="163.5" x2="163.5" y1="179.6211" y2="199.6211"/><polygon fill="#A80036" points="159.5,189.6211,163.5,199.6211,167.5,189.6211,163.5,193.6211" style="stroke:#A80036;stroke-width:1.0;"/><line style="stroke:#A80036;stroke-width:1.5;" x1="163.5" x2="163.5" y1="50.9531" y2="97.25"/><polygon fill="#A80036" points="159.5,87.25,163.5,97.25,167.5,87.25,163.5,91.25" style="stroke:#A80036;stroke-width:1.0;"/><line style="stroke:#A80036;stroke-width:1.5;" x1="163.5" x2="163.5" y1="223.6211" y2="255.6211"/><polygon fill="#A80036" points="159.5,245.6211,163.5,255.6211,167.5,245.6211,163.5,249.6211" style="stroke:#A80036;stroke-width:1.0;"/><!--MD5=[9747085e434b0778de7d03b5a1382c54]
@startuml Definition_Event.stopPropagation
    title Definition: Event#stopPropagation()

    start
        partition SyncTask {
            if (!this._binder.passive) then (yes)
                :this._binder.stopped = true]
            endif
        }
    end
@enduml

PlantUML version 1.2021.00(Sun Jan 10 12:25:05 EET 2021)
(GPL source distribution)
Java Runtime: OpenJDK Runtime Environment
JVM: OpenJDK 64-Bit Server VM
Default Encoding: UTF-8
Language: en
Country: US
--></g></svg>