<?xml version="1.0" encoding="UTF-8" standalone="no"?><svg xmlns="http://www.w3.org/2000/svg" xmlns:xlink="http://www.w3.org/1999/xlink" contentScriptType="application/ecmascript" contentStyleType="text/css" height="292px" preserveAspectRatio="none" style="width:336px;height:292px;" version="1.1" viewBox="0 0 336 292" width="336px" zoomAndPan="magnify"><defs><filter height="300%" id="f1vyng7tir5ppx" width="300%" x="-1" y="-1"><feGaussianBlur result="blurOut" stdDeviation="2.0"/><feColorMatrix in="blurOut" result="blurOut2" type="matrix" values="0 0 0 0 0 0 0 0 0 0 0 0 0 0 0 0 0 0 .4 0"/><feOffset dx="4.0" dy="4.0" in="blurOut2" result="blurOut3"/><feBlend in="SourceGraphic" in2="blurOut3" mode="normal"/></filter></defs><g><text fill="#000000" font-family="sans-serif" font-size="18" lengthAdjust="spacing" textLength="312" x="12" y="26.708">Definition: Event#preventDefault()</text><ellipse cx="159" cy="40.9531" fill="#000000" filter="url(#f1vyng7tir5ppx)" rx="10" ry="10" style="stroke:none;stroke-width:1.0;"/><rect fill="#FFFFFF" filter="url(#f1vyng7tir5ppx)" height="174.668" style="stroke:#000000;stroke-width:2.0;" width="243" x="44.5" y="60.9531"/><path d="M120.5,60.9531 L120.5,70.25 L110.5,80.25 L44.5,80.25 " fill="none" style="stroke:#000000;stroke-width:2.0;"/><text fill="#000000" font-family="sans-serif" font-size="14" lengthAdjust="spacing" textLength="66" x="47.5" y="74.9482">SyncTask</text><rect fill="#FEFECE" filter="url(#f1vyng7tir5ppx)" height="33.9688" style="stroke:#A80036;stroke-width:1.5;" width="205" x="56.5" y="145.6523"/><text fill="#000000" font-family="sans-serif" font-size="12" lengthAdjust="spacing" textLength="185" x="66.5" y="166.791">this._binder.prevented = true</text><polygon fill="#FEFECE" filter="url(#f1vyng7tir5ppx)" points="100,97.25,218,97.25,230,109.25,218,121.25,100,121.25,88,109.25,100,97.25" style="stroke:#A80036;stroke-width:1.5;"/><text fill="#000000" font-family="sans-serif" font-size="11" lengthAdjust="spacing" textLength="20" x="163" y="131.4604">yes</text><text fill="#000000" font-family="sans-serif" font-size="11" lengthAdjust="spacing" textLength="118" x="100" y="113.0581">!this._binder.passive</text><polygon fill="#FEFECE" filter="url(#f1vyng7tir5ppx)" points="159,199.6211,171,211.6211,159,223.6211,147,211.6211,159,199.6211" style="stroke:#A80036;stroke-width:1.5;"/><ellipse cx="159" cy="265.6211" fill="#FFFFFF" filter="url(#f1vyng7tir5ppx)" rx="10" ry="10" style="stroke:#000000;stroke-width:1.5;"/><line style="stroke:#000000;stroke-width:2.5;" x1="152.8128" x2="165.1872" y1="259.4339" y2="271.8083"/><line style="stroke:#000000;stroke-width:2.5;" x1="165.1872" x2="152.8128" y1="259.4339" y2="271.8083"/><line style="stroke:#A80036;stroke-width:1.5;" x1="159" x2="159" y1="121.25" y2="145.6523"/><polygon fill="#A80036" points="155,135.6523,159,145.6523,163,135.6523,159,139.6523" style="stroke:#A80036;stroke-width:1.0;"/><line style="stroke:#A80036;stroke-width:1.5;" x1="230" x2="271.5" y1="109.25" y2="109.25"/><polygon fill="#A80036" points="267.5,152.6367,271.5,162.6367,275.5,152.6367,271.5,156.6367" style="stroke:#A80036;stroke-width:1.5;"/><line style="stroke:#A80036;stroke-width:1.5;" x1="271.5" x2="271.5" y1="109.25" y2="211.6211"/><line style="stroke:#A80036;stroke-width:1.5;" x1="271.5" x2="171" y1="211.6211" y2="211.6211"/><polygon fill="#A80036" points="181,207.6211,171,211.6211,181,215.6211,177,211.6211" style="stroke:#A80036;stroke-width:1.0;"/><line style="stroke:#A80036;stroke-width:1.5;" x1="159" x2="159" y1="179.6211" y2="199.6211"/><polygon fill="#A80036" points="155,189.6211,159,199.6211,163,189.6211,159,193.6211" style="stroke:#A80036;stroke-width:1.0;"/><line style="stroke:#A80036;stroke-width:1.5;" x1="159" x2="159" y1="50.9531" y2="97.25"/><polygon fill="#A80036" points="155,87.25,159,97.25,163,87.25,159,91.25" style="stroke:#A80036;stroke-width:1.0;"/><line style="stroke:#A80036;stroke-width:1.5;" x1="159" x2="159" y1="223.6211" y2="255.6211"/><polygon fill="#A80036" points="155,245.6211,159,255.6211,163,245.6211,159,249.6211" style="stroke:#A80036;stroke-width:1.0;"/><!--MD5=[6b07731d0beb1f869c5a4e41fbb8a6fc]
@startuml Definition_Event.preventDefault
    title Definition: Event#preventDefault()

    start
        partition SyncTask {
            if (!this._binder.passive) then (yes)
                :this._binder.prevented = true]
            endif
        }
    end
@enduml

PlantUML version 1.2021.00(Sun Jan 10 12:25:05 EET 2021)
(GPL source distribution)
Java Runtime: OpenJDK Runtime Environment
JVM: OpenJDK 64-Bit Server VM
Default Encoding: UTF-8
Language: en
Country: US
--></g></svg>