<?xml version="1.0" encoding="UTF-8" standalone="no"?><svg xmlns="http://www.w3.org/2000/svg" xmlns:xlink="http://www.w3.org/1999/xlink" contentScriptType="application/ecmascript" contentStyleType="text/css" height="697px" preserveAspectRatio="none" style="width:546px;height:697px;" version="1.1" viewBox="0 0 546 697" width="546px" zoomAndPan="magnify"><defs><filter height="300%" id="fmb8l6zlqss06" width="300%" x="-1" y="-1"><feGaussianBlur result="blurOut" stdDeviation="2.0"/><feColorMatrix in="blurOut" result="blurOut2" type="matrix" values="0 0 0 0 0 0 0 0 0 0 0 0 0 0 0 0 0 0 .4 0"/><feOffset dx="4.0" dy="4.0" in="blurOut2" result="blurOut3"/><feBlend in="SourceGraphic" in2="blurOut3" mode="normal"/></filter></defs><g><text fill="#000000" font-family="sans-serif" font-size="18" lengthAdjust="spacing" textLength="308" x="118" y="26.708">Definition: Node#disposeInternal()</text><ellipse cx="263" cy="40.9531" fill="#000000" filter="url(#fmb8l6zlqss06)" rx="10" ry="10" style="stroke:none;stroke-width:1.0;"/><rect fill="#FFFFFF" filter="url(#fmb8l6zlqss06)" height="579.4805" style="stroke:#000000;stroke-width:2.0;" width="518" x="11" y="60.9531"/><path d="M87,60.9531 L87,70.25 L77,80.25 L11,80.25 " fill="none" style="stroke:#000000;stroke-width:2.0;"/><text fill="#000000" font-family="sans-serif" font-size="14" lengthAdjust="spacing" textLength="66" x="14" y="74.9482">SyncTask</text><rect fill="#FEFECE" filter="url(#fmb8l6zlqss06)" height="33.9688" style="stroke:#A80036;stroke-width:1.5;" width="358" x="84" y="97.25"/><text fill="#000000" font-family="sans-serif" font-size="12" lengthAdjust="spacing" textLength="338" x="94" y="118.3887">const parent = internal.nodesIndices.get(this).parent</text><rect fill="#FEFECE" filter="url(#fmb8l6zlqss06)" height="33.9688" style="stroke:#A80036;stroke-width:1.5;" width="374" x="76" y="151.2188"/><text fill="#000000" font-family="sans-serif" font-size="12" lengthAdjust="spacing" textLength="354" x="86" y="172.3574">const children = internal.nodesIndices.get(this).children</text><rect fill="#FEFECE" filter="url(#fmb8l6zlqss06)" height="33.9688" style="stroke:#A80036;stroke-width:1.5;" width="150" x="188" y="249.1875"/><text fill="#000000" font-family="sans-serif" font-size="12" lengthAdjust="spacing" textLength="67" x="198" y="270.3262">children[i].</text><a href="./Definition_Disposable.dispose.svg" target="_top" title="./Definition_Disposable.dispose.svg" xlink:actuate="onRequest" xlink:href="./Definition_Disposable.dispose.svg" xlink:show="new" xlink:title="./Definition_Disposable.dispose.svg" xlink:type="simple"><text fill="#0000FF" font-family="sans-serif" font-size="12" lengthAdjust="spacing" text-decoration="underline" textLength="49" x="265" y="270.3262">dispose</text></a><text fill="#000000" font-family="sans-serif" font-size="12" lengthAdjust="spacing" textLength="10" x="314" y="270.3262">()</text><polygon fill="#FEFECE" filter="url(#fmb8l6zlqss06)" points="170,205.1875,356,205.1875,368,217.1875,356,229.1875,170,229.1875,158,217.1875,170,205.1875" style="stroke:#A80036;stroke-width:1.5;"/><text fill="#000000" font-family="sans-serif" font-size="11" lengthAdjust="spacing" textLength="186" x="170" y="220.9956">let i = 0; i &lt; children.length; i++</text><rect fill="#FEFECE" filter="url(#fmb8l6zlqss06)" height="33.9688" style="stroke:#A80036;stroke-width:1.5;" width="480" x="23" y="373.5586"/><text fill="#000000" font-family="sans-serif" font-size="12" lengthAdjust="spacing" textLength="460" x="33" y="394.6973">const parIndex = internal.nodesIndices.get(parent).children.indexOf(this)</text><rect fill="#FEFECE" filter="url(#fmb8l6zlqss06)" height="33.9688" style="stroke:#A80036;stroke-width:1.5;" width="406" x="60" y="442.5273"/><text fill="#000000" font-family="sans-serif" font-size="12" lengthAdjust="spacing" textLength="386" x="70" y="463.666">internal.nodesIndices.get(parent).children.splice(parIndex, 1)</text><polygon fill="#FEFECE" filter="url(#fmb8l6zlqss06)" points="224.5,325.1563,301.5,325.1563,313.5,337.1563,301.5,349.1563,224.5,349.1563,212.5,337.1563,224.5,325.1563" style="stroke:#A80036;stroke-width:1.5;"/><text fill="#000000" font-family="sans-serif" font-size="11" lengthAdjust="spacing" textLength="20" x="267" y="359.3667">yes</text><text fill="#000000" font-family="sans-serif" font-size="11" lengthAdjust="spacing" textLength="77" x="224.5" y="340.9644">parent != null</text><polygon fill="#FEFECE" filter="url(#fmb8l6zlqss06)" points="263,496.4961,275,508.4961,263,520.4961,251,508.4961,263,496.4961" style="stroke:#A80036;stroke-width:1.5;"/><rect fill="#FEFECE" filter="url(#fmb8l6zlqss06)" height="33.9688" style="stroke:#A80036;stroke-width:1.5;" width="232" x="147" y="540.4961"/><text fill="#000000" font-family="sans-serif" font-size="12" lengthAdjust="spacing" textLength="212" x="157" y="561.6348">internal.nodesIndices.delete(this)</text><rect fill="#FEFECE" filter="url(#fmb8l6zlqss06)" height="33.9688" style="stroke:#A80036;stroke-width:1.5;" width="66" x="230" y="594.4648"/><line style="stroke:#A80036;stroke-width:1.5;" x1="235" x2="235" y1="594.4648" y2="628.4336"/><line style="stroke:#A80036;stroke-width:1.5;" x1="291" x2="291" y1="594.4648" y2="628.4336"/><a href="./Definition_EventTarget.disposeInternal.svg" target="_top" title="./Definition_EventTarget.disposeInternal.svg" xlink:actuate="onRequest" xlink:href="./Definition_EventTarget.disposeInternal.svg" xlink:show="new" xlink:title="./Definition_EventTarget.disposeInternal.svg" xlink:type="simple"><text fill="#0000FF" font-family="sans-serif" font-size="12" lengthAdjust="spacing" text-decoration="underline" textLength="46" x="240" y="615.6035">super()</text></a><ellipse cx="263" cy="670.4336" fill="#FFFFFF" filter="url(#fmb8l6zlqss06)" rx="10" ry="10" style="stroke:#000000;stroke-width:1.5;"/><line style="stroke:#000000;stroke-width:2.5;" x1="256.8128" x2="269.1872" y1="664.2464" y2="676.6208"/><line style="stroke:#000000;stroke-width:2.5;" x1="269.1872" x2="256.8128" y1="664.2464" y2="676.6208"/><line style="stroke:#A80036;stroke-width:1.5;" x1="263" x2="263" y1="131.2188" y2="151.2188"/><polygon fill="#A80036" points="259,141.2188,263,151.2188,267,141.2188,263,145.2188" style="stroke:#A80036;stroke-width:1.0;"/><line style="stroke:#A80036;stroke-width:1.5;" x1="263" x2="263" y1="229.1875" y2="249.1875"/><polygon fill="#A80036" points="259,239.1875,263,249.1875,267,239.1875,263,243.1875" style="stroke:#A80036;stroke-width:1.0;"/><line style="stroke:#A80036;stroke-width:1.5;" x1="263" x2="263" y1="283.1563" y2="293.1563"/><line style="stroke:#A80036;stroke-width:1.5;" x1="263" x2="380" y1="293.1563" y2="293.1563"/><polygon fill="#A80036" points="376,264.1719,380,254.1719,384,264.1719,380,260.1719" style="stroke:#A80036;stroke-width:1.5;"/><line style="stroke:#A80036;stroke-width:1.5;" x1="380" x2="380" y1="217.1875" y2="293.1563"/><line style="stroke:#A80036;stroke-width:1.5;" x1="380" x2="368" y1="217.1875" y2="217.1875"/><polygon fill="#A80036" points="378,213.1875,368,217.1875,378,221.1875,374,217.1875" style="stroke:#A80036;stroke-width:1.0;"/><line style="stroke:#A80036;stroke-width:1.5;" x1="158" x2="146" y1="217.1875" y2="217.1875"/><polygon fill="#A80036" points="142,250.1719,146,260.1719,150,250.1719,146,254.1719" style="stroke:#A80036;stroke-width:1.5;"/><line style="stroke:#A80036;stroke-width:1.5;" x1="146" x2="146" y1="217.1875" y2="305.1563"/><line style="stroke:#A80036;stroke-width:1.5;" x1="146" x2="263" y1="305.1563" y2="305.1563"/><line style="stroke:#A80036;stroke-width:1.5;" x1="263" x2="263" y1="305.1563" y2="325.1563"/><polygon fill="#A80036" points="259,315.1563,263,325.1563,267,315.1563,263,319.1563" style="stroke:#A80036;stroke-width:1.0;"/><line style="stroke:#A80036;stroke-width:1.5;" x1="263" x2="263" y1="185.1875" y2="205.1875"/><polygon fill="#A80036" points="259,195.1875,263,205.1875,267,195.1875,263,199.1875" style="stroke:#A80036;stroke-width:1.0;"/><line style="stroke:#A80036;stroke-width:1.5;" x1="263" x2="263" y1="407.5273" y2="442.5273"/><polygon fill="#A80036" points="259,432.5273,263,442.5273,267,432.5273,263,436.5273" style="stroke:#A80036;stroke-width:1.0;"/><line style="stroke:#A80036;stroke-width:1.5;" x1="263" x2="263" y1="349.1563" y2="373.5586"/><polygon fill="#A80036" points="259,363.5586,263,373.5586,267,363.5586,263,367.5586" style="stroke:#A80036;stroke-width:1.0;"/><line style="stroke:#A80036;stroke-width:1.5;" x1="313.5" x2="513" y1="337.1563" y2="337.1563"/><polygon fill="#A80036" points="509,415.0273,513,425.0273,517,415.0273,513,419.0273" style="stroke:#A80036;stroke-width:1.5;"/><line style="stroke:#A80036;stroke-width:1.5;" x1="513" x2="513" y1="337.1563" y2="508.4961"/><line style="stroke:#A80036;stroke-width:1.5;" x1="513" x2="275" y1="508.4961" y2="508.4961"/><polygon fill="#A80036" points="285,504.4961,275,508.4961,285,512.4961,281,508.4961" style="stroke:#A80036;stroke-width:1.0;"/><line style="stroke:#A80036;stroke-width:1.5;" x1="263" x2="263" y1="476.4961" y2="496.4961"/><polygon fill="#A80036" points="259,486.4961,263,496.4961,267,486.4961,263,490.4961" style="stroke:#A80036;stroke-width:1.0;"/><line style="stroke:#A80036;stroke-width:1.5;" x1="263" x2="263" y1="520.4961" y2="540.4961"/><polygon fill="#A80036" points="259,530.4961,263,540.4961,267,530.4961,263,534.4961" style="stroke:#A80036;stroke-width:1.0;"/><line style="stroke:#A80036;stroke-width:1.5;" x1="263" x2="263" y1="574.4648" y2="594.4648"/><polygon fill="#A80036" points="259,584.4648,263,594.4648,267,584.4648,263,588.4648" style="stroke:#A80036;stroke-width:1.0;"/><line style="stroke:#A80036;stroke-width:1.5;" x1="263" x2="263" y1="50.9531" y2="97.25"/><polygon fill="#A80036" points="259,87.25,263,97.25,267,87.25,263,91.25" style="stroke:#A80036;stroke-width:1.0;"/><line style="stroke:#A80036;stroke-width:1.5;" x1="263" x2="263" y1="628.4336" y2="660.4336"/><polygon fill="#A80036" points="259,650.4336,263,660.4336,267,650.4336,263,654.4336" style="stroke:#A80036;stroke-width:1.0;"/><!--MD5=[892bf698b4cfb3720ad8ce2cba661084]
@startuml Definition_Node.disposeInternal
    title Definition: Node#disposeInternal()

    start
        partition SyncTask {
            :const parent = internal.nodesIndices.get(this).parent]
            :const children = internal.nodesIndices.get(this).children]
            while (let i = 0; i < children.length; i++)
                :children[i].[[./Definition_Disposable.dispose.svg dispose]]() ]
            endwhile
            if (parent != null) then (yes)
                :const parIndex = internal.nodesIndices.get(parent).children.indexOf(this)]
                :internal.nodesIndices.get(parent).children.splice(parIndex, 1)]
            endif
            :internal.nodesIndices.delete(this)]
            :[[./Definition_EventTarget.disposeInternal.svg super()]]|
        }
    end
@enduml

PlantUML version 1.2021.00(Sun Jan 10 12:25:05 EET 2021)
(GPL source distribution)
Java Runtime: OpenJDK Runtime Environment
JVM: OpenJDK 64-Bit Server VM
Default Encoding: UTF-8
Language: en
Country: US
--></g></svg>