<?xml version="1.0" encoding="UTF-8" standalone="no"?><svg xmlns="http://www.w3.org/2000/svg" xmlns:xlink="http://www.w3.org/1999/xlink" contentScriptType="application/ecmascript" contentStyleType="text/css" height="492px" preserveAspectRatio="none" style="width:345px;height:492px;" version="1.1" viewBox="0 0 345 492" width="345px" zoomAndPan="magnify"><defs><filter height="300%" id="f4kvc4esbqnm9" width="300%" x="-1" y="-1"><feGaussianBlur result="blurOut" stdDeviation="2.0"/><feColorMatrix in="blurOut" result="blurOut2" type="matrix" values="0 0 0 0 0 0 0 0 0 0 0 0 0 0 0 0 0 0 .4 0"/><feOffset dx="4.0" dy="4.0" in="blurOut2" result="blurOut3"/><feBlend in="SourceGraphic" in2="blurOut3" mode="normal"/></filter></defs><g><text fill="#000000" font-family="sans-serif" font-size="18" lengthAdjust="spacingAndGlyphs" textLength="280" x="31.5" y="27.4023">Definition: Disposable#dispose()</text><ellipse cx="165" cy="41.1992" fill="#000000" filter="url(#f4kvc4esbqnm9)" rx="10" ry="10" style="stroke: none; stroke-width: 1.0;"/><rect fill="#FFFFFF" filter="url(#f4kvc4esbqnm9)" height="379.4307" style="stroke: #000000; stroke-width: 2.0;" width="324" x="10" y="61.6523"/><path d="M83,62.6523 L83,71.1406 L73,81.1406 L10,81.1406 " fill="none" style="stroke: #000000; stroke-width: 2.0;"/><text fill="#000000" font-family="sans-serif" font-size="14" lengthAdjust="spacingAndGlyphs" textLength="63" x="13" y="76.1875">SyncTask</text><rect fill="#FEFECE" filter="url(#f4kvc4esbqnm9)" height="34.1328" style="stroke: #A80036; stroke-width: 1.5;" width="146" x="92" y="146.6182"/><text fill="#000000" font-family="sans-serif" font-size="12" lengthAdjust="spacingAndGlyphs" textLength="126" x="102" y="168.2197">this._disposing = true</text><rect fill="#FEFECE" filter="url(#f4kvc4esbqnm9)" height="34.1328" style="stroke: #A80036; stroke-width: 1.5;" width="144" x="93" y="200.751"/><line style="stroke: #A80036; stroke-width: 1.5;" x1="98" x2="98" y1="200.751" y2="234.8838"/><line style="stroke: #A80036; stroke-width: 1.5;" x1="232" x2="232" y1="200.751" y2="234.8838"/><a href="./Definition_Disposable.disposeInternal.svg" target="_top" xlink:actuate="onRequest" xlink:show="new" xlink:title="./Definition_Disposable.disposeInternal.svg" xlink:type="simple"><text fill="#0000FF" font-family="sans-serif" font-size="12" lengthAdjust="spacingAndGlyphs" text-decoration="underline" textLength="120" x="103" y="222.3525">this.disposeInternal()</text></a><text fill="#000000" font-family="sans-serif" font-size="12" lengthAdjust="spacingAndGlyphs" textLength="0" x="227" y="222.3525"/><rect fill="#FEFECE" filter="url(#f4kvc4esbqnm9)" height="34.1328" style="stroke: #A80036; stroke-width: 1.5;" width="250" x="40" y="306.9502"/><text fill="#000000" font-family="sans-serif" font-size="12" lengthAdjust="spacingAndGlyphs" textLength="230" x="50" y="328.5518">throw new Error(Errors.BROKEN_CHAIN)</text><polygon fill="#FEFECE" filter="url(#f4kvc4esbqnm9)" points="72.5,258.4727,257.5,258.4727,269.5,270.4727,257.5,282.4727,72.5,282.4727,60.5,270.4727,72.5,258.4727" style="stroke: #A80036; stroke-width: 1.5;"/><text fill="#000000" font-family="sans-serif" font-size="11" lengthAdjust="spacingAndGlyphs" textLength="18" x="169" y="293.1074">yes</text><text fill="#000000" font-family="sans-serif" font-size="11" lengthAdjust="spacingAndGlyphs" textLength="185" x="72.5" y="274.6299">!this._disposed &amp;&amp; this._disposing</text><polygon fill="#FEFECE" filter="url(#f4kvc4esbqnm9)" points="165,361.083,177,373.083,165,385.083,153,373.083,165,361.083" style="stroke: #A80036; stroke-width: 1.5;"/><polygon fill="#FEFECE" filter="url(#f4kvc4esbqnm9)" points="124.5,98.1406,205.5,98.1406,217.5,110.1406,205.5,122.1406,124.5,122.1406,112.5,110.1406,124.5,98.1406" style="stroke: #A80036; stroke-width: 1.5;"/><text fill="#000000" font-family="sans-serif" font-size="11" lengthAdjust="spacingAndGlyphs" textLength="18" x="169" y="132.7754">yes</text><text fill="#000000" font-family="sans-serif" font-size="11" lengthAdjust="spacingAndGlyphs" textLength="81" x="124.5" y="114.2979">!this._disposed</text><polygon fill="#FEFECE" filter="url(#f4kvc4esbqnm9)" points="165,405.083,177,417.083,165,429.083,153,417.083,165,405.083" style="stroke: #A80036; stroke-width: 1.5;"/><ellipse cx="165" cy="471.083" fill="#FFFFFF" filter="url(#f4kvc4esbqnm9)" rx="10" ry="10" style="stroke: #000000; stroke-width: 1.5;"/><line style="stroke: #000000; stroke-width: 2.5;" x1="158.8128" x2="171.1872" y1="464.8958" y2="477.2702"/><line style="stroke: #000000; stroke-width: 2.5;" x1="171.1872" x2="158.8128" y1="464.8958" y2="477.2702"/><line style="stroke: #A80036; stroke-width: 1.5;" x1="165" x2="165" y1="180.751" y2="200.751"/><polygon fill="#A80036" points="161,190.751,165,200.751,169,190.751,165,194.751" style="stroke: #A80036; stroke-width: 1.0;"/><line style="stroke: #A80036; stroke-width: 1.5;" x1="165" x2="165" y1="282.4727" y2="306.9502"/><polygon fill="#A80036" points="161,296.9502,165,306.9502,169,296.9502,165,300.9502" style="stroke: #A80036; stroke-width: 1.0;"/><line style="stroke: #A80036; stroke-width: 1.5;" x1="269.5" x2="300" y1="270.4727" y2="270.4727"/><polygon fill="#A80036" points="296,314.0166,300,324.0166,304,314.0166,300,318.0166" style="stroke: #A80036; stroke-width: 1.5;"/><line style="stroke: #A80036; stroke-width: 1.5;" x1="300" x2="300" y1="270.4727" y2="373.083"/><line style="stroke: #A80036; stroke-width: 1.5;" x1="300" x2="177" y1="373.083" y2="373.083"/><polygon fill="#A80036" points="187,369.083,177,373.083,187,377.083,183,373.083" style="stroke: #A80036; stroke-width: 1.0;"/><line style="stroke: #A80036; stroke-width: 1.5;" x1="165" x2="165" y1="341.083" y2="361.083"/><polygon fill="#A80036" points="161,351.083,165,361.083,169,351.083,165,355.083" style="stroke: #A80036; stroke-width: 1.0;"/><line style="stroke: #A80036; stroke-width: 1.5;" x1="165" x2="165" y1="234.8838" y2="258.4727"/><polygon fill="#A80036" points="161,248.4727,165,258.4727,169,248.4727,165,252.4727" style="stroke: #A80036; stroke-width: 1.0;"/><line style="stroke: #A80036; stroke-width: 1.5;" x1="165" x2="165" y1="122.1406" y2="146.6182"/><polygon fill="#A80036" points="161,136.6182,165,146.6182,169,136.6182,165,140.6182" style="stroke: #A80036; stroke-width: 1.0;"/><line style="stroke: #A80036; stroke-width: 1.5;" x1="217.5" x2="318" y1="110.1406" y2="110.1406"/><polygon fill="#A80036" points="314,244.8838,318,254.8838,322,244.8838,318,248.8838" style="stroke: #A80036; stroke-width: 1.5;"/><line style="stroke: #A80036; stroke-width: 1.5;" x1="318" x2="318" y1="110.1406" y2="417.083"/><line style="stroke: #A80036; stroke-width: 1.5;" x1="318" x2="177" y1="417.083" y2="417.083"/><polygon fill="#A80036" points="187,413.083,177,417.083,187,421.083,183,417.083" style="stroke: #A80036; stroke-width: 1.0;"/><line style="stroke: #A80036; stroke-width: 1.5;" x1="165" x2="165" y1="385.083" y2="405.083"/><polygon fill="#A80036" points="161,395.083,165,405.083,169,395.083,165,399.083" style="stroke: #A80036; stroke-width: 1.0;"/><line style="stroke: #A80036; stroke-width: 1.5;" x1="165" x2="165" y1="51.1992" y2="98.1406"/><polygon fill="#A80036" points="161,88.1406,165,98.1406,169,88.1406,165,92.1406" style="stroke: #A80036; stroke-width: 1.0;"/><line style="stroke: #A80036; stroke-width: 1.5;" x1="165" x2="165" y1="429.083" y2="461.083"/><polygon fill="#A80036" points="161,451.083,165,461.083,169,451.083,165,455.083" style="stroke: #A80036; stroke-width: 1.0;"/><!--
@startuml Definition_Disposable.dispose
    title Definition: Disposable#dispose()

    start
        partition SyncTask {
            if (!this._disposed) then (yes)
                :this._disposing = true]
                :[[./Definition_Disposable.disposeInternal.svg this.disposeInternal()]] |
                if (!this._disposed && this._disposing) then (yes)
                    :throw new Error(Errors.BROKEN_CHAIN)]
                endif
            endif
        }
    end
@enduml

PlantUML version 1.2019.09(Mon Aug 26 19:19:51 EEST 2019)
(GPL source distribution)
Java Runtime: OpenJDK Runtime Environment
JVM: OpenJDK 64-Bit Server VM
Java Version: 13.0.1+9
Operating System: Mac OS X
OS Version: 10.15.3
Default Encoding: UTF-8
Language: en
Country: UA
--></g></svg>