<?xml version="1.0" encoding="UTF-8" standalone="no"?><svg xmlns="http://www.w3.org/2000/svg" xmlns:xlink="http://www.w3.org/1999/xlink" contentScriptType="application/ecmascript" contentStyleType="text/css" height="372px" preserveAspectRatio="none" style="width:612px;height:372px;" version="1.1" viewBox="0 0 612 372" width="612px" zoomAndPan="magnify"><defs><filter height="300%" id="f14ssdtobkh262" width="300%" x="-1" y="-1"><feGaussianBlur result="blurOut" stdDeviation="2.0"/><feColorMatrix in="blurOut" result="blurOut2" type="matrix" values="0 0 0 0 0 0 0 0 0 0 0 0 0 0 0 0 0 0 .4 0"/><feOffset dx="4.0" dy="4.0" in="blurOut2" result="blurOut3"/><feBlend in="SourceGraphic" in2="blurOut3" mode="normal"/></filter></defs><g><text fill="#000000" font-family="sans-serif" font-size="18" lengthAdjust="spacing" textLength="355" x="127.5" y="26.708">Definition: Disposable#disposeInternal()</text><ellipse cx="310.5" cy="40.9531" fill="#000000" filter="url(#f14ssdtobkh262)" rx="10" ry="10" style="stroke:none;stroke-width:1.0;"/><rect fill="#FFFFFF" filter="url(#f14ssdtobkh262)" height="254.2031" style="stroke:#000000;stroke-width:2.0;" width="584" x="11" y="60.9531"/><path d="M87,60.9531 L87,70.25 L77,80.25 L11,80.25 " fill="none" style="stroke:#000000;stroke-width:2.0;"/><text fill="#000000" font-family="sans-serif" font-size="14" lengthAdjust="spacing" textLength="66" x="14" y="74.9482">SyncTask</text><polygon fill="#FEFECE" filter="url(#f14ssdtobkh262)" points="267.5,97.25,353.5,97.25,365.5,109.25,353.5,121.25,267.5,121.25,255.5,109.25,267.5,97.25" style="stroke:#A80036;stroke-width:1.5;"/><text fill="#000000" font-family="sans-serif" font-size="11" lengthAdjust="spacing" textLength="86" x="267.5" y="113.0581">this._disposing</text><text fill="#000000" font-family="sans-serif" font-size="11" lengthAdjust="spacing" textLength="20" x="235.5" y="106.6558">yes</text><text fill="#000000" font-family="sans-serif" font-size="11" lengthAdjust="spacing" textLength="14" x="365.5" y="106.6558">no</text><rect fill="#FEFECE" filter="url(#f14ssdtobkh262)" height="33.9688" style="stroke:#A80036;stroke-width:1.5;" width="154" x="88.5" y="131.25"/><text fill="#000000" font-family="sans-serif" font-size="12" lengthAdjust="spacing" textLength="134" x="98.5" y="152.3887">this._disposed = true</text><rect fill="#FEFECE" filter="url(#f14ssdtobkh262)" height="33.9688" style="stroke:#A80036;stroke-width:1.5;" width="285" x="23" y="185.2188"/><text fill="#000000" font-family="sans-serif" font-size="12" lengthAdjust="spacing" textLength="174" x="33" y="206.3574">internal.undisposed.delete(</text><a href="./Definition_Monitorable.getUuid.svg" target="_top" title="./Definition_Monitorable.getUuid.svg" xlink:actuate="onRequest" xlink:href="./Definition_Monitorable.getUuid.svg" xlink:show="new" xlink:title="./Definition_Monitorable.getUuid.svg" xlink:type="simple"><text fill="#0000FF" font-family="sans-serif" font-size="12" lengthAdjust="spacing" text-decoration="underline" textLength="86" x="207" y="206.3574">this.getUuid()</text></a><text fill="#000000" font-family="sans-serif" font-size="12" lengthAdjust="spacing" textLength="5" x="293" y="206.3574">)</text><rect fill="#FEFECE" filter="url(#f14ssdtobkh262)" height="33.9688" style="stroke:#A80036;stroke-width:1.5;" width="161" x="85" y="239.1875"/><text fill="#000000" font-family="sans-serif" font-size="12" lengthAdjust="spacing" textLength="141" x="95" y="260.3262">this._disposing = false</text><rect fill="#FEFECE" filter="url(#f14ssdtobkh262)" height="33.9688" style="stroke:#A80036;stroke-width:1.5;" width="255" x="328" y="131.25"/><text fill="#000000" font-family="sans-serif" font-size="12" lengthAdjust="spacing" textLength="235" x="338" y="152.3887">throw new Error(Errors.MANUAL_CALL)</text><polygon fill="#FEFECE" filter="url(#f14ssdtobkh262)" points="310.5,279.1563,322.5,291.1563,310.5,303.1563,298.5,291.1563,310.5,279.1563" style="stroke:#A80036;stroke-width:1.5;"/><ellipse cx="310.5" cy="345.1563" fill="#FFFFFF" filter="url(#f14ssdtobkh262)" rx="10" ry="10" style="stroke:#000000;stroke-width:1.5;"/><line style="stroke:#000000;stroke-width:2.5;" x1="304.3128" x2="316.6872" y1="338.9691" y2="351.3434"/><line style="stroke:#000000;stroke-width:2.5;" x1="316.6872" x2="304.3128" y1="338.9691" y2="351.3434"/><line style="stroke:#A80036;stroke-width:1.5;" x1="165.5" x2="165.5" y1="165.2188" y2="185.2188"/><polygon fill="#A80036" points="161.5,175.2188,165.5,185.2188,169.5,175.2188,165.5,179.2188" style="stroke:#A80036;stroke-width:1.0;"/><line style="stroke:#A80036;stroke-width:1.5;" x1="165.5" x2="165.5" y1="219.1875" y2="239.1875"/><polygon fill="#A80036" points="161.5,229.1875,165.5,239.1875,169.5,229.1875,165.5,233.1875" style="stroke:#A80036;stroke-width:1.0;"/><line style="stroke:#A80036;stroke-width:1.5;" x1="255.5" x2="165.5" y1="109.25" y2="109.25"/><line style="stroke:#A80036;stroke-width:1.5;" x1="165.5" x2="165.5" y1="109.25" y2="131.25"/><polygon fill="#A80036" points="161.5,121.25,165.5,131.25,169.5,121.25,165.5,125.25" style="stroke:#A80036;stroke-width:1.0;"/><line style="stroke:#A80036;stroke-width:1.5;" x1="365.5" x2="455.5" y1="109.25" y2="109.25"/><line style="stroke:#A80036;stroke-width:1.5;" x1="455.5" x2="455.5" y1="109.25" y2="131.25"/><polygon fill="#A80036" points="451.5,121.25,455.5,131.25,459.5,121.25,455.5,125.25" style="stroke:#A80036;stroke-width:1.0;"/><line style="stroke:#A80036;stroke-width:1.5;" x1="165.5" x2="165.5" y1="273.1563" y2="291.1563"/><line style="stroke:#A80036;stroke-width:1.5;" x1="165.5" x2="298.5" y1="291.1563" y2="291.1563"/><polygon fill="#A80036" points="288.5,287.1563,298.5,291.1563,288.5,295.1563,292.5,291.1563" style="stroke:#A80036;stroke-width:1.0;"/><line style="stroke:#A80036;stroke-width:1.5;" x1="455.5" x2="455.5" y1="165.2188" y2="291.1563"/><line style="stroke:#A80036;stroke-width:1.5;" x1="455.5" x2="322.5" y1="291.1563" y2="291.1563"/><polygon fill="#A80036" points="332.5,287.1563,322.5,291.1563,332.5,295.1563,328.5,291.1563" style="stroke:#A80036;stroke-width:1.0;"/><line style="stroke:#A80036;stroke-width:1.5;" x1="310.5" x2="310.5" y1="50.9531" y2="97.25"/><polygon fill="#A80036" points="306.5,87.25,310.5,97.25,314.5,87.25,310.5,91.25" style="stroke:#A80036;stroke-width:1.0;"/><line style="stroke:#A80036;stroke-width:1.5;" x1="310.5" x2="310.5" y1="303.1563" y2="335.1563"/><polygon fill="#A80036" points="306.5,325.1563,310.5,335.1563,314.5,325.1563,310.5,329.1563" style="stroke:#A80036;stroke-width:1.0;"/><!--MD5=[d00d92b1b7baadea8ecabc60ff065f7f]
@startuml Definition_Disposable.disposeInternal
    title Definition: Disposable#disposeInternal()

    start
        partition SyncTask {
            if (this._disposing) then (yes)
                :this._disposed = true]
                :internal.undisposed.delete([[./Definition_Monitorable.getUuid.svg this.getUuid()]])]
                :this._disposing = false]
            else (no)
                :throw new Error(Errors.MANUAL_CALL)]
            endif
        }
    end
@enduml

PlantUML version 1.2021.00(Sun Jan 10 12:25:05 EET 2021)
(GPL source distribution)
Java Runtime: OpenJDK Runtime Environment
JVM: OpenJDK 64-Bit Server VM
Default Encoding: UTF-8
Language: en
Country: US
--></g></svg>