<?xml version="1.0" encoding="UTF-8" standalone="no"?><svg xmlns="http://www.w3.org/2000/svg" xmlns:xlink="http://www.w3.org/1999/xlink" contentScriptType="application/ecmascript" contentStyleType="text/css" height="529px" preserveAspectRatio="none" style="width:498px;height:529px;" version="1.1" viewBox="0 0 498 529" width="498px" zoomAndPan="magnify"><defs><filter height="300%" id="f1nykbxklqmp9v" width="300%" x="-1" y="-1"><feGaussianBlur result="blurOut" stdDeviation="2.0"/><feColorMatrix in="blurOut" result="blurOut2" type="matrix" values="0 0 0 0 0 0 0 0 0 0 0 0 0 0 0 0 0 0 .4 0"/><feOffset dx="4.0" dy="4.0" in="blurOut2" result="blurOut3"/><feBlend in="SourceGraphic" in2="blurOut3" mode="normal"/></filter></defs><g><text fill="#000000" font-family="sans-serif" font-size="18" lengthAdjust="spacingAndGlyphs" textLength="256" x="120" y="27.4023">Definition: exports.getStack()</text><ellipse cx="279" cy="41.1992" fill="#000000" filter="url(#f1nykbxklqmp9v)" rx="10" ry="10" style="stroke: none; stroke-width: 1.0;"/><rect fill="#FFFFFF" filter="url(#f1nykbxklqmp9v)" height="417.2852" style="stroke: #000000; stroke-width: 2.0;" width="477" x="10" y="61.6523"/><path d="M83,62.6523 L83,71.1406 L73,81.1406 L10,81.1406 " fill="none" style="stroke: #000000; stroke-width: 2.0;"/><text fill="#000000" font-family="sans-serif" font-size="14" lengthAdjust="spacingAndGlyphs" textLength="63" x="13" y="76.1875">SyncTask</text><polygon fill="#FEFECE" filter="url(#f1nykbxklqmp9v)" points="178,98.1406,380,98.1406,392,110.1406,380,122.1406,178,122.1406,166,110.1406,178,98.1406" style="stroke: #A80036; stroke-width: 1.5;"/><text fill="#000000" font-family="sans-serif" font-size="11" lengthAdjust="spacingAndGlyphs" textLength="202" x="178" y="114.2979">env.npm_package_config_monitoring</text><text fill="#000000" font-family="sans-serif" font-size="11" lengthAdjust="spacingAndGlyphs" textLength="18" x="148" y="107.8203">yes</text><text fill="#000000" font-family="sans-serif" font-size="11" lengthAdjust="spacingAndGlyphs" textLength="14" x="392" y="107.8203">no</text><rect fill="#FEFECE" filter="url(#f1nykbxklqmp9v)" height="34.1328" style="stroke: #A80036; stroke-width: 1.5;" width="188" x="62" y="132.1406"/><text fill="#000000" font-family="sans-serif" font-size="12" lengthAdjust="spacingAndGlyphs" textLength="89" x="72" y="153.7422">let stack = new</text><a href="https://developer.mozilla.org/en-US/docs/Web/JavaScript/Reference/Global_Objects/Error/Stack" target="_top" xlink:actuate="onRequest" xlink:show="new" xlink:title="https://developer.mozilla.org/en-US/docs/Web/JavaScript/Reference/Global_Objects/Error/Stack" xlink:type="simple"><text fill="#0000FF" font-family="sans-serif" font-size="12" lengthAdjust="spacingAndGlyphs" text-decoration="underline" textLength="71" x="165" y="153.7422">Error().stack</text></a><text fill="#000000" font-family="sans-serif" font-size="12" lengthAdjust="spacingAndGlyphs" textLength="0" x="240" y="153.7422"/><rect fill="#FEFECE" filter="url(#f1nykbxklqmp9v)" height="34.1328" style="stroke: #A80036; stroke-width: 1.5;" width="252" x="30" y="186.2734"/><text fill="#000000" font-family="sans-serif" font-size="12" lengthAdjust="spacingAndGlyphs" textLength="228" x="40" y="207.875">stack = stack.replace('Error', 'Created')</text><rect fill="#FEFECE" filter="url(#f1nykbxklqmp9v)" height="34.1328" style="stroke: #A80036; stroke-width: 1.5;" width="222" x="45" y="240.4063"/><text fill="#000000" font-family="sans-serif" font-size="12" lengthAdjust="spacingAndGlyphs" textLength="198" x="55" y="262.0078">const stackArray = stack.split('\n')</text><rect fill="#FEFECE" filter="url(#f1nykbxklqmp9v)" height="34.1328" style="stroke: #A80036; stroke-width: 1.5;" width="154" x="79" y="294.5391"/><text fill="#000000" font-family="sans-serif" font-size="12" lengthAdjust="spacingAndGlyphs" textLength="130" x="89" y="316.1406">stackArray.splice(1, 1)</text><rect fill="#FEFECE" filter="url(#f1nykbxklqmp9v)" height="34.1328" style="stroke: #A80036; stroke-width: 1.5;" width="181" x="65.5" y="348.6719"/><text fill="#000000" font-family="sans-serif" font-size="12" lengthAdjust="spacingAndGlyphs" textLength="161" x="75.5" y="370.2734">stack = stackArray.join('\n')</text><rect fill="#FEFECE" filter="url(#f1nykbxklqmp9v)" height="34.1328" style="stroke: #A80036; stroke-width: 1.5;" width="146" x="329" y="132.1406"/><text fill="#000000" font-family="sans-serif" font-size="12" lengthAdjust="spacingAndGlyphs" textLength="122" x="339" y="153.7422">let stack = 'disabled'</text><polygon fill="#FEFECE" filter="url(#f1nykbxklqmp9v)" points="279,388.8047,291,400.8047,279,412.8047,267,400.8047,279,388.8047" style="stroke: #A80036; stroke-width: 1.5;"/><polygon fill="#FEFECE" filter="url(#f1nykbxklqmp9v)" points="244.5,432.8047,323.5,432.8047,313.5,466.9375,234.5,466.9375" style="stroke: #A80036; stroke-width: 1.5;"/><text fill="#000000" font-family="sans-serif" font-size="12" lengthAdjust="spacingAndGlyphs" textLength="69" x="244.5" y="454.4063">return stack</text><ellipse cx="279" cy="508.9375" fill="#FFFFFF" filter="url(#f1nykbxklqmp9v)" rx="10" ry="10" style="stroke: #000000; stroke-width: 1.5;"/><line style="stroke: #000000; stroke-width: 2.5;" x1="272.8128" x2="285.1872" y1="502.7503" y2="515.1247"/><line style="stroke: #000000; stroke-width: 2.5;" x1="285.1872" x2="272.8128" y1="502.7503" y2="515.1247"/><line style="stroke: #A80036; stroke-width: 1.5;" x1="156" x2="156" y1="166.2734" y2="186.2734"/><polygon fill="#A80036" points="152,176.2734,156,186.2734,160,176.2734,156,180.2734" style="stroke: #A80036; stroke-width: 1.0;"/><line style="stroke: #A80036; stroke-width: 1.5;" x1="156" x2="156" y1="220.4063" y2="240.4063"/><polygon fill="#A80036" points="152,230.4063,156,240.4063,160,230.4063,156,234.4063" style="stroke: #A80036; stroke-width: 1.0;"/><line style="stroke: #A80036; stroke-width: 1.5;" x1="156" x2="156" y1="274.5391" y2="294.5391"/><polygon fill="#A80036" points="152,284.5391,156,294.5391,160,284.5391,156,288.5391" style="stroke: #A80036; stroke-width: 1.0;"/><line style="stroke: #A80036; stroke-width: 1.5;" x1="156" x2="156" y1="328.6719" y2="348.6719"/><polygon fill="#A80036" points="152,338.6719,156,348.6719,160,338.6719,156,342.6719" style="stroke: #A80036; stroke-width: 1.0;"/><line style="stroke: #A80036; stroke-width: 1.5;" x1="166" x2="156" y1="110.1406" y2="110.1406"/><line style="stroke: #A80036; stroke-width: 1.5;" x1="156" x2="156" y1="110.1406" y2="132.1406"/><polygon fill="#A80036" points="152,122.1406,156,132.1406,160,122.1406,156,126.1406" style="stroke: #A80036; stroke-width: 1.0;"/><line style="stroke: #A80036; stroke-width: 1.5;" x1="392" x2="402" y1="110.1406" y2="110.1406"/><line style="stroke: #A80036; stroke-width: 1.5;" x1="402" x2="402" y1="110.1406" y2="132.1406"/><polygon fill="#A80036" points="398,122.1406,402,132.1406,406,122.1406,402,126.1406" style="stroke: #A80036; stroke-width: 1.0;"/><line style="stroke: #A80036; stroke-width: 1.5;" x1="156" x2="156" y1="382.8047" y2="400.8047"/><line style="stroke: #A80036; stroke-width: 1.5;" x1="156" x2="267" y1="400.8047" y2="400.8047"/><polygon fill="#A80036" points="257,396.8047,267,400.8047,257,404.8047,261,400.8047" style="stroke: #A80036; stroke-width: 1.0;"/><line style="stroke: #A80036; stroke-width: 1.5;" x1="402" x2="402" y1="166.2734" y2="400.8047"/><line style="stroke: #A80036; stroke-width: 1.5;" x1="402" x2="291" y1="400.8047" y2="400.8047"/><polygon fill="#A80036" points="301,396.8047,291,400.8047,301,404.8047,297,400.8047" style="stroke: #A80036; stroke-width: 1.0;"/><line style="stroke: #A80036; stroke-width: 1.5;" x1="279" x2="279" y1="412.8047" y2="432.8047"/><polygon fill="#A80036" points="275,422.8047,279,432.8047,283,422.8047,279,426.8047" style="stroke: #A80036; stroke-width: 1.0;"/><line style="stroke: #A80036; stroke-width: 1.5;" x1="279" x2="279" y1="51.1992" y2="98.1406"/><polygon fill="#A80036" points="275,88.1406,279,98.1406,283,88.1406,279,92.1406" style="stroke: #A80036; stroke-width: 1.0;"/><line style="stroke: #A80036; stroke-width: 1.5;" x1="279" x2="279" y1="466.9375" y2="498.9375"/><polygon fill="#A80036" points="275,488.9375,279,498.9375,283,488.9375,279,492.9375" style="stroke: #A80036; stroke-width: 1.0;"/><!--
@startuml Definition_exports.getStack
    title Definition: exports.getStack()

    start
        partition SyncTask {
            if (env.npm_package_config_monitoring) then (yes)
                :let stack = new [[https://developer.mozilla.org/en-US/docs/Web/JavaScript/Reference/Global_Objects/Error/Stack Error().stack]] ]
                :stack = stack.replace('Error', 'Created') ]
                :const stackArray = stack.split('\\n') ]
                :stackArray.splice(1, 1) ]
                :stack = stackArray.join('\\n')]
            else (no)
                :let stack = 'disabled' ]
            endif
                :return stack/
        }
    end
@enduml

PlantUML version 1.2019.09(Mon Aug 26 19:19:51 EEST 2019)
(GPL source distribution)
Java Runtime: OpenJDK Runtime Environment
JVM: OpenJDK 64-Bit Server VM
Java Version: 13.0.1+9
Operating System: Mac OS X
OS Version: 10.15.3
Default Encoding: UTF-8
Language: en
Country: UA
--></g></svg>