<?xml version="1.0" encoding="UTF-8" standalone="no"?><svg xmlns="http://www.w3.org/2000/svg" xmlns:xlink="http://www.w3.org/1999/xlink" contentScriptType="application/ecmascript" contentStyleType="text/css" height="400px" preserveAspectRatio="none" style="width:351px;height:400px;" version="1.1" viewBox="0 0 351 400" width="351px" zoomAndPan="magnify"><defs><filter height="300%" id="f1nbl35u4t32nc" width="300%" x="-1" y="-1"><feGaussianBlur result="blurOut" stdDeviation="2.0"/><feColorMatrix in="blurOut" result="blurOut2" type="matrix" values="0 0 0 0 0 0 0 0 0 0 0 0 0 0 0 0 0 0 .4 0"/><feOffset dx="4.0" dy="4.0" in="blurOut2" result="blurOut3"/><feBlend in="SourceGraphic" in2="blurOut3" mode="normal"/></filter></defs><g><text fill="#000000" font-family="sans-serif" font-size="18" lengthAdjust="spacing" textLength="268" x="40.5" y="26.708">Definition: Node#isConnected</text><ellipse cx="172.5" cy="40.9531" fill="#000000" filter="url(#f1nbl35u4t32nc)" rx="10" ry="10" style="stroke:none;stroke-width:1.0;"/><rect fill="#FFFFFF" filter="url(#f1nbl35u4t32nc)" height="282.6055" style="stroke:#000000;stroke-width:2.0;" width="323" x="11" y="60.9531"/><path d="M87,60.9531 L87,70.25 L77,80.25 L11,80.25 " fill="none" style="stroke:#000000;stroke-width:2.0;"/><text fill="#000000" font-family="sans-serif" font-size="14" lengthAdjust="spacing" textLength="66" x="14" y="74.9482">SyncTask</text><rect fill="#FEFECE" filter="url(#f1nbl35u4t32nc)" height="33.9688" style="stroke:#A80036;stroke-width:1.5;" width="303" x="21" y="97.25"/><text fill="#000000" font-family="sans-serif" font-size="12" lengthAdjust="spacing" textLength="283" x="31" y="118.3887">const index = internal.nodesIndices.get(this)</text><polygon fill="#FEFECE" filter="url(#f1nbl35u4t32nc)" points="138,199.6211,217,199.6211,207,233.5898,128,233.5898" style="stroke:#A80036;stroke-width:1.5;"/><text fill="#000000" font-family="sans-serif" font-size="12" lengthAdjust="spacing" textLength="69" x="138" y="220.7598">return true</text><polygon fill="#FEFECE" filter="url(#f1nbl35u4t32nc)" points="70,151.2188,275,151.2188,287,163.2188,275,175.2188,70,175.2188,58,163.2188,70,151.2188" style="stroke:#A80036;stroke-width:1.5;"/><text fill="#000000" font-family="sans-serif" font-size="11" lengthAdjust="spacing" textLength="20" x="176.5" y="185.4292">yes</text><text fill="#000000" font-family="sans-serif" font-size="11" lengthAdjust="spacing" textLength="205" x="70" y="167.0269">index.parent || index.children.length</text><polygon fill="#FEFECE" filter="url(#f1nbl35u4t32nc)" points="172.5,253.5898,184.5,265.5898,172.5,277.5898,160.5,265.5898,172.5,253.5898" style="stroke:#A80036;stroke-width:1.5;"/><polygon fill="#FEFECE" filter="url(#f1nbl35u4t32nc)" points="136,297.5898,219,297.5898,209,331.5586,126,331.5586" style="stroke:#A80036;stroke-width:1.5;"/><text fill="#000000" font-family="sans-serif" font-size="12" lengthAdjust="spacing" textLength="73" x="136" y="318.7285">return false</text><ellipse cx="172.5" cy="373.5586" fill="#FFFFFF" filter="url(#f1nbl35u4t32nc)" rx="10" ry="10" style="stroke:#000000;stroke-width:1.5;"/><line style="stroke:#000000;stroke-width:2.5;" x1="166.3128" x2="178.6872" y1="367.3714" y2="379.7458"/><line style="stroke:#000000;stroke-width:2.5;" x1="178.6872" x2="166.3128" y1="367.3714" y2="379.7458"/><line style="stroke:#A80036;stroke-width:1.5;" x1="172.5" x2="172.5" y1="175.2188" y2="199.6211"/><polygon fill="#A80036" points="168.5,189.6211,172.5,199.6211,176.5,189.6211,172.5,193.6211" style="stroke:#A80036;stroke-width:1.0;"/><line style="stroke:#A80036;stroke-width:1.5;" x1="287" x2="299" y1="163.2188" y2="163.2188"/><polygon fill="#A80036" points="295,206.6055,299,216.6055,303,206.6055,299,210.6055" style="stroke:#A80036;stroke-width:1.5;"/><line style="stroke:#A80036;stroke-width:1.5;" x1="299" x2="299" y1="163.2188" y2="265.5898"/><line style="stroke:#A80036;stroke-width:1.5;" x1="299" x2="184.5" y1="265.5898" y2="265.5898"/><polygon fill="#A80036" points="194.5,261.5898,184.5,265.5898,194.5,269.5898,190.5,265.5898" style="stroke:#A80036;stroke-width:1.0;"/><line style="stroke:#A80036;stroke-width:1.5;" x1="172.5" x2="172.5" y1="233.5898" y2="253.5898"/><polygon fill="#A80036" points="168.5,243.5898,172.5,253.5898,176.5,243.5898,172.5,247.5898" style="stroke:#A80036;stroke-width:1.0;"/><line style="stroke:#A80036;stroke-width:1.5;" x1="172.5" x2="172.5" y1="131.2188" y2="151.2188"/><polygon fill="#A80036" points="168.5,141.2188,172.5,151.2188,176.5,141.2188,172.5,145.2188" style="stroke:#A80036;stroke-width:1.0;"/><line style="stroke:#A80036;stroke-width:1.5;" x1="172.5" x2="172.5" y1="277.5898" y2="297.5898"/><polygon fill="#A80036" points="168.5,287.5898,172.5,297.5898,176.5,287.5898,172.5,291.5898" style="stroke:#A80036;stroke-width:1.0;"/><line style="stroke:#A80036;stroke-width:1.5;" x1="172.5" x2="172.5" y1="50.9531" y2="97.25"/><polygon fill="#A80036" points="168.5,87.25,172.5,97.25,176.5,87.25,172.5,91.25" style="stroke:#A80036;stroke-width:1.0;"/><line style="stroke:#A80036;stroke-width:1.5;" x1="172.5" x2="172.5" y1="331.5586" y2="363.5586"/><polygon fill="#A80036" points="168.5,353.5586,172.5,363.5586,176.5,353.5586,172.5,357.5586" style="stroke:#A80036;stroke-width:1.0;"/><!--MD5=[7b08cb0a1265e7124f0fdc2e6e08820a]
@startuml Definition_Node.isConnected
    title Definition: Node#isConnected

    start
        partition SyncTask {
            :const index = internal.nodesIndices.get(this)]
            if (index.parent || index.children.length) then (yes)
                :return true/
            endif
            :return false/
        }
    end
@enduml

PlantUML version 1.2021.00(Sun Jan 10 12:25:05 EET 2021)
(GPL source distribution)
Java Runtime: OpenJDK Runtime Environment
JVM: OpenJDK 64-Bit Server VM
Default Encoding: UTF-8
Language: en
Country: US
--></g></svg>