<?xml version="1.0" encoding="UTF-8" standalone="no"?><svg xmlns="http://www.w3.org/2000/svg" xmlns:xlink="http://www.w3.org/1999/xlink" contentScriptType="application/ecmascript" contentStyleType="text/css" height="287px" preserveAspectRatio="none" style="width:319px;height:287px;" version="1.1" viewBox="0 0 319 287" width="319px" zoomAndPan="magnify"><defs><filter height="300%" id="f1vyng7tir5ppx" width="300%" x="-1" y="-1"><feGaussianBlur result="blurOut" stdDeviation="2.0"/><feColorMatrix in="blurOut" result="blurOut2" type="matrix" values="0 0 0 0 0 0 0 0 0 0 0 0 0 0 0 0 0 0 .4 0"/><feOffset dx="4.0" dy="4.0" in="blurOut2" result="blurOut3"/><feBlend in="SourceGraphic" in2="blurOut3" mode="normal"/></filter></defs><g><text fill="#000000" font-family="sans-serif" font-size="18" lengthAdjust="spacingAndGlyphs" textLength="295" x="12" y="27.4023">Definition: Event#preventDefault()</text><ellipse cx="157" cy="41.1992" fill="#000000" filter="url(#f1vyng7tir5ppx)" rx="10" ry="10" style="stroke: none; stroke-width: 1.0;"/><rect fill="#FFFFFF" filter="url(#f1vyng7tir5ppx)" height="175.0986" style="stroke: #000000; stroke-width: 2.0;" width="238" x="41" y="61.6523"/><path d="M114,62.6523 L114,71.1406 L104,81.1406 L41,81.1406 " fill="none" style="stroke: #000000; stroke-width: 2.0;"/><text fill="#000000" font-family="sans-serif" font-size="14" lengthAdjust="spacingAndGlyphs" textLength="63" x="44" y="76.1875">SyncTask</text><rect fill="#FEFECE" filter="url(#f1vyng7tir5ppx)" height="34.1328" style="stroke: #A80036; stroke-width: 1.5;" width="192" x="61" y="146.6182"/><text fill="#000000" font-family="sans-serif" font-size="12" lengthAdjust="spacingAndGlyphs" textLength="172" x="71" y="168.2197">this._binder.prevented = true</text><polygon fill="#FEFECE" filter="url(#f1vyng7tir5ppx)" points="102,98.1406,212,98.1406,224,110.1406,212,122.1406,102,122.1406,90,110.1406,102,98.1406" style="stroke: #A80036; stroke-width: 1.5;"/><text fill="#000000" font-family="sans-serif" font-size="11" lengthAdjust="spacingAndGlyphs" textLength="18" x="161" y="132.7754">yes</text><text fill="#000000" font-family="sans-serif" font-size="11" lengthAdjust="spacingAndGlyphs" textLength="110" x="102" y="114.2979">!this._binder.passive</text><polygon fill="#FEFECE" filter="url(#f1vyng7tir5ppx)" points="157,200.751,169,212.751,157,224.751,145,212.751,157,200.751" style="stroke: #A80036; stroke-width: 1.5;"/><ellipse cx="157" cy="266.751" fill="#FFFFFF" filter="url(#f1vyng7tir5ppx)" rx="10" ry="10" style="stroke: #000000; stroke-width: 1.5;"/><line style="stroke: #000000; stroke-width: 2.5;" x1="150.8128" x2="163.1872" y1="260.5638" y2="272.9382"/><line style="stroke: #000000; stroke-width: 2.5;" x1="163.1872" x2="150.8128" y1="260.5638" y2="272.9382"/><line style="stroke: #A80036; stroke-width: 1.5;" x1="157" x2="157" y1="122.1406" y2="146.6182"/><polygon fill="#A80036" points="153,136.6182,157,146.6182,161,136.6182,157,140.6182" style="stroke: #A80036; stroke-width: 1.0;"/><line style="stroke: #A80036; stroke-width: 1.5;" x1="224" x2="263" y1="110.1406" y2="110.1406"/><polygon fill="#A80036" points="259,153.6846,263,163.6846,267,153.6846,263,157.6846" style="stroke: #A80036; stroke-width: 1.5;"/><line style="stroke: #A80036; stroke-width: 1.5;" x1="263" x2="263" y1="110.1406" y2="212.751"/><line style="stroke: #A80036; stroke-width: 1.5;" x1="263" x2="169" y1="212.751" y2="212.751"/><polygon fill="#A80036" points="179,208.751,169,212.751,179,216.751,175,212.751" style="stroke: #A80036; stroke-width: 1.0;"/><line style="stroke: #A80036; stroke-width: 1.5;" x1="157" x2="157" y1="180.751" y2="200.751"/><polygon fill="#A80036" points="153,190.751,157,200.751,161,190.751,157,194.751" style="stroke: #A80036; stroke-width: 1.0;"/><line style="stroke: #A80036; stroke-width: 1.5;" x1="157" x2="157" y1="51.1992" y2="98.1406"/><polygon fill="#A80036" points="153,88.1406,157,98.1406,161,88.1406,157,92.1406" style="stroke: #A80036; stroke-width: 1.0;"/><line style="stroke: #A80036; stroke-width: 1.5;" x1="157" x2="157" y1="224.751" y2="256.751"/><polygon fill="#A80036" points="153,246.751,157,256.751,161,246.751,157,250.751" style="stroke: #A80036; stroke-width: 1.0;"/><!--
@startuml Definition_Event.preventDefault
    title Definition: Event#preventDefault()

    start
        partition SyncTask {
            if (!this._binder.passive) then (yes)
                :this._binder.prevented = true]
            endif
        }
    end
@enduml

PlantUML version 1.2019.09(Mon Aug 26 19:19:51 EEST 2019)
(GPL source distribution)
Java Runtime: OpenJDK Runtime Environment
JVM: OpenJDK 64-Bit Server VM
Java Version: 13.0.1+9
Operating System: Mac OS X
OS Version: 10.15.3
Default Encoding: UTF-8
Language: en
Country: UA
--></g></svg>