<?xml version="1.0" encoding="UTF-8" standalone="no"?><svg xmlns="http://www.w3.org/2000/svg" xmlns:xlink="http://www.w3.org/1999/xlink" contentScriptType="application/ecmascript" contentStyleType="text/css" height="396px" preserveAspectRatio="none" style="width:381px;height:396px;" version="1.1" viewBox="0 0 381 396" width="381px" zoomAndPan="magnify"><defs><filter height="300%" id="f1iunrcgu66uy1" width="300%" x="-1" y="-1"><feGaussianBlur result="blurOut" stdDeviation="2.0"/><feColorMatrix in="blurOut" result="blurOut2" type="matrix" values="0 0 0 0 0 0 0 0 0 0 0 0 0 0 0 0 0 0 .4 0"/><feOffset dx="4.0" dy="4.0" in="blurOut2" result="blurOut3"/><feBlend in="SourceGraphic" in2="blurOut3" mode="normal"/></filter></defs><g><text fill="#000000" font-family="sans-serif" font-size="18" lengthAdjust="spacingAndGlyphs" textLength="232" x="73.5" y="27.4023">Definition: Node#firstChild</text><ellipse cx="190" cy="41.1992" fill="#000000" filter="url(#f1iunrcgu66uy1)" rx="10" ry="10" style="stroke: none; stroke-width: 1.0;"/><rect fill="#FFFFFF" filter="url(#f1iunrcgu66uy1)" height="283.3643" style="stroke: #000000; stroke-width: 2.0;" width="360" x="10" y="61.6523"/><path d="M83,62.6523 L83,71.1406 L73,81.1406 L10,81.1406 " fill="none" style="stroke: #000000; stroke-width: 2.0;"/><text fill="#000000" font-family="sans-serif" font-size="14" lengthAdjust="spacingAndGlyphs" textLength="63" x="13" y="76.1875">SyncTask</text><rect fill="#FEFECE" filter="url(#f1iunrcgu66uy1)" height="34.1328" style="stroke: #A80036; stroke-width: 1.5;" width="340" x="20" y="98.1406"/><text fill="#000000" font-family="sans-serif" font-size="12" lengthAdjust="spacingAndGlyphs" textLength="320" x="30" y="119.7422">const children = internal.nodesIndices.get(this).children</text><polygon fill="#FEFECE" filter="url(#f1iunrcgu66uy1)" points="137.5,200.751,252.5,200.751,242.5,234.8838,127.5,234.8838" style="stroke: #A80036; stroke-width: 1.5;"/><text fill="#000000" font-family="sans-serif" font-size="12" lengthAdjust="spacingAndGlyphs" textLength="101" x="137.5" y="222.3525">return children[0]</text><polygon fill="#FEFECE" filter="url(#f1iunrcgu66uy1)" points="138.5,152.2734,241.5,152.2734,253.5,164.2734,241.5,176.2734,138.5,176.2734,126.5,164.2734,138.5,152.2734" style="stroke: #A80036; stroke-width: 1.5;"/><text fill="#000000" font-family="sans-serif" font-size="11" lengthAdjust="spacingAndGlyphs" textLength="18" x="194" y="186.9082">yes</text><text fill="#000000" font-family="sans-serif" font-size="11" lengthAdjust="spacingAndGlyphs" textLength="103" x="138.5" y="168.4307">children.length &gt; 0</text><polygon fill="#FEFECE" filter="url(#f1iunrcgu66uy1)" points="190,254.8838,202,266.8838,190,278.8838,178,266.8838,190,254.8838" style="stroke: #A80036; stroke-width: 1.5;"/><polygon fill="#FEFECE" filter="url(#f1iunrcgu66uy1)" points="160.5,298.8838,229.5,298.8838,219.5,333.0166,150.5,333.0166" style="stroke: #A80036; stroke-width: 1.5;"/><text fill="#000000" font-family="sans-serif" font-size="12" lengthAdjust="spacingAndGlyphs" textLength="59" x="160.5" y="320.4854">return null</text><ellipse cx="190" cy="375.0166" fill="#FFFFFF" filter="url(#f1iunrcgu66uy1)" rx="10" ry="10" style="stroke: #000000; stroke-width: 1.5;"/><line style="stroke: #000000; stroke-width: 2.5;" x1="183.8128" x2="196.1872" y1="368.8294" y2="381.2038"/><line style="stroke: #000000; stroke-width: 2.5;" x1="196.1872" x2="183.8128" y1="368.8294" y2="381.2038"/><line style="stroke: #A80036; stroke-width: 1.5;" x1="190" x2="190" y1="176.2734" y2="200.751"/><polygon fill="#A80036" points="186,190.751,190,200.751,194,190.751,190,194.751" style="stroke: #A80036; stroke-width: 1.0;"/><line style="stroke: #A80036; stroke-width: 1.5;" x1="253.5" x2="265.5" y1="164.2734" y2="164.2734"/><polygon fill="#A80036" points="261.5,207.8174,265.5,217.8174,269.5,207.8174,265.5,211.8174" style="stroke: #A80036; stroke-width: 1.5;"/><line style="stroke: #A80036; stroke-width: 1.5;" x1="265.5" x2="265.5" y1="164.2734" y2="266.8838"/><line style="stroke: #A80036; stroke-width: 1.5;" x1="265.5" x2="202" y1="266.8838" y2="266.8838"/><polygon fill="#A80036" points="212,262.8838,202,266.8838,212,270.8838,208,266.8838" style="stroke: #A80036; stroke-width: 1.0;"/><line style="stroke: #A80036; stroke-width: 1.5;" x1="190" x2="190" y1="234.8838" y2="254.8838"/><polygon fill="#A80036" points="186,244.8838,190,254.8838,194,244.8838,190,248.8838" style="stroke: #A80036; stroke-width: 1.0;"/><line style="stroke: #A80036; stroke-width: 1.5;" x1="190" x2="190" y1="132.2734" y2="152.2734"/><polygon fill="#A80036" points="186,142.2734,190,152.2734,194,142.2734,190,146.2734" style="stroke: #A80036; stroke-width: 1.0;"/><line style="stroke: #A80036; stroke-width: 1.5;" x1="190" x2="190" y1="278.8838" y2="298.8838"/><polygon fill="#A80036" points="186,288.8838,190,298.8838,194,288.8838,190,292.8838" style="stroke: #A80036; stroke-width: 1.0;"/><line style="stroke: #A80036; stroke-width: 1.5;" x1="190" x2="190" y1="51.1992" y2="98.1406"/><polygon fill="#A80036" points="186,88.1406,190,98.1406,194,88.1406,190,92.1406" style="stroke: #A80036; stroke-width: 1.0;"/><line style="stroke: #A80036; stroke-width: 1.5;" x1="190" x2="190" y1="333.0166" y2="365.0166"/><polygon fill="#A80036" points="186,355.0166,190,365.0166,194,355.0166,190,359.0166" style="stroke: #A80036; stroke-width: 1.0;"/><!--
@startuml Definition_Node.firstChild
    title Definition: Node#firstChild

    start
        partition SyncTask {
            :const children = internal.nodesIndices.get(this).children]
            if (children.length > 0) then (yes)
                :return children[0] /
            endif
            :return null/
        }
    end
@enduml

PlantUML version 1.2019.09(Mon Aug 26 19:19:51 EEST 2019)
(GPL source distribution)
Java Runtime: OpenJDK Runtime Environment
JVM: OpenJDK 64-Bit Server VM
Java Version: 13.0.1+9
Operating System: Mac OS X
OS Version: 10.15.3
Default Encoding: UTF-8
Language: en
Country: UA
--></g></svg>