<?xml version="1.0" encoding="UTF-8" standalone="no"?><svg xmlns="http://www.w3.org/2000/svg" xmlns:xlink="http://www.w3.org/1999/xlink" contentScriptType="application/ecmascript" contentStyleType="text/css" height="341px" preserveAspectRatio="none" style="width:337px;height:341px;" version="1.1" viewBox="0 0 337 341" width="337px" zoomAndPan="magnify"><defs><filter height="300%" id="f19qistujmx17c" width="300%" x="-1" y="-1"><feGaussianBlur result="blurOut" stdDeviation="2.0"/><feColorMatrix in="blurOut" result="blurOut2" type="matrix" values="0 0 0 0 0 0 0 0 0 0 0 0 0 0 0 0 0 0 .4 0"/><feOffset dx="4.0" dy="4.0" in="blurOut2" result="blurOut3"/><feBlend in="SourceGraphic" in2="blurOut3" mode="normal"/></filter></defs><g><text fill="#000000" font-family="sans-serif" font-size="18" lengthAdjust="spacingAndGlyphs" textLength="313" x="12" y="27.4023">Definition: Event#setBinderInternal()</text><ellipse cx="160" cy="41.1992" fill="#000000" filter="url(#f19qistujmx17c)" rx="10" ry="10" style="stroke: none; stroke-width: 1.0;"/><rect fill="#FFFFFF" filter="url(#f19qistujmx17c)" height="229.2314" style="stroke: #000000; stroke-width: 2.0;" width="244" x="47" y="61.6523"/><path d="M120,62.6523 L120,71.1406 L110,81.1406 L47,81.1406 " fill="none" style="stroke: #000000; stroke-width: 2.0;"/><text fill="#000000" font-family="sans-serif" font-size="14" lengthAdjust="spacingAndGlyphs" textLength="63" x="50" y="76.1875">SyncTask</text><polygon fill="#FEFECE" filter="url(#f19qistujmx17c)" points="141,98.1406,189,98.1406,179,132.2734,131,132.2734" style="stroke: #A80036; stroke-width: 1.5;"/><text fill="#000000" font-family="sans-serif" font-size="12" lengthAdjust="spacingAndGlyphs" textLength="38" x="141" y="119.7422">binder</text><rect fill="#FEFECE" filter="url(#f19qistujmx17c)" height="34.1328" style="stroke: #A80036; stroke-width: 1.5;" width="144" x="88" y="200.751"/><text fill="#000000" font-family="sans-serif" font-size="12" lengthAdjust="spacingAndGlyphs" textLength="124" x="98" y="222.3525">this._binder = binder</text><polygon fill="#FEFECE" filter="url(#f19qistujmx17c)" points="69,152.2734,251,152.2734,263,164.2734,251,176.2734,69,176.2734,57,164.2734,69,152.2734" style="stroke: #A80036; stroke-width: 1.5;"/><text fill="#000000" font-family="sans-serif" font-size="11" lengthAdjust="spacingAndGlyphs" textLength="18" x="164" y="186.9082">yes</text><text fill="#000000" font-family="sans-serif" font-size="11" lengthAdjust="spacingAndGlyphs" textLength="182" x="69" y="168.4307">dispatcher instanceof EventBinder</text><polygon fill="#FEFECE" filter="url(#f19qistujmx17c)" points="160,254.8838,172,266.8838,160,278.8838,148,266.8838,160,254.8838" style="stroke: #A80036; stroke-width: 1.5;"/><ellipse cx="160" cy="320.8838" fill="#FFFFFF" filter="url(#f19qistujmx17c)" rx="10" ry="10" style="stroke: #000000; stroke-width: 1.5;"/><line style="stroke: #000000; stroke-width: 2.5;" x1="153.8128" x2="166.1872" y1="314.6966" y2="327.071"/><line style="stroke: #000000; stroke-width: 2.5;" x1="166.1872" x2="153.8128" y1="314.6966" y2="327.071"/><line style="stroke: #A80036; stroke-width: 1.5;" x1="160" x2="160" y1="176.2734" y2="200.751"/><polygon fill="#A80036" points="156,190.751,160,200.751,164,190.751,160,194.751" style="stroke: #A80036; stroke-width: 1.0;"/><line style="stroke: #A80036; stroke-width: 1.5;" x1="263" x2="275" y1="164.2734" y2="164.2734"/><polygon fill="#A80036" points="271,207.8174,275,217.8174,279,207.8174,275,211.8174" style="stroke: #A80036; stroke-width: 1.5;"/><line style="stroke: #A80036; stroke-width: 1.5;" x1="275" x2="275" y1="164.2734" y2="266.8838"/><line style="stroke: #A80036; stroke-width: 1.5;" x1="275" x2="172" y1="266.8838" y2="266.8838"/><polygon fill="#A80036" points="182,262.8838,172,266.8838,182,270.8838,178,266.8838" style="stroke: #A80036; stroke-width: 1.0;"/><line style="stroke: #A80036; stroke-width: 1.5;" x1="160" x2="160" y1="234.8838" y2="254.8838"/><polygon fill="#A80036" points="156,244.8838,160,254.8838,164,244.8838,160,248.8838" style="stroke: #A80036; stroke-width: 1.0;"/><line style="stroke: #A80036; stroke-width: 1.5;" x1="160" x2="160" y1="132.2734" y2="152.2734"/><polygon fill="#A80036" points="156,142.2734,160,152.2734,164,142.2734,160,146.2734" style="stroke: #A80036; stroke-width: 1.0;"/><line style="stroke: #A80036; stroke-width: 1.5;" x1="160" x2="160" y1="51.1992" y2="98.1406"/><polygon fill="#A80036" points="156,88.1406,160,98.1406,164,88.1406,160,92.1406" style="stroke: #A80036; stroke-width: 1.0;"/><line style="stroke: #A80036; stroke-width: 1.5;" x1="160" x2="160" y1="278.8838" y2="310.8838"/><polygon fill="#A80036" points="156,300.8838,160,310.8838,164,300.8838,160,304.8838" style="stroke: #A80036; stroke-width: 1.0;"/><!--
@startuml Definition_Event.setBinderInternal
    title Definition: Event#setBinderInternal()

    start
        partition SyncTask {
            :binder/
            if (dispatcher instanceof EventBinder) then (yes)
                :this._binder = binder]
            endif
        }
    end
@enduml

PlantUML version 1.2019.09(Mon Aug 26 19:19:51 EEST 2019)
(GPL source distribution)
Java Runtime: OpenJDK Runtime Environment
JVM: OpenJDK 64-Bit Server VM
Java Version: 13.0.1+9
Operating System: Mac OS X
OS Version: 10.15.3
Default Encoding: UTF-8
Language: en
Country: UA
--></g></svg>