<?xml version="1.0" encoding="UTF-8" standalone="no"?><svg xmlns="http://www.w3.org/2000/svg" xmlns:xlink="http://www.w3.org/1999/xlink" contentScriptType="application/ecmascript" contentStyleType="text/css" height="411px" preserveAspectRatio="none" style="width:344px;height:411px;" version="1.1" viewBox="0 0 344 411" width="344px" zoomAndPan="magnify"><defs><filter height="300%" id="fowp10zfk7ebf" width="300%" x="-1" y="-1"><feGaussianBlur result="blurOut" stdDeviation="2.0"/><feColorMatrix in="blurOut" result="blurOut2" type="matrix" values="0 0 0 0 0 0 0 0 0 0 0 0 0 0 0 0 0 0 .4 0"/><feOffset dx="4.0" dy="4.0" in="blurOut2" result="blurOut3"/><feBlend in="SourceGraphic" in2="blurOut3" mode="normal"/></filter></defs><g><text fill="#000000" font-family="sans-serif" font-size="18" lengthAdjust="spacingAndGlyphs" textLength="320" x="12" y="27.4023">Definition: EventBinder#constructor()</text><ellipse cx="172.5" cy="41.1992" fill="#000000" filter="url(#fowp10zfk7ebf)" rx="10" ry="10" style="stroke: none; stroke-width: 1.0;"/><rect fill="#FFFFFF" filter="url(#fowp10zfk7ebf)" height="299.1523" style="stroke: #000000; stroke-width: 2.0;" width="220" x="62.5" y="61.6523"/><path d="M135.5,62.6523 L135.5,71.1406 L125.5,81.1406 L62.5,81.1406 " fill="none" style="stroke: #000000; stroke-width: 2.0;"/><text fill="#000000" font-family="sans-serif" font-size="14" lengthAdjust="spacingAndGlyphs" textLength="63" x="65.5" y="76.1875">SyncTask</text><polygon fill="#FEFECE" filter="url(#fowp10zfk7ebf)" points="109.5,98.1406,245.5,98.1406,235.5,132.2734,99.5,132.2734" style="stroke: #A80036; stroke-width: 1.5;"/><text fill="#000000" font-family="sans-serif" font-size="12" lengthAdjust="spacingAndGlyphs" textLength="126" x="109.5" y="119.7422">phase, target, current</text><rect fill="#FEFECE" filter="url(#fowp10zfk7ebf)" height="34.1328" style="stroke: #A80036; stroke-width: 1.5;" width="200" x="72.5" y="152.2734"/><text fill="#000000" font-family="sans-serif" font-size="12" lengthAdjust="spacingAndGlyphs" textLength="180" x="82.5" y="173.875">this.phase = EventPhase.NONE</text><rect fill="#FEFECE" filter="url(#fowp10zfk7ebf)" height="34.1328" style="stroke: #A80036; stroke-width: 1.5;" width="148" x="98.5" y="206.4063"/><text fill="#000000" font-family="sans-serif" font-size="12" lengthAdjust="spacingAndGlyphs" textLength="128" x="108.5" y="228.0078">this.prevented = false</text><rect fill="#FEFECE" filter="url(#fowp10zfk7ebf)" height="34.1328" style="stroke: #A80036; stroke-width: 1.5;" width="130" x="107.5" y="260.5391"/><text fill="#000000" font-family="sans-serif" font-size="12" lengthAdjust="spacingAndGlyphs" textLength="110" x="117.5" y="282.1406">this.target = target</text><rect fill="#FEFECE" filter="url(#fowp10zfk7ebf)" height="34.1328" style="stroke: #A80036; stroke-width: 1.5;" width="144" x="100.5" y="314.6719"/><text fill="#000000" font-family="sans-serif" font-size="12" lengthAdjust="spacingAndGlyphs" textLength="124" x="110.5" y="336.2734">this.current = current</text><ellipse cx="172.5" cy="390.8047" fill="#FFFFFF" filter="url(#fowp10zfk7ebf)" rx="10" ry="10" style="stroke: #000000; stroke-width: 1.5;"/><line style="stroke: #000000; stroke-width: 2.5;" x1="166.3128" x2="178.6872" y1="384.6175" y2="396.9919"/><line style="stroke: #000000; stroke-width: 2.5;" x1="178.6872" x2="166.3128" y1="384.6175" y2="396.9919"/><line style="stroke: #A80036; stroke-width: 1.5;" x1="172.5" x2="172.5" y1="132.2734" y2="152.2734"/><polygon fill="#A80036" points="168.5,142.2734,172.5,152.2734,176.5,142.2734,172.5,146.2734" style="stroke: #A80036; stroke-width: 1.0;"/><line style="stroke: #A80036; stroke-width: 1.5;" x1="172.5" x2="172.5" y1="186.4063" y2="206.4063"/><polygon fill="#A80036" points="168.5,196.4063,172.5,206.4063,176.5,196.4063,172.5,200.4063" style="stroke: #A80036; stroke-width: 1.0;"/><line style="stroke: #A80036; stroke-width: 1.5;" x1="172.5" x2="172.5" y1="240.5391" y2="260.5391"/><polygon fill="#A80036" points="168.5,250.5391,172.5,260.5391,176.5,250.5391,172.5,254.5391" style="stroke: #A80036; stroke-width: 1.0;"/><line style="stroke: #A80036; stroke-width: 1.5;" x1="172.5" x2="172.5" y1="294.6719" y2="314.6719"/><polygon fill="#A80036" points="168.5,304.6719,172.5,314.6719,176.5,304.6719,172.5,308.6719" style="stroke: #A80036; stroke-width: 1.0;"/><line style="stroke: #A80036; stroke-width: 1.5;" x1="172.5" x2="172.5" y1="51.1992" y2="98.1406"/><polygon fill="#A80036" points="168.5,88.1406,172.5,98.1406,176.5,88.1406,172.5,92.1406" style="stroke: #A80036; stroke-width: 1.0;"/><line style="stroke: #A80036; stroke-width: 1.5;" x1="172.5" x2="172.5" y1="348.8047" y2="380.8047"/><polygon fill="#A80036" points="168.5,370.8047,172.5,380.8047,176.5,370.8047,172.5,374.8047" style="stroke: #A80036; stroke-width: 1.0;"/><!--
@startuml Definition_EventBinder.constructor
    title Definition: EventBinder#constructor()

    start
        partition SyncTask {
            :phase, target, current/
            :this.phase = EventPhase.NONE]
            :this.prevented = false]
            :this.target = target]
            :this.current = current]
        }
    end
@enduml

PlantUML version 1.2019.09(Mon Aug 26 19:19:51 EEST 2019)
(GPL source distribution)
Java Runtime: OpenJDK Runtime Environment
JVM: OpenJDK 64-Bit Server VM
Java Version: 13.0.1+9
Operating System: Mac OS X
OS Version: 10.15.3
Default Encoding: UTF-8
Language: en
Country: UA
--></g></svg>