<?xml version="1.0" encoding="UTF-8" standalone="no"?><svg xmlns="http://www.w3.org/2000/svg" xmlns:xlink="http://www.w3.org/1999/xlink" contentScriptType="application/ecmascript" contentStyleType="text/css" height="639px" preserveAspectRatio="none" style="width:433px;height:639px;" version="1.1" viewBox="0 0 433 639" width="433px" zoomAndPan="magnify"><defs><filter height="300%" id="fddamrlg9lefu" width="300%" x="-1" y="-1"><feGaussianBlur result="blurOut" stdDeviation="2.0"/><feColorMatrix in="blurOut" result="blurOut2" type="matrix" values="0 0 0 0 0 0 0 0 0 0 0 0 0 0 0 0 0 0 .4 0"/><feOffset dx="4.0" dy="4.0" in="blurOut2" result="blurOut3"/><feBlend in="SourceGraphic" in2="blurOut3" mode="normal"/></filter></defs><g><text fill="#000000" font-family="sans-serif" font-size="18" lengthAdjust="spacingAndGlyphs" textLength="294" x="68.5" y="27.4023">Definition: internal.getAncestors()</text><ellipse cx="219" cy="41.1992" fill="#000000" filter="url(#fddamrlg9lefu)" rx="10" ry="10" style="stroke: none; stroke-width: 1.0;"/><rect fill="#FFFFFF" filter="url(#fddamrlg9lefu)" height="526.7627" style="stroke: #000000; stroke-width: 2.0;" width="412" x="10" y="61.6523"/><path d="M83,62.6523 L83,71.1406 L73,81.1406 L10,81.1406 " fill="none" style="stroke: #000000; stroke-width: 2.0;"/><text fill="#000000" font-family="sans-serif" font-size="14" lengthAdjust="spacingAndGlyphs" textLength="63" x="13" y="76.1875">SyncTask</text><polygon fill="#FEFECE" filter="url(#fddamrlg9lefu)" points="204.5,98.1406,243.5,98.1406,233.5,132.2734,194.5,132.2734" style="stroke: #A80036; stroke-width: 1.5;"/><text fill="#000000" font-family="sans-serif" font-size="12" lengthAdjust="spacingAndGlyphs" textLength="29" x="204.5" y="119.7422">node</text><rect fill="#FEFECE" filter="url(#fddamrlg9lefu)" height="34.1328" style="stroke: #A80036; stroke-width: 1.5;" width="123" x="157.5" y="152.2734"/><text fill="#000000" font-family="sans-serif" font-size="12" lengthAdjust="spacingAndGlyphs" textLength="99" x="167.5" y="173.875">let ancestors = []</text><rect fill="#FEFECE" filter="url(#fddamrlg9lefu)" height="34.1328" style="stroke: #A80036; stroke-width: 1.5;" width="328" x="55" y="254.8838"/><text fill="#000000" font-family="sans-serif" font-size="12" lengthAdjust="spacingAndGlyphs" textLength="308" x="65" y="276.4854">let ancestor = internal.nodesIndices.get(node).parent</text><rect fill="#FEFECE" filter="url(#fddamrlg9lefu)" height="34.1328" style="stroke: #A80036; stroke-width: 1.5;" width="168" x="135" y="353.0166"/><text fill="#000000" font-family="sans-serif" font-size="12" lengthAdjust="spacingAndGlyphs" textLength="144" x="145" y="374.6182">ancestors.push(ancestor)</text><rect fill="#FEFECE" filter="url(#fddamrlg9lefu)" height="34.1328" style="stroke: #A80036; stroke-width: 1.5;" width="330" x="54" y="422.1494"/><text fill="#000000" font-family="sans-serif" font-size="12" lengthAdjust="spacingAndGlyphs" textLength="310" x="64" y="443.751">ancestor = internal.nodesIndices.get(ancestor).parent</text><polygon fill="#FEFECE" filter="url(#fddamrlg9lefu)" points="176.5,309.0166,261.5,309.0166,273.5,321.0166,261.5,333.0166,176.5,333.0166,164.5,321.0166,176.5,309.0166" style="stroke: #A80036; stroke-width: 1.5;"/><text fill="#000000" font-family="sans-serif" font-size="11" lengthAdjust="spacingAndGlyphs" textLength="85" x="176.5" y="325.1738">ancestor != null</text><polygon fill="#FEFECE" filter="url(#fddamrlg9lefu)" points="160.5,206.4063,277.5,206.4063,289.5,218.4063,277.5,230.4063,160.5,230.4063,148.5,218.4063,160.5,206.4063" style="stroke: #A80036; stroke-width: 1.5;"/><text fill="#000000" font-family="sans-serif" font-size="11" lengthAdjust="spacingAndGlyphs" textLength="18" x="223" y="241.041">yes</text><text fill="#000000" font-family="sans-serif" font-size="11" lengthAdjust="spacingAndGlyphs" textLength="117" x="160.5" y="222.5635">node instanceof Node</text><polygon fill="#FEFECE" filter="url(#fddamrlg9lefu)" points="219,498.2822,231,510.2822,219,522.2822,207,510.2822,219,498.2822" style="stroke: #A80036; stroke-width: 1.5;"/><polygon fill="#FEFECE" filter="url(#fddamrlg9lefu)" points="170,542.2822,278,542.2822,268,576.415,160,576.415" style="stroke: #A80036; stroke-width: 1.5;"/><text fill="#000000" font-family="sans-serif" font-size="12" lengthAdjust="spacingAndGlyphs" textLength="94" x="170" y="563.8838">return ancestors</text><ellipse cx="219" cy="618.415" fill="#FFFFFF" filter="url(#fddamrlg9lefu)" rx="10" ry="10" style="stroke: #000000; stroke-width: 1.5;"/><line style="stroke: #000000; stroke-width: 2.5;" x1="212.8128" x2="225.1872" y1="612.2279" y2="624.6022"/><line style="stroke: #000000; stroke-width: 2.5;" x1="225.1872" x2="212.8128" y1="612.2279" y2="624.6022"/><line style="stroke: #A80036; stroke-width: 1.5;" x1="219" x2="219" y1="132.2734" y2="152.2734"/><polygon fill="#A80036" points="215,142.2734,219,152.2734,223,142.2734,219,146.2734" style="stroke: #A80036; stroke-width: 1.0;"/><line style="stroke: #A80036; stroke-width: 1.5;" x1="219" x2="219" y1="387.1494" y2="422.1494"/><polygon fill="#A80036" points="215,412.1494,219,422.1494,223,412.1494,219,416.1494" style="stroke: #A80036; stroke-width: 1.0;"/><line style="stroke: #A80036; stroke-width: 1.5;" x1="219" x2="219" y1="333.0166" y2="353.0166"/><polygon fill="#A80036" points="215,343.0166,219,353.0166,223,343.0166,219,347.0166" style="stroke: #A80036; stroke-width: 1.0;"/><line style="stroke: #A80036; stroke-width: 1.5;" x1="219" x2="219" y1="456.2822" y2="466.2822"/><line style="stroke: #A80036; stroke-width: 1.5;" x1="219" x2="396" y1="466.2822" y2="466.2822"/><polygon fill="#A80036" points="392,402.6494,396,392.6494,400,402.6494,396,398.6494" style="stroke: #A80036; stroke-width: 1.5;"/><line style="stroke: #A80036; stroke-width: 1.5;" x1="396" x2="396" y1="321.0166" y2="466.2822"/><line style="stroke: #A80036; stroke-width: 1.5;" x1="396" x2="273.5" y1="321.0166" y2="321.0166"/><polygon fill="#A80036" points="283.5,317.0166,273.5,321.0166,283.5,325.0166,279.5,321.0166" style="stroke: #A80036; stroke-width: 1.0;"/><line style="stroke: #A80036; stroke-width: 1.5;" x1="164.5" x2="42" y1="321.0166" y2="321.0166"/><polygon fill="#A80036" points="38,388.6494,42,398.6494,46,388.6494,42,392.6494" style="stroke: #A80036; stroke-width: 1.5;"/><line style="stroke: #A80036; stroke-width: 1.5;" x1="42" x2="42" y1="321.0166" y2="478.2822"/><line style="stroke: #A80036; stroke-width: 1.5;" x1="42" x2="219" y1="478.2822" y2="478.2822"/><line style="stroke: #A80036; stroke-width: 1.5;" x1="219" x2="219" y1="478.2822" y2="498.2822"/><polygon fill="#A80036" points="215,488.2822,219,498.2822,223,488.2822,219,492.2822" style="stroke: #A80036; stroke-width: 1.0;"/><line style="stroke: #A80036; stroke-width: 1.5;" x1="219" x2="219" y1="289.0166" y2="309.0166"/><polygon fill="#A80036" points="215,299.0166,219,309.0166,223,299.0166,219,303.0166" style="stroke: #A80036; stroke-width: 1.0;"/><line style="stroke: #A80036; stroke-width: 1.5;" x1="219" x2="219" y1="230.4063" y2="254.8838"/><polygon fill="#A80036" points="215,244.8838,219,254.8838,223,244.8838,219,248.8838" style="stroke: #A80036; stroke-width: 1.0;"/><line style="stroke: #A80036; stroke-width: 1.5;" x1="289.5" x2="406" y1="218.4063" y2="218.4063"/><polygon fill="#A80036" points="402,348.083,406,358.083,410,348.083,406,352.083" style="stroke: #A80036; stroke-width: 1.5;"/><line style="stroke: #A80036; stroke-width: 1.5;" x1="406" x2="406" y1="218.4063" y2="510.2822"/><line style="stroke: #A80036; stroke-width: 1.5;" x1="406" x2="231" y1="510.2822" y2="510.2822"/><polygon fill="#A80036" points="241,506.2822,231,510.2822,241,514.2822,237,510.2822" style="stroke: #A80036; stroke-width: 1.0;"/><line style="stroke: #A80036; stroke-width: 1.5;" x1="219" x2="219" y1="186.4063" y2="206.4063"/><polygon fill="#A80036" points="215,196.4063,219,206.4063,223,196.4063,219,200.4063" style="stroke: #A80036; stroke-width: 1.0;"/><line style="stroke: #A80036; stroke-width: 1.5;" x1="219" x2="219" y1="522.2822" y2="542.2822"/><polygon fill="#A80036" points="215,532.2822,219,542.2822,223,532.2822,219,536.2822" style="stroke: #A80036; stroke-width: 1.0;"/><line style="stroke: #A80036; stroke-width: 1.5;" x1="219" x2="219" y1="51.1992" y2="98.1406"/><polygon fill="#A80036" points="215,88.1406,219,98.1406,223,88.1406,219,92.1406" style="stroke: #A80036; stroke-width: 1.0;"/><line style="stroke: #A80036; stroke-width: 1.5;" x1="219" x2="219" y1="576.415" y2="608.415"/><polygon fill="#A80036" points="215,598.415,219,608.415,223,598.415,219,602.415" style="stroke: #A80036; stroke-width: 1.0;"/><!--
@startuml Definition_internal.getAncestors
    title Definition: internal.getAncestors()

    start
        partition SyncTask {
            :node/
            :let ancestors = [] ]
            if (node instanceof Node) then (yes)
                :let ancestor = internal.nodesIndices.get(node).parent]
                while (ancestor != null)
                    :ancestors.push(ancestor) ]
                    :ancestor = internal.nodesIndices.get(ancestor).parent]
                endwhile
            endif
            :return ancestors /
        }
    end
@enduml

PlantUML version 1.2019.09(Mon Aug 26 19:19:51 EEST 2019)
(GPL source distribution)
Java Runtime: OpenJDK Runtime Environment
JVM: OpenJDK 64-Bit Server VM
Java Version: 13.0.1+9
Operating System: Mac OS X
OS Version: 10.15.3
Default Encoding: UTF-8
Language: en
Country: UA
--></g></svg>