<?xml version="1.0" encoding="UTF-8" standalone="no"?><svg xmlns="http://www.w3.org/2000/svg" xmlns:xlink="http://www.w3.org/1999/xlink" contentScriptType="application/ecmascript" contentStyleType="text/css" height="524px" preserveAspectRatio="none" style="width:360px;height:524px;" version="1.1" viewBox="0 0 360 524" width="360px" zoomAndPan="magnify"><defs><filter height="300%" id="f1t0x8coo8jq3d" width="300%" x="-1" y="-1"><feGaussianBlur result="blurOut" stdDeviation="2.0"/><feColorMatrix in="blurOut" result="blurOut2" type="matrix" values="0 0 0 0 0 0 0 0 0 0 0 0 0 0 0 0 0 0 .4 0"/><feOffset dx="4.0" dy="4.0" in="blurOut2" result="blurOut3"/><feBlend in="SourceGraphic" in2="blurOut3" mode="normal"/></filter></defs><g><text fill="#000000" font-family="sans-serif" font-size="18" lengthAdjust="spacing" textLength="336" x="12" y="26.708">Definition: EventBinder#constructor()</text><ellipse cx="178" cy="40.9531" fill="#000000" filter="url(#f1t0x8coo8jq3d)" rx="10" ry="10" style="stroke:none;stroke-width:1.0;"/><rect fill="#FFFFFF" filter="url(#f1t0x8coo8jq3d)" height="406.0781" style="stroke:#000000;stroke-width:2.0;" width="237" x="59.5" y="60.9531"/><path d="M135.5,60.9531 L135.5,70.25 L125.5,80.25 L59.5,80.25 " fill="none" style="stroke:#000000;stroke-width:2.0;"/><text fill="#000000" font-family="sans-serif" font-size="14" lengthAdjust="spacing" textLength="66" x="62.5" y="74.9482">SyncTask</text><polygon fill="#FEFECE" filter="url(#f1t0x8coo8jq3d)" points="108,97.25,258,97.25,248,131.2188,98,131.2188" style="stroke:#A80036;stroke-width:1.5;"/><text fill="#000000" font-family="sans-serif" font-size="12" lengthAdjust="spacing" textLength="140" x="108" y="118.3887">phase, target, current</text><rect fill="#FEFECE" filter="url(#f1t0x8coo8jq3d)" height="33.9688" style="stroke:#A80036;stroke-width:1.5;" width="217" x="69.5" y="151.2188"/><text fill="#000000" font-family="sans-serif" font-size="12" lengthAdjust="spacing" textLength="197" x="79.5" y="172.3574">this.phase = EventPhase.NONE</text><rect fill="#FEFECE" filter="url(#f1t0x8coo8jq3d)" height="33.9688" style="stroke:#A80036;stroke-width:1.5;" width="142" x="107" y="205.1875"/><text fill="#000000" font-family="sans-serif" font-size="12" lengthAdjust="spacing" textLength="122" x="117" y="226.3262">this.passive = false</text><rect fill="#FEFECE" filter="url(#f1t0x8coo8jq3d)" height="33.9688" style="stroke:#A80036;stroke-width:1.5;" width="147" x="104.5" y="259.1563"/><text fill="#000000" font-family="sans-serif" font-size="12" lengthAdjust="spacing" textLength="127" x="114.5" y="280.2949">this.stopped = false</text><rect fill="#FEFECE" filter="url(#f1t0x8coo8jq3d)" height="33.9688" style="stroke:#A80036;stroke-width:1.5;" width="159" x="98.5" y="313.125"/><text fill="#000000" font-family="sans-serif" font-size="12" lengthAdjust="spacing" textLength="139" x="108.5" y="334.2637">this.prevented = false</text><rect fill="#FEFECE" filter="url(#f1t0x8coo8jq3d)" height="33.9688" style="stroke:#A80036;stroke-width:1.5;" width="143" x="106.5" y="367.0938"/><text fill="#000000" font-family="sans-serif" font-size="12" lengthAdjust="spacing" textLength="123" x="116.5" y="388.2324">this.target = target</text><rect fill="#FEFECE" filter="url(#f1t0x8coo8jq3d)" height="33.9688" style="stroke:#A80036;stroke-width:1.5;" width="157" x="99.5" y="421.0625"/><text fill="#000000" font-family="sans-serif" font-size="12" lengthAdjust="spacing" textLength="137" x="109.5" y="442.2012">this.current = current</text><ellipse cx="178" cy="497.0313" fill="#FFFFFF" filter="url(#f1t0x8coo8jq3d)" rx="10" ry="10" style="stroke:#000000;stroke-width:1.5;"/><line style="stroke:#000000;stroke-width:2.5;" x1="171.8128" x2="184.1872" y1="490.8441" y2="503.2184"/><line style="stroke:#000000;stroke-width:2.5;" x1="184.1872" x2="171.8128" y1="490.8441" y2="503.2184"/><line style="stroke:#A80036;stroke-width:1.5;" x1="178" x2="178" y1="131.2188" y2="151.2188"/><polygon fill="#A80036" points="174,141.2188,178,151.2188,182,141.2188,178,145.2188" style="stroke:#A80036;stroke-width:1.0;"/><line style="stroke:#A80036;stroke-width:1.5;" x1="178" x2="178" y1="185.1875" y2="205.1875"/><polygon fill="#A80036" points="174,195.1875,178,205.1875,182,195.1875,178,199.1875" style="stroke:#A80036;stroke-width:1.0;"/><line style="stroke:#A80036;stroke-width:1.5;" x1="178" x2="178" y1="239.1563" y2="259.1563"/><polygon fill="#A80036" points="174,249.1563,178,259.1563,182,249.1563,178,253.1563" style="stroke:#A80036;stroke-width:1.0;"/><line style="stroke:#A80036;stroke-width:1.5;" x1="178" x2="178" y1="293.125" y2="313.125"/><polygon fill="#A80036" points="174,303.125,178,313.125,182,303.125,178,307.125" style="stroke:#A80036;stroke-width:1.0;"/><line style="stroke:#A80036;stroke-width:1.5;" x1="178" x2="178" y1="347.0938" y2="367.0938"/><polygon fill="#A80036" points="174,357.0938,178,367.0938,182,357.0938,178,361.0938" style="stroke:#A80036;stroke-width:1.0;"/><line style="stroke:#A80036;stroke-width:1.5;" x1="178" x2="178" y1="401.0625" y2="421.0625"/><polygon fill="#A80036" points="174,411.0625,178,421.0625,182,411.0625,178,415.0625" style="stroke:#A80036;stroke-width:1.0;"/><line style="stroke:#A80036;stroke-width:1.5;" x1="178" x2="178" y1="50.9531" y2="97.25"/><polygon fill="#A80036" points="174,87.25,178,97.25,182,87.25,178,91.25" style="stroke:#A80036;stroke-width:1.0;"/><line style="stroke:#A80036;stroke-width:1.5;" x1="178" x2="178" y1="455.0313" y2="487.0313"/><polygon fill="#A80036" points="174,477.0313,178,487.0313,182,477.0313,178,481.0313" style="stroke:#A80036;stroke-width:1.0;"/><!--MD5=[e4cd7cc7ac93d24bc15454bcc08cc6b7]
@startuml Definition_EventBinder.constructor
    title Definition: EventBinder#constructor()

    start
        partition SyncTask {
            :phase, target, current/
            :this.phase = EventPhase.NONE]
            :this.passive = false]
            :this.stopped = false]
            :this.prevented = false]
            :this.target = target]
            :this.current = current]
        }
    end
@enduml

PlantUML version 1.2021.00(Sun Jan 10 12:25:05 EET 2021)
(GPL source distribution)
Java Runtime: OpenJDK Runtime Environment
JVM: OpenJDK 64-Bit Server VM
Default Encoding: UTF-8
Language: en
Country: US
--></g></svg>