<?xml version="1.0" encoding="UTF-8" standalone="no"?><svg xmlns="http://www.w3.org/2000/svg" xmlns:xlink="http://www.w3.org/1999/xlink" contentScriptType="application/ecmascript" contentStyleType="text/css" height="396px" preserveAspectRatio="none" style="width:317px;height:396px;" version="1.1" viewBox="0 0 317 396" width="317px" zoomAndPan="magnify"><defs><filter height="300%" id="f1nbl35u4t32nc" width="300%" x="-1" y="-1"><feGaussianBlur result="blurOut" stdDeviation="2.0"/><feColorMatrix in="blurOut" result="blurOut2" type="matrix" values="0 0 0 0 0 0 0 0 0 0 0 0 0 0 0 0 0 0 .4 0"/><feOffset dx="4.0" dy="4.0" in="blurOut2" result="blurOut3"/><feBlend in="SourceGraphic" in2="blurOut3" mode="normal"/></filter></defs><g><text fill="#000000" font-family="sans-serif" font-size="18" lengthAdjust="spacingAndGlyphs" textLength="259" x="28" y="27.4023">Definition: Node#isConnected</text><ellipse cx="158" cy="41.1992" fill="#000000" filter="url(#f1nbl35u4t32nc)" rx="10" ry="10" style="stroke: none; stroke-width: 1.0;"/><rect fill="#FFFFFF" filter="url(#f1nbl35u4t32nc)" height="283.3643" style="stroke: #000000; stroke-width: 2.0;" width="296" x="10" y="61.6523"/><path d="M83,62.6523 L83,71.1406 L73,81.1406 L10,81.1406 " fill="none" style="stroke: #000000; stroke-width: 2.0;"/><text fill="#000000" font-family="sans-serif" font-size="14" lengthAdjust="spacingAndGlyphs" textLength="63" x="13" y="76.1875">SyncTask</text><rect fill="#FEFECE" filter="url(#f1nbl35u4t32nc)" height="34.1328" style="stroke: #A80036; stroke-width: 1.5;" width="276" x="20" y="98.1406"/><text fill="#000000" font-family="sans-serif" font-size="12" lengthAdjust="spacingAndGlyphs" textLength="256" x="30" y="119.7422">const index = internal.nodesIndices.get(this)</text><polygon fill="#FEFECE" filter="url(#f1nbl35u4t32nc)" points="127,200.751,199,200.751,189,234.8838,117,234.8838" style="stroke: #A80036; stroke-width: 1.5;"/><text fill="#000000" font-family="sans-serif" font-size="12" lengthAdjust="spacingAndGlyphs" textLength="62" x="127" y="222.3525">return true</text><polygon fill="#FEFECE" filter="url(#f1nbl35u4t32nc)" points="60,152.2734,256,152.2734,268,164.2734,256,176.2734,60,176.2734,48,164.2734,60,152.2734" style="stroke: #A80036; stroke-width: 1.5;"/><text fill="#000000" font-family="sans-serif" font-size="11" lengthAdjust="spacingAndGlyphs" textLength="18" x="162" y="186.9082">yes</text><text fill="#000000" font-family="sans-serif" font-size="11" lengthAdjust="spacingAndGlyphs" textLength="196" x="60" y="168.4307">index.parent || index.children.length</text><polygon fill="#FEFECE" filter="url(#f1nbl35u4t32nc)" points="158,254.8838,170,266.8838,158,278.8838,146,266.8838,158,254.8838" style="stroke: #A80036; stroke-width: 1.5;"/><polygon fill="#FEFECE" filter="url(#f1nbl35u4t32nc)" points="125,298.8838,201,298.8838,191,333.0166,115,333.0166" style="stroke: #A80036; stroke-width: 1.5;"/><text fill="#000000" font-family="sans-serif" font-size="12" lengthAdjust="spacingAndGlyphs" textLength="66" x="125" y="320.4854">return false</text><ellipse cx="158" cy="375.0166" fill="#FFFFFF" filter="url(#f1nbl35u4t32nc)" rx="10" ry="10" style="stroke: #000000; stroke-width: 1.5;"/><line style="stroke: #000000; stroke-width: 2.5;" x1="151.8128" x2="164.1872" y1="368.8294" y2="381.2038"/><line style="stroke: #000000; stroke-width: 2.5;" x1="164.1872" x2="151.8128" y1="368.8294" y2="381.2038"/><line style="stroke: #A80036; stroke-width: 1.5;" x1="158" x2="158" y1="176.2734" y2="200.751"/><polygon fill="#A80036" points="154,190.751,158,200.751,162,190.751,158,194.751" style="stroke: #A80036; stroke-width: 1.0;"/><line style="stroke: #A80036; stroke-width: 1.5;" x1="268" x2="280" y1="164.2734" y2="164.2734"/><polygon fill="#A80036" points="276,207.8174,280,217.8174,284,207.8174,280,211.8174" style="stroke: #A80036; stroke-width: 1.5;"/><line style="stroke: #A80036; stroke-width: 1.5;" x1="280" x2="280" y1="164.2734" y2="266.8838"/><line style="stroke: #A80036; stroke-width: 1.5;" x1="280" x2="170" y1="266.8838" y2="266.8838"/><polygon fill="#A80036" points="180,262.8838,170,266.8838,180,270.8838,176,266.8838" style="stroke: #A80036; stroke-width: 1.0;"/><line style="stroke: #A80036; stroke-width: 1.5;" x1="158" x2="158" y1="234.8838" y2="254.8838"/><polygon fill="#A80036" points="154,244.8838,158,254.8838,162,244.8838,158,248.8838" style="stroke: #A80036; stroke-width: 1.0;"/><line style="stroke: #A80036; stroke-width: 1.5;" x1="158" x2="158" y1="132.2734" y2="152.2734"/><polygon fill="#A80036" points="154,142.2734,158,152.2734,162,142.2734,158,146.2734" style="stroke: #A80036; stroke-width: 1.0;"/><line style="stroke: #A80036; stroke-width: 1.5;" x1="158" x2="158" y1="278.8838" y2="298.8838"/><polygon fill="#A80036" points="154,288.8838,158,298.8838,162,288.8838,158,292.8838" style="stroke: #A80036; stroke-width: 1.0;"/><line style="stroke: #A80036; stroke-width: 1.5;" x1="158" x2="158" y1="51.1992" y2="98.1406"/><polygon fill="#A80036" points="154,88.1406,158,98.1406,162,88.1406,158,92.1406" style="stroke: #A80036; stroke-width: 1.0;"/><line style="stroke: #A80036; stroke-width: 1.5;" x1="158" x2="158" y1="333.0166" y2="365.0166"/><polygon fill="#A80036" points="154,355.0166,158,365.0166,162,355.0166,158,359.0166" style="stroke: #A80036; stroke-width: 1.0;"/><!--
@startuml Definition_Node.isConnected
    title Definition: Node#isConnected

    start
        partition SyncTask {
            :const index = internal.nodesIndices.get(this)]
            if (index.parent || index.children.length) then (yes)
                :return true/
            endif
            :return false/
        }
    end
@enduml

PlantUML version 1.2019.09(Mon Aug 26 19:19:51 EEST 2019)
(GPL source distribution)
Java Runtime: OpenJDK Runtime Environment
JVM: OpenJDK 64-Bit Server VM
Java Version: 13.0.1+9
Operating System: Mac OS X
OS Version: 10.15.3
Default Encoding: UTF-8
Language: en
Country: UA
--></g></svg>