<?xml version="1.0" encoding="UTF-8" standalone="no"?><svg xmlns="http://www.w3.org/2000/svg" xmlns:xlink="http://www.w3.org/1999/xlink" contentScriptType="application/ecmascript" contentStyleType="text/css" height="1378px" preserveAspectRatio="none" style="width:472px;height:1378px;" version="1.1" viewBox="0 0 472 1378" width="472px" zoomAndPan="magnify"><defs><filter height="300%" id="f1bvd2zkbojtkv" width="300%" x="-1" y="-1"><feGaussianBlur result="blurOut" stdDeviation="2.0"/><feColorMatrix in="blurOut" result="blurOut2" type="matrix" values="0 0 0 0 0 0 0 0 0 0 0 0 0 0 0 0 0 0 .4 0"/><feOffset dx="4.0" dy="4.0" in="blurOut2" result="blurOut3"/><feBlend in="SourceGraphic" in2="blurOut3" mode="normal"/></filter></defs><g><text fill="#000000" font-family="sans-serif" font-size="18" lengthAdjust="spacingAndGlyphs" textLength="301" x="84.5" y="27.4023">Definition: internal.dispatchEvent()</text><ellipse cx="229.5" cy="41.1992" fill="#000000" filter="url(#f1bvd2zkbojtkv)" rx="10" ry="10" style="stroke: none; stroke-width: 1.0;"/><rect fill="#FFFFFF" filter="url(#f1bvd2zkbojtkv)" height="1265.7012" style="stroke: #000000; stroke-width: 2.0;" width="451" x="10" y="61.6523"/><path d="M83,62.6523 L83,71.1406 L73,81.1406 L10,81.1406 " fill="none" style="stroke: #000000; stroke-width: 2.0;"/><text fill="#000000" font-family="sans-serif" font-size="14" lengthAdjust="spacingAndGlyphs" textLength="63" x="13" y="76.1875">SyncTask</text><polygon fill="#FEFECE" filter="url(#f1bvd2zkbojtkv)" points="193,98.1406,276,98.1406,266,132.2734,183,132.2734" style="stroke: #A80036; stroke-width: 1.5;"/><text fill="#000000" font-family="sans-serif" font-size="12" lengthAdjust="spacingAndGlyphs" textLength="73" x="193" y="119.7422">target, event</text><rect fill="#FEFECE" filter="url(#f1bvd2zkbojtkv)" height="34.1328" style="stroke: #A80036; stroke-width: 1.5;" width="294" x="82.5" y="152.2734"/><line style="stroke: #A80036; stroke-width: 1.5;" x1="87.5" x2="87.5" y1="152.2734" y2="186.4063"/><line style="stroke: #A80036; stroke-width: 1.5;" x1="371.5" x2="371.5" y1="152.2734" y2="186.4063"/><text fill="#000000" font-family="sans-serif" font-size="12" lengthAdjust="spacingAndGlyphs" textLength="154" x="92.5" y="173.875">const ancestors = internal.</text><a href="./Definition_internal.getAncestors.svg" target="_top" xlink:actuate="onRequest" xlink:show="new" xlink:title="./Definition_internal.getAncestors.svg" xlink:type="simple"><text fill="#0000FF" font-family="sans-serif" font-size="12" lengthAdjust="spacingAndGlyphs" text-decoration="underline" textLength="74" x="246.5" y="173.875">getAncestors</text></a><text fill="#000000" font-family="sans-serif" font-size="12" lengthAdjust="spacingAndGlyphs" textLength="42" x="320.5" y="173.875">(target)</text><rect fill="#FEFECE" filter="url(#f1bvd2zkbojtkv)" height="34.1328" style="stroke: #A80036; stroke-width: 1.5;" width="358" x="50.5" y="206.4063"/><text fill="#000000" font-family="sans-serif" font-size="12" lengthAdjust="spacingAndGlyphs" textLength="86" x="60.5" y="228.0078">const binder =</text><a href="./Definition_EventBinder.constructor.svg" target="_top" xlink:actuate="onRequest" xlink:show="new" xlink:title="./Definition_EventBinder.constructor.svg" xlink:type="simple"><text fill="#0000FF" font-family="sans-serif" font-size="12" lengthAdjust="spacingAndGlyphs" text-decoration="underline" textLength="95" x="150.5" y="228.0078">new EventBinder</text></a><text fill="#000000" font-family="sans-serif" font-size="12" lengthAdjust="spacingAndGlyphs" textLength="153" x="245.5" y="228.0078">(EventPhase.NONE, target)</text><rect fill="#FEFECE" filter="url(#f1bvd2zkbojtkv)" height="34.1328" style="stroke: #A80036; stroke-width: 1.5;" width="198" x="130.5" y="260.5391"/><line style="stroke: #A80036; stroke-width: 1.5;" x1="135.5" x2="135.5" y1="260.5391" y2="294.6719"/><line style="stroke: #A80036; stroke-width: 1.5;" x1="323.5" x2="323.5" y1="260.5391" y2="294.6719"/><text fill="#000000" font-family="sans-serif" font-size="12" lengthAdjust="spacingAndGlyphs" textLength="35" x="140.5" y="282.1406">event.</text><a href="./Definition_Event.setBinderInternal.svg" target="_top" xlink:actuate="onRequest" xlink:show="new" xlink:title="./Definition_Event.setBinderInternal.svg" xlink:type="simple"><text fill="#0000FF" font-family="sans-serif" font-size="12" lengthAdjust="spacingAndGlyphs" text-decoration="underline" textLength="97" x="175.5" y="282.1406">setBinderInternal</text></a><text fill="#000000" font-family="sans-serif" font-size="12" lengthAdjust="spacingAndGlyphs" textLength="46" x="272.5" y="282.1406">(binder)</text><rect fill="#FEFECE" filter="url(#f1bvd2zkbojtkv)" height="34.1328" style="stroke: #A80036; stroke-width: 1.5;" width="111" x="174" y="314.6719"/><text fill="#000000" font-family="sans-serif" font-size="12" lengthAdjust="spacingAndGlyphs" textLength="91" x="184" y="336.2734">let result = true</text><rect fill="#FEFECE" filter="url(#f1bvd2zkbojtkv)" height="34.1328" style="stroke: #A80036; stroke-width: 1.5;" width="79" x="190" y="368.8047"/><text fill="#000000" font-family="sans-serif" font-size="12" lengthAdjust="spacingAndGlyphs" textLength="59" x="200" y="390.4063">let current</text><rect fill="#FEFECE" filter="url(#f1bvd2zkbojtkv)" height="34.1328" style="stroke: #A80036; stroke-width: 1.5;" width="295" x="82" y="466.9375"/><text fill="#000000" font-family="sans-serif" font-size="12" lengthAdjust="spacingAndGlyphs" textLength="275" x="92" y="488.5391">binder.phase = EventPhase.CAPTURING_PHASE</text><rect fill="#FEFECE" filter="url(#f1bvd2zkbojtkv)" height="34.1328" style="stroke: #A80036; stroke-width: 1.5;" width="191" x="134" y="521.0703"/><text fill="#000000" font-family="sans-serif" font-size="12" lengthAdjust="spacingAndGlyphs" textLength="167" x="144" y="542.6719">binder.current = ancestors[i]</text><rect fill="#FEFECE" filter="url(#f1bvd2zkbojtkv)" height="34.1328" style="stroke: #A80036; stroke-width: 1.5;" width="363" x="48" y="575.2031"/><line style="stroke: #A80036; stroke-width: 1.5;" x1="53" x2="53" y1="575.2031" y2="609.3359"/><line style="stroke: #A80036; stroke-width: 1.5;" x1="406" x2="406" y1="575.2031" y2="609.3359"/><text fill="#000000" font-family="sans-serif" font-size="12" lengthAdjust="spacingAndGlyphs" textLength="97" x="58" y="596.8047">result = internal.</text><a href="./Definition_internal.fireListeners.svg" target="_top" xlink:actuate="onRequest" xlink:show="new" xlink:title="./Definition_internal.fireListeners.svg" xlink:type="simple"><text fill="#0000FF" font-family="sans-serif" font-size="12" lengthAdjust="spacingAndGlyphs" text-decoration="underline" textLength="70" x="155" y="596.8047">fireListeners</text></a><text fill="#000000" font-family="sans-serif" font-size="12" lengthAdjust="spacingAndGlyphs" textLength="172" x="225" y="596.8047">(binder, event, true) &amp;&amp; result</text><polygon fill="#FEFECE" filter="url(#f1bvd2zkbojtkv)" points="74,422.9375,385,422.9375,397,434.9375,385,446.9375,74,446.9375,62,434.9375,74,422.9375" style="stroke: #A80036; stroke-width: 1.5;"/><text fill="#000000" font-family="sans-serif" font-size="11" lengthAdjust="spacingAndGlyphs" textLength="311" x="74" y="439.0947">let i = ancestors.length - 1; !binder.stopped &amp;&amp; i &gt;= 0; i--</text><rect fill="#FEFECE" filter="url(#f1bvd2zkbojtkv)" height="34.1328" style="stroke: #A80036; stroke-width: 1.5;" width="254" x="102.5" y="699.8135"/><text fill="#000000" font-family="sans-serif" font-size="12" lengthAdjust="spacingAndGlyphs" textLength="234" x="112.5" y="721.415">binder.phase = EventPhase.AT_TARGET</text><rect fill="#FEFECE" filter="url(#f1bvd2zkbojtkv)" height="34.1328" style="stroke: #A80036; stroke-width: 1.5;" width="159" x="150" y="753.9463"/><text fill="#000000" font-family="sans-serif" font-size="12" lengthAdjust="spacingAndGlyphs" textLength="135" x="160" y="775.5479">binder.current = target</text><rect fill="#FEFECE" filter="url(#f1bvd2zkbojtkv)" height="34.1328" style="stroke: #A80036; stroke-width: 1.5;" width="363" x="48" y="808.0791"/><line style="stroke: #A80036; stroke-width: 1.5;" x1="53" x2="53" y1="808.0791" y2="842.2119"/><line style="stroke: #A80036; stroke-width: 1.5;" x1="406" x2="406" y1="808.0791" y2="842.2119"/><text fill="#000000" font-family="sans-serif" font-size="12" lengthAdjust="spacingAndGlyphs" textLength="97" x="58" y="829.6807">result = internal.</text><a href="./Definition_internal.fireListeners.svg" target="_top" xlink:actuate="onRequest" xlink:show="new" xlink:title="./Definition_internal.fireListeners.svg" xlink:type="simple"><text fill="#0000FF" font-family="sans-serif" font-size="12" lengthAdjust="spacingAndGlyphs" text-decoration="underline" textLength="70" x="155" y="829.6807">fireListeners</text></a><text fill="#000000" font-family="sans-serif" font-size="12" lengthAdjust="spacingAndGlyphs" textLength="172" x="225" y="829.6807">(binder, event, true) &amp;&amp; result</text><rect fill="#FEFECE" filter="url(#f1bvd2zkbojtkv)" height="34.1328" style="stroke: #A80036; stroke-width: 1.5;" width="367" x="46" y="910.6895"/><line style="stroke: #A80036; stroke-width: 1.5;" x1="51" x2="51" y1="910.6895" y2="944.8223"/><line style="stroke: #A80036; stroke-width: 1.5;" x1="408" x2="408" y1="910.6895" y2="944.8223"/><text fill="#000000" font-family="sans-serif" font-size="12" lengthAdjust="spacingAndGlyphs" textLength="97" x="56" y="932.291">result = internal.</text><a href="./Definition_internal.fireListeners.svg" target="_top" xlink:actuate="onRequest" xlink:show="new" xlink:title="./Definition_internal.fireListeners.svg" xlink:type="simple"><text fill="#0000FF" font-family="sans-serif" font-size="12" lengthAdjust="spacingAndGlyphs" text-decoration="underline" textLength="70" x="153" y="932.291">fireListeners</text></a><text fill="#000000" font-family="sans-serif" font-size="12" lengthAdjust="spacingAndGlyphs" textLength="176" x="223" y="932.291">(binder, event, false) &amp;&amp; result</text><polygon fill="#FEFECE" filter="url(#f1bvd2zkbojtkv)" points="187,862.2119,272,862.2119,284,874.2119,272,886.2119,187,886.2119,175,874.2119,187,862.2119" style="stroke: #A80036; stroke-width: 1.5;"/><text fill="#000000" font-family="sans-serif" font-size="11" lengthAdjust="spacingAndGlyphs" textLength="18" x="233.5" y="896.8467">yes</text><text fill="#000000" font-family="sans-serif" font-size="11" lengthAdjust="spacingAndGlyphs" textLength="85" x="187" y="878.3691">!binder.stopped</text><polygon fill="#FEFECE" filter="url(#f1bvd2zkbojtkv)" points="229.5,964.8223,241.5,976.8223,229.5,988.8223,217.5,976.8223,229.5,964.8223" style="stroke: #A80036; stroke-width: 1.5;"/><polygon fill="#FEFECE" filter="url(#f1bvd2zkbojtkv)" points="187,651.3359,272,651.3359,284,663.3359,272,675.3359,187,675.3359,175,663.3359,187,651.3359" style="stroke: #A80036; stroke-width: 1.5;"/><text fill="#000000" font-family="sans-serif" font-size="11" lengthAdjust="spacingAndGlyphs" textLength="18" x="233.5" y="685.9707">yes</text><text fill="#000000" font-family="sans-serif" font-size="11" lengthAdjust="spacingAndGlyphs" textLength="85" x="187" y="667.4932">!binder.stopped</text><polygon fill="#FEFECE" filter="url(#f1bvd2zkbojtkv)" points="229.5,1008.8223,241.5,1020.8223,229.5,1032.8223,217.5,1020.8223,229.5,1008.8223" style="stroke: #A80036; stroke-width: 1.5;"/><rect fill="#FEFECE" filter="url(#f1bvd2zkbojtkv)" height="34.1328" style="stroke: #A80036; stroke-width: 1.5;" width="283" x="88" y="1096.8223"/><text fill="#000000" font-family="sans-serif" font-size="12" lengthAdjust="spacingAndGlyphs" textLength="263" x="98" y="1118.4238">binder.phase = EventPhase.BUBBLING_PHASE</text><rect fill="#FEFECE" filter="url(#f1bvd2zkbojtkv)" height="34.1328" style="stroke: #A80036; stroke-width: 1.5;" width="191" x="134" y="1150.9551"/><text fill="#000000" font-family="sans-serif" font-size="12" lengthAdjust="spacingAndGlyphs" textLength="167" x="144" y="1172.5566">binder.current = ancestors[i]</text><rect fill="#FEFECE" filter="url(#f1bvd2zkbojtkv)" height="34.1328" style="stroke: #A80036; stroke-width: 1.5;" width="371" x="44" y="1205.0879"/><line style="stroke: #A80036; stroke-width: 1.5;" x1="49" x2="49" y1="1205.0879" y2="1239.2207"/><line style="stroke: #A80036; stroke-width: 1.5;" x1="410" x2="410" y1="1205.0879" y2="1239.2207"/><text fill="#000000" font-family="sans-serif" font-size="12" lengthAdjust="spacingAndGlyphs" textLength="97" x="54" y="1226.6895">result = internal.</text><a href="./Definition_internal.fireListeners.svg" target="_top" xlink:actuate="onRequest" xlink:show="new" xlink:title="./Definition_internal.fireListeners.svg" xlink:type="simple"><text fill="#0000FF" font-family="sans-serif" font-size="12" lengthAdjust="spacingAndGlyphs" text-decoration="underline" textLength="70" x="151" y="1226.6895">fireListeners</text></a><text fill="#000000" font-family="sans-serif" font-size="12" lengthAdjust="spacingAndGlyphs" textLength="180" x="221" y="1226.6895">(binder, event, false)  &amp;&amp; result</text><polygon fill="#FEFECE" filter="url(#f1bvd2zkbojtkv)" points="85,1052.8223,374,1052.8223,386,1064.8223,374,1076.8223,85,1076.8223,73,1064.8223,85,1052.8223" style="stroke: #A80036; stroke-width: 1.5;"/><text fill="#000000" font-family="sans-serif" font-size="11" lengthAdjust="spacingAndGlyphs" textLength="289" x="85" y="1068.9795">let i = 0; !binder.stopped &amp;&amp; i &lt; ancestors.length; i++</text><polygon fill="#FEFECE" filter="url(#f1bvd2zkbojtkv)" points="194,1281.2207,275,1281.2207,265,1315.3535,184,1315.3535" style="stroke: #A80036; stroke-width: 1.5;"/><text fill="#000000" font-family="sans-serif" font-size="12" lengthAdjust="spacingAndGlyphs" textLength="71" x="194" y="1302.8223">return result</text><ellipse cx="229.5" cy="1357.3535" fill="#FFFFFF" filter="url(#f1bvd2zkbojtkv)" rx="10" ry="10" style="stroke: #000000; stroke-width: 1.5;"/><line style="stroke: #000000; stroke-width: 2.5;" x1="223.3128" x2="235.6872" y1="1351.1663" y2="1363.5407"/><line style="stroke: #000000; stroke-width: 2.5;" x1="235.6872" x2="223.3128" y1="1351.1663" y2="1363.5407"/><line style="stroke: #A80036; stroke-width: 1.5;" x1="229.5" x2="229.5" y1="132.2734" y2="152.2734"/><polygon fill="#A80036" points="225.5,142.2734,229.5,152.2734,233.5,142.2734,229.5,146.2734" style="stroke: #A80036; stroke-width: 1.0;"/><line style="stroke: #A80036; stroke-width: 1.5;" x1="229.5" x2="229.5" y1="186.4063" y2="206.4063"/><polygon fill="#A80036" points="225.5,196.4063,229.5,206.4063,233.5,196.4063,229.5,200.4063" style="stroke: #A80036; stroke-width: 1.0;"/><line style="stroke: #A80036; stroke-width: 1.5;" x1="229.5" x2="229.5" y1="240.5391" y2="260.5391"/><polygon fill="#A80036" points="225.5,250.5391,229.5,260.5391,233.5,250.5391,229.5,254.5391" style="stroke: #A80036; stroke-width: 1.0;"/><line style="stroke: #A80036; stroke-width: 1.5;" x1="229.5" x2="229.5" y1="294.6719" y2="314.6719"/><polygon fill="#A80036" points="225.5,304.6719,229.5,314.6719,233.5,304.6719,229.5,308.6719" style="stroke: #A80036; stroke-width: 1.0;"/><line style="stroke: #A80036; stroke-width: 1.5;" x1="229.5" x2="229.5" y1="348.8047" y2="368.8047"/><polygon fill="#A80036" points="225.5,358.8047,229.5,368.8047,233.5,358.8047,229.5,362.8047" style="stroke: #A80036; stroke-width: 1.0;"/><line style="stroke: #A80036; stroke-width: 1.5;" x1="229.5" x2="229.5" y1="501.0703" y2="521.0703"/><polygon fill="#A80036" points="225.5,511.0703,229.5,521.0703,233.5,511.0703,229.5,515.0703" style="stroke: #A80036; stroke-width: 1.0;"/><line style="stroke: #A80036; stroke-width: 1.5;" x1="229.5" x2="229.5" y1="555.2031" y2="575.2031"/><polygon fill="#A80036" points="225.5,565.2031,229.5,575.2031,233.5,565.2031,229.5,569.2031" style="stroke: #A80036; stroke-width: 1.0;"/><line style="stroke: #A80036; stroke-width: 1.5;" x1="229.5" x2="229.5" y1="446.9375" y2="466.9375"/><polygon fill="#A80036" points="225.5,456.9375,229.5,466.9375,233.5,456.9375,229.5,460.9375" style="stroke: #A80036; stroke-width: 1.0;"/><line style="stroke: #A80036; stroke-width: 1.5;" x1="229.5" x2="229.5" y1="609.3359" y2="619.3359"/><line style="stroke: #A80036; stroke-width: 1.5;" x1="229.5" x2="423" y1="619.3359" y2="619.3359"/><polygon fill="#A80036" points="419,536.1367,423,526.1367,427,536.1367,423,532.1367" style="stroke: #A80036; stroke-width: 1.5;"/><line style="stroke: #A80036; stroke-width: 1.5;" x1="423" x2="423" y1="434.9375" y2="619.3359"/><line style="stroke: #A80036; stroke-width: 1.5;" x1="423" x2="397" y1="434.9375" y2="434.9375"/><polygon fill="#A80036" points="407,430.9375,397,434.9375,407,438.9375,403,434.9375" style="stroke: #A80036; stroke-width: 1.0;"/><line style="stroke: #A80036; stroke-width: 1.5;" x1="62" x2="36" y1="434.9375" y2="434.9375"/><polygon fill="#A80036" points="32,522.1367,36,532.1367,40,522.1367,36,526.1367" style="stroke: #A80036; stroke-width: 1.5;"/><line style="stroke: #A80036; stroke-width: 1.5;" x1="36" x2="36" y1="434.9375" y2="631.3359"/><line style="stroke: #A80036; stroke-width: 1.5;" x1="36" x2="229.5" y1="631.3359" y2="631.3359"/><line style="stroke: #A80036; stroke-width: 1.5;" x1="229.5" x2="229.5" y1="631.3359" y2="651.3359"/><polygon fill="#A80036" points="225.5,641.3359,229.5,651.3359,233.5,641.3359,229.5,645.3359" style="stroke: #A80036; stroke-width: 1.0;"/><line style="stroke: #A80036; stroke-width: 1.5;" x1="229.5" x2="229.5" y1="402.9375" y2="422.9375"/><polygon fill="#A80036" points="225.5,412.9375,229.5,422.9375,233.5,412.9375,229.5,416.9375" style="stroke: #A80036; stroke-width: 1.0;"/><line style="stroke: #A80036; stroke-width: 1.5;" x1="229.5" x2="229.5" y1="733.9463" y2="753.9463"/><polygon fill="#A80036" points="225.5,743.9463,229.5,753.9463,233.5,743.9463,229.5,747.9463" style="stroke: #A80036; stroke-width: 1.0;"/><line style="stroke: #A80036; stroke-width: 1.5;" x1="229.5" x2="229.5" y1="788.0791" y2="808.0791"/><polygon fill="#A80036" points="225.5,798.0791,229.5,808.0791,233.5,798.0791,229.5,802.0791" style="stroke: #A80036; stroke-width: 1.0;"/><line style="stroke: #A80036; stroke-width: 1.5;" x1="229.5" x2="229.5" y1="886.2119" y2="910.6895"/><polygon fill="#A80036" points="225.5,900.6895,229.5,910.6895,233.5,900.6895,229.5,904.6895" style="stroke: #A80036; stroke-width: 1.0;"/><line style="stroke: #A80036; stroke-width: 1.5;" x1="284" x2="423" y1="874.2119" y2="874.2119"/><polygon fill="#A80036" points="419,917.7559,423,927.7559,427,917.7559,423,921.7559" style="stroke: #A80036; stroke-width: 1.5;"/><line style="stroke: #A80036; stroke-width: 1.5;" x1="423" x2="423" y1="874.2119" y2="976.8223"/><line style="stroke: #A80036; stroke-width: 1.5;" x1="423" x2="241.5" y1="976.8223" y2="976.8223"/><polygon fill="#A80036" points="251.5,972.8223,241.5,976.8223,251.5,980.8223,247.5,976.8223" style="stroke: #A80036; stroke-width: 1.0;"/><line style="stroke: #A80036; stroke-width: 1.5;" x1="229.5" x2="229.5" y1="944.8223" y2="964.8223"/><polygon fill="#A80036" points="225.5,954.8223,229.5,964.8223,233.5,954.8223,229.5,958.8223" style="stroke: #A80036; stroke-width: 1.0;"/><line style="stroke: #A80036; stroke-width: 1.5;" x1="229.5" x2="229.5" y1="842.2119" y2="862.2119"/><polygon fill="#A80036" points="225.5,852.2119,229.5,862.2119,233.5,852.2119,229.5,856.2119" style="stroke: #A80036; stroke-width: 1.0;"/><line style="stroke: #A80036; stroke-width: 1.5;" x1="229.5" x2="229.5" y1="675.3359" y2="699.8135"/><polygon fill="#A80036" points="225.5,689.8135,229.5,699.8135,233.5,689.8135,229.5,693.8135" style="stroke: #A80036; stroke-width: 1.0;"/><line style="stroke: #A80036; stroke-width: 1.5;" x1="284" x2="445" y1="663.3359" y2="663.3359"/><polygon fill="#A80036" points="441,829.0566,445,839.0566,449,829.0566,445,833.0566" style="stroke: #A80036; stroke-width: 1.5;"/><line style="stroke: #A80036; stroke-width: 1.5;" x1="445" x2="445" y1="663.3359" y2="1020.8223"/><line style="stroke: #A80036; stroke-width: 1.5;" x1="445" x2="241.5" y1="1020.8223" y2="1020.8223"/><polygon fill="#A80036" points="251.5,1016.8223,241.5,1020.8223,251.5,1024.8223,247.5,1020.8223" style="stroke: #A80036; stroke-width: 1.0;"/><line style="stroke: #A80036; stroke-width: 1.5;" x1="229.5" x2="229.5" y1="988.8223" y2="1008.8223"/><polygon fill="#A80036" points="225.5,998.8223,229.5,1008.8223,233.5,998.8223,229.5,1002.8223" style="stroke: #A80036; stroke-width: 1.0;"/><line style="stroke: #A80036; stroke-width: 1.5;" x1="229.5" x2="229.5" y1="1130.9551" y2="1150.9551"/><polygon fill="#A80036" points="225.5,1140.9551,229.5,1150.9551,233.5,1140.9551,229.5,1144.9551" style="stroke: #A80036; stroke-width: 1.0;"/><line style="stroke: #A80036; stroke-width: 1.5;" x1="229.5" x2="229.5" y1="1185.0879" y2="1205.0879"/><polygon fill="#A80036" points="225.5,1195.0879,229.5,1205.0879,233.5,1195.0879,229.5,1199.0879" style="stroke: #A80036; stroke-width: 1.0;"/><line style="stroke: #A80036; stroke-width: 1.5;" x1="229.5" x2="229.5" y1="1076.8223" y2="1096.8223"/><polygon fill="#A80036" points="225.5,1086.8223,229.5,1096.8223,233.5,1086.8223,229.5,1090.8223" style="stroke: #A80036; stroke-width: 1.0;"/><line style="stroke: #A80036; stroke-width: 1.5;" x1="229.5" x2="229.5" y1="1239.2207" y2="1249.2207"/><line style="stroke: #A80036; stroke-width: 1.5;" x1="229.5" x2="427" y1="1249.2207" y2="1249.2207"/><polygon fill="#A80036" points="423,1166.0215,427,1156.0215,431,1166.0215,427,1162.0215" style="stroke: #A80036; stroke-width: 1.5;"/><line style="stroke: #A80036; stroke-width: 1.5;" x1="427" x2="427" y1="1064.8223" y2="1249.2207"/><line style="stroke: #A80036; stroke-width: 1.5;" x1="427" x2="386" y1="1064.8223" y2="1064.8223"/><polygon fill="#A80036" points="396,1060.8223,386,1064.8223,396,1068.8223,392,1064.8223" style="stroke: #A80036; stroke-width: 1.0;"/><line style="stroke: #A80036; stroke-width: 1.5;" x1="73" x2="32" y1="1064.8223" y2="1064.8223"/><polygon fill="#A80036" points="28,1152.0215,32,1162.0215,36,1152.0215,32,1156.0215" style="stroke: #A80036; stroke-width: 1.5;"/><line style="stroke: #A80036; stroke-width: 1.5;" x1="32" x2="32" y1="1064.8223" y2="1261.2207"/><line style="stroke: #A80036; stroke-width: 1.5;" x1="32" x2="229.5" y1="1261.2207" y2="1261.2207"/><line style="stroke: #A80036; stroke-width: 1.5;" x1="229.5" x2="229.5" y1="1261.2207" y2="1281.2207"/><polygon fill="#A80036" points="225.5,1271.2207,229.5,1281.2207,233.5,1271.2207,229.5,1275.2207" style="stroke: #A80036; stroke-width: 1.0;"/><line style="stroke: #A80036; stroke-width: 1.5;" x1="229.5" x2="229.5" y1="1032.8223" y2="1052.8223"/><polygon fill="#A80036" points="225.5,1042.8223,229.5,1052.8223,233.5,1042.8223,229.5,1046.8223" style="stroke: #A80036; stroke-width: 1.0;"/><line style="stroke: #A80036; stroke-width: 1.5;" x1="229.5" x2="229.5" y1="51.1992" y2="98.1406"/><polygon fill="#A80036" points="225.5,88.1406,229.5,98.1406,233.5,88.1406,229.5,92.1406" style="stroke: #A80036; stroke-width: 1.0;"/><line style="stroke: #A80036; stroke-width: 1.5;" x1="229.5" x2="229.5" y1="1315.3535" y2="1347.3535"/><polygon fill="#A80036" points="225.5,1337.3535,229.5,1347.3535,233.5,1337.3535,229.5,1341.3535" style="stroke: #A80036; stroke-width: 1.0;"/><!--
@startuml Definition_internal.dispatchEvent
    title Definition: internal.dispatchEvent()

    start
        partition SyncTask {
            :target, event/
            :const ancestors = internal.[[./Definition_internal.getAncestors.svg getAncestors]](target) |
            :const binder = [[./Definition_EventBinder.constructor.svg new EventBinder]](EventPhase.NONE, target)]
            :event.[[./Definition_Event.setBinderInternal.svg setBinderInternal]](binder)|
            :let result = true]
            :let current]
            while (let i = ancestors.length - 1; !binder.stopped && i >= 0; i- -)
                :binder.phase = EventPhase.CAPTURING_PHASE]
                :binder.current = ancestors[i] ]
                :result = internal.[[./Definition_internal.fireListeners.svg fireListeners]](binder, event, true) && result |
            endwhile
            if (!binder.stopped) then (yes)
                :binder.phase = EventPhase.AT_TARGET]
                :binder.current = target ]
                :result = internal.[[./Definition_internal.fireListeners.svg fireListeners]](binder, event, true) && result |
                if (!binder.stopped) then (yes)
                    :result = internal.[[./Definition_internal.fireListeners.svg fireListeners]](binder, event, false) && result |
                endif
            endif
            while (let i = 0; !binder.stopped && i < ancestors.length; i++)
                :binder.phase = EventPhase.BUBBLING_PHASE]
                :binder.current = ancestors[i] ]
                :result = internal.[[./Definition_internal.fireListeners.svg fireListeners]](binder, event, false)  && result |
            endwhile
            :return result/
        }
    end
@enduml

PlantUML version 1.2019.09(Mon Aug 26 19:19:51 EEST 2019)
(GPL source distribution)
Java Runtime: OpenJDK Runtime Environment
JVM: OpenJDK 64-Bit Server VM
Java Version: 13.0.1+9
Operating System: Mac OS X
OS Version: 10.15.3
Default Encoding: UTF-8
Language: en
Country: UA
--></g></svg>