<?xml version="1.0" encoding="UTF-8" standalone="no"?><svg xmlns="http://www.w3.org/2000/svg" xmlns:xlink="http://www.w3.org/1999/xlink" contentScriptType="application/ecmascript" contentStyleType="text/css" height="577px" preserveAspectRatio="none" style="width:422px;height:577px;" version="1.1" viewBox="0 0 422 577" width="422px" zoomAndPan="magnify"><defs><filter height="300%" id="fwzle0b9817b0" width="300%" x="-1" y="-1"><feGaussianBlur result="blurOut" stdDeviation="2.0"/><feColorMatrix in="blurOut" result="blurOut2" type="matrix" values="0 0 0 0 0 0 0 0 0 0 0 0 0 0 0 0 0 0 .4 0"/><feOffset dx="4.0" dy="4.0" in="blurOut2" result="blurOut3"/><feBlend in="SourceGraphic" in2="blurOut3" mode="normal"/></filter></defs><g><text fill="#000000" font-family="sans-serif" font-size="18" lengthAdjust="spacing" textLength="288" x="66" y="26.708">Definition: Node#removeChild()</text><ellipse cx="208" cy="40.9531" fill="#000000" filter="url(#fwzle0b9817b0)" rx="10" ry="10" style="stroke:none;stroke-width:1.0;"/><rect fill="#FFFFFF" filter="url(#fwzle0b9817b0)" height="459.5117" style="stroke:#000000;stroke-width:2.0;" width="394" x="11" y="60.9531"/><path d="M87,60.9531 L87,70.25 L77,80.25 L11,80.25 " fill="none" style="stroke:#000000;stroke-width:2.0;"/><text fill="#000000" font-family="sans-serif" font-size="14" lengthAdjust="spacing" textLength="66" x="14" y="74.9482">SyncTask</text><polygon fill="#FEFECE" filter="url(#fwzle0b9817b0)" points="193.5,97.25,232.5,97.25,222.5,131.2188,183.5,131.2188" style="stroke:#A80036;stroke-width:1.5;"/><text fill="#000000" font-family="sans-serif" font-size="12" lengthAdjust="spacing" textLength="29" x="193.5" y="118.3887">child</text><rect fill="#FEFECE" filter="url(#fwzle0b9817b0)" height="33.9688" style="stroke:#A80036;stroke-width:1.5;" width="374" x="21" y="151.2188"/><text fill="#000000" font-family="sans-serif" font-size="12" lengthAdjust="spacing" textLength="354" x="31" y="172.3574">const children = internal.nodesIndices.get(this).children</text><rect fill="#FEFECE" filter="url(#fwzle0b9817b0)" height="33.9688" style="stroke:#A80036;stroke-width:1.5;" width="249" x="83.5" y="205.1875"/><text fill="#000000" font-family="sans-serif" font-size="12" lengthAdjust="spacing" textLength="229" x="93.5" y="226.3262">const index = children.indexOf(child)</text><rect fill="#FEFECE" filter="url(#fwzle0b9817b0)" height="33.9688" style="stroke:#A80036;stroke-width:1.5;" width="305" x="55.5" y="307.5586"/><text fill="#000000" font-family="sans-serif" font-size="12" lengthAdjust="spacing" textLength="285" x="65.5" y="328.6973">internal.nodesIndices.get(child).parent = null</text><rect fill="#FEFECE" filter="url(#fwzle0b9817b0)" height="33.9688" style="stroke:#A80036;stroke-width:1.5;" width="169" x="123.5" y="376.5273"/><text fill="#000000" font-family="sans-serif" font-size="12" lengthAdjust="spacing" textLength="149" x="133.5" y="397.666">children.splice(index, 1)</text><polygon fill="#FEFECE" filter="url(#fwzle0b9817b0)" points="176.5,259.1563,239.5,259.1563,251.5,271.1563,239.5,283.1563,176.5,283.1563,164.5,271.1563,176.5,259.1563" style="stroke:#A80036;stroke-width:1.5;"/><text fill="#000000" font-family="sans-serif" font-size="11" lengthAdjust="spacing" textLength="20" x="212" y="293.3667">yes</text><text fill="#000000" font-family="sans-serif" font-size="11" lengthAdjust="spacing" textLength="63" x="176.5" y="274.9644">index &gt;= 0</text><polygon fill="#FEFECE" filter="url(#fwzle0b9817b0)" points="208,430.4961,220,442.4961,208,454.4961,196,442.4961,208,430.4961" style="stroke:#A80036;stroke-width:1.5;"/><polygon fill="#FEFECE" filter="url(#fwzle0b9817b0)" points="193.5,474.4961,232.5,474.4961,222.5,508.4648,183.5,508.4648" style="stroke:#A80036;stroke-width:1.5;"/><text fill="#000000" font-family="sans-serif" font-size="12" lengthAdjust="spacing" textLength="29" x="193.5" y="495.6348">child</text><ellipse cx="208" cy="550.4648" fill="#FFFFFF" filter="url(#fwzle0b9817b0)" rx="10" ry="10" style="stroke:#000000;stroke-width:1.5;"/><line style="stroke:#000000;stroke-width:2.5;" x1="201.8128" x2="214.1872" y1="544.2777" y2="556.652"/><line style="stroke:#000000;stroke-width:2.5;" x1="214.1872" x2="201.8128" y1="544.2777" y2="556.652"/><line style="stroke:#A80036;stroke-width:1.5;" x1="208" x2="208" y1="131.2188" y2="151.2188"/><polygon fill="#A80036" points="204,141.2188,208,151.2188,212,141.2188,208,145.2188" style="stroke:#A80036;stroke-width:1.0;"/><line style="stroke:#A80036;stroke-width:1.5;" x1="208" x2="208" y1="185.1875" y2="205.1875"/><polygon fill="#A80036" points="204,195.1875,208,205.1875,212,195.1875,208,199.1875" style="stroke:#A80036;stroke-width:1.0;"/><line style="stroke:#A80036;stroke-width:1.5;" x1="208" x2="208" y1="341.5273" y2="376.5273"/><polygon fill="#A80036" points="204,366.5273,208,376.5273,212,366.5273,208,370.5273" style="stroke:#A80036;stroke-width:1.0;"/><line style="stroke:#A80036;stroke-width:1.5;" x1="208" x2="208" y1="283.1563" y2="307.5586"/><polygon fill="#A80036" points="204,297.5586,208,307.5586,212,297.5586,208,301.5586" style="stroke:#A80036;stroke-width:1.0;"/><line style="stroke:#A80036;stroke-width:1.5;" x1="251.5" x2="370.5" y1="271.1563" y2="271.1563"/><polygon fill="#A80036" points="366.5,349.0273,370.5,359.0273,374.5,349.0273,370.5,353.0273" style="stroke:#A80036;stroke-width:1.5;"/><line style="stroke:#A80036;stroke-width:1.5;" x1="370.5" x2="370.5" y1="271.1563" y2="442.4961"/><line style="stroke:#A80036;stroke-width:1.5;" x1="370.5" x2="220" y1="442.4961" y2="442.4961"/><polygon fill="#A80036" points="230,438.4961,220,442.4961,230,446.4961,226,442.4961" style="stroke:#A80036;stroke-width:1.0;"/><line style="stroke:#A80036;stroke-width:1.5;" x1="208" x2="208" y1="410.4961" y2="430.4961"/><polygon fill="#A80036" points="204,420.4961,208,430.4961,212,420.4961,208,424.4961" style="stroke:#A80036;stroke-width:1.0;"/><line style="stroke:#A80036;stroke-width:1.5;" x1="208" x2="208" y1="239.1563" y2="259.1563"/><polygon fill="#A80036" points="204,249.1563,208,259.1563,212,249.1563,208,253.1563" style="stroke:#A80036;stroke-width:1.0;"/><line style="stroke:#A80036;stroke-width:1.5;" x1="208" x2="208" y1="454.4961" y2="474.4961"/><polygon fill="#A80036" points="204,464.4961,208,474.4961,212,464.4961,208,468.4961" style="stroke:#A80036;stroke-width:1.0;"/><line style="stroke:#A80036;stroke-width:1.5;" x1="208" x2="208" y1="50.9531" y2="97.25"/><polygon fill="#A80036" points="204,87.25,208,97.25,212,87.25,208,91.25" style="stroke:#A80036;stroke-width:1.0;"/><line style="stroke:#A80036;stroke-width:1.5;" x1="208" x2="208" y1="508.4648" y2="540.4648"/><polygon fill="#A80036" points="204,530.4648,208,540.4648,212,530.4648,208,534.4648" style="stroke:#A80036;stroke-width:1.0;"/><!--MD5=[422a92f0608678845958a83d1ae4c300]
@startuml Definition_Node.removeChild
    title Definition: Node#removeChild()

    start
        partition SyncTask {
            :child/
            :const children = internal.nodesIndices.get(this).children]
            :const index = children.indexOf(child)]
            if (index >= 0) then (yes)
                :internal.nodesIndices.get(child).parent = null]
                :children.splice(index, 1)]
            endif
            :child/
        }
    end
@enduml

PlantUML version 1.2021.00(Sun Jan 10 12:25:05 EET 2021)
(GPL source distribution)
Java Runtime: OpenJDK Runtime Environment
JVM: OpenJDK 64-Bit Server VM
Default Encoding: UTF-8
Language: en
Country: US
--></g></svg>