<?xml version="1.0" encoding="UTF-8" standalone="no"?><svg xmlns="http://www.w3.org/2000/svg" xmlns:xlink="http://www.w3.org/1999/xlink" contentScriptType="application/ecmascript" contentStyleType="text/css" height="308px" preserveAspectRatio="none" style="width:351px;height:308px;" version="1.1" viewBox="0 0 351 308" width="351px" zoomAndPan="magnify"><defs><filter height="300%" id="fw47sznzl19jq" width="300%" x="-1" y="-1"><feGaussianBlur result="blurOut" stdDeviation="2.0"/><feColorMatrix in="blurOut" result="blurOut2" type="matrix" values="0 0 0 0 0 0 0 0 0 0 0 0 0 0 0 0 0 0 .4 0"/><feOffset dx="4.0" dy="4.0" in="blurOut2" result="blurOut3"/><feBlend in="SourceGraphic" in2="blurOut3" mode="normal"/></filter></defs><g><text fill="#000000" font-family="sans-serif" font-size="18" lengthAdjust="spacing" textLength="299" x="25" y="26.708">Definition: exports.getAncestors()</text><ellipse cx="172.5" cy="40.9531" fill="#000000" filter="url(#fw47sznzl19jq)" rx="10" ry="10" style="stroke:none;stroke-width:1.0;"/><rect fill="#FFFFFF" filter="url(#fw47sznzl19jq)" height="190.2031" style="stroke:#000000;stroke-width:2.0;" width="323" x="11" y="60.9531"/><path d="M87,60.9531 L87,70.25 L77,80.25 L11,80.25 " fill="none" style="stroke:#000000;stroke-width:2.0;"/><text fill="#000000" font-family="sans-serif" font-size="14" lengthAdjust="spacing" textLength="66" x="14" y="74.9482">SyncTask</text><polygon fill="#FEFECE" filter="url(#fw47sznzl19jq)" points="156.5,97.25,198.5,97.25,188.5,131.2188,146.5,131.2188" style="stroke:#A80036;stroke-width:1.5;"/><text fill="#000000" font-family="sans-serif" font-size="12" lengthAdjust="spacing" textLength="32" x="156.5" y="118.3887">node</text><rect fill="#FEFECE" filter="url(#fw47sznzl19jq)" height="33.9688" style="stroke:#A80036;stroke-width:1.5;" width="303" x="21" y="151.2188"/><line style="stroke:#A80036;stroke-width:1.5;" x1="26" x2="26" y1="151.2188" y2="185.1875"/><line style="stroke:#A80036;stroke-width:1.5;" x1="319" x2="319" y1="151.2188" y2="185.1875"/><text fill="#000000" font-family="sans-serif" font-size="12" lengthAdjust="spacing" textLength="153" x="31" y="172.3574">let ancestors = internal.</text><a href="./Definition_internal.getAncestors.svg" target="_top" title="./Definition_internal.getAncestors.svg" xlink:actuate="onRequest" xlink:href="./Definition_internal.getAncestors.svg" xlink:show="new" xlink:title="./Definition_internal.getAncestors.svg" xlink:type="simple"><text fill="#0000FF" font-family="sans-serif" font-size="12" lengthAdjust="spacing" text-decoration="underline" textLength="84" x="184" y="172.3574">getAncestors</text></a><text fill="#000000" font-family="sans-serif" font-size="12" lengthAdjust="spacing" textLength="42" x="268" y="172.3574">(node)</text><polygon fill="#FEFECE" filter="url(#fw47sznzl19jq)" points="117.5,205.1875,237.5,205.1875,227.5,239.1563,107.5,239.1563" style="stroke:#A80036;stroke-width:1.5;"/><text fill="#000000" font-family="sans-serif" font-size="12" lengthAdjust="spacing" textLength="106" x="117.5" y="226.3262">return ancestors</text><ellipse cx="172.5" cy="281.1563" fill="#FFFFFF" filter="url(#fw47sznzl19jq)" rx="10" ry="10" style="stroke:#000000;stroke-width:1.5;"/><line style="stroke:#000000;stroke-width:2.5;" x1="166.3128" x2="178.6872" y1="274.9691" y2="287.3434"/><line style="stroke:#000000;stroke-width:2.5;" x1="178.6872" x2="166.3128" y1="274.9691" y2="287.3434"/><line style="stroke:#A80036;stroke-width:1.5;" x1="172.5" x2="172.5" y1="131.2188" y2="151.2188"/><polygon fill="#A80036" points="168.5,141.2188,172.5,151.2188,176.5,141.2188,172.5,145.2188" style="stroke:#A80036;stroke-width:1.0;"/><line style="stroke:#A80036;stroke-width:1.5;" x1="172.5" x2="172.5" y1="185.1875" y2="205.1875"/><polygon fill="#A80036" points="168.5,195.1875,172.5,205.1875,176.5,195.1875,172.5,199.1875" style="stroke:#A80036;stroke-width:1.0;"/><line style="stroke:#A80036;stroke-width:1.5;" x1="172.5" x2="172.5" y1="50.9531" y2="97.25"/><polygon fill="#A80036" points="168.5,87.25,172.5,97.25,176.5,87.25,172.5,91.25" style="stroke:#A80036;stroke-width:1.0;"/><line style="stroke:#A80036;stroke-width:1.5;" x1="172.5" x2="172.5" y1="239.1563" y2="271.1563"/><polygon fill="#A80036" points="168.5,261.1563,172.5,271.1563,176.5,261.1563,172.5,265.1563" style="stroke:#A80036;stroke-width:1.0;"/><!--MD5=[20154d9a145574dc7952ebda3cf70d1c]
@startuml Definition_exports.getAncestors
    title Definition: exports.getAncestors()

    start
        partition SyncTask {
            :node/
            :let ancestors = internal.[[./Definition_internal.getAncestors.svg getAncestors]](node) |
            :return ancestors /
        }
    end
@enduml

PlantUML version 1.2021.00(Sun Jan 10 12:25:05 EET 2021)
(GPL source distribution)
Java Runtime: OpenJDK Runtime Environment
JVM: OpenJDK 64-Bit Server VM
Default Encoding: UTF-8
Language: en
Country: US
--></g></svg>