<?xml version="1.0" encoding="UTF-8" standalone="no"?><svg xmlns="http://www.w3.org/2000/svg" xmlns:xlink="http://www.w3.org/1999/xlink" contentScriptType="application/ecmascript" contentStyleType="text/css" height="1137px" preserveAspectRatio="none" style="width:779px;height:1137px;" version="1.1" viewBox="0 0 779 1137" width="779px" zoomAndPan="magnify"><defs><filter height="300%" id="f1ag9nwwa1kfnr" width="300%" x="-1" y="-1"><feGaussianBlur result="blurOut" stdDeviation="2.0"/><feColorMatrix in="blurOut" result="blurOut2" type="matrix" values="0 0 0 0 0 0 0 0 0 0 0 0 0 0 0 0 0 0 .4 0"/><feOffset dx="4.0" dy="4.0" in="blurOut2" result="blurOut3"/><feBlend in="SourceGraphic" in2="blurOut3" mode="normal"/></filter></defs><g><text fill="#000000" font-family="sans-serif" font-size="18" lengthAdjust="spacingAndGlyphs" textLength="288" x="244.5" y="27.4023">Definition: internal.fireListeners()</text><ellipse cx="385" cy="41.1992" fill="#000000" filter="url(#f1ag9nwwa1kfnr)" rx="10" ry="10" style="stroke: none; stroke-width: 1.0;"/><rect fill="#FFFFFF" filter="url(#f1ag9nwwa1kfnr)" height="1025.1035" style="stroke: #000000; stroke-width: 2.0;" width="758" x="10" y="61.6523"/><path d="M83,62.6523 L83,71.1406 L73,81.1406 L10,81.1406 " fill="none" style="stroke: #000000; stroke-width: 2.0;"/><text fill="#000000" font-family="sans-serif" font-size="14" lengthAdjust="spacingAndGlyphs" textLength="63" x="13" y="76.1875">SyncTask</text><polygon fill="#FEFECE" filter="url(#f1ag9nwwa1kfnr)" points="320.5,98.1406,459.5,98.1406,449.5,132.2734,310.5,132.2734" style="stroke: #A80036; stroke-width: 1.5;"/><text fill="#000000" font-family="sans-serif" font-size="12" lengthAdjust="spacingAndGlyphs" textLength="129" x="320.5" y="119.7422">binder, event, capture</text><rect fill="#FEFECE" filter="url(#f1ag9nwwa1kfnr)" height="34.1328" style="stroke: #A80036; stroke-width: 1.5;" width="224" x="273" y="152.2734"/><text fill="#000000" font-family="sans-serif" font-size="12" lengthAdjust="spacingAndGlyphs" textLength="121" x="283" y="173.875">const target = event.</text><a href="./Definition_Event.currentTarget.svg" target="_top" xlink:actuate="onRequest" xlink:show="new" xlink:title="./Definition_Event.currentTarget.svg" xlink:type="simple"><text fill="#0000FF" font-family="sans-serif" font-size="12" lengthAdjust="spacingAndGlyphs" text-decoration="underline" textLength="79" x="404" y="173.875">currentTarget</text></a><text fill="#000000" font-family="sans-serif" font-size="12" lengthAdjust="spacingAndGlyphs" textLength="4" x="483" y="173.875">)</text><rect fill="#FEFECE" filter="url(#f1ag9nwwa1kfnr)" height="34.1328" style="stroke: #A80036; stroke-width: 1.5;" width="288" x="241" y="206.4063"/><text fill="#000000" font-family="sans-serif" font-size="12" lengthAdjust="spacingAndGlyphs" textLength="268" x="251" y="228.0078">const map = internal.listenersMaps.get(target)</text><rect fill="#FEFECE" filter="url(#f1ag9nwwa1kfnr)" height="34.1328" style="stroke: #A80036; stroke-width: 1.5;" width="236" x="267" y="260.5391"/><text fill="#000000" font-family="sans-serif" font-size="12" lengthAdjust="spacingAndGlyphs" textLength="187" x="277" y="282.1406">const listeners = map.get(event.</text><a href="./Definition_Event.type.svg" target="_top" xlink:actuate="onRequest" xlink:show="new" xlink:title="./Definition_Event.type.svg" xlink:type="simple"><text fill="#0000FF" font-family="sans-serif" font-size="12" lengthAdjust="spacingAndGlyphs" text-decoration="underline" textLength="25" x="464" y="282.1406">type</text></a><text fill="#000000" font-family="sans-serif" font-size="12" lengthAdjust="spacingAndGlyphs" textLength="4" x="489" y="282.1406">)</text><rect fill="#FEFECE" filter="url(#f1ag9nwwa1kfnr)" height="34.1328" style="stroke: #A80036; stroke-width: 1.5;" width="111" x="329.5" y="314.6719"/><text fill="#000000" font-family="sans-serif" font-size="12" lengthAdjust="spacingAndGlyphs" textLength="91" x="339.5" y="336.2734">let result = true</text><rect fill="#FEFECE" filter="url(#f1ag9nwwa1kfnr)" height="34.1328" style="stroke: #A80036; stroke-width: 1.5;" width="80" x="345" y="417.2822"/><text fill="#000000" font-family="sans-serif" font-size="12" lengthAdjust="spacingAndGlyphs" textLength="60" x="355" y="438.8838">let listener</text><rect fill="#FEFECE" filter="url(#f1ag9nwwa1kfnr)" height="34.1328" style="stroke: #A80036; stroke-width: 1.5;" width="143" x="313.5" y="515.415"/><text fill="#000000" font-family="sans-serif" font-size="12" lengthAdjust="spacingAndGlyphs" textLength="119" x="323.5" y="537.0166">listener = listeners[i]</text><rect fill="#FEFECE" filter="url(#f1ag9nwwa1kfnr)" height="34.1328" style="stroke: #A80036; stroke-width: 1.5;" width="212" x="279" y="618.0254"/><text fill="#000000" font-family="sans-serif" font-size="12" lengthAdjust="spacingAndGlyphs" textLength="192" x="289" y="639.627">binder.passive = listener.passive</text><rect fill="#FEFECE" filter="url(#f1ag9nwwa1kfnr)" height="34.1328" style="stroke: #A80036; stroke-width: 1.5;" width="347" x="211.5" y="672.1582"/><text fill="#000000" font-family="sans-serif" font-size="12" lengthAdjust="spacingAndGlyphs" textLength="327" x="221.5" y="693.7598">result = listener.callback.call(undefined, event) &amp;&amp; result</text><rect fill="#FEFECE" filter="url(#f1ag9nwwa1kfnr)" height="34.1328" style="stroke: #A80036; stroke-width: 1.5;" width="622" x="74" y="778.3574"/><line style="stroke: #A80036; stroke-width: 1.5;" x1="79" x2="79" y1="778.3574" y2="812.4902"/><line style="stroke: #A80036; stroke-width: 1.5;" x1="691" x2="691" y1="778.3574" y2="812.4902"/><text fill="#000000" font-family="sans-serif" font-size="12" lengthAdjust="spacingAndGlyphs" textLength="38" x="84" y="799.959">target.</text><a href="./Definition_EventTarget.removeEventListener.svg" target="_top" xlink:actuate="onRequest" xlink:show="new" xlink:title="./Definition_EventTarget.removeEventListener.svg" xlink:type="simple"><text fill="#0000FF" font-family="sans-serif" font-size="12" lengthAdjust="spacingAndGlyphs" text-decoration="underline" textLength="119" x="122" y="799.959">removeEventListener</text></a><text fill="#000000" font-family="sans-serif" font-size="12" lengthAdjust="spacingAndGlyphs" textLength="39" x="241" y="799.959">(event.</text><a href="./Definition_Event.type.svg" target="_top" xlink:actuate="onRequest" xlink:show="new" xlink:title="./Definition_Event.type.svg" xlink:type="simple"><text fill="#0000FF" font-family="sans-serif" font-size="12" lengthAdjust="spacingAndGlyphs" text-decoration="underline" textLength="25" x="280" y="799.959">type</text></a><text fill="#000000" font-family="sans-serif" font-size="12" lengthAdjust="spacingAndGlyphs" textLength="381" x="305" y="799.959">, listener.callback, listener.capture, listener.passive, listener.once)</text><polygon fill="#FEFECE" filter="url(#f1ag9nwwa1kfnr)" points="350.5,729.8799,419.5,729.8799,431.5,741.8799,419.5,753.8799,350.5,753.8799,338.5,741.8799,350.5,729.8799" style="stroke: #A80036; stroke-width: 1.5;"/><text fill="#000000" font-family="sans-serif" font-size="11" lengthAdjust="spacingAndGlyphs" textLength="18" x="389" y="764.5146">yes</text><text fill="#000000" font-family="sans-serif" font-size="11" lengthAdjust="spacingAndGlyphs" textLength="69" x="350.5" y="746.0371">listener.once</text><polygon fill="#FEFECE" filter="url(#f1ag9nwwa1kfnr)" points="385,832.4902,397,844.4902,385,856.4902,373,844.4902,385,832.4902" style="stroke: #A80036; stroke-width: 1.5;"/><polygon fill="#FEFECE" filter="url(#f1ag9nwwa1kfnr)" points="253,569.5479,517,569.5479,529,581.5479,517,593.5479,253,593.5479,241,581.5479,253,569.5479" style="stroke: #A80036; stroke-width: 1.5;"/><text fill="#000000" font-family="sans-serif" font-size="11" lengthAdjust="spacingAndGlyphs" textLength="18" x="389" y="604.1826">yes</text><text fill="#000000" font-family="sans-serif" font-size="11" lengthAdjust="spacingAndGlyphs" textLength="264" x="253" y="585.7051">listener.capture == capture &amp;&amp; !listener.removed</text><polygon fill="#FEFECE" filter="url(#f1ag9nwwa1kfnr)" points="385,876.4902,397,888.4902,385,900.4902,373,888.4902,385,876.4902" style="stroke: #A80036; stroke-width: 1.5;"/><polygon fill="#FEFECE" filter="url(#f1ag9nwwa1kfnr)" points="297.5,471.415,472.5,471.415,484.5,483.415,472.5,495.415,297.5,495.415,285.5,483.415,297.5,471.415" style="stroke: #A80036; stroke-width: 1.5;"/><text fill="#000000" font-family="sans-serif" font-size="11" lengthAdjust="spacingAndGlyphs" textLength="175" x="297.5" y="487.5723">let i = 0; i &lt; listeners.length; i++</text><rect fill="#FEFECE" filter="url(#f1ag9nwwa1kfnr)" height="34.1328" style="stroke: #A80036; stroke-width: 1.5;" width="150" x="310" y="942.4902"/><text fill="#000000" font-family="sans-serif" font-size="12" lengthAdjust="spacingAndGlyphs" textLength="130" x="320" y="964.0918">binder.passive = false</text><polygon fill="#FEFECE" filter="url(#f1ag9nwwa1kfnr)" points="316,368.8047,454,368.8047,466,380.8047,454,392.8047,316,392.8047,304,380.8047,316,368.8047" style="stroke: #A80036; stroke-width: 1.5;"/><text fill="#000000" font-family="sans-serif" font-size="11" lengthAdjust="spacingAndGlyphs" textLength="18" x="389" y="403.4395">yes</text><text fill="#000000" font-family="sans-serif" font-size="11" lengthAdjust="spacingAndGlyphs" textLength="138" x="316" y="384.9619">listeners instanceof Array</text><polygon fill="#FEFECE" filter="url(#f1ag9nwwa1kfnr)" points="385,996.623,397,1008.623,385,1020.623,373,1008.623,385,996.623" style="stroke: #A80036; stroke-width: 1.5;"/><polygon fill="#FEFECE" filter="url(#f1ag9nwwa1kfnr)" points="349.5,1040.623,430.5,1040.623,420.5,1074.7559,339.5,1074.7559" style="stroke: #A80036; stroke-width: 1.5;"/><text fill="#000000" font-family="sans-serif" font-size="12" lengthAdjust="spacingAndGlyphs" textLength="71" x="349.5" y="1062.2246">return result</text><ellipse cx="385" cy="1116.7559" fill="#FFFFFF" filter="url(#f1ag9nwwa1kfnr)" rx="10" ry="10" style="stroke: #000000; stroke-width: 1.5;"/><line style="stroke: #000000; stroke-width: 2.5;" x1="378.8128" x2="391.1872" y1="1110.5687" y2="1122.943"/><line style="stroke: #000000; stroke-width: 2.5;" x1="391.1872" x2="378.8128" y1="1110.5687" y2="1122.943"/><line style="stroke: #A80036; stroke-width: 1.5;" x1="385" x2="385" y1="132.2734" y2="152.2734"/><polygon fill="#A80036" points="381,142.2734,385,152.2734,389,142.2734,385,146.2734" style="stroke: #A80036; stroke-width: 1.0;"/><line style="stroke: #A80036; stroke-width: 1.5;" x1="385" x2="385" y1="186.4063" y2="206.4063"/><polygon fill="#A80036" points="381,196.4063,385,206.4063,389,196.4063,385,200.4063" style="stroke: #A80036; stroke-width: 1.0;"/><line style="stroke: #A80036; stroke-width: 1.5;" x1="385" x2="385" y1="240.5391" y2="260.5391"/><polygon fill="#A80036" points="381,250.5391,385,260.5391,389,250.5391,385,254.5391" style="stroke: #A80036; stroke-width: 1.0;"/><line style="stroke: #A80036; stroke-width: 1.5;" x1="385" x2="385" y1="294.6719" y2="314.6719"/><polygon fill="#A80036" points="381,304.6719,385,314.6719,389,304.6719,385,308.6719" style="stroke: #A80036; stroke-width: 1.0;"/><line style="stroke: #A80036; stroke-width: 1.5;" x1="385" x2="385" y1="652.1582" y2="672.1582"/><polygon fill="#A80036" points="381,662.1582,385,672.1582,389,662.1582,385,666.1582" style="stroke: #A80036; stroke-width: 1.0;"/><line style="stroke: #A80036; stroke-width: 1.5;" x1="385" x2="385" y1="753.8799" y2="778.3574"/><polygon fill="#A80036" points="381,768.3574,385,778.3574,389,768.3574,385,772.3574" style="stroke: #A80036; stroke-width: 1.0;"/><line style="stroke: #A80036; stroke-width: 1.5;" x1="431.5" x2="706" y1="741.8799" y2="741.8799"/><polygon fill="#A80036" points="702,785.4238,706,795.4238,710,785.4238,706,789.4238" style="stroke: #A80036; stroke-width: 1.5;"/><line style="stroke: #A80036; stroke-width: 1.5;" x1="706" x2="706" y1="741.8799" y2="844.4902"/><line style="stroke: #A80036; stroke-width: 1.5;" x1="706" x2="397" y1="844.4902" y2="844.4902"/><polygon fill="#A80036" points="407,840.4902,397,844.4902,407,848.4902,403,844.4902" style="stroke: #A80036; stroke-width: 1.0;"/><line style="stroke: #A80036; stroke-width: 1.5;" x1="385" x2="385" y1="812.4902" y2="832.4902"/><polygon fill="#A80036" points="381,822.4902,385,832.4902,389,822.4902,385,826.4902" style="stroke: #A80036; stroke-width: 1.0;"/><line style="stroke: #A80036; stroke-width: 1.5;" x1="385" x2="385" y1="706.291" y2="729.8799"/><polygon fill="#A80036" points="381,719.8799,385,729.8799,389,719.8799,385,723.8799" style="stroke: #A80036; stroke-width: 1.0;"/><line style="stroke: #A80036; stroke-width: 1.5;" x1="385" x2="385" y1="593.5479" y2="618.0254"/><polygon fill="#A80036" points="381,608.0254,385,618.0254,389,608.0254,385,612.0254" style="stroke: #A80036; stroke-width: 1.0;"/><line style="stroke: #A80036; stroke-width: 1.5;" x1="529" x2="724" y1="581.5479" y2="581.5479"/><polygon fill="#A80036" points="720,716.291,724,726.291,728,716.291,724,720.291" style="stroke: #A80036; stroke-width: 1.5;"/><line style="stroke: #A80036; stroke-width: 1.5;" x1="724" x2="724" y1="581.5479" y2="888.4902"/><line style="stroke: #A80036; stroke-width: 1.5;" x1="724" x2="397" y1="888.4902" y2="888.4902"/><polygon fill="#A80036" points="407,884.4902,397,888.4902,407,892.4902,403,888.4902" style="stroke: #A80036; stroke-width: 1.0;"/><line style="stroke: #A80036; stroke-width: 1.5;" x1="385" x2="385" y1="856.4902" y2="876.4902"/><polygon fill="#A80036" points="381,866.4902,385,876.4902,389,866.4902,385,870.4902" style="stroke: #A80036; stroke-width: 1.0;"/><line style="stroke: #A80036; stroke-width: 1.5;" x1="385" x2="385" y1="549.5479" y2="569.5479"/><polygon fill="#A80036" points="381,559.5479,385,569.5479,389,559.5479,385,563.5479" style="stroke: #A80036; stroke-width: 1.0;"/><line style="stroke: #A80036; stroke-width: 1.5;" x1="385" x2="385" y1="495.415" y2="515.415"/><polygon fill="#A80036" points="381,505.415,385,515.415,389,505.415,385,509.415" style="stroke: #A80036; stroke-width: 1.0;"/><line style="stroke: #A80036; stroke-width: 1.5;" x1="385" x2="385" y1="900.4902" y2="910.4902"/><line style="stroke: #A80036; stroke-width: 1.5;" x1="385" x2="742" y1="910.4902" y2="910.4902"/><polygon fill="#A80036" points="738,701.1357,742,691.1357,746,701.1357,742,697.1357" style="stroke: #A80036; stroke-width: 1.5;"/><line style="stroke: #A80036; stroke-width: 1.5;" x1="742" x2="742" y1="483.415" y2="910.4902"/><line style="stroke: #A80036; stroke-width: 1.5;" x1="742" x2="484.5" y1="483.415" y2="483.415"/><polygon fill="#A80036" points="494.5,479.415,484.5,483.415,494.5,487.415,490.5,483.415" style="stroke: #A80036; stroke-width: 1.0;"/><line style="stroke: #A80036; stroke-width: 1.5;" x1="285.5" x2="42" y1="483.415" y2="483.415"/><polygon fill="#A80036" points="38,687.1357,42,697.1357,46,687.1357,42,691.1357" style="stroke: #A80036; stroke-width: 1.5;"/><line style="stroke: #A80036; stroke-width: 1.5;" x1="42" x2="42" y1="483.415" y2="922.4902"/><line style="stroke: #A80036; stroke-width: 1.5;" x1="42" x2="385" y1="922.4902" y2="922.4902"/><line style="stroke: #A80036; stroke-width: 1.5;" x1="385" x2="385" y1="922.4902" y2="942.4902"/><polygon fill="#A80036" points="381,932.4902,385,942.4902,389,932.4902,385,936.4902" style="stroke: #A80036; stroke-width: 1.0;"/><line style="stroke: #A80036; stroke-width: 1.5;" x1="385" x2="385" y1="451.415" y2="471.415"/><polygon fill="#A80036" points="381,461.415,385,471.415,389,461.415,385,465.415" style="stroke: #A80036; stroke-width: 1.0;"/><line style="stroke: #A80036; stroke-width: 1.5;" x1="385" x2="385" y1="392.8047" y2="417.2822"/><polygon fill="#A80036" points="381,407.2822,385,417.2822,389,407.2822,385,411.2822" style="stroke: #A80036; stroke-width: 1.0;"/><line style="stroke: #A80036; stroke-width: 1.5;" x1="466" x2="752" y1="380.8047" y2="380.8047"/><polygon fill="#A80036" points="748,681.1357,752,691.1357,756,681.1357,752,685.1357" style="stroke: #A80036; stroke-width: 1.5;"/><line style="stroke: #A80036; stroke-width: 1.5;" x1="752" x2="752" y1="380.8047" y2="1008.623"/><line style="stroke: #A80036; stroke-width: 1.5;" x1="752" x2="397" y1="1008.623" y2="1008.623"/><polygon fill="#A80036" points="407,1004.623,397,1008.623,407,1012.623,403,1008.623" style="stroke: #A80036; stroke-width: 1.0;"/><line style="stroke: #A80036; stroke-width: 1.5;" x1="385" x2="385" y1="976.623" y2="996.623"/><polygon fill="#A80036" points="381,986.623,385,996.623,389,986.623,385,990.623" style="stroke: #A80036; stroke-width: 1.0;"/><line style="stroke: #A80036; stroke-width: 1.5;" x1="385" x2="385" y1="348.8047" y2="368.8047"/><polygon fill="#A80036" points="381,358.8047,385,368.8047,389,358.8047,385,362.8047" style="stroke: #A80036; stroke-width: 1.0;"/><line style="stroke: #A80036; stroke-width: 1.5;" x1="385" x2="385" y1="1020.623" y2="1040.623"/><polygon fill="#A80036" points="381,1030.623,385,1040.623,389,1030.623,385,1034.623" style="stroke: #A80036; stroke-width: 1.0;"/><line style="stroke: #A80036; stroke-width: 1.5;" x1="385" x2="385" y1="51.1992" y2="98.1406"/><polygon fill="#A80036" points="381,88.1406,385,98.1406,389,88.1406,385,92.1406" style="stroke: #A80036; stroke-width: 1.0;"/><line style="stroke: #A80036; stroke-width: 1.5;" x1="385" x2="385" y1="1074.7559" y2="1106.7559"/><polygon fill="#A80036" points="381,1096.7559,385,1106.7559,389,1096.7559,385,1100.7559" style="stroke: #A80036; stroke-width: 1.0;"/><!--
@startuml Definition_internal.fireListeners
    title Definition: internal.fireListeners()

    start
        partition SyncTask {
            :binder, event, capture/
            :const target = event.[[./Definition_Event.currentTarget.svg currentTarget]])]
            :const map = internal.listenersMaps.get(target)]
            :const listeners = map.get(event.[[./Definition_Event.type.svg type]])]
            :let result = true]
            if (listeners instanceof Array) then (yes)
                :let listener]
                while(let i = 0; i < listeners.length; i++)
                    :listener = listeners[i] ]
                    if (listener.capture == capture && !listener.removed) then (yes)
                        :binder.passive = listener.passive]
                        :result = listener.callback.call(undefined, event) && result]
                        if (listener.once) then (yes)
                            :target.[[./Definition_EventTarget.removeEventListener.svg removeEventListener]](event.[[./Definition_Event.type.svg type]], listener.callback, listener.capture, listener.passive, listener.once)|
                        endif
                    endif
                endwhile
                :binder.passive = false]
            endif
            :return result/
        }
    end
@enduml

PlantUML version 1.2019.09(Mon Aug 26 19:19:51 EEST 2019)
(GPL source distribution)
Java Runtime: OpenJDK Runtime Environment
JVM: OpenJDK 64-Bit Server VM
Java Version: 13.0.1+9
Operating System: Mac OS X
OS Version: 10.15.3
Default Encoding: UTF-8
Language: en
Country: UA
--></g></svg>