<?xml version="1.0" encoding="UTF-8" standalone="no"?><svg xmlns="http://www.w3.org/2000/svg" xmlns:xlink="http://www.w3.org/1999/xlink" contentScriptType="application/ecmascript" contentStyleType="text/css" height="534px" preserveAspectRatio="none" style="width:518px;height:534px;" version="1.1" viewBox="0 0 518 534" width="518px" zoomAndPan="magnify"><defs><filter height="300%" id="f1nykbxklqmp9v" width="300%" x="-1" y="-1"><feGaussianBlur result="blurOut" stdDeviation="2.0"/><feColorMatrix in="blurOut" result="blurOut2" type="matrix" values="0 0 0 0 0 0 0 0 0 0 0 0 0 0 0 0 0 0 .4 0"/><feOffset dx="4.0" dy="4.0" in="blurOut2" result="blurOut3"/><feBlend in="SourceGraphic" in2="blurOut3" mode="normal"/></filter></defs><g><text fill="#000000" font-family="sans-serif" font-size="18" lengthAdjust="spacing" textLength="261" x="127.75" y="26.708">Definition: exports.getStack()</text><ellipse cx="285.5" cy="40.9531" fill="#000000" filter="url(#f1nykbxklqmp9v)" rx="10" ry="10" style="stroke:none;stroke-width:1.0;"/><rect fill="#FFFFFF" filter="url(#f1nykbxklqmp9v)" height="416.1094" style="stroke:#000000;stroke-width:2.0;" width="490.5" x="11" y="60.9531"/><path d="M87,60.9531 L87,70.25 L77,80.25 L11,80.25 " fill="none" style="stroke:#000000;stroke-width:2.0;"/><text fill="#000000" font-family="sans-serif" font-size="14" lengthAdjust="spacing" textLength="66" x="14" y="74.9482">SyncTask</text><polygon fill="#FEFECE" filter="url(#f1nykbxklqmp9v)" points="181,97.25,390,97.25,402,109.25,390,121.25,181,121.25,169,109.25,181,97.25" style="stroke:#A80036;stroke-width:1.5;"/><text fill="#000000" font-family="sans-serif" font-size="11" lengthAdjust="spacing" textLength="209" x="181" y="113.0581">env.npm_package_config_monitoring</text><text fill="#000000" font-family="sans-serif" font-size="11" lengthAdjust="spacing" textLength="20" x="149" y="106.6558">yes</text><text fill="#000000" font-family="sans-serif" font-size="11" lengthAdjust="spacing" textLength="14" x="402" y="106.6558">no</text><rect fill="#FEFECE" filter="url(#f1nykbxklqmp9v)" height="33.9688" style="stroke:#A80036;stroke-width:1.5;" width="204" x="57" y="131.25"/><text fill="#000000" font-family="sans-serif" font-size="12" lengthAdjust="spacing" textLength="97" x="67" y="152.3887">let stack = new</text><a href="https://developer.mozilla.org/en-US/docs/Web/JavaScript/Reference/Global_Objects/Error/Stack" target="_top" title="https://developer.mozilla.org/en-US/docs/Web/JavaScript/Reference/Global_Objects/Error/Stack" xlink:actuate="onRequest" xlink:href="https://developer.mozilla.org/en-US/docs/Web/JavaScript/Reference/Global_Objects/Error/Stack" xlink:show="new" xlink:title="https://developer.mozilla.org/en-US/docs/Web/JavaScript/Reference/Global_Objects/Error/Stack" xlink:type="simple"><text fill="#0000FF" font-family="sans-serif" font-size="12" lengthAdjust="spacing" text-decoration="underline" textLength="79" x="168" y="152.3887">Error().stack</text></a><text fill="#000000" font-family="sans-serif" font-size="12" lengthAdjust="spacing" textLength="0" x="251" y="152.3887"/><rect fill="#FEFECE" filter="url(#f1nykbxklqmp9v)" height="33.9688" style="stroke:#A80036;stroke-width:1.5;" width="272" x="23" y="185.2188"/><text fill="#000000" font-family="sans-serif" font-size="12" lengthAdjust="spacing" textLength="248" x="33" y="206.3574">stack = stack.replace('Error', 'Created')</text><rect fill="#FEFECE" filter="url(#f1nykbxklqmp9v)" height="33.9688" style="stroke:#A80036;stroke-width:1.5;" width="239" x="39.5" y="239.1875"/><text fill="#000000" font-family="sans-serif" font-size="12" lengthAdjust="spacing" textLength="215" x="49.5" y="260.3262">const stackArray = stack.split('\n')</text><rect fill="#FEFECE" filter="url(#f1nykbxklqmp9v)" height="33.9688" style="stroke:#A80036;stroke-width:1.5;" width="164" x="77" y="293.1563"/><text fill="#000000" font-family="sans-serif" font-size="12" lengthAdjust="spacing" textLength="140" x="87" y="314.2949">stackArray.splice(1, 1)</text><rect fill="#FEFECE" filter="url(#f1nykbxklqmp9v)" height="33.9688" style="stroke:#A80036;stroke-width:1.5;" width="192" x="63" y="347.125"/><text fill="#000000" font-family="sans-serif" font-size="12" lengthAdjust="spacing" textLength="172" x="73" y="368.2637">stack = stackArray.join('\n')</text><rect fill="#FEFECE" filter="url(#f1nykbxklqmp9v)" height="33.9688" style="stroke:#A80036;stroke-width:1.5;" width="155" x="334.5" y="131.25"/><text fill="#000000" font-family="sans-serif" font-size="12" lengthAdjust="spacing" textLength="131" x="344.5" y="152.3887">let stack = 'disabled'</text><polygon fill="#FEFECE" filter="url(#f1nykbxklqmp9v)" points="285.5,387.0938,297.5,399.0938,285.5,411.0938,273.5,399.0938,285.5,387.0938" style="stroke:#A80036;stroke-width:1.5;"/><polygon fill="#FEFECE" filter="url(#f1nykbxklqmp9v)" points="247,431.0938,334,431.0938,324,465.0625,237,465.0625" style="stroke:#A80036;stroke-width:1.5;"/><text fill="#000000" font-family="sans-serif" font-size="12" lengthAdjust="spacing" textLength="77" x="247" y="452.2324">return stack</text><ellipse cx="285.5" cy="507.0625" fill="#FFFFFF" filter="url(#f1nykbxklqmp9v)" rx="10" ry="10" style="stroke:#000000;stroke-width:1.5;"/><line style="stroke:#000000;stroke-width:2.5;" x1="279.3128" x2="291.6872" y1="500.8753" y2="513.2497"/><line style="stroke:#000000;stroke-width:2.5;" x1="291.6872" x2="279.3128" y1="500.8753" y2="513.2497"/><line style="stroke:#A80036;stroke-width:1.5;" x1="159" x2="159" y1="165.2188" y2="185.2188"/><polygon fill="#A80036" points="155,175.2188,159,185.2188,163,175.2188,159,179.2188" style="stroke:#A80036;stroke-width:1.0;"/><line style="stroke:#A80036;stroke-width:1.5;" x1="159" x2="159" y1="219.1875" y2="239.1875"/><polygon fill="#A80036" points="155,229.1875,159,239.1875,163,229.1875,159,233.1875" style="stroke:#A80036;stroke-width:1.0;"/><line style="stroke:#A80036;stroke-width:1.5;" x1="159" x2="159" y1="273.1563" y2="293.1563"/><polygon fill="#A80036" points="155,283.1563,159,293.1563,163,283.1563,159,287.1563" style="stroke:#A80036;stroke-width:1.0;"/><line style="stroke:#A80036;stroke-width:1.5;" x1="159" x2="159" y1="327.125" y2="347.125"/><polygon fill="#A80036" points="155,337.125,159,347.125,163,337.125,159,341.125" style="stroke:#A80036;stroke-width:1.0;"/><line style="stroke:#A80036;stroke-width:1.5;" x1="169" x2="159" y1="109.25" y2="109.25"/><line style="stroke:#A80036;stroke-width:1.5;" x1="159" x2="159" y1="109.25" y2="131.25"/><polygon fill="#A80036" points="155,121.25,159,131.25,163,121.25,159,125.25" style="stroke:#A80036;stroke-width:1.0;"/><line style="stroke:#A80036;stroke-width:1.5;" x1="402" x2="412" y1="109.25" y2="109.25"/><line style="stroke:#A80036;stroke-width:1.5;" x1="412" x2="412" y1="109.25" y2="131.25"/><polygon fill="#A80036" points="408,121.25,412,131.25,416,121.25,412,125.25" style="stroke:#A80036;stroke-width:1.0;"/><line style="stroke:#A80036;stroke-width:1.5;" x1="159" x2="159" y1="381.0938" y2="399.0938"/><line style="stroke:#A80036;stroke-width:1.5;" x1="159" x2="273.5" y1="399.0938" y2="399.0938"/><polygon fill="#A80036" points="263.5,395.0938,273.5,399.0938,263.5,403.0938,267.5,399.0938" style="stroke:#A80036;stroke-width:1.0;"/><line style="stroke:#A80036;stroke-width:1.5;" x1="412" x2="412" y1="165.2188" y2="399.0938"/><line style="stroke:#A80036;stroke-width:1.5;" x1="412" x2="297.5" y1="399.0938" y2="399.0938"/><polygon fill="#A80036" points="307.5,395.0938,297.5,399.0938,307.5,403.0938,303.5,399.0938" style="stroke:#A80036;stroke-width:1.0;"/><line style="stroke:#A80036;stroke-width:1.5;" x1="285.5" x2="285.5" y1="411.0938" y2="431.0938"/><polygon fill="#A80036" points="281.5,421.0938,285.5,431.0938,289.5,421.0938,285.5,425.0938" style="stroke:#A80036;stroke-width:1.0;"/><line style="stroke:#A80036;stroke-width:1.5;" x1="285.5" x2="285.5" y1="50.9531" y2="97.25"/><polygon fill="#A80036" points="281.5,87.25,285.5,97.25,289.5,87.25,285.5,91.25" style="stroke:#A80036;stroke-width:1.0;"/><line style="stroke:#A80036;stroke-width:1.5;" x1="285.5" x2="285.5" y1="465.0625" y2="497.0625"/><polygon fill="#A80036" points="281.5,487.0625,285.5,497.0625,289.5,487.0625,285.5,491.0625" style="stroke:#A80036;stroke-width:1.0;"/><!--MD5=[b07c8e2eb73bc9218b3dd60767034f5d]
@startuml Definition_exports.getStack
    title Definition: exports.getStack()

    start
        partition SyncTask {
            if (env.npm_package_config_monitoring) then (yes)
                :let stack = new [[https://developer.mozilla.org/en-US/docs/Web/JavaScript/Reference/Global_Objects/Error/Stack Error().stack]] ]
                :stack = stack.replace('Error', 'Created') ]
                :const stackArray = stack.split('\\n') ]
                :stackArray.splice(1, 1) ]
                :stack = stackArray.join('\\n')]
            else (no)
                :let stack = 'disabled' ]
            endif
                :return stack/
        }
    end
@enduml

PlantUML version 1.2021.00(Sun Jan 10 12:25:05 EET 2021)
(GPL source distribution)
Java Runtime: OpenJDK Runtime Environment
JVM: OpenJDK 64-Bit Server VM
Default Encoding: UTF-8
Language: en
Country: US
--></g></svg>