<?xml version="1.0" encoding="UTF-8" standalone="no"?><svg xmlns="http://www.w3.org/2000/svg" xmlns:xlink="http://www.w3.org/1999/xlink" contentScriptType="application/ecmascript" contentStyleType="text/css" height="287px" preserveAspectRatio="none" style="width:333px;height:287px;" version="1.1" viewBox="0 0 333 287" width="333px" zoomAndPan="magnify"><defs><filter height="300%" id="fccx1l811qjvj" width="300%" x="-1" y="-1"><feGaussianBlur result="blurOut" stdDeviation="2.0"/><feColorMatrix in="blurOut" result="blurOut2" type="matrix" values="0 0 0 0 0 0 0 0 0 0 0 0 0 0 0 0 0 0 .4 0"/><feOffset dx="4.0" dy="4.0" in="blurOut2" result="blurOut3"/><feBlend in="SourceGraphic" in2="blurOut3" mode="normal"/></filter></defs><g><text fill="#000000" font-family="sans-serif" font-size="18" lengthAdjust="spacingAndGlyphs" textLength="309" x="12" y="27.4023">Definition: Event#stopPropagation()</text><ellipse cx="164" cy="41.1992" fill="#000000" filter="url(#fccx1l811qjvj)" rx="10" ry="10" style="stroke: none; stroke-width: 1.0;"/><rect fill="#FFFFFF" filter="url(#fccx1l811qjvj)" height="175.0986" style="stroke: #000000; stroke-width: 2.0;" width="227" x="53.5" y="61.6523"/><path d="M126.5,62.6523 L126.5,71.1406 L116.5,81.1406 L53.5,81.1406 " fill="none" style="stroke: #000000; stroke-width: 2.0;"/><text fill="#000000" font-family="sans-serif" font-size="14" lengthAdjust="spacingAndGlyphs" textLength="63" x="56.5" y="76.1875">SyncTask</text><rect fill="#FEFECE" filter="url(#fccx1l811qjvj)" height="34.1328" style="stroke: #A80036; stroke-width: 1.5;" width="181" x="73.5" y="146.6182"/><text fill="#000000" font-family="sans-serif" font-size="12" lengthAdjust="spacingAndGlyphs" textLength="161" x="83.5" y="168.2197">this._binder.stopped = true</text><polygon fill="#FEFECE" filter="url(#fccx1l811qjvj)" points="109,98.1406,219,98.1406,231,110.1406,219,122.1406,109,122.1406,97,110.1406,109,98.1406" style="stroke: #A80036; stroke-width: 1.5;"/><text fill="#000000" font-family="sans-serif" font-size="11" lengthAdjust="spacingAndGlyphs" textLength="18" x="168" y="132.7754">yes</text><text fill="#000000" font-family="sans-serif" font-size="11" lengthAdjust="spacingAndGlyphs" textLength="110" x="109" y="114.2979">!this._binder.passive</text><polygon fill="#FEFECE" filter="url(#fccx1l811qjvj)" points="164,200.751,176,212.751,164,224.751,152,212.751,164,200.751" style="stroke: #A80036; stroke-width: 1.5;"/><ellipse cx="164" cy="266.751" fill="#FFFFFF" filter="url(#fccx1l811qjvj)" rx="10" ry="10" style="stroke: #000000; stroke-width: 1.5;"/><line style="stroke: #000000; stroke-width: 2.5;" x1="157.8128" x2="170.1872" y1="260.5638" y2="272.9382"/><line style="stroke: #000000; stroke-width: 2.5;" x1="170.1872" x2="157.8128" y1="260.5638" y2="272.9382"/><line style="stroke: #A80036; stroke-width: 1.5;" x1="164" x2="164" y1="122.1406" y2="146.6182"/><polygon fill="#A80036" points="160,136.6182,164,146.6182,168,136.6182,164,140.6182" style="stroke: #A80036; stroke-width: 1.0;"/><line style="stroke: #A80036; stroke-width: 1.5;" x1="231" x2="264.5" y1="110.1406" y2="110.1406"/><polygon fill="#A80036" points="260.5,153.6846,264.5,163.6846,268.5,153.6846,264.5,157.6846" style="stroke: #A80036; stroke-width: 1.5;"/><line style="stroke: #A80036; stroke-width: 1.5;" x1="264.5" x2="264.5" y1="110.1406" y2="212.751"/><line style="stroke: #A80036; stroke-width: 1.5;" x1="264.5" x2="176" y1="212.751" y2="212.751"/><polygon fill="#A80036" points="186,208.751,176,212.751,186,216.751,182,212.751" style="stroke: #A80036; stroke-width: 1.0;"/><line style="stroke: #A80036; stroke-width: 1.5;" x1="164" x2="164" y1="180.751" y2="200.751"/><polygon fill="#A80036" points="160,190.751,164,200.751,168,190.751,164,194.751" style="stroke: #A80036; stroke-width: 1.0;"/><line style="stroke: #A80036; stroke-width: 1.5;" x1="164" x2="164" y1="51.1992" y2="98.1406"/><polygon fill="#A80036" points="160,88.1406,164,98.1406,168,88.1406,164,92.1406" style="stroke: #A80036; stroke-width: 1.0;"/><line style="stroke: #A80036; stroke-width: 1.5;" x1="164" x2="164" y1="224.751" y2="256.751"/><polygon fill="#A80036" points="160,246.751,164,256.751,168,246.751,164,250.751" style="stroke: #A80036; stroke-width: 1.0;"/><!--
@startuml Definition_Event.stopPropagation
    title Definition: Event#stopPropagation()

    start
        partition SyncTask {
            if (!this._binder.passive) then (yes)
                :this._binder.stopped = true]
            endif
        }
    end
@enduml

PlantUML version 1.2019.09(Mon Aug 26 19:19:51 EEST 2019)
(GPL source distribution)
Java Runtime: OpenJDK Runtime Environment
JVM: OpenJDK 64-Bit Server VM
Java Version: 13.0.1+9
Operating System: Mac OS X
OS Version: 10.15.3
Default Encoding: UTF-8
Language: en
Country: UA
--></g></svg>