<?xml version="1.0" encoding="UTF-8" standalone="no"?><svg xmlns="http://www.w3.org/2000/svg" xmlns:xlink="http://www.w3.org/1999/xlink" contentScriptType="application/ecmascript" contentStyleType="text/css" height="428px" preserveAspectRatio="none" style="width:422px;height:428px;" version="1.1" viewBox="0 0 422 428" width="422px" zoomAndPan="magnify"><defs><filter height="300%" id="f6x43p8tgdmdy" width="300%" x="-1" y="-1"><feGaussianBlur result="blurOut" stdDeviation="2.0"/><feColorMatrix in="blurOut" result="blurOut2" type="matrix" values="0 0 0 0 0 0 0 0 0 0 0 0 0 0 0 0 0 0 .4 0"/><feOffset dx="4.0" dy="4.0" in="blurOut2" result="blurOut3"/><feBlend in="SourceGraphic" in2="blurOut3" mode="normal"/></filter></defs><g><text fill="#000000" font-family="sans-serif" font-size="18" lengthAdjust="spacing" textLength="256" x="82" y="26.708">Definition: Node#childNodes</text><ellipse cx="208" cy="40.9531" fill="#000000" filter="url(#f6x43p8tgdmdy)" rx="10" ry="10" style="stroke:none;stroke-width:1.0;"/><rect fill="#FFFFFF" filter="url(#f6x43p8tgdmdy)" height="310.1719" style="stroke:#000000;stroke-width:2.0;" width="394" x="11" y="60.9531"/><path d="M87,60.9531 L87,70.25 L77,80.25 L11,80.25 " fill="none" style="stroke:#000000;stroke-width:2.0;"/><text fill="#000000" font-family="sans-serif" font-size="14" lengthAdjust="spacing" textLength="66" x="14" y="74.9482">SyncTask</text><rect fill="#FEFECE" filter="url(#f6x43p8tgdmdy)" height="33.9688" style="stroke:#A80036;stroke-width:1.5;" width="374" x="21" y="97.25"/><text fill="#000000" font-family="sans-serif" font-size="12" lengthAdjust="spacing" textLength="354" x="31" y="118.3887">const children = internal.nodesIndices.get(this).children</text><rect fill="#FEFECE" filter="url(#f6x43p8tgdmdy)" height="33.9688" style="stroke:#A80036;stroke-width:1.5;" width="178" x="119" y="151.2188"/><text fill="#000000" font-family="sans-serif" font-size="12" lengthAdjust="spacing" textLength="158" x="129" y="172.3574">const result = new Map()</text><rect fill="#FEFECE" filter="url(#f6x43p8tgdmdy)" height="33.9688" style="stroke:#A80036;stroke-width:1.5;" width="168" x="124" y="249.1875"/><text fill="#000000" font-family="sans-serif" font-size="12" lengthAdjust="spacing" textLength="144" x="134" y="270.3262">result.set(i, children[i])</text><polygon fill="#FEFECE" filter="url(#f6x43p8tgdmdy)" points="105,205.1875,311,205.1875,323,217.1875,311,229.1875,105,229.1875,93,217.1875,105,205.1875" style="stroke:#A80036;stroke-width:1.5;"/><text fill="#000000" font-family="sans-serif" font-size="11" lengthAdjust="spacing" textLength="206" x="105" y="220.9956">for let i = 0; i &lt; children.length; i++</text><polygon fill="#FEFECE" filter="url(#f6x43p8tgdmdy)" points="168.5,325.1563,257.5,325.1563,247.5,359.125,158.5,359.125" style="stroke:#A80036;stroke-width:1.5;"/><text fill="#000000" font-family="sans-serif" font-size="12" lengthAdjust="spacing" textLength="79" x="168.5" y="346.2949">return result</text><ellipse cx="208" cy="401.125" fill="#FFFFFF" filter="url(#f6x43p8tgdmdy)" rx="10" ry="10" style="stroke:#000000;stroke-width:1.5;"/><line style="stroke:#000000;stroke-width:2.5;" x1="201.8128" x2="214.1872" y1="394.9378" y2="407.3122"/><line style="stroke:#000000;stroke-width:2.5;" x1="214.1872" x2="201.8128" y1="394.9378" y2="407.3122"/><line style="stroke:#A80036;stroke-width:1.5;" x1="208" x2="208" y1="131.2188" y2="151.2188"/><polygon fill="#A80036" points="204,141.2188,208,151.2188,212,141.2188,208,145.2188" style="stroke:#A80036;stroke-width:1.0;"/><line style="stroke:#A80036;stroke-width:1.5;" x1="208" x2="208" y1="229.1875" y2="249.1875"/><polygon fill="#A80036" points="204,239.1875,208,249.1875,212,239.1875,208,243.1875" style="stroke:#A80036;stroke-width:1.0;"/><line style="stroke:#A80036;stroke-width:1.5;" x1="208" x2="208" y1="283.1563" y2="293.1563"/><line style="stroke:#A80036;stroke-width:1.5;" x1="208" x2="335" y1="293.1563" y2="293.1563"/><polygon fill="#A80036" points="331,264.1719,335,254.1719,339,264.1719,335,260.1719" style="stroke:#A80036;stroke-width:1.5;"/><line style="stroke:#A80036;stroke-width:1.5;" x1="335" x2="335" y1="217.1875" y2="293.1563"/><line style="stroke:#A80036;stroke-width:1.5;" x1="335" x2="323" y1="217.1875" y2="217.1875"/><polygon fill="#A80036" points="333,213.1875,323,217.1875,333,221.1875,329,217.1875" style="stroke:#A80036;stroke-width:1.0;"/><line style="stroke:#A80036;stroke-width:1.5;" x1="93" x2="81" y1="217.1875" y2="217.1875"/><polygon fill="#A80036" points="77,250.1719,81,260.1719,85,250.1719,81,254.1719" style="stroke:#A80036;stroke-width:1.5;"/><line style="stroke:#A80036;stroke-width:1.5;" x1="81" x2="81" y1="217.1875" y2="305.1563"/><line style="stroke:#A80036;stroke-width:1.5;" x1="81" x2="208" y1="305.1563" y2="305.1563"/><line style="stroke:#A80036;stroke-width:1.5;" x1="208" x2="208" y1="305.1563" y2="325.1563"/><polygon fill="#A80036" points="204,315.1563,208,325.1563,212,315.1563,208,319.1563" style="stroke:#A80036;stroke-width:1.0;"/><line style="stroke:#A80036;stroke-width:1.5;" x1="208" x2="208" y1="185.1875" y2="205.1875"/><polygon fill="#A80036" points="204,195.1875,208,205.1875,212,195.1875,208,199.1875" style="stroke:#A80036;stroke-width:1.0;"/><line style="stroke:#A80036;stroke-width:1.5;" x1="208" x2="208" y1="50.9531" y2="97.25"/><polygon fill="#A80036" points="204,87.25,208,97.25,212,87.25,208,91.25" style="stroke:#A80036;stroke-width:1.0;"/><line style="stroke:#A80036;stroke-width:1.5;" x1="208" x2="208" y1="359.125" y2="391.125"/><polygon fill="#A80036" points="204,381.125,208,391.125,212,381.125,208,385.125" style="stroke:#A80036;stroke-width:1.0;"/><!--MD5=[7a15a7d361723ba0250411f950d211d9]
@startuml Definition_Node.childNodes
    title Definition: Node#childNodes

    start
        partition SyncTask {
            :const children = internal.nodesIndices.get(this).children]
            :const result = new Map()]
            while (for let i = 0; i < children.length; i++)
                :result.set(i, children[i]) ]
            endwhile
            :return result/
        }
    end
@enduml

PlantUML version 1.2021.00(Sun Jan 10 12:25:05 EET 2021)
(GPL source distribution)
Java Runtime: OpenJDK Runtime Environment
JVM: OpenJDK 64-Bit Server VM
Default Encoding: UTF-8
Language: en
Country: US
--></g></svg>