<?xml version="1.0" encoding="UTF-8" standalone="no"?><svg xmlns="http://www.w3.org/2000/svg" xmlns:xlink="http://www.w3.org/1999/xlink" contentScriptType="application/ecmascript" contentStyleType="text/css" height="341px" preserveAspectRatio="none" style="width:375px;height:341px;" version="1.1" viewBox="0 0 375 341" width="375px" zoomAndPan="magnify"><defs><filter height="300%" id="fydpt1acxfnha" width="300%" x="-1" y="-1"><feGaussianBlur result="blurOut" stdDeviation="2.0"/><feColorMatrix in="blurOut" result="blurOut2" type="matrix" values="0 0 0 0 0 0 0 0 0 0 0 0 0 0 0 0 0 0 .4 0"/><feOffset dx="4.0" dy="4.0" in="blurOut2" result="blurOut3"/><feBlend in="SourceGraphic" in2="blurOut3" mode="normal"/></filter></defs><g><text fill="#000000" font-family="sans-serif" font-size="18" lengthAdjust="spacingAndGlyphs" textLength="351" x="12" y="27.4023">Definition: Event#setDispatcherInternal()</text><ellipse cx="179" cy="41.1992" fill="#000000" filter="url(#fydpt1acxfnha)" rx="10" ry="10" style="stroke: none; stroke-width: 1.0;"/><rect fill="#FFFFFF" filter="url(#fydpt1acxfnha)" height="229.2314" style="stroke: #000000; stroke-width: 2.0;" width="268" x="54" y="61.6523"/><path d="M127,62.6523 L127,71.1406 L117,81.1406 L54,81.1406 " fill="none" style="stroke: #000000; stroke-width: 2.0;"/><text fill="#000000" font-family="sans-serif" font-size="14" lengthAdjust="spacingAndGlyphs" textLength="63" x="57" y="76.1875">SyncTask</text><polygon fill="#FEFECE" filter="url(#fydpt1acxfnha)" points="148.5,98.1406,219.5,98.1406,209.5,132.2734,138.5,132.2734" style="stroke: #A80036; stroke-width: 1.5;"/><text fill="#000000" font-family="sans-serif" font-size="12" lengthAdjust="spacingAndGlyphs" textLength="61" x="148.5" y="119.7422">dispatcher</text><rect fill="#FEFECE" filter="url(#fydpt1acxfnha)" height="34.1328" style="stroke: #A80036; stroke-width: 1.5;" width="190" x="84" y="200.751"/><text fill="#000000" font-family="sans-serif" font-size="12" lengthAdjust="spacingAndGlyphs" textLength="170" x="94" y="222.3525">this._dispatcher = dispatcher</text><polygon fill="#FEFECE" filter="url(#fydpt1acxfnha)" points="76,152.2734,282,152.2734,294,164.2734,282,176.2734,76,176.2734,64,164.2734,76,152.2734" style="stroke: #A80036; stroke-width: 1.5;"/><text fill="#000000" font-family="sans-serif" font-size="11" lengthAdjust="spacingAndGlyphs" textLength="18" x="183" y="186.9082">yes</text><text fill="#000000" font-family="sans-serif" font-size="11" lengthAdjust="spacingAndGlyphs" textLength="206" x="76" y="168.4307">dispatcher instanceof EventDispatcher</text><polygon fill="#FEFECE" filter="url(#fydpt1acxfnha)" points="179,254.8838,191,266.8838,179,278.8838,167,266.8838,179,254.8838" style="stroke: #A80036; stroke-width: 1.5;"/><ellipse cx="179" cy="320.8838" fill="#FFFFFF" filter="url(#fydpt1acxfnha)" rx="10" ry="10" style="stroke: #000000; stroke-width: 1.5;"/><line style="stroke: #000000; stroke-width: 2.5;" x1="172.8128" x2="185.1872" y1="314.6966" y2="327.071"/><line style="stroke: #000000; stroke-width: 2.5;" x1="185.1872" x2="172.8128" y1="314.6966" y2="327.071"/><line style="stroke: #A80036; stroke-width: 1.5;" x1="179" x2="179" y1="176.2734" y2="200.751"/><polygon fill="#A80036" points="175,190.751,179,200.751,183,190.751,179,194.751" style="stroke: #A80036; stroke-width: 1.0;"/><line style="stroke: #A80036; stroke-width: 1.5;" x1="294" x2="306" y1="164.2734" y2="164.2734"/><polygon fill="#A80036" points="302,207.8174,306,217.8174,310,207.8174,306,211.8174" style="stroke: #A80036; stroke-width: 1.5;"/><line style="stroke: #A80036; stroke-width: 1.5;" x1="306" x2="306" y1="164.2734" y2="266.8838"/><line style="stroke: #A80036; stroke-width: 1.5;" x1="306" x2="191" y1="266.8838" y2="266.8838"/><polygon fill="#A80036" points="201,262.8838,191,266.8838,201,270.8838,197,266.8838" style="stroke: #A80036; stroke-width: 1.0;"/><line style="stroke: #A80036; stroke-width: 1.5;" x1="179" x2="179" y1="234.8838" y2="254.8838"/><polygon fill="#A80036" points="175,244.8838,179,254.8838,183,244.8838,179,248.8838" style="stroke: #A80036; stroke-width: 1.0;"/><line style="stroke: #A80036; stroke-width: 1.5;" x1="179" x2="179" y1="132.2734" y2="152.2734"/><polygon fill="#A80036" points="175,142.2734,179,152.2734,183,142.2734,179,146.2734" style="stroke: #A80036; stroke-width: 1.0;"/><line style="stroke: #A80036; stroke-width: 1.5;" x1="179" x2="179" y1="51.1992" y2="98.1406"/><polygon fill="#A80036" points="175,88.1406,179,98.1406,183,88.1406,179,92.1406" style="stroke: #A80036; stroke-width: 1.0;"/><line style="stroke: #A80036; stroke-width: 1.5;" x1="179" x2="179" y1="278.8838" y2="310.8838"/><polygon fill="#A80036" points="175,300.8838,179,310.8838,183,300.8838,179,304.8838" style="stroke: #A80036; stroke-width: 1.0;"/><!--
@startuml Definition_Event.setDispatcherInternal
    title Definition: Event#setDispatcherInternal()

    start
        partition SyncTask {
            :dispatcher/
            if (dispatcher instanceof EventDispatcher) then (yes)
                :this._dispatcher = dispatcher]
            endif
        }
    end
@enduml

PlantUML version 1.2019.09(Mon Aug 26 19:19:51 EEST 2019)
(GPL source distribution)
Java Runtime: OpenJDK Runtime Environment
JVM: OpenJDK 64-Bit Server VM
Java Version: 13.0.1+9
Operating System: Mac OS X
OS Version: 10.15.3
Default Encoding: UTF-8
Language: en
Country: UA
--></g></svg>