<?xml version="1.0" encoding="UTF-8" standalone="no"?><svg xmlns="http://www.w3.org/2000/svg" xmlns:xlink="http://www.w3.org/1999/xlink" contentScriptType="application/ecmascript" contentStyleType="text/css" height="654px" preserveAspectRatio="none" style="width:348px;height:654px;" version="1.1" viewBox="0 0 348 654" width="348px" zoomAndPan="magnify"><defs><filter height="300%" id="f18xmq1czutikg" width="300%" x="-1" y="-1"><feGaussianBlur result="blurOut" stdDeviation="2.0"/><feColorMatrix in="blurOut" result="blurOut2" type="matrix" values="0 0 0 0 0 0 0 0 0 0 0 0 0 0 0 0 0 0 .4 0"/><feOffset dx="4.0" dy="4.0" in="blurOut2" result="blurOut3"/><feBlend in="SourceGraphic" in2="blurOut3" mode="normal"/></filter></defs><g><text fill="#000000" font-family="sans-serif" font-size="18" lengthAdjust="spacing" textLength="324" x="12" y="26.708">Definition: NodeIndex#constructor()</text><ellipse cx="165" cy="40.9531" fill="#000000" filter="url(#f18xmq1czutikg)" rx="10" ry="10" style="stroke:none;stroke-width:1.0;"/><rect fill="#FFFFFF" filter="url(#f18xmq1czutikg)" height="536.9141" style="stroke:#000000;stroke-width:2.0;" width="203" x="70.5" y="60.9531"/><path d="M146.5,60.9531 L146.5,70.25 L136.5,80.25 L70.5,80.25 " fill="none" style="stroke:#000000;stroke-width:2.0;"/><text fill="#000000" font-family="sans-serif" font-size="14" lengthAdjust="spacing" textLength="66" x="73.5" y="74.9482">SyncTask</text><polygon fill="#FEFECE" filter="url(#f18xmq1czutikg)" points="115,97.25,225,97.25,215,131.2188,105,131.2188" style="stroke:#A80036;stroke-width:1.5;"/><text fill="#000000" font-family="sans-serif" font-size="12" lengthAdjust="spacing" textLength="100" x="115" y="118.3887">parent, children</text><rect fill="#FEFECE" filter="url(#f18xmq1czutikg)" height="33.9688" style="stroke:#A80036;stroke-width:1.5;" width="129" x="100.5" y="151.2188"/><text fill="#000000" font-family="sans-serif" font-size="12" lengthAdjust="spacing" textLength="109" x="110.5" y="172.3574">this.parent = null</text><rect fill="#FEFECE" filter="url(#f18xmq1czutikg)" height="33.9688" style="stroke:#A80036;stroke-width:1.5;" width="129" x="100.5" y="205.1875"/><text fill="#000000" font-family="sans-serif" font-size="12" lengthAdjust="spacing" textLength="105" x="110.5" y="226.3262">this.children = []</text><rect fill="#FEFECE" filter="url(#f18xmq1czutikg)" height="33.9688" style="stroke:#A80036;stroke-width:1.5;" width="149" x="90.5" y="307.5586"/><text fill="#000000" font-family="sans-serif" font-size="12" lengthAdjust="spacing" textLength="129" x="100.5" y="328.6973">this.parent = parent</text><polygon fill="#FEFECE" filter="url(#f18xmq1czutikg)" points="146.5,259.1563,183.5,259.1563,195.5,271.1563,183.5,283.1563,146.5,283.1563,134.5,271.1563,146.5,259.1563" style="stroke:#A80036;stroke-width:1.5;"/><text fill="#000000" font-family="sans-serif" font-size="11" lengthAdjust="spacing" textLength="20" x="169" y="293.3667">yes</text><text fill="#000000" font-family="sans-serif" font-size="11" lengthAdjust="spacing" textLength="37" x="146.5" y="274.9644">parent</text><polygon fill="#FEFECE" filter="url(#f18xmq1czutikg)" points="165,361.5273,177,373.5273,165,385.5273,153,373.5273,165,361.5273" style="stroke:#A80036;stroke-width:1.5;"/><rect fill="#FEFECE" filter="url(#f18xmq1czutikg)" height="33.9688" style="stroke:#A80036;stroke-width:1.5;" width="165" x="82.5" y="453.9297"/><text fill="#000000" font-family="sans-serif" font-size="12" lengthAdjust="spacing" textLength="145" x="92.5" y="475.0684">this.children = children</text><polygon fill="#FEFECE" filter="url(#f18xmq1czutikg)" points="142.5,405.5273,187.5,405.5273,199.5,417.5273,187.5,429.5273,142.5,429.5273,130.5,417.5273,142.5,405.5273" style="stroke:#A80036;stroke-width:1.5;"/><text fill="#000000" font-family="sans-serif" font-size="11" lengthAdjust="spacing" textLength="20" x="169" y="439.7378">yes</text><text fill="#000000" font-family="sans-serif" font-size="11" lengthAdjust="spacing" textLength="45" x="142.5" y="421.3354">children</text><polygon fill="#FEFECE" filter="url(#f18xmq1czutikg)" points="165,507.8984,177,519.8984,165,531.8984,153,519.8984,165,507.8984" style="stroke:#A80036;stroke-width:1.5;"/><polygon fill="#FEFECE" filter="url(#f18xmq1czutikg)" points="153.5,551.8984,186.5,551.8984,176.5,585.8672,143.5,585.8672" style="stroke:#A80036;stroke-width:1.5;"/><text fill="#000000" font-family="sans-serif" font-size="12" lengthAdjust="spacing" textLength="23" x="153.5" y="573.0371">this</text><ellipse cx="165" cy="627.8672" fill="#FFFFFF" filter="url(#f18xmq1czutikg)" rx="10" ry="10" style="stroke:#000000;stroke-width:1.5;"/><line style="stroke:#000000;stroke-width:2.5;" x1="158.8128" x2="171.1872" y1="621.68" y2="634.0544"/><line style="stroke:#000000;stroke-width:2.5;" x1="171.1872" x2="158.8128" y1="621.68" y2="634.0544"/><line style="stroke:#A80036;stroke-width:1.5;" x1="165" x2="165" y1="131.2188" y2="151.2188"/><polygon fill="#A80036" points="161,141.2188,165,151.2188,169,141.2188,165,145.2188" style="stroke:#A80036;stroke-width:1.0;"/><line style="stroke:#A80036;stroke-width:1.5;" x1="165" x2="165" y1="185.1875" y2="205.1875"/><polygon fill="#A80036" points="161,195.1875,165,205.1875,169,195.1875,165,199.1875" style="stroke:#A80036;stroke-width:1.0;"/><line style="stroke:#A80036;stroke-width:1.5;" x1="165" x2="165" y1="283.1563" y2="307.5586"/><polygon fill="#A80036" points="161,297.5586,165,307.5586,169,297.5586,165,301.5586" style="stroke:#A80036;stroke-width:1.0;"/><line style="stroke:#A80036;stroke-width:1.5;" x1="195.5" x2="249.5" y1="271.1563" y2="271.1563"/><polygon fill="#A80036" points="245.5,314.543,249.5,324.543,253.5,314.543,249.5,318.543" style="stroke:#A80036;stroke-width:1.5;"/><line style="stroke:#A80036;stroke-width:1.5;" x1="249.5" x2="249.5" y1="271.1563" y2="373.5273"/><line style="stroke:#A80036;stroke-width:1.5;" x1="249.5" x2="177" y1="373.5273" y2="373.5273"/><polygon fill="#A80036" points="187,369.5273,177,373.5273,187,377.5273,183,373.5273" style="stroke:#A80036;stroke-width:1.0;"/><line style="stroke:#A80036;stroke-width:1.5;" x1="165" x2="165" y1="341.5273" y2="361.5273"/><polygon fill="#A80036" points="161,351.5273,165,361.5273,169,351.5273,165,355.5273" style="stroke:#A80036;stroke-width:1.0;"/><line style="stroke:#A80036;stroke-width:1.5;" x1="165" x2="165" y1="239.1563" y2="259.1563"/><polygon fill="#A80036" points="161,249.1563,165,259.1563,169,249.1563,165,253.1563" style="stroke:#A80036;stroke-width:1.0;"/><line style="stroke:#A80036;stroke-width:1.5;" x1="165" x2="165" y1="429.5273" y2="453.9297"/><polygon fill="#A80036" points="161,443.9297,165,453.9297,169,443.9297,165,447.9297" style="stroke:#A80036;stroke-width:1.0;"/><line style="stroke:#A80036;stroke-width:1.5;" x1="199.5" x2="257.5" y1="417.5273" y2="417.5273"/><polygon fill="#A80036" points="253.5,460.9141,257.5,470.9141,261.5,460.9141,257.5,464.9141" style="stroke:#A80036;stroke-width:1.5;"/><line style="stroke:#A80036;stroke-width:1.5;" x1="257.5" x2="257.5" y1="417.5273" y2="519.8984"/><line style="stroke:#A80036;stroke-width:1.5;" x1="257.5" x2="177" y1="519.8984" y2="519.8984"/><polygon fill="#A80036" points="187,515.8984,177,519.8984,187,523.8984,183,519.8984" style="stroke:#A80036;stroke-width:1.0;"/><line style="stroke:#A80036;stroke-width:1.5;" x1="165" x2="165" y1="487.8984" y2="507.8984"/><polygon fill="#A80036" points="161,497.8984,165,507.8984,169,497.8984,165,501.8984" style="stroke:#A80036;stroke-width:1.0;"/><line style="stroke:#A80036;stroke-width:1.5;" x1="165" x2="165" y1="385.5273" y2="405.5273"/><polygon fill="#A80036" points="161,395.5273,165,405.5273,169,395.5273,165,399.5273" style="stroke:#A80036;stroke-width:1.0;"/><line style="stroke:#A80036;stroke-width:1.5;" x1="165" x2="165" y1="531.8984" y2="551.8984"/><polygon fill="#A80036" points="161,541.8984,165,551.8984,169,541.8984,165,545.8984" style="stroke:#A80036;stroke-width:1.0;"/><line style="stroke:#A80036;stroke-width:1.5;" x1="165" x2="165" y1="50.9531" y2="97.25"/><polygon fill="#A80036" points="161,87.25,165,97.25,169,87.25,165,91.25" style="stroke:#A80036;stroke-width:1.0;"/><line style="stroke:#A80036;stroke-width:1.5;" x1="165" x2="165" y1="585.8672" y2="617.8672"/><polygon fill="#A80036" points="161,607.8672,165,617.8672,169,607.8672,165,611.8672" style="stroke:#A80036;stroke-width:1.0;"/><!--MD5=[28f72c616779cb16ada379d4c5fe1742]
@startuml Definition_NodeIndex.constructor
    title Definition: NodeIndex#constructor()

    start
        partition SyncTask {
            :parent, children/
            :this.parent = null]
            :this.children = [] ]
            if (parent) then (yes)
                :this.parent = parent]
            endif
            if (children) then (yes)
                :this.children = children]
            endif
            :this/
        }
    end
@enduml

PlantUML version 1.2021.00(Sun Jan 10 12:25:05 EET 2021)
(GPL source distribution)
Java Runtime: OpenJDK Runtime Environment
JVM: OpenJDK 64-Bit Server VM
Default Encoding: UTF-8
Language: en
Country: US
--></g></svg>