<?xml version="1.0" encoding="UTF-8" standalone="no"?><svg xmlns="http://www.w3.org/2000/svg" xmlns:xlink="http://www.w3.org/1999/xlink" contentScriptType="application/ecmascript" contentStyleType="text/css" height="693px" preserveAspectRatio="none" style="width:508px;height:693px;" version="1.1" viewBox="0 0 508 693" width="508px" zoomAndPan="magnify"><defs><filter height="300%" id="fmb8l6zlqss06" width="300%" x="-1" y="-1"><feGaussianBlur result="blurOut" stdDeviation="2.0"/><feColorMatrix in="blurOut" result="blurOut2" type="matrix" values="0 0 0 0 0 0 0 0 0 0 0 0 0 0 0 0 0 0 .4 0"/><feOffset dx="4.0" dy="4.0" in="blurOut2" result="blurOut3"/><feBlend in="SourceGraphic" in2="blurOut3" mode="normal"/></filter></defs><g><text fill="#000000" font-family="sans-serif" font-size="18" lengthAdjust="spacingAndGlyphs" textLength="297" x="104.5" y="27.4023">Definition: Node#disposeInternal()</text><ellipse cx="250.5" cy="41.1992" fill="#000000" filter="url(#fmb8l6zlqss06)" rx="10" ry="10" style="stroke: none; stroke-width: 1.0;"/><rect fill="#FFFFFF" filter="url(#fmb8l6zlqss06)" height="580.8955" style="stroke: #000000; stroke-width: 2.0;" width="487" x="10" y="61.6523"/><path d="M83,62.6523 L83,71.1406 L73,81.1406 L10,81.1406 " fill="none" style="stroke: #000000; stroke-width: 2.0;"/><text fill="#000000" font-family="sans-serif" font-size="14" lengthAdjust="spacingAndGlyphs" textLength="63" x="13" y="76.1875">SyncTask</text><rect fill="#FEFECE" filter="url(#fmb8l6zlqss06)" height="34.1328" style="stroke: #A80036; stroke-width: 1.5;" width="324" x="88.5" y="98.1406"/><text fill="#000000" font-family="sans-serif" font-size="12" lengthAdjust="spacingAndGlyphs" textLength="304" x="98.5" y="119.7422">const parent = internal.nodesIndices.get(this).parent</text><rect fill="#FEFECE" filter="url(#fmb8l6zlqss06)" height="34.1328" style="stroke: #A80036; stroke-width: 1.5;" width="340" x="80.5" y="152.2734"/><text fill="#000000" font-family="sans-serif" font-size="12" lengthAdjust="spacingAndGlyphs" textLength="320" x="90.5" y="173.875">const children = internal.nodesIndices.get(this).children</text><rect fill="#FEFECE" filter="url(#fmb8l6zlqss06)" height="34.1328" style="stroke: #A80036; stroke-width: 1.5;" width="138" x="181.5" y="250.4063"/><text fill="#000000" font-family="sans-serif" font-size="12" lengthAdjust="spacingAndGlyphs" textLength="61" x="191.5" y="272.0078">children[i].</text><a href="./Definition_Disposable.dispose.svg" target="_top" xlink:actuate="onRequest" xlink:show="new" xlink:title="./Definition_Disposable.dispose.svg" xlink:type="simple"><text fill="#0000FF" font-family="sans-serif" font-size="12" lengthAdjust="spacingAndGlyphs" text-decoration="underline" textLength="45" x="252.5" y="272.0078">dispose</text></a><text fill="#000000" font-family="sans-serif" font-size="12" lengthAdjust="spacingAndGlyphs" textLength="8" x="297.5" y="272.0078">()</text><polygon fill="#FEFECE" filter="url(#fmb8l6zlqss06)" points="164,206.4063,337,206.4063,349,218.4063,337,230.4063,164,230.4063,152,218.4063,164,206.4063" style="stroke: #A80036; stroke-width: 1.5;"/><text fill="#000000" font-family="sans-serif" font-size="11" lengthAdjust="spacingAndGlyphs" textLength="173" x="164" y="222.5635">let i = 0; i &lt; children.length; i++</text><rect fill="#FEFECE" filter="url(#fmb8l6zlqss06)" height="34.1328" style="stroke: #A80036; stroke-width: 1.5;" width="441" x="30" y="375.0166"/><text fill="#000000" font-family="sans-serif" font-size="12" lengthAdjust="spacingAndGlyphs" textLength="421" x="40" y="396.6182">const parIndex = internal.nodesIndices.get(parent).children.indexOf(this)</text><rect fill="#FEFECE" filter="url(#fmb8l6zlqss06)" height="34.1328" style="stroke: #A80036; stroke-width: 1.5;" width="373" x="64" y="444.1494"/><text fill="#000000" font-family="sans-serif" font-size="12" lengthAdjust="spacingAndGlyphs" textLength="353" x="74" y="465.751">internal.nodesIndices.get(parent).children.splice(parIndex, 1)</text><polygon fill="#FEFECE" filter="url(#fmb8l6zlqss06)" points="214,326.5391,287,326.5391,299,338.5391,287,350.5391,214,350.5391,202,338.5391,214,326.5391" style="stroke: #A80036; stroke-width: 1.5;"/><text fill="#000000" font-family="sans-serif" font-size="11" lengthAdjust="spacingAndGlyphs" textLength="18" x="254.5" y="361.1738">yes</text><text fill="#000000" font-family="sans-serif" font-size="11" lengthAdjust="spacingAndGlyphs" textLength="73" x="214" y="342.6963">parent != null</text><polygon fill="#FEFECE" filter="url(#fmb8l6zlqss06)" points="250.5,498.2822,262.5,510.2822,250.5,522.2822,238.5,510.2822,250.5,498.2822" style="stroke: #A80036; stroke-width: 1.5;"/><rect fill="#FEFECE" filter="url(#fmb8l6zlqss06)" height="34.1328" style="stroke: #A80036; stroke-width: 1.5;" width="210" x="145.5" y="542.2822"/><text fill="#000000" font-family="sans-serif" font-size="12" lengthAdjust="spacingAndGlyphs" textLength="190" x="155.5" y="563.8838">internal.nodesIndices.delete(this)</text><rect fill="#FEFECE" filter="url(#fmb8l6zlqss06)" height="34.1328" style="stroke: #A80036; stroke-width: 1.5;" width="61" x="220" y="596.415"/><line style="stroke: #A80036; stroke-width: 1.5;" x1="225" x2="225" y1="596.415" y2="630.5479"/><line style="stroke: #A80036; stroke-width: 1.5;" x1="276" x2="276" y1="596.415" y2="630.5479"/><a href="./Definition_EventTarget.disposeInternal.svg" target="_top" xlink:actuate="onRequest" xlink:show="new" xlink:title="./Definition_EventTarget.disposeInternal.svg" xlink:type="simple"><text fill="#0000FF" font-family="sans-serif" font-size="12" lengthAdjust="spacingAndGlyphs" text-decoration="underline" textLength="41" x="230" y="618.0166">super()</text></a><ellipse cx="250.5" cy="672.5479" fill="#FFFFFF" filter="url(#fmb8l6zlqss06)" rx="10" ry="10" style="stroke: #000000; stroke-width: 1.5;"/><line style="stroke: #000000; stroke-width: 2.5;" x1="244.3128" x2="256.6872" y1="666.3607" y2="678.735"/><line style="stroke: #000000; stroke-width: 2.5;" x1="256.6872" x2="244.3128" y1="666.3607" y2="678.735"/><line style="stroke: #A80036; stroke-width: 1.5;" x1="250.5" x2="250.5" y1="132.2734" y2="152.2734"/><polygon fill="#A80036" points="246.5,142.2734,250.5,152.2734,254.5,142.2734,250.5,146.2734" style="stroke: #A80036; stroke-width: 1.0;"/><line style="stroke: #A80036; stroke-width: 1.5;" x1="250.5" x2="250.5" y1="230.4063" y2="250.4063"/><polygon fill="#A80036" points="246.5,240.4063,250.5,250.4063,254.5,240.4063,250.5,244.4063" style="stroke: #A80036; stroke-width: 1.0;"/><line style="stroke: #A80036; stroke-width: 1.5;" x1="250.5" x2="250.5" y1="284.5391" y2="294.5391"/><line style="stroke: #A80036; stroke-width: 1.5;" x1="250.5" x2="361" y1="294.5391" y2="294.5391"/><polygon fill="#A80036" points="357,265.4727,361,255.4727,365,265.4727,361,261.4727" style="stroke: #A80036; stroke-width: 1.5;"/><line style="stroke: #A80036; stroke-width: 1.5;" x1="361" x2="361" y1="218.4063" y2="294.5391"/><line style="stroke: #A80036; stroke-width: 1.5;" x1="361" x2="349" y1="218.4063" y2="218.4063"/><polygon fill="#A80036" points="359,214.4063,349,218.4063,359,222.4063,355,218.4063" style="stroke: #A80036; stroke-width: 1.0;"/><line style="stroke: #A80036; stroke-width: 1.5;" x1="152" x2="140" y1="218.4063" y2="218.4063"/><polygon fill="#A80036" points="136,251.4727,140,261.4727,144,251.4727,140,255.4727" style="stroke: #A80036; stroke-width: 1.5;"/><line style="stroke: #A80036; stroke-width: 1.5;" x1="140" x2="140" y1="218.4063" y2="306.5391"/><line style="stroke: #A80036; stroke-width: 1.5;" x1="140" x2="250.5" y1="306.5391" y2="306.5391"/><line style="stroke: #A80036; stroke-width: 1.5;" x1="250.5" x2="250.5" y1="306.5391" y2="326.5391"/><polygon fill="#A80036" points="246.5,316.5391,250.5,326.5391,254.5,316.5391,250.5,320.5391" style="stroke: #A80036; stroke-width: 1.0;"/><line style="stroke: #A80036; stroke-width: 1.5;" x1="250.5" x2="250.5" y1="186.4063" y2="206.4063"/><polygon fill="#A80036" points="246.5,196.4063,250.5,206.4063,254.5,196.4063,250.5,200.4063" style="stroke: #A80036; stroke-width: 1.0;"/><line style="stroke: #A80036; stroke-width: 1.5;" x1="250.5" x2="250.5" y1="409.1494" y2="444.1494"/><polygon fill="#A80036" points="246.5,434.1494,250.5,444.1494,254.5,434.1494,250.5,438.1494" style="stroke: #A80036; stroke-width: 1.0;"/><line style="stroke: #A80036; stroke-width: 1.5;" x1="250.5" x2="250.5" y1="350.5391" y2="375.0166"/><polygon fill="#A80036" points="246.5,365.0166,250.5,375.0166,254.5,365.0166,250.5,369.0166" style="stroke: #A80036; stroke-width: 1.0;"/><line style="stroke: #A80036; stroke-width: 1.5;" x1="299" x2="481" y1="338.5391" y2="338.5391"/><polygon fill="#A80036" points="477,416.6494,481,426.6494,485,416.6494,481,420.6494" style="stroke: #A80036; stroke-width: 1.5;"/><line style="stroke: #A80036; stroke-width: 1.5;" x1="481" x2="481" y1="338.5391" y2="510.2822"/><line style="stroke: #A80036; stroke-width: 1.5;" x1="481" x2="262.5" y1="510.2822" y2="510.2822"/><polygon fill="#A80036" points="272.5,506.2822,262.5,510.2822,272.5,514.2822,268.5,510.2822" style="stroke: #A80036; stroke-width: 1.0;"/><line style="stroke: #A80036; stroke-width: 1.5;" x1="250.5" x2="250.5" y1="478.2822" y2="498.2822"/><polygon fill="#A80036" points="246.5,488.2822,250.5,498.2822,254.5,488.2822,250.5,492.2822" style="stroke: #A80036; stroke-width: 1.0;"/><line style="stroke: #A80036; stroke-width: 1.5;" x1="250.5" x2="250.5" y1="522.2822" y2="542.2822"/><polygon fill="#A80036" points="246.5,532.2822,250.5,542.2822,254.5,532.2822,250.5,536.2822" style="stroke: #A80036; stroke-width: 1.0;"/><line style="stroke: #A80036; stroke-width: 1.5;" x1="250.5" x2="250.5" y1="576.415" y2="596.415"/><polygon fill="#A80036" points="246.5,586.415,250.5,596.415,254.5,586.415,250.5,590.415" style="stroke: #A80036; stroke-width: 1.0;"/><line style="stroke: #A80036; stroke-width: 1.5;" x1="250.5" x2="250.5" y1="51.1992" y2="98.1406"/><polygon fill="#A80036" points="246.5,88.1406,250.5,98.1406,254.5,88.1406,250.5,92.1406" style="stroke: #A80036; stroke-width: 1.0;"/><line style="stroke: #A80036; stroke-width: 1.5;" x1="250.5" x2="250.5" y1="630.5479" y2="662.5479"/><polygon fill="#A80036" points="246.5,652.5479,250.5,662.5479,254.5,652.5479,250.5,656.5479" style="stroke: #A80036; stroke-width: 1.0;"/><!--
@startuml Definition_Node.disposeInternal
    title Definition: Node#disposeInternal()

    start
        partition SyncTask {
            :const parent = internal.nodesIndices.get(this).parent]
            :const children = internal.nodesIndices.get(this).children]
            while (let i = 0; i < children.length; i++)
                :children[i].[[./Definition_Disposable.dispose.svg dispose]]() ]
            endwhile
            if (parent != null) then (yes)
                :const parIndex = internal.nodesIndices.get(parent).children.indexOf(this)]
                :internal.nodesIndices.get(parent).children.splice(parIndex, 1)]
            endif
            :internal.nodesIndices.delete(this)]
            :[[./Definition_EventTarget.disposeInternal.svg super()]]|
        }
    end
@enduml

PlantUML version 1.2019.09(Mon Aug 26 19:19:51 EEST 2019)
(GPL source distribution)
Java Runtime: OpenJDK Runtime Environment
JVM: OpenJDK 64-Bit Server VM
Java Version: 13.0.1+9
Operating System: Mac OS X
OS Version: 10.15.3
Default Encoding: UTF-8
Language: en
Country: UA
--></g></svg>