<?xml version="1.0" encoding="UTF-8" standalone="no"?><svg xmlns="http://www.w3.org/2000/svg" xmlns:xlink="http://www.w3.org/1999/xlink" contentScriptType="application/ecmascript" contentStyleType="text/css" height="450px" preserveAspectRatio="none" style="width:381px;height:450px;" version="1.1" viewBox="0 0 381 450" width="381px" zoomAndPan="magnify"><defs><filter height="300%" id="f1lbuqc5ggghni" width="300%" x="-1" y="-1"><feGaussianBlur result="blurOut" stdDeviation="2.0"/><feColorMatrix in="blurOut" result="blurOut2" type="matrix" values="0 0 0 0 0 0 0 0 0 0 0 0 0 0 0 0 0 0 .4 0"/><feOffset dx="4.0" dy="4.0" in="blurOut2" result="blurOut3"/><feBlend in="SourceGraphic" in2="blurOut3" mode="normal"/></filter></defs><g><text fill="#000000" font-family="sans-serif" font-size="18" lengthAdjust="spacingAndGlyphs" textLength="238" x="70.5" y="27.4023">Definition: Node#contains()</text><ellipse cx="190" cy="41.1992" fill="#000000" filter="url(#f1lbuqc5ggghni)" rx="10" ry="10" style="stroke: none; stroke-width: 1.0;"/><rect fill="#FFFFFF" filter="url(#f1lbuqc5ggghni)" height="337.4971" style="stroke: #000000; stroke-width: 2.0;" width="360" x="10" y="61.6523"/><path d="M83,62.6523 L83,71.1406 L73,81.1406 L10,81.1406 " fill="none" style="stroke: #000000; stroke-width: 2.0;"/><text fill="#000000" font-family="sans-serif" font-size="14" lengthAdjust="spacingAndGlyphs" textLength="63" x="13" y="76.1875">SyncTask</text><polygon fill="#FEFECE" filter="url(#f1lbuqc5ggghni)" points="159.5,98.1406,230.5,98.1406,220.5,132.2734,149.5,132.2734" style="stroke: #A80036; stroke-width: 1.5;"/><text fill="#000000" font-family="sans-serif" font-size="12" lengthAdjust="spacingAndGlyphs" textLength="61" x="159.5" y="119.7422">otherNode</text><rect fill="#FEFECE" filter="url(#f1lbuqc5ggghni)" height="34.1328" style="stroke: #A80036; stroke-width: 1.5;" width="340" x="20" y="152.2734"/><text fill="#000000" font-family="sans-serif" font-size="12" lengthAdjust="spacingAndGlyphs" textLength="320" x="30" y="173.875">const children = internal.nodesIndices.get(this).children</text><polygon fill="#FEFECE" filter="url(#f1lbuqc5ggghni)" points="159,254.8838,231,254.8838,221,289.0166,149,289.0166" style="stroke: #A80036; stroke-width: 1.5;"/><text fill="#000000" font-family="sans-serif" font-size="12" lengthAdjust="spacingAndGlyphs" textLength="62" x="159" y="276.4854">return true</text><polygon fill="#FEFECE" filter="url(#f1lbuqc5ggghni)" points="97,206.4063,283,206.4063,295,218.4063,283,230.4063,97,230.4063,85,218.4063,97,206.4063" style="stroke: #A80036; stroke-width: 1.5;"/><text fill="#000000" font-family="sans-serif" font-size="11" lengthAdjust="spacingAndGlyphs" textLength="18" x="194" y="241.041">yes</text><text fill="#000000" font-family="sans-serif" font-size="11" lengthAdjust="spacingAndGlyphs" textLength="186" x="97" y="222.5635">children.indexOf(otherNode) &gt;= 0</text><polygon fill="#FEFECE" filter="url(#f1lbuqc5ggghni)" points="190,309.0166,202,321.0166,190,333.0166,178,321.0166,190,309.0166" style="stroke: #A80036; stroke-width: 1.5;"/><polygon fill="#FEFECE" filter="url(#f1lbuqc5ggghni)" points="157,353.0166,233,353.0166,223,387.1494,147,387.1494" style="stroke: #A80036; stroke-width: 1.5;"/><text fill="#000000" font-family="sans-serif" font-size="12" lengthAdjust="spacingAndGlyphs" textLength="66" x="157" y="374.6182">return false</text><ellipse cx="190" cy="429.1494" fill="#FFFFFF" filter="url(#f1lbuqc5ggghni)" rx="10" ry="10" style="stroke: #000000; stroke-width: 1.5;"/><line style="stroke: #000000; stroke-width: 2.5;" x1="183.8128" x2="196.1872" y1="422.9622" y2="435.3366"/><line style="stroke: #000000; stroke-width: 2.5;" x1="196.1872" x2="183.8128" y1="422.9622" y2="435.3366"/><line style="stroke: #A80036; stroke-width: 1.5;" x1="190" x2="190" y1="132.2734" y2="152.2734"/><polygon fill="#A80036" points="186,142.2734,190,152.2734,194,142.2734,190,146.2734" style="stroke: #A80036; stroke-width: 1.0;"/><line style="stroke: #A80036; stroke-width: 1.5;" x1="190" x2="190" y1="230.4063" y2="254.8838"/><polygon fill="#A80036" points="186,244.8838,190,254.8838,194,244.8838,190,248.8838" style="stroke: #A80036; stroke-width: 1.0;"/><line style="stroke: #A80036; stroke-width: 1.5;" x1="295" x2="307" y1="218.4063" y2="218.4063"/><polygon fill="#A80036" points="303,261.9502,307,271.9502,311,261.9502,307,265.9502" style="stroke: #A80036; stroke-width: 1.5;"/><line style="stroke: #A80036; stroke-width: 1.5;" x1="307" x2="307" y1="218.4063" y2="321.0166"/><line style="stroke: #A80036; stroke-width: 1.5;" x1="307" x2="202" y1="321.0166" y2="321.0166"/><polygon fill="#A80036" points="212,317.0166,202,321.0166,212,325.0166,208,321.0166" style="stroke: #A80036; stroke-width: 1.0;"/><line style="stroke: #A80036; stroke-width: 1.5;" x1="190" x2="190" y1="289.0166" y2="309.0166"/><polygon fill="#A80036" points="186,299.0166,190,309.0166,194,299.0166,190,303.0166" style="stroke: #A80036; stroke-width: 1.0;"/><line style="stroke: #A80036; stroke-width: 1.5;" x1="190" x2="190" y1="186.4063" y2="206.4063"/><polygon fill="#A80036" points="186,196.4063,190,206.4063,194,196.4063,190,200.4063" style="stroke: #A80036; stroke-width: 1.0;"/><line style="stroke: #A80036; stroke-width: 1.5;" x1="190" x2="190" y1="333.0166" y2="353.0166"/><polygon fill="#A80036" points="186,343.0166,190,353.0166,194,343.0166,190,347.0166" style="stroke: #A80036; stroke-width: 1.0;"/><line style="stroke: #A80036; stroke-width: 1.5;" x1="190" x2="190" y1="51.1992" y2="98.1406"/><polygon fill="#A80036" points="186,88.1406,190,98.1406,194,88.1406,190,92.1406" style="stroke: #A80036; stroke-width: 1.0;"/><line style="stroke: #A80036; stroke-width: 1.5;" x1="190" x2="190" y1="387.1494" y2="419.1494"/><polygon fill="#A80036" points="186,409.1494,190,419.1494,194,409.1494,190,413.1494" style="stroke: #A80036; stroke-width: 1.0;"/><!--
@startuml Definition_Node.contains
    title Definition: Node#contains()

    start
        partition SyncTask {
            :otherNode/
            :const children = internal.nodesIndices.get(this).children]
            if (children.indexOf(otherNode) >= 0) then (yes)
                :return true/
            endif
            :return false/
        }
    end
@enduml

PlantUML version 1.2019.09(Mon Aug 26 19:19:51 EEST 2019)
(GPL source distribution)
Java Runtime: OpenJDK Runtime Environment
JVM: OpenJDK 64-Bit Server VM
Java Version: 13.0.1+9
Operating System: Mac OS X
OS Version: 10.15.3
Default Encoding: UTF-8
Language: en
Country: UA
--></g></svg>