<?xml version="1.0" encoding="UTF-8" standalone="no"?><svg xmlns="http://www.w3.org/2000/svg" xmlns:xlink="http://www.w3.org/1999/xlink" contentScriptType="application/ecmascript" contentStyleType="text/css" height="573px" preserveAspectRatio="none" style="width:382px;height:573px;" version="1.1" viewBox="0 0 382 573" width="382px" zoomAndPan="magnify"><defs><filter height="300%" id="ft7o7dvkiurgu" width="300%" x="-1" y="-1"><feGaussianBlur result="blurOut" stdDeviation="2.0"/><feColorMatrix in="blurOut" result="blurOut2" type="matrix" values="0 0 0 0 0 0 0 0 0 0 0 0 0 0 0 0 0 0 .4 0"/><feOffset dx="4.0" dy="4.0" in="blurOut2" result="blurOut3"/><feBlend in="SourceGraphic" in2="blurOut3" mode="normal"/></filter></defs><g><text fill="#000000" font-family="sans-serif" font-size="18" lengthAdjust="spacingAndGlyphs" textLength="271" x="54.75" y="27.4023">Definition: Node#replaceChild()</text><ellipse cx="190" cy="41.1992" fill="#000000" filter="url(#ft7o7dvkiurgu)" rx="10" ry="10" style="stroke: none; stroke-width: 1.0;"/><rect fill="#FFFFFF" filter="url(#ft7o7dvkiurgu)" height="460.7627" style="stroke: #000000; stroke-width: 2.0;" width="361.5" x="10" y="61.6523"/><path d="M83,62.6523 L83,71.1406 L73,81.1406 L10,81.1406 " fill="none" style="stroke: #000000; stroke-width: 2.0;"/><text fill="#000000" font-family="sans-serif" font-size="14" lengthAdjust="spacingAndGlyphs" textLength="63" x="13" y="76.1875">SyncTask</text><polygon fill="#FEFECE" filter="url(#ft7o7dvkiurgu)" points="136.5,98.1406,253.5,98.1406,243.5,132.2734,126.5,132.2734" style="stroke: #A80036; stroke-width: 1.5;"/><text fill="#000000" font-family="sans-serif" font-size="12" lengthAdjust="spacingAndGlyphs" textLength="107" x="136.5" y="119.7422">newChild, oldChild</text><rect fill="#FEFECE" filter="url(#ft7o7dvkiurgu)" height="34.1328" style="stroke: #A80036; stroke-width: 1.5;" width="340" x="20" y="152.2734"/><text fill="#000000" font-family="sans-serif" font-size="12" lengthAdjust="spacingAndGlyphs" textLength="320" x="30" y="173.875">const children = internal.nodesIndices.get(this).children</text><rect fill="#FEFECE" filter="url(#ft7o7dvkiurgu)" height="34.1328" style="stroke: #A80036; stroke-width: 1.5;" width="254" x="63" y="206.4063"/><text fill="#000000" font-family="sans-serif" font-size="12" lengthAdjust="spacingAndGlyphs" textLength="234" x="73" y="228.0078">const index = children.indexOf(oldChild)</text><rect fill="#FEFECE" filter="url(#ft7o7dvkiurgu)" height="34.1328" style="stroke: #A80036; stroke-width: 1.5;" width="299" x="40.5" y="309.0166"/><text fill="#000000" font-family="sans-serif" font-size="12" lengthAdjust="spacingAndGlyphs" textLength="279" x="50.5" y="330.6182">internal.nodesIndices.get(oldChild).parent = null</text><rect fill="#FEFECE" filter="url(#ft7o7dvkiurgu)" height="34.1328" style="stroke: #A80036; stroke-width: 1.5;" width="219" x="80.5" y="378.1494"/><text fill="#000000" font-family="sans-serif" font-size="12" lengthAdjust="spacingAndGlyphs" textLength="199" x="90.5" y="399.751">children.splice(index, 1, newChild)</text><polygon fill="#FEFECE" filter="url(#ft7o7dvkiurgu)" points="159.5,260.5391,220.5,260.5391,232.5,272.5391,220.5,284.5391,159.5,284.5391,147.5,272.5391,159.5,260.5391" style="stroke: #A80036; stroke-width: 1.5;"/><text fill="#000000" font-family="sans-serif" font-size="11" lengthAdjust="spacingAndGlyphs" textLength="18" x="194" y="295.1738">yes</text><text fill="#000000" font-family="sans-serif" font-size="11" lengthAdjust="spacingAndGlyphs" textLength="61" x="159.5" y="276.6963">index &gt;= 0</text><polygon fill="#FEFECE" filter="url(#ft7o7dvkiurgu)" points="190,432.2822,202,444.2822,190,456.2822,178,444.2822,190,432.2822" style="stroke: #A80036; stroke-width: 1.5;"/><polygon fill="#FEFECE" filter="url(#ft7o7dvkiurgu)" points="166.5,476.2822,223.5,476.2822,213.5,510.415,156.5,510.415" style="stroke: #A80036; stroke-width: 1.5;"/><text fill="#000000" font-family="sans-serif" font-size="12" lengthAdjust="spacingAndGlyphs" textLength="47" x="166.5" y="497.8838">oldChild</text><ellipse cx="190" cy="552.415" fill="#FFFFFF" filter="url(#ft7o7dvkiurgu)" rx="10" ry="10" style="stroke: #000000; stroke-width: 1.5;"/><line style="stroke: #000000; stroke-width: 2.5;" x1="183.8128" x2="196.1872" y1="546.2279" y2="558.6022"/><line style="stroke: #000000; stroke-width: 2.5;" x1="196.1872" x2="183.8128" y1="546.2279" y2="558.6022"/><line style="stroke: #A80036; stroke-width: 1.5;" x1="190" x2="190" y1="132.2734" y2="152.2734"/><polygon fill="#A80036" points="186,142.2734,190,152.2734,194,142.2734,190,146.2734" style="stroke: #A80036; stroke-width: 1.0;"/><line style="stroke: #A80036; stroke-width: 1.5;" x1="190" x2="190" y1="186.4063" y2="206.4063"/><polygon fill="#A80036" points="186,196.4063,190,206.4063,194,196.4063,190,200.4063" style="stroke: #A80036; stroke-width: 1.0;"/><line style="stroke: #A80036; stroke-width: 1.5;" x1="190" x2="190" y1="343.1494" y2="378.1494"/><polygon fill="#A80036" points="186,368.1494,190,378.1494,194,368.1494,190,372.1494" style="stroke: #A80036; stroke-width: 1.0;"/><line style="stroke: #A80036; stroke-width: 1.5;" x1="190" x2="190" y1="284.5391" y2="309.0166"/><polygon fill="#A80036" points="186,299.0166,190,309.0166,194,299.0166,190,303.0166" style="stroke: #A80036; stroke-width: 1.0;"/><line style="stroke: #A80036; stroke-width: 1.5;" x1="232.5" x2="349.5" y1="272.5391" y2="272.5391"/><polygon fill="#A80036" points="345.5,350.6494,349.5,360.6494,353.5,350.6494,349.5,354.6494" style="stroke: #A80036; stroke-width: 1.5;"/><line style="stroke: #A80036; stroke-width: 1.5;" x1="349.5" x2="349.5" y1="272.5391" y2="444.2822"/><line style="stroke: #A80036; stroke-width: 1.5;" x1="349.5" x2="202" y1="444.2822" y2="444.2822"/><polygon fill="#A80036" points="212,440.2822,202,444.2822,212,448.2822,208,444.2822" style="stroke: #A80036; stroke-width: 1.0;"/><line style="stroke: #A80036; stroke-width: 1.5;" x1="190" x2="190" y1="412.2822" y2="432.2822"/><polygon fill="#A80036" points="186,422.2822,190,432.2822,194,422.2822,190,426.2822" style="stroke: #A80036; stroke-width: 1.0;"/><line style="stroke: #A80036; stroke-width: 1.5;" x1="190" x2="190" y1="240.5391" y2="260.5391"/><polygon fill="#A80036" points="186,250.5391,190,260.5391,194,250.5391,190,254.5391" style="stroke: #A80036; stroke-width: 1.0;"/><line style="stroke: #A80036; stroke-width: 1.5;" x1="190" x2="190" y1="456.2822" y2="476.2822"/><polygon fill="#A80036" points="186,466.2822,190,476.2822,194,466.2822,190,470.2822" style="stroke: #A80036; stroke-width: 1.0;"/><line style="stroke: #A80036; stroke-width: 1.5;" x1="190" x2="190" y1="51.1992" y2="98.1406"/><polygon fill="#A80036" points="186,88.1406,190,98.1406,194,88.1406,190,92.1406" style="stroke: #A80036; stroke-width: 1.0;"/><line style="stroke: #A80036; stroke-width: 1.5;" x1="190" x2="190" y1="510.415" y2="542.415"/><polygon fill="#A80036" points="186,532.415,190,542.415,194,532.415,190,536.415" style="stroke: #A80036; stroke-width: 1.0;"/><!--
@startuml Definition_Node.replaceChild
    title Definition: Node#replaceChild()

    start
        partition SyncTask {
            :newChild, oldChild/
            :const children = internal.nodesIndices.get(this).children]
            :const index = children.indexOf(oldChild)]
            if (index >= 0) then (yes)
                :internal.nodesIndices.get(oldChild).parent = null]
                :children.splice(index, 1, newChild)]
            endif
            :oldChild/
        }
    end
@enduml

PlantUML version 1.2019.09(Mon Aug 26 19:19:51 EEST 2019)
(GPL source distribution)
Java Runtime: OpenJDK Runtime Environment
JVM: OpenJDK 64-Bit Server VM
Java Version: 13.0.1+9
Operating System: Mac OS X
OS Version: 10.15.3
Default Encoding: UTF-8
Language: en
Country: UA
--></g></svg>