<?xml version="1.0" encoding="UTF-8" standalone="no"?><svg xmlns="http://www.w3.org/2000/svg" xmlns:xlink="http://www.w3.org/1999/xlink" contentScriptType="application/ecmascript" contentStyleType="text/css" height="542px" preserveAspectRatio="none" style="width:365px;height:542px;" version="1.1" viewBox="0 0 365 542" width="365px" zoomAndPan="magnify"><defs><filter height="300%" id="f9qk5x3paxtp2" width="300%" x="-1" y="-1"><feGaussianBlur result="blurOut" stdDeviation="2.0"/><feColorMatrix in="blurOut" result="blurOut2" type="matrix" values="0 0 0 0 0 0 0 0 0 0 0 0 0 0 0 0 0 0 .4 0"/><feOffset dx="4.0" dy="4.0" in="blurOut2" result="blurOut3"/><feBlend in="SourceGraphic" in2="blurOut3" mode="normal"/></filter></defs><g><text fill="#000000" font-family="sans-serif" font-size="18" lengthAdjust="spacingAndGlyphs" textLength="284" x="39.5" y="27.4023">Definition: Node#previousSibling</text><ellipse cx="182" cy="41.1992" fill="#000000" filter="url(#f9qk5x3paxtp2)" rx="10" ry="10" style="stroke: none; stroke-width: 1.0;"/><rect fill="#FFFFFF" filter="url(#f9qk5x3paxtp2)" height="429.9746" style="stroke: #000000; stroke-width: 2.0;" width="344" x="10" y="61.6523"/><path d="M83,62.6523 L83,71.1406 L73,81.1406 L10,81.1406 " fill="none" style="stroke: #000000; stroke-width: 2.0;"/><text fill="#000000" font-family="sans-serif" font-size="14" lengthAdjust="spacingAndGlyphs" textLength="63" x="13" y="76.1875">SyncTask</text><rect fill="#FEFECE" filter="url(#f9qk5x3paxtp2)" height="34.1328" style="stroke: #A80036; stroke-width: 1.5;" width="324" x="20" y="98.1406"/><text fill="#000000" font-family="sans-serif" font-size="12" lengthAdjust="spacingAndGlyphs" textLength="304" x="30" y="119.7422">const parent = internal.nodesIndices.get(this).parent</text><rect fill="#FEFECE" filter="url(#f9qk5x3paxtp2)" height="34.1328" style="stroke: #A80036; stroke-width: 1.5;" width="273" x="45.5" y="200.751"/><text fill="#000000" font-family="sans-serif" font-size="12" lengthAdjust="spacingAndGlyphs" textLength="249" x="55.5" y="222.3525">const index = parent.children.indexOf(this)</text><polygon fill="#FEFECE" filter="url(#f9qk5x3paxtp2)" points="85,303.3613,289,303.3613,279,337.4941,75,337.4941" style="stroke: #A80036; stroke-width: 1.5;"/><text fill="#000000" font-family="sans-serif" font-size="12" lengthAdjust="spacingAndGlyphs" textLength="190" x="85" y="324.9629">return parent.children[index - 1]</text><polygon fill="#FEFECE" filter="url(#f9qk5x3paxtp2)" points="156,254.8838,208,254.8838,220,266.8838,208,278.8838,156,278.8838,144,266.8838,156,254.8838" style="stroke: #A80036; stroke-width: 1.5;"/><text fill="#000000" font-family="sans-serif" font-size="11" lengthAdjust="spacingAndGlyphs" textLength="18" x="186" y="289.5186">yes</text><text fill="#000000" font-family="sans-serif" font-size="11" lengthAdjust="spacingAndGlyphs" textLength="52" x="156" y="271.041">index &gt; 0</text><polygon fill="#FEFECE" filter="url(#f9qk5x3paxtp2)" points="182,357.4941,194,369.4941,182,381.4941,170,369.4941,182,357.4941" style="stroke: #A80036; stroke-width: 1.5;"/><polygon fill="#FEFECE" filter="url(#f9qk5x3paxtp2)" points="164.5,152.2734,199.5,152.2734,211.5,164.2734,199.5,176.2734,164.5,176.2734,152.5,164.2734,164.5,152.2734" style="stroke: #A80036; stroke-width: 1.5;"/><text fill="#000000" font-family="sans-serif" font-size="11" lengthAdjust="spacingAndGlyphs" textLength="18" x="186" y="186.9082">yes</text><text fill="#000000" font-family="sans-serif" font-size="11" lengthAdjust="spacingAndGlyphs" textLength="35" x="164.5" y="168.4307">parent</text><polygon fill="#FEFECE" filter="url(#f9qk5x3paxtp2)" points="182,401.4941,194,413.4941,182,425.4941,170,413.4941,182,401.4941" style="stroke: #A80036; stroke-width: 1.5;"/><polygon fill="#FEFECE" filter="url(#f9qk5x3paxtp2)" points="152.5,445.4941,221.5,445.4941,211.5,479.627,142.5,479.627" style="stroke: #A80036; stroke-width: 1.5;"/><text fill="#000000" font-family="sans-serif" font-size="12" lengthAdjust="spacingAndGlyphs" textLength="59" x="152.5" y="467.0957">return null</text><ellipse cx="182" cy="521.627" fill="#FFFFFF" filter="url(#f9qk5x3paxtp2)" rx="10" ry="10" style="stroke: #000000; stroke-width: 1.5;"/><line style="stroke: #000000; stroke-width: 2.5;" x1="175.8128" x2="188.1872" y1="515.4398" y2="527.8141"/><line style="stroke: #000000; stroke-width: 2.5;" x1="188.1872" x2="175.8128" y1="515.4398" y2="527.8141"/><line style="stroke: #A80036; stroke-width: 1.5;" x1="182" x2="182" y1="278.8838" y2="303.3613"/><polygon fill="#A80036" points="178,293.3613,182,303.3613,186,293.3613,182,297.3613" style="stroke: #A80036; stroke-width: 1.0;"/><line style="stroke: #A80036; stroke-width: 1.5;" x1="220" x2="299" y1="266.8838" y2="266.8838"/><polygon fill="#A80036" points="295,310.4277,299,320.4277,303,310.4277,299,314.4277" style="stroke: #A80036; stroke-width: 1.5;"/><line style="stroke: #A80036; stroke-width: 1.5;" x1="299" x2="299" y1="266.8838" y2="369.4941"/><line style="stroke: #A80036; stroke-width: 1.5;" x1="299" x2="194" y1="369.4941" y2="369.4941"/><polygon fill="#A80036" points="204,365.4941,194,369.4941,204,373.4941,200,369.4941" style="stroke: #A80036; stroke-width: 1.0;"/><line style="stroke: #A80036; stroke-width: 1.5;" x1="182" x2="182" y1="337.4941" y2="357.4941"/><polygon fill="#A80036" points="178,347.4941,182,357.4941,186,347.4941,182,351.4941" style="stroke: #A80036; stroke-width: 1.0;"/><line style="stroke: #A80036; stroke-width: 1.5;" x1="182" x2="182" y1="234.8838" y2="254.8838"/><polygon fill="#A80036" points="178,244.8838,182,254.8838,186,244.8838,182,248.8838" style="stroke: #A80036; stroke-width: 1.0;"/><line style="stroke: #A80036; stroke-width: 1.5;" x1="182" x2="182" y1="176.2734" y2="200.751"/><polygon fill="#A80036" points="178,190.751,182,200.751,186,190.751,182,194.751" style="stroke: #A80036; stroke-width: 1.0;"/><line style="stroke: #A80036; stroke-width: 1.5;" x1="211.5" x2="328.5" y1="164.2734" y2="164.2734"/><polygon fill="#A80036" points="324.5,275.8613,328.5,285.8613,332.5,275.8613,328.5,279.8613" style="stroke: #A80036; stroke-width: 1.5;"/><line style="stroke: #A80036; stroke-width: 1.5;" x1="328.5" x2="328.5" y1="164.2734" y2="413.4941"/><line style="stroke: #A80036; stroke-width: 1.5;" x1="328.5" x2="194" y1="413.4941" y2="413.4941"/><polygon fill="#A80036" points="204,409.4941,194,413.4941,204,417.4941,200,413.4941" style="stroke: #A80036; stroke-width: 1.0;"/><line style="stroke: #A80036; stroke-width: 1.5;" x1="182" x2="182" y1="381.4941" y2="401.4941"/><polygon fill="#A80036" points="178,391.4941,182,401.4941,186,391.4941,182,395.4941" style="stroke: #A80036; stroke-width: 1.0;"/><line style="stroke: #A80036; stroke-width: 1.5;" x1="182" x2="182" y1="132.2734" y2="152.2734"/><polygon fill="#A80036" points="178,142.2734,182,152.2734,186,142.2734,182,146.2734" style="stroke: #A80036; stroke-width: 1.0;"/><line style="stroke: #A80036; stroke-width: 1.5;" x1="182" x2="182" y1="425.4941" y2="445.4941"/><polygon fill="#A80036" points="178,435.4941,182,445.4941,186,435.4941,182,439.4941" style="stroke: #A80036; stroke-width: 1.0;"/><line style="stroke: #A80036; stroke-width: 1.5;" x1="182" x2="182" y1="51.1992" y2="98.1406"/><polygon fill="#A80036" points="178,88.1406,182,98.1406,186,88.1406,182,92.1406" style="stroke: #A80036; stroke-width: 1.0;"/><line style="stroke: #A80036; stroke-width: 1.5;" x1="182" x2="182" y1="479.627" y2="511.627"/><polygon fill="#A80036" points="178,501.627,182,511.627,186,501.627,182,505.627" style="stroke: #A80036; stroke-width: 1.0;"/><!--
@startuml Definition_Node.previousSibling
    title Definition: Node#previousSibling

    start
        partition SyncTask {
            :const parent = internal.nodesIndices.get(this).parent]
            if (parent) then (yes)
                :const index = parent.children.indexOf(this) ]
                if (index > 0) then (yes)
                    :return parent.children[index - 1] /
                endif
            endif
            :return null/
        }
    end
@enduml

PlantUML version 1.2019.09(Mon Aug 26 19:19:51 EEST 2019)
(GPL source distribution)
Java Runtime: OpenJDK Runtime Environment
JVM: OpenJDK 64-Bit Server VM
Java Version: 13.0.1+9
Operating System: Mac OS X
OS Version: 10.15.3
Default Encoding: UTF-8
Language: en
Country: UA
--></g></svg>