<?xml version="1.0" encoding="UTF-8" standalone="no"?><svg xmlns="http://www.w3.org/2000/svg" xmlns:xlink="http://www.w3.org/1999/xlink" contentScriptType="application/ecmascript" contentStyleType="text/css" height="492px" preserveAspectRatio="none" style="width:376px;height:492px;" version="1.1" viewBox="0 0 376 492" width="376px" zoomAndPan="magnify"><defs><filter height="300%" id="ft27omrnvqzii" width="300%" x="-1" y="-1"><feGaussianBlur result="blurOut" stdDeviation="2.0"/><feColorMatrix in="blurOut" result="blurOut2" type="matrix" values="0 0 0 0 0 0 0 0 0 0 0 0 0 0 0 0 0 0 .4 0"/><feOffset dx="4.0" dy="4.0" in="blurOut2" result="blurOut3"/><feBlend in="SourceGraphic" in2="blurOut3" mode="normal"/></filter></defs><g><text fill="#000000" font-family="sans-serif" font-size="18" lengthAdjust="spacingAndGlyphs" textLength="278" x="48" y="27.4023">Definition: Node#getRootNode()</text><ellipse cx="190.5" cy="41.1992" fill="#000000" filter="url(#ft27omrnvqzii)" rx="10" ry="10" style="stroke: none; stroke-width: 1.0;"/><rect fill="#FFFFFF" filter="url(#ft27omrnvqzii)" height="380.1523" style="stroke: #000000; stroke-width: 2.0;" width="355" x="10" y="61.6523"/><path d="M83,62.6523 L83,71.1406 L73,81.1406 L10,81.1406 " fill="none" style="stroke: #000000; stroke-width: 2.0;"/><text fill="#000000" font-family="sans-serif" font-size="14" lengthAdjust="spacingAndGlyphs" textLength="63" x="13" y="76.1875">SyncTask</text><rect fill="#FEFECE" filter="url(#ft27omrnvqzii)" height="34.1328" style="stroke: #A80036; stroke-width: 1.5;" width="99" x="141" y="98.1406"/><text fill="#000000" font-family="sans-serif" font-size="12" lengthAdjust="spacingAndGlyphs" textLength="79" x="151" y="119.7422">let root = this</text><rect fill="#FEFECE" filter="url(#ft27omrnvqzii)" height="34.1328" style="stroke: #A80036; stroke-width: 1.5;" width="308" x="36.5" y="152.2734"/><text fill="#000000" font-family="sans-serif" font-size="12" lengthAdjust="spacingAndGlyphs" textLength="288" x="46.5" y="173.875">let parent = internal.nodesIndices.get(this).parent</text><rect fill="#FEFECE" filter="url(#ft27omrnvqzii)" height="34.1328" style="stroke: #A80036; stroke-width: 1.5;" width="99" x="141" y="250.4063"/><text fill="#000000" font-family="sans-serif" font-size="12" lengthAdjust="spacingAndGlyphs" textLength="79" x="151" y="272.0078">root = parent</text><rect fill="#FEFECE" filter="url(#ft27omrnvqzii)" height="34.1328" style="stroke: #A80036; stroke-width: 1.5;" width="293" x="44" y="319.5391"/><text fill="#000000" font-family="sans-serif" font-size="12" lengthAdjust="spacingAndGlyphs" textLength="273" x="54" y="341.1406">parent = internal.nodesIndices.get(root).parent</text><polygon fill="#FEFECE" filter="url(#ft27omrnvqzii)" points="173,206.4063,208,206.4063,220,218.4063,208,230.4063,173,230.4063,161,218.4063,173,206.4063" style="stroke: #A80036; stroke-width: 1.5;"/><text fill="#000000" font-family="sans-serif" font-size="11" lengthAdjust="spacingAndGlyphs" textLength="35" x="173" y="222.5635">parent</text><polygon fill="#FEFECE" filter="url(#ft27omrnvqzii)" points="159.5,395.6719,231.5,395.6719,221.5,429.8047,149.5,429.8047" style="stroke: #A80036; stroke-width: 1.5;"/><text fill="#000000" font-family="sans-serif" font-size="12" lengthAdjust="spacingAndGlyphs" textLength="62" x="159.5" y="417.2734">return root</text><ellipse cx="190.5" cy="471.8047" fill="#FFFFFF" filter="url(#ft27omrnvqzii)" rx="10" ry="10" style="stroke: #000000; stroke-width: 1.5;"/><line style="stroke: #000000; stroke-width: 2.5;" x1="184.3128" x2="196.6872" y1="465.6175" y2="477.9919"/><line style="stroke: #000000; stroke-width: 2.5;" x1="196.6872" x2="184.3128" y1="465.6175" y2="477.9919"/><line style="stroke: #A80036; stroke-width: 1.5;" x1="190.5" x2="190.5" y1="132.2734" y2="152.2734"/><polygon fill="#A80036" points="186.5,142.2734,190.5,152.2734,194.5,142.2734,190.5,146.2734" style="stroke: #A80036; stroke-width: 1.0;"/><line style="stroke: #A80036; stroke-width: 1.5;" x1="190.5" x2="190.5" y1="284.5391" y2="319.5391"/><polygon fill="#A80036" points="186.5,309.5391,190.5,319.5391,194.5,309.5391,190.5,313.5391" style="stroke: #A80036; stroke-width: 1.0;"/><line style="stroke: #A80036; stroke-width: 1.5;" x1="190.5" x2="190.5" y1="230.4063" y2="250.4063"/><polygon fill="#A80036" points="186.5,240.4063,190.5,250.4063,194.5,240.4063,190.5,244.4063" style="stroke: #A80036; stroke-width: 1.0;"/><line style="stroke: #A80036; stroke-width: 1.5;" x1="190.5" x2="190.5" y1="353.6719" y2="363.6719"/><line style="stroke: #A80036; stroke-width: 1.5;" x1="190.5" x2="349" y1="363.6719" y2="363.6719"/><polygon fill="#A80036" points="345,300.0391,349,290.0391,353,300.0391,349,296.0391" style="stroke: #A80036; stroke-width: 1.5;"/><line style="stroke: #A80036; stroke-width: 1.5;" x1="349" x2="349" y1="218.4063" y2="363.6719"/><line style="stroke: #A80036; stroke-width: 1.5;" x1="349" x2="220" y1="218.4063" y2="218.4063"/><polygon fill="#A80036" points="230,214.4063,220,218.4063,230,222.4063,226,218.4063" style="stroke: #A80036; stroke-width: 1.0;"/><line style="stroke: #A80036; stroke-width: 1.5;" x1="161" x2="32" y1="218.4063" y2="218.4063"/><polygon fill="#A80036" points="28,286.0391,32,296.0391,36,286.0391,32,290.0391" style="stroke: #A80036; stroke-width: 1.5;"/><line style="stroke: #A80036; stroke-width: 1.5;" x1="32" x2="32" y1="218.4063" y2="375.6719"/><line style="stroke: #A80036; stroke-width: 1.5;" x1="32" x2="190.5" y1="375.6719" y2="375.6719"/><line style="stroke: #A80036; stroke-width: 1.5;" x1="190.5" x2="190.5" y1="375.6719" y2="395.6719"/><polygon fill="#A80036" points="186.5,385.6719,190.5,395.6719,194.5,385.6719,190.5,389.6719" style="stroke: #A80036; stroke-width: 1.0;"/><line style="stroke: #A80036; stroke-width: 1.5;" x1="190.5" x2="190.5" y1="186.4063" y2="206.4063"/><polygon fill="#A80036" points="186.5,196.4063,190.5,206.4063,194.5,196.4063,190.5,200.4063" style="stroke: #A80036; stroke-width: 1.0;"/><line style="stroke: #A80036; stroke-width: 1.5;" x1="190.5" x2="190.5" y1="51.1992" y2="98.1406"/><polygon fill="#A80036" points="186.5,88.1406,190.5,98.1406,194.5,88.1406,190.5,92.1406" style="stroke: #A80036; stroke-width: 1.0;"/><line style="stroke: #A80036; stroke-width: 1.5;" x1="190.5" x2="190.5" y1="429.8047" y2="461.8047"/><polygon fill="#A80036" points="186.5,451.8047,190.5,461.8047,194.5,451.8047,190.5,455.8047" style="stroke: #A80036; stroke-width: 1.0;"/><!--
@startuml Definition_Node.getRootNode
    title Definition: Node#getRootNode()

    start
        partition SyncTask {
            :let root = this]
            :let parent = internal.nodesIndices.get(this).parent]
            while (parent)
                :root = parent]
                :parent = internal.nodesIndices.get(root).parent]
            endwhile
            :return root/
        }
    end
@enduml

PlantUML version 1.2019.09(Mon Aug 26 19:19:51 EEST 2019)
(GPL source distribution)
Java Runtime: OpenJDK Runtime Environment
JVM: OpenJDK 64-Bit Server VM
Java Version: 13.0.1+9
Operating System: Mac OS X
OS Version: 10.15.3
Default Encoding: UTF-8
Language: en
Country: UA
--></g></svg>