<?xml version="1.0" encoding="UTF-8" standalone="no"?><svg xmlns="http://www.w3.org/2000/svg" xmlns:xlink="http://www.w3.org/1999/xlink" contentScriptType="application/ecmascript" contentStyleType="text/css" height="496px" preserveAspectRatio="none" style="width:347px;height:496px;" version="1.1" viewBox="0 0 347 496" width="347px" zoomAndPan="magnify"><defs><filter height="300%" id="f4kvc4esbqnm9" width="300%" x="-1" y="-1"><feGaussianBlur result="blurOut" stdDeviation="2.0"/><feColorMatrix in="blurOut" result="blurOut2" type="matrix" values="0 0 0 0 0 0 0 0 0 0 0 0 0 0 0 0 0 0 .4 0"/><feOffset dx="4.0" dy="4.0" in="blurOut2" result="blurOut3"/><feBlend in="SourceGraphic" in2="blurOut3" mode="normal"/></filter></defs><g><text fill="#000000" font-family="sans-serif" font-size="18" lengthAdjust="spacing" textLength="286" x="29.5" y="26.708">Definition: Disposable#dispose()</text><ellipse cx="154.5" cy="40.9531" fill="#000000" filter="url(#f4kvc4esbqnm9)" rx="10" ry="10" style="stroke:none;stroke-width:1.0;"/><rect fill="#FFFFFF" filter="url(#f4kvc4esbqnm9)" height="378.5898" style="stroke:#000000;stroke-width:2.0;" width="319" x="11" y="60.9531"/><path d="M87,60.9531 L87,70.25 L77,80.25 L11,80.25 " fill="none" style="stroke:#000000;stroke-width:2.0;"/><text fill="#000000" font-family="sans-serif" font-size="14" lengthAdjust="spacing" textLength="66" x="14" y="74.9482">SyncTask</text><rect fill="#FEFECE" filter="url(#f4kvc4esbqnm9)" height="33.9688" style="stroke:#A80036;stroke-width:1.5;" width="157" x="76" y="145.6523"/><text fill="#000000" font-family="sans-serif" font-size="12" lengthAdjust="spacing" textLength="137" x="86" y="166.791">this._disposing = true</text><rect fill="#FEFECE" filter="url(#f4kvc4esbqnm9)" height="33.9688" style="stroke:#A80036;stroke-width:1.5;" width="158" x="75.5" y="199.6211"/><line style="stroke:#A80036;stroke-width:1.5;" x1="80.5" x2="80.5" y1="199.6211" y2="233.5898"/><line style="stroke:#A80036;stroke-width:1.5;" x1="228.5" x2="228.5" y1="199.6211" y2="233.5898"/><a href="./Definition_Disposable.disposeInternal.svg" target="_top" title="./Definition_Disposable.disposeInternal.svg" xlink:actuate="onRequest" xlink:href="./Definition_Disposable.disposeInternal.svg" xlink:show="new" xlink:title="./Definition_Disposable.disposeInternal.svg" xlink:type="simple"><text fill="#0000FF" font-family="sans-serif" font-size="12" lengthAdjust="spacing" text-decoration="underline" textLength="134" x="85.5" y="220.7598">this.disposeInternal()</text></a><text fill="#000000" font-family="sans-serif" font-size="12" lengthAdjust="spacing" textLength="0" x="223.5" y="220.7598"/><rect fill="#FEFECE" filter="url(#f4kvc4esbqnm9)" height="33.9688" style="stroke:#A80036;stroke-width:1.5;" width="263" x="23" y="305.5742"/><text fill="#000000" font-family="sans-serif" font-size="12" lengthAdjust="spacing" textLength="243" x="33" y="326.7129">throw new Error(Errors.BROKEN_CHAIN)</text><polygon fill="#FEFECE" filter="url(#f4kvc4esbqnm9)" points="54.5,257.1719,254.5,257.1719,266.5,269.1719,254.5,281.1719,54.5,281.1719,42.5,269.1719,54.5,257.1719" style="stroke:#A80036;stroke-width:1.5;"/><text fill="#000000" font-family="sans-serif" font-size="11" lengthAdjust="spacing" textLength="20" x="158.5" y="291.3823">yes</text><text fill="#000000" font-family="sans-serif" font-size="11" lengthAdjust="spacing" textLength="200" x="54.5" y="272.98">!this._disposed &amp;&amp; this._disposing</text><polygon fill="#FEFECE" filter="url(#f4kvc4esbqnm9)" points="154.5,359.543,166.5,371.543,154.5,383.543,142.5,371.543,154.5,359.543" style="stroke:#A80036;stroke-width:1.5;"/><polygon fill="#FEFECE" filter="url(#f4kvc4esbqnm9)" points="111.5,97.25,197.5,97.25,209.5,109.25,197.5,121.25,111.5,121.25,99.5,109.25,111.5,97.25" style="stroke:#A80036;stroke-width:1.5;"/><text fill="#000000" font-family="sans-serif" font-size="11" lengthAdjust="spacing" textLength="20" x="158.5" y="131.4604">yes</text><text fill="#000000" font-family="sans-serif" font-size="11" lengthAdjust="spacing" textLength="86" x="111.5" y="113.0581">!this._disposed</text><polygon fill="#FEFECE" filter="url(#f4kvc4esbqnm9)" points="154.5,403.543,166.5,415.543,154.5,427.543,142.5,415.543,154.5,403.543" style="stroke:#A80036;stroke-width:1.5;"/><ellipse cx="154.5" cy="469.543" fill="#FFFFFF" filter="url(#f4kvc4esbqnm9)" rx="10" ry="10" style="stroke:#000000;stroke-width:1.5;"/><line style="stroke:#000000;stroke-width:2.5;" x1="148.3128" x2="160.6872" y1="463.3558" y2="475.7302"/><line style="stroke:#000000;stroke-width:2.5;" x1="160.6872" x2="148.3128" y1="463.3558" y2="475.7302"/><line style="stroke:#A80036;stroke-width:1.5;" x1="154.5" x2="154.5" y1="179.6211" y2="199.6211"/><polygon fill="#A80036" points="150.5,189.6211,154.5,199.6211,158.5,189.6211,154.5,193.6211" style="stroke:#A80036;stroke-width:1.0;"/><line style="stroke:#A80036;stroke-width:1.5;" x1="154.5" x2="154.5" y1="281.1719" y2="305.5742"/><polygon fill="#A80036" points="150.5,295.5742,154.5,305.5742,158.5,295.5742,154.5,299.5742" style="stroke:#A80036;stroke-width:1.0;"/><line style="stroke:#A80036;stroke-width:1.5;" x1="266.5" x2="296" y1="269.1719" y2="269.1719"/><polygon fill="#A80036" points="292,312.5586,296,322.5586,300,312.5586,296,316.5586" style="stroke:#A80036;stroke-width:1.5;"/><line style="stroke:#A80036;stroke-width:1.5;" x1="296" x2="296" y1="269.1719" y2="371.543"/><line style="stroke:#A80036;stroke-width:1.5;" x1="296" x2="166.5" y1="371.543" y2="371.543"/><polygon fill="#A80036" points="176.5,367.543,166.5,371.543,176.5,375.543,172.5,371.543" style="stroke:#A80036;stroke-width:1.0;"/><line style="stroke:#A80036;stroke-width:1.5;" x1="154.5" x2="154.5" y1="339.543" y2="359.543"/><polygon fill="#A80036" points="150.5,349.543,154.5,359.543,158.5,349.543,154.5,353.543" style="stroke:#A80036;stroke-width:1.0;"/><line style="stroke:#A80036;stroke-width:1.5;" x1="154.5" x2="154.5" y1="233.5898" y2="257.1719"/><polygon fill="#A80036" points="150.5,247.1719,154.5,257.1719,158.5,247.1719,154.5,251.1719" style="stroke:#A80036;stroke-width:1.0;"/><line style="stroke:#A80036;stroke-width:1.5;" x1="154.5" x2="154.5" y1="121.25" y2="145.6523"/><polygon fill="#A80036" points="150.5,135.6523,154.5,145.6523,158.5,135.6523,154.5,139.6523" style="stroke:#A80036;stroke-width:1.0;"/><line style="stroke:#A80036;stroke-width:1.5;" x1="209.5" x2="314" y1="109.25" y2="109.25"/><polygon fill="#A80036" points="310,243.5898,314,253.5898,318,243.5898,314,247.5898" style="stroke:#A80036;stroke-width:1.5;"/><line style="stroke:#A80036;stroke-width:1.5;" x1="314" x2="314" y1="109.25" y2="415.543"/><line style="stroke:#A80036;stroke-width:1.5;" x1="314" x2="166.5" y1="415.543" y2="415.543"/><polygon fill="#A80036" points="176.5,411.543,166.5,415.543,176.5,419.543,172.5,415.543" style="stroke:#A80036;stroke-width:1.0;"/><line style="stroke:#A80036;stroke-width:1.5;" x1="154.5" x2="154.5" y1="383.543" y2="403.543"/><polygon fill="#A80036" points="150.5,393.543,154.5,403.543,158.5,393.543,154.5,397.543" style="stroke:#A80036;stroke-width:1.0;"/><line style="stroke:#A80036;stroke-width:1.5;" x1="154.5" x2="154.5" y1="50.9531" y2="97.25"/><polygon fill="#A80036" points="150.5,87.25,154.5,97.25,158.5,87.25,154.5,91.25" style="stroke:#A80036;stroke-width:1.0;"/><line style="stroke:#A80036;stroke-width:1.5;" x1="154.5" x2="154.5" y1="427.543" y2="459.543"/><polygon fill="#A80036" points="150.5,449.543,154.5,459.543,158.5,449.543,154.5,453.543" style="stroke:#A80036;stroke-width:1.0;"/><!--MD5=[7e73b4fa48a1dad399e31f625d1a86da]
@startuml Definition_Disposable.dispose
    title Definition: Disposable#dispose()

    start
        partition SyncTask {
            if (!this._disposed) then (yes)
                :this._disposing = true]
                :[[./Definition_Disposable.disposeInternal.svg this.disposeInternal()]] |
                if (!this._disposed && this._disposing) then (yes)
                    :throw new Error(Errors.BROKEN_CHAIN)]
                endif
            endif
        }
    end
@enduml

PlantUML version 1.2021.00(Sun Jan 10 12:25:05 EET 2021)
(GPL source distribution)
Java Runtime: OpenJDK Runtime Environment
JVM: OpenJDK 64-Bit Server VM
Default Encoding: UTF-8
Language: en
Country: US
--></g></svg>