<?xml version="1.0" encoding="UTF-8" standalone="no"?><svg xmlns="http://www.w3.org/2000/svg" xmlns:xlink="http://www.w3.org/1999/xlink" contentScriptType="application/ecmascript" contentStyleType="text/css" height="367px" preserveAspectRatio="none" style="width:573px;height:367px;" version="1.1" viewBox="0 0 573 367" width="573px" zoomAndPan="magnify"><defs><filter height="300%" id="f14ssdtobkh262" width="300%" x="-1" y="-1"><feGaussianBlur result="blurOut" stdDeviation="2.0"/><feColorMatrix in="blurOut" result="blurOut2" type="matrix" values="0 0 0 0 0 0 0 0 0 0 0 0 0 0 0 0 0 0 .4 0"/><feOffset dx="4.0" dy="4.0" in="blurOut2" result="blurOut3"/><feBlend in="SourceGraphic" in2="blurOut3" mode="normal"/></filter></defs><g><text fill="#000000" font-family="sans-serif" font-size="18" lengthAdjust="spacingAndGlyphs" textLength="346" x="112.5" y="27.4023">Definition: Disposable#disposeInternal()</text><ellipse cx="294" cy="41.1992" fill="#000000" filter="url(#f14ssdtobkh262)" rx="10" ry="10" style="stroke: none; stroke-width: 1.0;"/><rect fill="#FFFFFF" filter="url(#f14ssdtobkh262)" height="254.8867" style="stroke: #000000; stroke-width: 2.0;" width="552" x="10" y="61.6523"/><path d="M83,62.6523 L83,71.1406 L73,81.1406 L10,81.1406 " fill="none" style="stroke: #000000; stroke-width: 2.0;"/><text fill="#000000" font-family="sans-serif" font-size="14" lengthAdjust="spacingAndGlyphs" textLength="63" x="13" y="76.1875">SyncTask</text><polygon fill="#FEFECE" filter="url(#f14ssdtobkh262)" points="253,98.1406,335,98.1406,347,110.1406,335,122.1406,253,122.1406,241,110.1406,253,98.1406" style="stroke: #A80036; stroke-width: 1.5;"/><text fill="#000000" font-family="sans-serif" font-size="11" lengthAdjust="spacingAndGlyphs" textLength="82" x="253" y="114.2979">this._disposing</text><text fill="#000000" font-family="sans-serif" font-size="11" lengthAdjust="spacingAndGlyphs" textLength="18" x="223" y="107.8203">yes</text><text fill="#000000" font-family="sans-serif" font-size="11" lengthAdjust="spacingAndGlyphs" textLength="14" x="347" y="107.8203">no</text><rect fill="#FEFECE" filter="url(#f14ssdtobkh262)" height="34.1328" style="stroke: #A80036; stroke-width: 1.5;" width="144" x="87" y="132.1406"/><text fill="#000000" font-family="sans-serif" font-size="12" lengthAdjust="spacingAndGlyphs" textLength="124" x="97" y="153.7422">this._disposed = true</text><rect fill="#FEFECE" filter="url(#f14ssdtobkh262)" height="34.1328" style="stroke: #A80036; stroke-width: 1.5;" width="258" x="30" y="186.2734"/><text fill="#000000" font-family="sans-serif" font-size="12" lengthAdjust="spacingAndGlyphs" textLength="158" x="40" y="207.875">internal.undisposed.delete(</text><a href="./Definition_Monitorable.getUuid.svg" target="_top" xlink:actuate="onRequest" xlink:show="new" xlink:title="./Definition_Monitorable.getUuid.svg" xlink:type="simple"><text fill="#0000FF" font-family="sans-serif" font-size="12" lengthAdjust="spacingAndGlyphs" text-decoration="underline" textLength="76" x="198" y="207.875">this.getUuid()</text></a><text fill="#000000" font-family="sans-serif" font-size="12" lengthAdjust="spacingAndGlyphs" textLength="4" x="274" y="207.875">)</text><rect fill="#FEFECE" filter="url(#f14ssdtobkh262)" height="34.1328" style="stroke: #A80036; stroke-width: 1.5;" width="150" x="84" y="240.4063"/><text fill="#000000" font-family="sans-serif" font-size="12" lengthAdjust="spacingAndGlyphs" textLength="130" x="94" y="262.0078">this._disposing = false</text><rect fill="#FEFECE" filter="url(#f14ssdtobkh262)" height="34.1328" style="stroke: #A80036; stroke-width: 1.5;" width="242" x="308" y="132.1406"/><text fill="#000000" font-family="sans-serif" font-size="12" lengthAdjust="spacingAndGlyphs" textLength="222" x="318" y="153.7422">throw new Error(Errors.MANUAL_CALL)</text><polygon fill="#FEFECE" filter="url(#f14ssdtobkh262)" points="294,280.5391,306,292.5391,294,304.5391,282,292.5391,294,280.5391" style="stroke: #A80036; stroke-width: 1.5;"/><ellipse cx="294" cy="346.5391" fill="#FFFFFF" filter="url(#f14ssdtobkh262)" rx="10" ry="10" style="stroke: #000000; stroke-width: 1.5;"/><line style="stroke: #000000; stroke-width: 2.5;" x1="287.8128" x2="300.1872" y1="340.3519" y2="352.7262"/><line style="stroke: #000000; stroke-width: 2.5;" x1="300.1872" x2="287.8128" y1="340.3519" y2="352.7262"/><line style="stroke: #A80036; stroke-width: 1.5;" x1="159" x2="159" y1="166.2734" y2="186.2734"/><polygon fill="#A80036" points="155,176.2734,159,186.2734,163,176.2734,159,180.2734" style="stroke: #A80036; stroke-width: 1.0;"/><line style="stroke: #A80036; stroke-width: 1.5;" x1="159" x2="159" y1="220.4063" y2="240.4063"/><polygon fill="#A80036" points="155,230.4063,159,240.4063,163,230.4063,159,234.4063" style="stroke: #A80036; stroke-width: 1.0;"/><line style="stroke: #A80036; stroke-width: 1.5;" x1="241" x2="159" y1="110.1406" y2="110.1406"/><line style="stroke: #A80036; stroke-width: 1.5;" x1="159" x2="159" y1="110.1406" y2="132.1406"/><polygon fill="#A80036" points="155,122.1406,159,132.1406,163,122.1406,159,126.1406" style="stroke: #A80036; stroke-width: 1.0;"/><line style="stroke: #A80036; stroke-width: 1.5;" x1="347" x2="429" y1="110.1406" y2="110.1406"/><line style="stroke: #A80036; stroke-width: 1.5;" x1="429" x2="429" y1="110.1406" y2="132.1406"/><polygon fill="#A80036" points="425,122.1406,429,132.1406,433,122.1406,429,126.1406" style="stroke: #A80036; stroke-width: 1.0;"/><line style="stroke: #A80036; stroke-width: 1.5;" x1="159" x2="159" y1="274.5391" y2="292.5391"/><line style="stroke: #A80036; stroke-width: 1.5;" x1="159" x2="282" y1="292.5391" y2="292.5391"/><polygon fill="#A80036" points="272,288.5391,282,292.5391,272,296.5391,276,292.5391" style="stroke: #A80036; stroke-width: 1.0;"/><line style="stroke: #A80036; stroke-width: 1.5;" x1="429" x2="429" y1="166.2734" y2="292.5391"/><line style="stroke: #A80036; stroke-width: 1.5;" x1="429" x2="306" y1="292.5391" y2="292.5391"/><polygon fill="#A80036" points="316,288.5391,306,292.5391,316,296.5391,312,292.5391" style="stroke: #A80036; stroke-width: 1.0;"/><line style="stroke: #A80036; stroke-width: 1.5;" x1="294" x2="294" y1="51.1992" y2="98.1406"/><polygon fill="#A80036" points="290,88.1406,294,98.1406,298,88.1406,294,92.1406" style="stroke: #A80036; stroke-width: 1.0;"/><line style="stroke: #A80036; stroke-width: 1.5;" x1="294" x2="294" y1="304.5391" y2="336.5391"/><polygon fill="#A80036" points="290,326.5391,294,336.5391,298,326.5391,294,330.5391" style="stroke: #A80036; stroke-width: 1.0;"/><!--
@startuml Definition_Disposable.disposeInternal
    title Definition: Disposable#disposeInternal()

    start
        partition SyncTask {
            if (this._disposing) then (yes)
                :this._disposed = true]
                :internal.undisposed.delete([[./Definition_Monitorable.getUuid.svg this.getUuid()]])]
                :this._disposing = false]
            else (no)
                :throw new Error(Errors.MANUAL_CALL)]
            endif
        }
    end
@enduml

PlantUML version 1.2019.09(Mon Aug 26 19:19:51 EEST 2019)
(GPL source distribution)
Java Runtime: OpenJDK Runtime Environment
JVM: OpenJDK 64-Bit Server VM
Java Version: 13.0.1+9
Operating System: Mac OS X
OS Version: 10.15.3
Default Encoding: UTF-8
Language: en
Country: UA
--></g></svg>