<?xml version="1.0" encoding="UTF-8" standalone="no"?><svg xmlns="http://www.w3.org/2000/svg" xmlns:xlink="http://www.w3.org/1999/xlink" contentScriptType="application/ecmascript" contentStyleType="text/css" height="1069px" preserveAspectRatio="none" style="width:415px;height:1069px;" version="1.1" viewBox="0 0 415 1069" width="415px" zoomAndPan="magnify"><defs><filter height="300%" id="f4to5c857tv0b" width="300%" x="-1" y="-1"><feGaussianBlur result="blurOut" stdDeviation="2.0"/><feColorMatrix in="blurOut" result="blurOut2" type="matrix" values="0 0 0 0 0 0 0 0 0 0 0 0 0 0 0 0 0 0 .4 0"/><feOffset dx="4.0" dy="4.0" in="blurOut2" result="blurOut3"/><feBlend in="SourceGraphic" in2="blurOut3" mode="normal"/></filter></defs><g><text fill="#000000" font-family="sans-serif" font-size="18" lengthAdjust="spacing" textLength="391" x="12" y="26.708">Definition: EventTarget#addEventListener()</text><ellipse cx="205.5" cy="40.9531" fill="#000000" filter="url(#f4to5c857tv0b)" rx="10" ry="10" style="stroke:none;stroke-width:1.0;"/><rect fill="#FFFFFF" filter="url(#f4to5c857tv0b)" height="951.7129" style="stroke:#000000;stroke-width:2.0;" width="374" x="18.5" y="60.9531"/><path d="M94.5,60.9531 L94.5,70.25 L84.5,80.25 L18.5,80.25 " fill="none" style="stroke:#000000;stroke-width:2.0;"/><text fill="#000000" font-family="sans-serif" font-size="14" lengthAdjust="spacing" textLength="66" x="21.5" y="74.9482">SyncTask</text><polygon fill="#FEFECE" filter="url(#f4to5c857tv0b)" points="87,97.25,334,97.25,324,131.2188,77,131.2188" style="stroke:#A80036;stroke-width:1.5;"/><text fill="#000000" font-family="sans-serif" font-size="12" lengthAdjust="spacing" textLength="237" x="87" y="118.3887">type, callback, capture, passive, once</text><rect fill="#FEFECE" filter="url(#f4to5c857tv0b)" height="33.9688" style="stroke:#A80036;stroke-width:1.5;" width="354" x="28.5" y="151.2188"/><text fill="#000000" font-family="sans-serif" font-size="12" lengthAdjust="spacing" textLength="334" x="38.5" y="172.3574">const listenersMap = internal.listenersMaps.get(this)</text><rect fill="#FEFECE" filter="url(#f4to5c857tv0b)" height="33.9688" style="stroke:#A80036;stroke-width:1.5;" width="273" x="69" y="205.1875"/><text fill="#000000" font-family="sans-serif" font-size="12" lengthAdjust="spacing" textLength="253" x="79" y="226.3262">const listeners = listenersMap.get(type)</text><rect fill="#FEFECE" filter="url(#f4to5c857tv0b)" height="33.9688" style="stroke:#A80036;stroke-width:1.5;" width="189" x="111" y="414.375"/><text fill="#000000" font-family="sans-serif" font-size="12" lengthAdjust="spacing" textLength="169" x="121" y="435.5137">listeners[i].removed = true</text><rect fill="#FEFECE" filter="url(#f4to5c857tv0b)" height="33.9688" style="stroke:#A80036;stroke-width:1.5;" width="182" x="114.5" y="468.3438"/><text fill="#000000" font-family="sans-serif" font-size="12" lengthAdjust="spacing" textLength="162" x="124.5" y="489.4824">listeners[i].callback = null</text><rect fill="#FEFECE" filter="url(#f4to5c857tv0b)" height="33.9688" style="stroke:#A80036;stroke-width:1.5;" width="180" x="115.5" y="522.3125"/><text fill="#000000" font-family="sans-serif" font-size="12" lengthAdjust="spacing" textLength="160" x="125.5" y="543.4512">listeners[i].capture = null</text><rect fill="#FEFECE" filter="url(#f4to5c857tv0b)" height="33.9688" style="stroke:#A80036;stroke-width:1.5;" width="178" x="116.5" y="590.1777"/><text fill="#000000" font-family="sans-serif" font-size="12" lengthAdjust="spacing" textLength="158" x="126.5" y="611.3164">listeners[i].passive = null</text><rect fill="#FEFECE" filter="url(#f4to5c857tv0b)" height="33.9688" style="stroke:#A80036;stroke-width:1.5;" width="162" x="124.5" y="656.3574"/><text fill="#000000" font-family="sans-serif" font-size="12" lengthAdjust="spacing" textLength="142" x="134.5" y="677.4961">listeners[i].once = null</text><rect fill="#FEFECE" filter="url(#f4to5c857tv0b)" height="33.9688" style="stroke:#A80036;stroke-width:1.5;" width="143" x="134" y="710.3262"/><text fill="#000000" font-family="sans-serif" font-size="12" lengthAdjust="spacing" textLength="123" x="144" y="731.4648">listeners.splice(i, 1)</text><polygon fill="#FEFECE" filter="url(#f4to5c857tv0b)" points="96.5,351.5586,314.5,351.5586,326.5,370.7656,314.5,389.9727,96.5,389.9727,84.5,370.7656,96.5,351.5586" style="stroke:#A80036;stroke-width:1.5;"/><text fill="#000000" font-family="sans-serif" font-size="11" lengthAdjust="spacing" textLength="20" x="209.5" y="400.1831">yes</text><text fill="#000000" font-family="sans-serif" font-size="11" lengthAdjust="spacing" textLength="142" x="96.5" y="361.769">!listeners[i].removed &amp;&amp;</text><text fill="#000000" font-family="sans-serif" font-size="11" lengthAdjust="spacing" textLength="214" x="96.5" y="374.5737">listeners[i].callback === callback &amp;&amp;</text><text fill="#000000" font-family="sans-serif" font-size="11" lengthAdjust="spacing" textLength="186" x="96.5" y="387.3784">listeners[i].capture === capture</text><polygon fill="#FEFECE" filter="url(#f4to5c857tv0b)" points="205.5,764.2949,217.5,776.2949,205.5,788.2949,193.5,776.2949,205.5,764.2949" style="stroke:#A80036;stroke-width:1.5;"/><polygon fill="#FEFECE" filter="url(#f4to5c857tv0b)" points="110,307.5586,301,307.5586,313,319.5586,301,331.5586,110,331.5586,98,319.5586,110,307.5586" style="stroke:#A80036;stroke-width:1.5;"/><text fill="#000000" font-family="sans-serif" font-size="11" lengthAdjust="spacing" textLength="191" x="110" y="323.3667">let i = 0; i &lt; listeners.length; i++</text><rect fill="#FEFECE" filter="url(#f4to5c857tv0b)" height="33.9688" style="stroke:#A80036;stroke-width:1.5;" width="187" x="112" y="878.6973"/><text fill="#000000" font-family="sans-serif" font-size="12" lengthAdjust="spacing" textLength="167" x="122" y="899.8359">listenersMap.remove(type)</text><polygon fill="#FEFECE" filter="url(#f4to5c857tv0b)" points="140,830.2949,271,830.2949,283,842.2949,271,854.2949,140,854.2949,128,842.2949,140,830.2949" style="stroke:#A80036;stroke-width:1.5;"/><text fill="#000000" font-family="sans-serif" font-size="11" lengthAdjust="spacing" textLength="20" x="209.5" y="864.5054">yes</text><text fill="#000000" font-family="sans-serif" font-size="11" lengthAdjust="spacing" textLength="131" x="140" y="846.103">listeners.length === 0</text><polygon fill="#FEFECE" filter="url(#f4to5c857tv0b)" points="205.5,932.666,217.5,944.666,205.5,956.666,193.5,944.666,205.5,932.666" style="stroke:#A80036;stroke-width:1.5;"/><polygon fill="#FEFECE" filter="url(#f4to5c857tv0b)" points="180.5,259.1563,230.5,259.1563,242.5,271.1563,230.5,283.1563,180.5,283.1563,168.5,271.1563,180.5,259.1563" style="stroke:#A80036;stroke-width:1.5;"/><text fill="#000000" font-family="sans-serif" font-size="11" lengthAdjust="spacing" textLength="20" x="209.5" y="293.3667">yes</text><text fill="#000000" font-family="sans-serif" font-size="11" lengthAdjust="spacing" textLength="50" x="180.5" y="274.9644">listeners</text><polygon fill="#FEFECE" filter="url(#f4to5c857tv0b)" points="205.5,976.666,217.5,988.666,205.5,1000.666,193.5,988.666,205.5,976.666" style="stroke:#A80036;stroke-width:1.5;"/><ellipse cx="205.5" cy="1042.666" fill="#FFFFFF" filter="url(#f4to5c857tv0b)" rx="10" ry="10" style="stroke:#000000;stroke-width:1.5;"/><line style="stroke:#000000;stroke-width:2.5;" x1="199.3128" x2="211.6872" y1="1036.4788" y2="1048.8532"/><line style="stroke:#000000;stroke-width:2.5;" x1="211.6872" x2="199.3128" y1="1036.4788" y2="1048.8532"/><line style="stroke:#A80036;stroke-width:1.5;" x1="205.5" x2="205.5" y1="131.2188" y2="151.2188"/><polygon fill="#A80036" points="201.5,141.2188,205.5,151.2188,209.5,141.2188,205.5,145.2188" style="stroke:#A80036;stroke-width:1.0;"/><line style="stroke:#A80036;stroke-width:1.5;" x1="205.5" x2="205.5" y1="185.1875" y2="205.1875"/><polygon fill="#A80036" points="201.5,195.1875,205.5,205.1875,209.5,195.1875,205.5,199.1875" style="stroke:#A80036;stroke-width:1.0;"/><line style="stroke:#A80036;stroke-width:1.5;" x1="205.5" x2="205.5" y1="448.3438" y2="468.3438"/><polygon fill="#A80036" points="201.5,458.3438,205.5,468.3438,209.5,458.3438,205.5,462.3438" style="stroke:#A80036;stroke-width:1.0;"/><line style="stroke:#A80036;stroke-width:1.5;" x1="205.5" x2="205.5" y1="502.3125" y2="522.3125"/><polygon fill="#A80036" points="201.5,512.3125,205.5,522.3125,209.5,512.3125,205.5,516.3125" style="stroke:#A80036;stroke-width:1.0;"/><line style="stroke:#A80036;stroke-width:1.5;" x1="205.5" x2="205.5" y1="556.2813" y2="590.1777"/><polygon fill="#A80036" points="201.5,580.1777,205.5,590.1777,209.5,580.1777,205.5,584.1777" style="stroke:#A80036;stroke-width:1.0;"/><line style="stroke:#A80036;stroke-width:1.5;" x1="205.5" x2="205.5" y1="624.1465" y2="656.3574"/><polygon fill="#A80036" points="201.5,646.3574,205.5,656.3574,209.5,646.3574,205.5,650.3574" style="stroke:#A80036;stroke-width:1.0;"/><line style="stroke:#A80036;stroke-width:1.5;" x1="205.5" x2="205.5" y1="690.3262" y2="710.3262"/><polygon fill="#A80036" points="201.5,700.3262,205.5,710.3262,209.5,700.3262,205.5,704.3262" style="stroke:#A80036;stroke-width:1.0;"/><line style="stroke:#A80036;stroke-width:1.5;" x1="205.5" x2="205.5" y1="389.9727" y2="414.375"/><polygon fill="#A80036" points="201.5,404.375,205.5,414.375,209.5,404.375,205.5,408.375" style="stroke:#A80036;stroke-width:1.0;"/><line style="stroke:#A80036;stroke-width:1.5;" x1="326.5" x2="338.5" y1="370.7656" y2="370.7656"/><polygon fill="#A80036" points="334.5,560.1777,338.5,570.1777,342.5,560.1777,338.5,564.1777" style="stroke:#A80036;stroke-width:1.5;"/><line style="stroke:#A80036;stroke-width:1.5;" x1="338.5" x2="338.5" y1="370.7656" y2="776.2949"/><line style="stroke:#A80036;stroke-width:1.5;" x1="338.5" x2="217.5" y1="776.2949" y2="776.2949"/><polygon fill="#A80036" points="227.5,772.2949,217.5,776.2949,227.5,780.2949,223.5,776.2949" style="stroke:#A80036;stroke-width:1.0;"/><line style="stroke:#A80036;stroke-width:1.5;" x1="205.5" x2="205.5" y1="744.2949" y2="764.2949"/><polygon fill="#A80036" points="201.5,754.2949,205.5,764.2949,209.5,754.2949,205.5,758.2949" style="stroke:#A80036;stroke-width:1.0;"/><line style="stroke:#A80036;stroke-width:1.5;" x1="205.5" x2="205.5" y1="331.5586" y2="351.5586"/><polygon fill="#A80036" points="201.5,341.5586,205.5,351.5586,209.5,341.5586,205.5,345.5586" style="stroke:#A80036;stroke-width:1.0;"/><line style="stroke:#A80036;stroke-width:1.5;" x1="205.5" x2="205.5" y1="788.2949" y2="798.2949"/><line style="stroke:#A80036;stroke-width:1.5;" x1="205.5" x2="350.5" y1="798.2949" y2="798.2949"/><polygon fill="#A80036" points="346.5,564.5742,350.5,554.5742,354.5,564.5742,350.5,560.5742" style="stroke:#A80036;stroke-width:1.5;"/><line style="stroke:#A80036;stroke-width:1.5;" x1="350.5" x2="350.5" y1="319.5586" y2="798.2949"/><line style="stroke:#A80036;stroke-width:1.5;" x1="350.5" x2="313" y1="319.5586" y2="319.5586"/><polygon fill="#A80036" points="323,315.5586,313,319.5586,323,323.5586,319,319.5586" style="stroke:#A80036;stroke-width:1.0;"/><line style="stroke:#A80036;stroke-width:1.5;" x1="98" x2="72.5" y1="319.5586" y2="319.5586"/><polygon fill="#A80036" points="68.5,550.5742,72.5,560.5742,76.5,550.5742,72.5,554.5742" style="stroke:#A80036;stroke-width:1.5;"/><line style="stroke:#A80036;stroke-width:1.5;" x1="72.5" x2="72.5" y1="319.5586" y2="810.2949"/><line style="stroke:#A80036;stroke-width:1.5;" x1="72.5" x2="205.5" y1="810.2949" y2="810.2949"/><line style="stroke:#A80036;stroke-width:1.5;" x1="205.5" x2="205.5" y1="810.2949" y2="830.2949"/><polygon fill="#A80036" points="201.5,820.2949,205.5,830.2949,209.5,820.2949,205.5,824.2949" style="stroke:#A80036;stroke-width:1.0;"/><line style="stroke:#A80036;stroke-width:1.5;" x1="205.5" x2="205.5" y1="854.2949" y2="878.6973"/><polygon fill="#A80036" points="201.5,868.6973,205.5,878.6973,209.5,868.6973,205.5,872.6973" style="stroke:#A80036;stroke-width:1.0;"/><line style="stroke:#A80036;stroke-width:1.5;" x1="283" x2="309" y1="842.2949" y2="842.2949"/><polygon fill="#A80036" points="305,885.6816,309,895.6816,313,885.6816,309,889.6816" style="stroke:#A80036;stroke-width:1.5;"/><line style="stroke:#A80036;stroke-width:1.5;" x1="309" x2="309" y1="842.2949" y2="944.666"/><line style="stroke:#A80036;stroke-width:1.5;" x1="309" x2="217.5" y1="944.666" y2="944.666"/><polygon fill="#A80036" points="227.5,940.666,217.5,944.666,227.5,948.666,223.5,944.666" style="stroke:#A80036;stroke-width:1.0;"/><line style="stroke:#A80036;stroke-width:1.5;" x1="205.5" x2="205.5" y1="912.666" y2="932.666"/><polygon fill="#A80036" points="201.5,922.666,205.5,932.666,209.5,922.666,205.5,926.666" style="stroke:#A80036;stroke-width:1.0;"/><line style="stroke:#A80036;stroke-width:1.5;" x1="205.5" x2="205.5" y1="283.1563" y2="307.5586"/><polygon fill="#A80036" points="201.5,297.5586,205.5,307.5586,209.5,297.5586,205.5,301.5586" style="stroke:#A80036;stroke-width:1.0;"/><line style="stroke:#A80036;stroke-width:1.5;" x1="242.5" x2="360.5" y1="271.1563" y2="271.1563"/><polygon fill="#A80036" points="356.5,626.3574,360.5,636.3574,364.5,626.3574,360.5,630.3574" style="stroke:#A80036;stroke-width:1.5;"/><line style="stroke:#A80036;stroke-width:1.5;" x1="360.5" x2="360.5" y1="271.1563" y2="988.666"/><line style="stroke:#A80036;stroke-width:1.5;" x1="360.5" x2="217.5" y1="988.666" y2="988.666"/><polygon fill="#A80036" points="227.5,984.666,217.5,988.666,227.5,992.666,223.5,988.666" style="stroke:#A80036;stroke-width:1.0;"/><line style="stroke:#A80036;stroke-width:1.5;" x1="205.5" x2="205.5" y1="956.666" y2="976.666"/><polygon fill="#A80036" points="201.5,966.666,205.5,976.666,209.5,966.666,205.5,970.666" style="stroke:#A80036;stroke-width:1.0;"/><line style="stroke:#A80036;stroke-width:1.5;" x1="205.5" x2="205.5" y1="239.1563" y2="259.1563"/><polygon fill="#A80036" points="201.5,249.1563,205.5,259.1563,209.5,249.1563,205.5,253.1563" style="stroke:#A80036;stroke-width:1.0;"/><line style="stroke:#A80036;stroke-width:1.5;" x1="205.5" x2="205.5" y1="50.9531" y2="97.25"/><polygon fill="#A80036" points="201.5,87.25,205.5,97.25,209.5,87.25,205.5,91.25" style="stroke:#A80036;stroke-width:1.0;"/><line style="stroke:#A80036;stroke-width:1.5;" x1="205.5" x2="205.5" y1="1000.666" y2="1032.666"/><polygon fill="#A80036" points="201.5,1022.666,205.5,1032.666,209.5,1022.666,205.5,1026.666" style="stroke:#A80036;stroke-width:1.0;"/><!--MD5=[fbc1c3c7d7a81d16bc013af5e8f9633e]
@startuml Definition_EventTarget.removeEventListener
    title Definition: EventTarget#addEventListener()

    start
        partition SyncTask {
            :type, callback, capture, passive, once/
            :const listenersMap = internal.listenersMaps.get(this)]
            :const listeners = listenersMap.get(type)]
            if (listeners) then (yes)
                while (let i = 0; i < listeners.length; i++)
                    if (!listeners[i].removed && \nlisteners[i].callback === callback && \nlisteners[i].capture === capture) then (yes)
                        :listeners[i].removed = true]
                        :listeners[i].callback = null]
                        :listeners[i].capture = null]
                        :listeners[i].passive = null]
                        :listeners[i].once = null]
                        :listeners.splice(i, 1)]
                    endif
                endwhile
                if (listeners.length === 0) then (yes)
                    :listenersMap.remove(type)]
                endif
            endif
        }
    end
@enduml

PlantUML version 1.2021.00(Sun Jan 10 12:25:05 EET 2021)
(GPL source distribution)
Java Runtime: OpenJDK Runtime Environment
JVM: OpenJDK 64-Bit Server VM
Default Encoding: UTF-8
Language: en
Country: US
--></g></svg>