<?xml version="1.0" encoding="UTF-8" standalone="no"?><svg xmlns="http://www.w3.org/2000/svg" xmlns:xlink="http://www.w3.org/1999/xlink" contentScriptType="application/ecmascript" contentStyleType="text/css" height="308px" preserveAspectRatio="none" style="width:373px;height:308px;" version="1.1" viewBox="0 0 373 308" width="373px" zoomAndPan="magnify"><defs><filter height="300%" id="f1nznxbv4oxcey" width="300%" x="-1" y="-1"><feGaussianBlur result="blurOut" stdDeviation="2.0"/><feColorMatrix in="blurOut" result="blurOut2" type="matrix" values="0 0 0 0 0 0 0 0 0 0 0 0 0 0 0 0 0 0 .4 0"/><feOffset dx="4.0" dy="4.0" in="blurOut2" result="blurOut3"/><feBlend in="SourceGraphic" in2="blurOut3" mode="normal"/></filter></defs><g><text fill="#000000" font-family="sans-serif" font-size="18" lengthAdjust="spacing" textLength="274" x="48.5" y="26.708">Definition: Node#constructor()</text><ellipse cx="183.5" cy="40.9531" fill="#000000" filter="url(#f1nznxbv4oxcey)" rx="10" ry="10" style="stroke:none;stroke-width:1.0;"/><rect fill="#FFFFFF" filter="url(#f1nznxbv4oxcey)" height="190.2031" style="stroke:#000000;stroke-width:2.0;" width="345" x="11" y="60.9531"/><path d="M87,60.9531 L87,70.25 L77,80.25 L11,80.25 " fill="none" style="stroke:#000000;stroke-width:2.0;"/><text fill="#000000" font-family="sans-serif" font-size="14" lengthAdjust="spacing" textLength="66" x="14" y="74.9482">SyncTask</text><rect fill="#FEFECE" filter="url(#f1nznxbv4oxcey)" height="33.9688" style="stroke:#A80036;stroke-width:1.5;" width="66" x="150.5" y="97.25"/><line style="stroke:#A80036;stroke-width:1.5;" x1="155.5" x2="155.5" y1="97.25" y2="131.2188"/><line style="stroke:#A80036;stroke-width:1.5;" x1="211.5" x2="211.5" y1="97.25" y2="131.2188"/><a href="./Definition_EventTarget.constructor.svg" target="_top" title="./Definition_EventTarget.constructor.svg" xlink:actuate="onRequest" xlink:href="./Definition_EventTarget.constructor.svg" xlink:show="new" xlink:title="./Definition_EventTarget.constructor.svg" xlink:type="simple"><text fill="#0000FF" font-family="sans-serif" font-size="12" lengthAdjust="spacing" text-decoration="underline" textLength="46" x="160.5" y="118.3887">super()</text></a><rect fill="#FEFECE" filter="url(#f1nznxbv4oxcey)" height="33.9688" style="stroke:#A80036;stroke-width:1.5;" width="325" x="21" y="151.2188"/><text fill="#000000" font-family="sans-serif" font-size="12" lengthAdjust="spacing" textLength="305" x="31" y="172.3574">internal.nodesIndices.set(this, new NodeIndex())</text><polygon fill="#FEFECE" filter="url(#f1nznxbv4oxcey)" points="172,205.1875,205,205.1875,195,239.1563,162,239.1563" style="stroke:#A80036;stroke-width:1.5;"/><text fill="#000000" font-family="sans-serif" font-size="12" lengthAdjust="spacing" textLength="23" x="172" y="226.3262">this</text><ellipse cx="183.5" cy="281.1563" fill="#FFFFFF" filter="url(#f1nznxbv4oxcey)" rx="10" ry="10" style="stroke:#000000;stroke-width:1.5;"/><line style="stroke:#000000;stroke-width:2.5;" x1="177.3128" x2="189.6872" y1="274.9691" y2="287.3434"/><line style="stroke:#000000;stroke-width:2.5;" x1="189.6872" x2="177.3128" y1="274.9691" y2="287.3434"/><line style="stroke:#A80036;stroke-width:1.5;" x1="183.5" x2="183.5" y1="131.2188" y2="151.2188"/><polygon fill="#A80036" points="179.5,141.2188,183.5,151.2188,187.5,141.2188,183.5,145.2188" style="stroke:#A80036;stroke-width:1.0;"/><line style="stroke:#A80036;stroke-width:1.5;" x1="183.5" x2="183.5" y1="185.1875" y2="205.1875"/><polygon fill="#A80036" points="179.5,195.1875,183.5,205.1875,187.5,195.1875,183.5,199.1875" style="stroke:#A80036;stroke-width:1.0;"/><line style="stroke:#A80036;stroke-width:1.5;" x1="183.5" x2="183.5" y1="50.9531" y2="97.25"/><polygon fill="#A80036" points="179.5,87.25,183.5,97.25,187.5,87.25,183.5,91.25" style="stroke:#A80036;stroke-width:1.0;"/><line style="stroke:#A80036;stroke-width:1.5;" x1="183.5" x2="183.5" y1="239.1563" y2="271.1563"/><polygon fill="#A80036" points="179.5,261.1563,183.5,271.1563,187.5,261.1563,183.5,265.1563" style="stroke:#A80036;stroke-width:1.0;"/><!--MD5=[f016605743da363c9080f8ce3ae3fac1]
@startuml Definition_Node.constructor
    title Definition: Node#constructor()

    start
        partition SyncTask {
            :[[./Definition_EventTarget.constructor.svg super()]]|
            :internal.nodesIndices.set(this, new NodeIndex())]
            :this/
        }
    end
@enduml

PlantUML version 1.2021.00(Sun Jan 10 12:25:05 EET 2021)
(GPL source distribution)
Java Runtime: OpenJDK Runtime Environment
JVM: OpenJDK 64-Bit Server VM
Default Encoding: UTF-8
Language: en
Country: US
--></g></svg>