<?xml version="1.0" encoding="UTF-8" standalone="no"?><svg xmlns="http://www.w3.org/2000/svg" xmlns:xlink="http://www.w3.org/1999/xlink" contentScriptType="application/ecmascript" contentStyleType="text/css" height="520px" preserveAspectRatio="none" style="width:359px;height:520px;" version="1.1" viewBox="0 0 359 520" width="359px" zoomAndPan="magnify"><defs><filter height="300%" id="ful76njcdjl1n" width="300%" x="-1" y="-1"><feGaussianBlur result="blurOut" stdDeviation="2.0"/><feColorMatrix in="blurOut" result="blurOut2" type="matrix" values="0 0 0 0 0 0 0 0 0 0 0 0 0 0 0 0 0 0 .4 0"/><feOffset dx="4.0" dy="4.0" in="blurOut2" result="blurOut3"/><feBlend in="SourceGraphic" in2="blurOut3" mode="normal"/></filter></defs><g><text fill="#000000" font-family="sans-serif" font-size="18" lengthAdjust="spacingAndGlyphs" textLength="335" x="12" y="27.4023">Definition: EventListener#constructor()</text><ellipse cx="179.5" cy="41.1992" fill="#000000" filter="url(#ful76njcdjl1n)" rx="10" ry="10" style="stroke: none; stroke-width: 1.0;"/><rect fill="#FFFFFF" filter="url(#ful76njcdjl1n)" height="407.418" style="stroke: #000000; stroke-width: 2.0;" width="225" x="67" y="61.6523"/><path d="M140,62.6523 L140,71.1406 L130,81.1406 L67,81.1406 " fill="none" style="stroke: #000000; stroke-width: 2.0;"/><text fill="#000000" font-family="sans-serif" font-size="14" lengthAdjust="spacingAndGlyphs" textLength="63" x="70" y="76.1875">SyncTask</text><polygon fill="#FEFECE" filter="url(#ful76njcdjl1n)" points="87,98.1406,282,98.1406,272,132.2734,77,132.2734" style="stroke: #A80036; stroke-width: 1.5;"/><text fill="#000000" font-family="sans-serif" font-size="12" lengthAdjust="spacingAndGlyphs" textLength="185" x="87" y="119.7422">callback, capture, passive, once</text><rect fill="#FEFECE" filter="url(#ful76njcdjl1n)" height="34.1328" style="stroke: #A80036; stroke-width: 1.5;" width="65" x="147" y="152.2734"/><line style="stroke: #A80036; stroke-width: 1.5;" x1="152" x2="152" y1="152.2734" y2="186.4063"/><line style="stroke: #A80036; stroke-width: 1.5;" x1="207" x2="207" y1="152.2734" y2="186.4063"/><a href="./Definition_Monitorable.constructor.svg" target="_top" xlink:actuate="onRequest" xlink:show="new" xlink:title="./Definition_Monitorable.constructor.svg" xlink:type="simple"><text fill="#0000FF" font-family="sans-serif" font-size="12" lengthAdjust="spacingAndGlyphs" text-decoration="underline" textLength="41" x="157" y="173.875">super()</text></a><text fill="#000000" font-family="sans-serif" font-size="12" lengthAdjust="spacingAndGlyphs" textLength="0" x="202" y="173.875"/><rect fill="#FEFECE" filter="url(#ful76njcdjl1n)" height="34.1328" style="stroke: #A80036; stroke-width: 1.5;" width="156" x="101.5" y="206.4063"/><text fill="#000000" font-family="sans-serif" font-size="12" lengthAdjust="spacingAndGlyphs" textLength="136" x="111.5" y="228.0078">this.callback = callback</text><rect fill="#FEFECE" filter="url(#ful76njcdjl1n)" height="34.1328" style="stroke: #A80036; stroke-width: 1.5;" width="150" x="104.5" y="260.5391"/><text fill="#000000" font-family="sans-serif" font-size="12" lengthAdjust="spacingAndGlyphs" textLength="130" x="114.5" y="282.1406">this.capture = capture</text><rect fill="#FEFECE" filter="url(#ful76njcdjl1n)" height="34.1328" style="stroke: #A80036; stroke-width: 1.5;" width="148" x="105.5" y="314.6719"/><text fill="#000000" font-family="sans-serif" font-size="12" lengthAdjust="spacingAndGlyphs" textLength="128" x="115.5" y="336.2734">this.passive = passive</text><rect fill="#FEFECE" filter="url(#ful76njcdjl1n)" height="34.1328" style="stroke: #A80036; stroke-width: 1.5;" width="140" x="109.5" y="368.8047"/><text fill="#000000" font-family="sans-serif" font-size="12" lengthAdjust="spacingAndGlyphs" textLength="120" x="119.5" y="390.4063">this.removed = false</text><rect fill="#FEFECE" filter="url(#ful76njcdjl1n)" height="34.1328" style="stroke: #A80036; stroke-width: 1.5;" width="116" x="121.5" y="422.9375"/><text fill="#000000" font-family="sans-serif" font-size="12" lengthAdjust="spacingAndGlyphs" textLength="96" x="131.5" y="444.5391">this.once = once</text><ellipse cx="179.5" cy="499.0703" fill="#FFFFFF" filter="url(#ful76njcdjl1n)" rx="10" ry="10" style="stroke: #000000; stroke-width: 1.5;"/><line style="stroke: #000000; stroke-width: 2.5;" x1="173.3128" x2="185.6872" y1="492.8831" y2="505.2575"/><line style="stroke: #000000; stroke-width: 2.5;" x1="185.6872" x2="173.3128" y1="492.8831" y2="505.2575"/><line style="stroke: #A80036; stroke-width: 1.5;" x1="179.5" x2="179.5" y1="132.2734" y2="152.2734"/><polygon fill="#A80036" points="175.5,142.2734,179.5,152.2734,183.5,142.2734,179.5,146.2734" style="stroke: #A80036; stroke-width: 1.0;"/><line style="stroke: #A80036; stroke-width: 1.5;" x1="179.5" x2="179.5" y1="186.4063" y2="206.4063"/><polygon fill="#A80036" points="175.5,196.4063,179.5,206.4063,183.5,196.4063,179.5,200.4063" style="stroke: #A80036; stroke-width: 1.0;"/><line style="stroke: #A80036; stroke-width: 1.5;" x1="179.5" x2="179.5" y1="240.5391" y2="260.5391"/><polygon fill="#A80036" points="175.5,250.5391,179.5,260.5391,183.5,250.5391,179.5,254.5391" style="stroke: #A80036; stroke-width: 1.0;"/><line style="stroke: #A80036; stroke-width: 1.5;" x1="179.5" x2="179.5" y1="294.6719" y2="314.6719"/><polygon fill="#A80036" points="175.5,304.6719,179.5,314.6719,183.5,304.6719,179.5,308.6719" style="stroke: #A80036; stroke-width: 1.0;"/><line style="stroke: #A80036; stroke-width: 1.5;" x1="179.5" x2="179.5" y1="348.8047" y2="368.8047"/><polygon fill="#A80036" points="175.5,358.8047,179.5,368.8047,183.5,358.8047,179.5,362.8047" style="stroke: #A80036; stroke-width: 1.0;"/><line style="stroke: #A80036; stroke-width: 1.5;" x1="179.5" x2="179.5" y1="402.9375" y2="422.9375"/><polygon fill="#A80036" points="175.5,412.9375,179.5,422.9375,183.5,412.9375,179.5,416.9375" style="stroke: #A80036; stroke-width: 1.0;"/><line style="stroke: #A80036; stroke-width: 1.5;" x1="179.5" x2="179.5" y1="51.1992" y2="98.1406"/><polygon fill="#A80036" points="175.5,88.1406,179.5,98.1406,183.5,88.1406,179.5,92.1406" style="stroke: #A80036; stroke-width: 1.0;"/><line style="stroke: #A80036; stroke-width: 1.5;" x1="179.5" x2="179.5" y1="457.0703" y2="489.0703"/><polygon fill="#A80036" points="175.5,479.0703,179.5,489.0703,183.5,479.0703,179.5,483.0703" style="stroke: #A80036; stroke-width: 1.0;"/><!--
@startuml Definition_EventListener.constructor
    title Definition: EventListener#constructor()

    start
        partition SyncTask {
            :callback, capture, passive, once/
            :[[./Definition_Monitorable.constructor.svg super()]] |
            :this.callback = callback]
            :this.capture = capture]
            :this.passive = passive]
            :this.removed = false]
            :this.once = once]
        }
    end
@enduml

PlantUML version 1.2019.09(Mon Aug 26 19:19:51 EEST 2019)
(GPL source distribution)
Java Runtime: OpenJDK Runtime Environment
JVM: OpenJDK 64-Bit Server VM
Java Version: 13.0.1+9
Operating System: Mac OS X
OS Version: 10.15.3
Default Encoding: UTF-8
Language: en
Country: UA
--></g></svg>