<?xml version="1.0" encoding="UTF-8" standalone="no"?><svg xmlns="http://www.w3.org/2000/svg" xmlns:xlink="http://www.w3.org/1999/xlink" contentScriptType="application/ecmascript" contentStyleType="text/css" height="643px" preserveAspectRatio="none" style="width:460px;height:643px;" version="1.1" viewBox="0 0 460 643" width="460px" zoomAndPan="magnify"><defs><filter height="300%" id="fddamrlg9lefu" width="300%" x="-1" y="-1"><feGaussianBlur result="blurOut" stdDeviation="2.0"/><feColorMatrix in="blurOut" result="blurOut2" type="matrix" values="0 0 0 0 0 0 0 0 0 0 0 0 0 0 0 0 0 0 .4 0"/><feOffset dx="4.0" dy="4.0" in="blurOut2" result="blurOut3"/><feBlend in="SourceGraphic" in2="blurOut3" mode="normal"/></filter></defs><g><text fill="#000000" font-family="sans-serif" font-size="18" lengthAdjust="spacing" textLength="300" x="79" y="26.708">Definition: internal.getAncestors()</text><ellipse cx="222" cy="40.9531" fill="#000000" filter="url(#fddamrlg9lefu)" rx="10" ry="10" style="stroke:none;stroke-width:1.0;"/><rect fill="#FFFFFF" filter="url(#fddamrlg9lefu)" height="525.5117" style="stroke:#000000;stroke-width:2.0;" width="432" x="11" y="60.9531"/><path d="M87,60.9531 L87,70.25 L77,80.25 L11,80.25 " fill="none" style="stroke:#000000;stroke-width:2.0;"/><text fill="#000000" font-family="sans-serif" font-size="14" lengthAdjust="spacing" textLength="66" x="14" y="74.9482">SyncTask</text><polygon fill="#FEFECE" filter="url(#fddamrlg9lefu)" points="206,97.25,248,97.25,238,131.2188,196,131.2188" style="stroke:#A80036;stroke-width:1.5;"/><text fill="#000000" font-family="sans-serif" font-size="12" lengthAdjust="spacing" textLength="32" x="206" y="118.3887">node</text><rect fill="#FEFECE" filter="url(#fddamrlg9lefu)" height="33.9688" style="stroke:#A80036;stroke-width:1.5;" width="135" x="154.5" y="151.2188"/><text fill="#000000" font-family="sans-serif" font-size="12" lengthAdjust="spacing" textLength="111" x="164.5" y="172.3574">let ancestors = []</text><rect fill="#FEFECE" filter="url(#fddamrlg9lefu)" height="33.9688" style="stroke:#A80036;stroke-width:1.5;" width="362" x="41" y="253.5898"/><text fill="#000000" font-family="sans-serif" font-size="12" lengthAdjust="spacing" textLength="342" x="51" y="274.7285">let ancestor = internal.nodesIndices.get(node).parent</text><rect fill="#FEFECE" filter="url(#fddamrlg9lefu)" height="33.9688" style="stroke:#A80036;stroke-width:1.5;" width="188" x="128" y="351.5586"/><text fill="#000000" font-family="sans-serif" font-size="12" lengthAdjust="spacing" textLength="164" x="138" y="372.6973">ancestors.push(ancestor)</text><rect fill="#FEFECE" filter="url(#fddamrlg9lefu)" height="33.9688" style="stroke:#A80036;stroke-width:1.5;" width="366" x="39" y="420.5273"/><text fill="#000000" font-family="sans-serif" font-size="12" lengthAdjust="spacing" textLength="346" x="49" y="441.666">ancestor = internal.nodesIndices.get(ancestor).parent</text><polygon fill="#FEFECE" filter="url(#fddamrlg9lefu)" points="177,307.5586,267,307.5586,279,319.5586,267,331.5586,177,331.5586,165,319.5586,177,307.5586" style="stroke:#A80036;stroke-width:1.5;"/><text fill="#000000" font-family="sans-serif" font-size="11" lengthAdjust="spacing" textLength="90" x="177" y="323.3667">ancestor != null</text><polygon fill="#FEFECE" filter="url(#fddamrlg9lefu)" points="160,205.1875,284,205.1875,296,217.1875,284,229.1875,160,229.1875,148,217.1875,160,205.1875" style="stroke:#A80036;stroke-width:1.5;"/><text fill="#000000" font-family="sans-serif" font-size="11" lengthAdjust="spacing" textLength="20" x="226" y="239.3979">yes</text><text fill="#000000" font-family="sans-serif" font-size="11" lengthAdjust="spacing" textLength="124" x="160" y="220.9956">node instanceof Node</text><polygon fill="#FEFECE" filter="url(#fddamrlg9lefu)" points="222,496.4961,234,508.4961,222,520.4961,210,508.4961,222,496.4961" style="stroke:#A80036;stroke-width:1.5;"/><polygon fill="#FEFECE" filter="url(#fddamrlg9lefu)" points="167,540.4961,287,540.4961,277,574.4648,157,574.4648" style="stroke:#A80036;stroke-width:1.5;"/><text fill="#000000" font-family="sans-serif" font-size="12" lengthAdjust="spacing" textLength="106" x="167" y="561.6348">return ancestors</text><ellipse cx="222" cy="616.4648" fill="#FFFFFF" filter="url(#fddamrlg9lefu)" rx="10" ry="10" style="stroke:#000000;stroke-width:1.5;"/><line style="stroke:#000000;stroke-width:2.5;" x1="215.8128" x2="228.1872" y1="610.2777" y2="622.652"/><line style="stroke:#000000;stroke-width:2.5;" x1="228.1872" x2="215.8128" y1="610.2777" y2="622.652"/><line style="stroke:#A80036;stroke-width:1.5;" x1="222" x2="222" y1="131.2188" y2="151.2188"/><polygon fill="#A80036" points="218,141.2188,222,151.2188,226,141.2188,222,145.2188" style="stroke:#A80036;stroke-width:1.0;"/><line style="stroke:#A80036;stroke-width:1.5;" x1="222" x2="222" y1="385.5273" y2="420.5273"/><polygon fill="#A80036" points="218,410.5273,222,420.5273,226,410.5273,222,414.5273" style="stroke:#A80036;stroke-width:1.0;"/><line style="stroke:#A80036;stroke-width:1.5;" x1="222" x2="222" y1="331.5586" y2="351.5586"/><polygon fill="#A80036" points="218,341.5586,222,351.5586,226,341.5586,222,345.5586" style="stroke:#A80036;stroke-width:1.0;"/><line style="stroke:#A80036;stroke-width:1.5;" x1="222" x2="222" y1="454.4961" y2="464.4961"/><line style="stroke:#A80036;stroke-width:1.5;" x1="222" x2="417" y1="464.4961" y2="464.4961"/><polygon fill="#A80036" points="413,401.0273,417,391.0273,421,401.0273,417,397.0273" style="stroke:#A80036;stroke-width:1.5;"/><line style="stroke:#A80036;stroke-width:1.5;" x1="417" x2="417" y1="319.5586" y2="464.4961"/><line style="stroke:#A80036;stroke-width:1.5;" x1="417" x2="279" y1="319.5586" y2="319.5586"/><polygon fill="#A80036" points="289,315.5586,279,319.5586,289,323.5586,285,319.5586" style="stroke:#A80036;stroke-width:1.0;"/><line style="stroke:#A80036;stroke-width:1.5;" x1="165" x2="27" y1="319.5586" y2="319.5586"/><polygon fill="#A80036" points="23,387.0273,27,397.0273,31,387.0273,27,391.0273" style="stroke:#A80036;stroke-width:1.5;"/><line style="stroke:#A80036;stroke-width:1.5;" x1="27" x2="27" y1="319.5586" y2="476.4961"/><line style="stroke:#A80036;stroke-width:1.5;" x1="27" x2="222" y1="476.4961" y2="476.4961"/><line style="stroke:#A80036;stroke-width:1.5;" x1="222" x2="222" y1="476.4961" y2="496.4961"/><polygon fill="#A80036" points="218,486.4961,222,496.4961,226,486.4961,222,490.4961" style="stroke:#A80036;stroke-width:1.0;"/><line style="stroke:#A80036;stroke-width:1.5;" x1="222" x2="222" y1="287.5586" y2="307.5586"/><polygon fill="#A80036" points="218,297.5586,222,307.5586,226,297.5586,222,301.5586" style="stroke:#A80036;stroke-width:1.0;"/><line style="stroke:#A80036;stroke-width:1.5;" x1="222" x2="222" y1="229.1875" y2="253.5898"/><polygon fill="#A80036" points="218,243.5898,222,253.5898,226,243.5898,222,247.5898" style="stroke:#A80036;stroke-width:1.0;"/><line style="stroke:#A80036;stroke-width:1.5;" x1="296" x2="427" y1="217.1875" y2="217.1875"/><polygon fill="#A80036" points="423,346.543,427,356.543,431,346.543,427,350.543" style="stroke:#A80036;stroke-width:1.5;"/><line style="stroke:#A80036;stroke-width:1.5;" x1="427" x2="427" y1="217.1875" y2="508.4961"/><line style="stroke:#A80036;stroke-width:1.5;" x1="427" x2="234" y1="508.4961" y2="508.4961"/><polygon fill="#A80036" points="244,504.4961,234,508.4961,244,512.4961,240,508.4961" style="stroke:#A80036;stroke-width:1.0;"/><line style="stroke:#A80036;stroke-width:1.5;" x1="222" x2="222" y1="185.1875" y2="205.1875"/><polygon fill="#A80036" points="218,195.1875,222,205.1875,226,195.1875,222,199.1875" style="stroke:#A80036;stroke-width:1.0;"/><line style="stroke:#A80036;stroke-width:1.5;" x1="222" x2="222" y1="520.4961" y2="540.4961"/><polygon fill="#A80036" points="218,530.4961,222,540.4961,226,530.4961,222,534.4961" style="stroke:#A80036;stroke-width:1.0;"/><line style="stroke:#A80036;stroke-width:1.5;" x1="222" x2="222" y1="50.9531" y2="97.25"/><polygon fill="#A80036" points="218,87.25,222,97.25,226,87.25,222,91.25" style="stroke:#A80036;stroke-width:1.0;"/><line style="stroke:#A80036;stroke-width:1.5;" x1="222" x2="222" y1="574.4648" y2="606.4648"/><polygon fill="#A80036" points="218,596.4648,222,606.4648,226,596.4648,222,600.4648" style="stroke:#A80036;stroke-width:1.0;"/><!--MD5=[f45e79aa86836f30dc8dab571276b43a]
@startuml Definition_internal.getAncestors
    title Definition: internal.getAncestors()

    start
        partition SyncTask {
            :node/
            :let ancestors = [] ]
            if (node instanceof Node) then (yes)
                :let ancestor = internal.nodesIndices.get(node).parent]
                while (ancestor != null)
                    :ancestors.push(ancestor) ]
                    :ancestor = internal.nodesIndices.get(ancestor).parent]
                endwhile
            endif
            :return ancestors /
        }
    end
@enduml

PlantUML version 1.2021.00(Sun Jan 10 12:25:05 EET 2021)
(GPL source distribution)
Java Runtime: OpenJDK Runtime Environment
JVM: OpenJDK 64-Bit Server VM
Default Encoding: UTF-8
Language: en
Country: US
--></g></svg>