<?xml version="1.0" encoding="UTF-8" standalone="no"?><svg xmlns="http://www.w3.org/2000/svg" xmlns:xlink="http://www.w3.org/1999/xlink" contentScriptType="application/ecmascript" contentStyleType="text/css" height="1140px" preserveAspectRatio="none" style="width:814px;height:1140px;" version="1.1" viewBox="0 0 814 1140" width="814px" zoomAndPan="magnify"><defs><filter height="300%" id="f1ag9nwwa1kfnr" width="300%" x="-1" y="-1"><feGaussianBlur result="blurOut" stdDeviation="2.0"/><feColorMatrix in="blurOut" result="blurOut2" type="matrix" values="0 0 0 0 0 0 0 0 0 0 0 0 0 0 0 0 0 0 .4 0"/><feOffset dx="4.0" dy="4.0" in="blurOut2" result="blurOut3"/><feBlend in="SourceGraphic" in2="blurOut3" mode="normal"/></filter></defs><g><text fill="#000000" font-family="sans-serif" font-size="18" lengthAdjust="spacing" textLength="295" x="258.5" y="26.708">Definition: internal.fireListeners()</text><ellipse cx="383" cy="40.9531" fill="#000000" filter="url(#f1ag9nwwa1kfnr)" rx="10" ry="10" style="stroke:none;stroke-width:1.0;"/><rect fill="#FFFFFF" filter="url(#f1ag9nwwa1kfnr)" height="1022.7109" style="stroke:#000000;stroke-width:2.0;" width="786" x="11" y="60.9531"/><path d="M87,60.9531 L87,70.25 L77,80.25 L11,80.25 " fill="none" style="stroke:#000000;stroke-width:2.0;"/><text fill="#000000" font-family="sans-serif" font-size="14" lengthAdjust="spacing" textLength="66" x="14" y="74.9482">SyncTask</text><polygon fill="#FEFECE" filter="url(#f1ag9nwwa1kfnr)" points="313,97.25,463,97.25,453,131.2188,303,131.2188" style="stroke:#A80036;stroke-width:1.5;"/><text fill="#000000" font-family="sans-serif" font-size="12" lengthAdjust="spacing" textLength="140" x="313" y="118.3887">binder, event, capture</text><rect fill="#FEFECE" filter="url(#f1ag9nwwa1kfnr)" height="33.9688" style="stroke:#A80036;stroke-width:1.5;" width="247" x="259.5" y="151.2188"/><text fill="#000000" font-family="sans-serif" font-size="12" lengthAdjust="spacing" textLength="135" x="269.5" y="172.3574">const target = event.</text><a href="./Definition_Event.currentTarget.svg" target="_top" title="./Definition_Event.currentTarget.svg" xlink:actuate="onRequest" xlink:href="./Definition_Event.currentTarget.svg" xlink:show="new" xlink:title="./Definition_Event.currentTarget.svg" xlink:type="simple"><text fill="#0000FF" font-family="sans-serif" font-size="12" lengthAdjust="spacing" text-decoration="underline" textLength="87" x="404.5" y="172.3574">currentTarget</text></a><text fill="#000000" font-family="sans-serif" font-size="12" lengthAdjust="spacing" textLength="5" x="491.5" y="172.3574">)</text><rect fill="#FEFECE" filter="url(#f1ag9nwwa1kfnr)" height="33.9688" style="stroke:#A80036;stroke-width:1.5;" width="317" x="224.5" y="205.1875"/><text fill="#000000" font-family="sans-serif" font-size="12" lengthAdjust="spacing" textLength="297" x="234.5" y="226.3262">const map = internal.listenersMaps.get(target)</text><rect fill="#FEFECE" filter="url(#f1ag9nwwa1kfnr)" height="33.9688" style="stroke:#A80036;stroke-width:1.5;" width="259" x="253.5" y="259.1563"/><text fill="#000000" font-family="sans-serif" font-size="12" lengthAdjust="spacing" textLength="207" x="263.5" y="280.2949">const listeners = map.get(event.</text><a href="./Definition_Event.type.svg" target="_top" title="./Definition_Event.type.svg" xlink:actuate="onRequest" xlink:href="./Definition_Event.type.svg" xlink:show="new" xlink:title="./Definition_Event.type.svg" xlink:type="simple"><text fill="#0000FF" font-family="sans-serif" font-size="12" lengthAdjust="spacing" text-decoration="underline" textLength="27" x="470.5" y="280.2949">type</text></a><text fill="#000000" font-family="sans-serif" font-size="12" lengthAdjust="spacing" textLength="5" x="497.5" y="280.2949">)</text><rect fill="#FEFECE" filter="url(#f1ag9nwwa1kfnr)" height="33.9688" style="stroke:#A80036;stroke-width:1.5;" width="120" x="323" y="313.125"/><text fill="#000000" font-family="sans-serif" font-size="12" lengthAdjust="spacing" textLength="100" x="333" y="334.2637">let result = true</text><rect fill="#FEFECE" filter="url(#f1ag9nwwa1kfnr)" height="33.9688" style="stroke:#A80036;stroke-width:1.5;" width="87" x="339.5" y="415.4961"/><text fill="#000000" font-family="sans-serif" font-size="12" lengthAdjust="spacing" textLength="67" x="349.5" y="436.6348">let listener</text><rect fill="#FEFECE" filter="url(#f1ag9nwwa1kfnr)" height="33.9688" style="stroke:#A80036;stroke-width:1.5;" width="156" x="305" y="513.4648"/><text fill="#000000" font-family="sans-serif" font-size="12" lengthAdjust="spacing" textLength="132" x="315" y="534.6035">listener = listeners[i]</text><rect fill="#FEFECE" filter="url(#f1ag9nwwa1kfnr)" height="33.9688" style="stroke:#A80036;stroke-width:1.5;" width="227" x="269.5" y="615.8359"/><text fill="#000000" font-family="sans-serif" font-size="12" lengthAdjust="spacing" textLength="207" x="279.5" y="636.9746">binder.passive = listener.passive</text><rect fill="#FEFECE" filter="url(#f1ag9nwwa1kfnr)" height="33.9688" style="stroke:#A80036;stroke-width:1.5;" width="381" x="192.5" y="669.8047"/><text fill="#000000" font-family="sans-serif" font-size="12" lengthAdjust="spacing" textLength="361" x="202.5" y="690.9434">result = listener.callback.call(undefined, event) &amp;&amp; result</text><rect fill="#FEFECE" filter="url(#f1ag9nwwa1kfnr)" height="33.9688" style="stroke:#A80036;stroke-width:1.5;" width="684" x="41" y="775.7578"/><line style="stroke:#A80036;stroke-width:1.5;" x1="46" x2="46" y1="775.7578" y2="809.7266"/><line style="stroke:#A80036;stroke-width:1.5;" x1="720" x2="720" y1="775.7578" y2="809.7266"/><text fill="#000000" font-family="sans-serif" font-size="12" lengthAdjust="spacing" textLength="43" x="51" y="796.8965">target.</text><a href="./Definition_EventTarget.removeEventListener.svg" target="_top" title="./Definition_EventTarget.removeEventListener.svg" xlink:actuate="onRequest" xlink:href="./Definition_EventTarget.removeEventListener.svg" xlink:show="new" xlink:title="./Definition_EventTarget.removeEventListener.svg" xlink:type="simple"><text fill="#0000FF" font-family="sans-serif" font-size="12" lengthAdjust="spacing" text-decoration="underline" textLength="131" x="94" y="796.8965">removeEventListener</text></a><text fill="#000000" font-family="sans-serif" font-size="12" lengthAdjust="spacing" textLength="44" x="225" y="796.8965">(event.</text><a href="./Definition_Event.type.svg" target="_top" title="./Definition_Event.type.svg" xlink:actuate="onRequest" xlink:href="./Definition_Event.type.svg" xlink:show="new" xlink:title="./Definition_Event.type.svg" xlink:type="simple"><text fill="#0000FF" font-family="sans-serif" font-size="12" lengthAdjust="spacing" text-decoration="underline" textLength="27" x="269" y="796.8965">type</text></a><text fill="#000000" font-family="sans-serif" font-size="12" lengthAdjust="spacing" textLength="419" x="296" y="796.8965">, listener.callback, listener.capture, listener.passive, listener.once)</text><polygon fill="#FEFECE" filter="url(#f1ag9nwwa1kfnr)" points="346,727.3555,420,727.3555,432,739.3555,420,751.3555,346,751.3555,334,739.3555,346,727.3555" style="stroke:#A80036;stroke-width:1.5;"/><text fill="#000000" font-family="sans-serif" font-size="11" lengthAdjust="spacing" textLength="20" x="387" y="761.5659">yes</text><text fill="#000000" font-family="sans-serif" font-size="11" lengthAdjust="spacing" textLength="74" x="346" y="743.1636">listener.once</text><polygon fill="#FEFECE" filter="url(#f1ag9nwwa1kfnr)" points="383,829.7266,395,841.7266,383,853.7266,371,841.7266,383,829.7266" style="stroke:#A80036;stroke-width:1.5;"/><polygon fill="#FEFECE" filter="url(#f1ag9nwwa1kfnr)" points="239.5,567.4336,526.5,567.4336,538.5,579.4336,526.5,591.4336,239.5,591.4336,227.5,579.4336,239.5,567.4336" style="stroke:#A80036;stroke-width:1.5;"/><text fill="#000000" font-family="sans-serif" font-size="11" lengthAdjust="spacing" textLength="20" x="387" y="601.644">yes</text><text fill="#000000" font-family="sans-serif" font-size="11" lengthAdjust="spacing" textLength="287" x="239.5" y="583.2417">listener.capture == capture &amp;&amp; !listener.removed</text><polygon fill="#FEFECE" filter="url(#f1ag9nwwa1kfnr)" points="383,873.7266,395,885.7266,383,897.7266,371,885.7266,383,873.7266" style="stroke:#A80036;stroke-width:1.5;"/><polygon fill="#FEFECE" filter="url(#f1ag9nwwa1kfnr)" points="287.5,469.4648,478.5,469.4648,490.5,481.4648,478.5,493.4648,287.5,493.4648,275.5,481.4648,287.5,469.4648" style="stroke:#A80036;stroke-width:1.5;"/><text fill="#000000" font-family="sans-serif" font-size="11" lengthAdjust="spacing" textLength="191" x="287.5" y="485.2729">let i = 0; i &lt; listeners.length; i++</text><rect fill="#FEFECE" filter="url(#f1ag9nwwa1kfnr)" height="33.9688" style="stroke:#A80036;stroke-width:1.5;" width="159" x="303.5" y="939.7266"/><text fill="#000000" font-family="sans-serif" font-size="12" lengthAdjust="spacing" textLength="139" x="313.5" y="960.8652">binder.passive = false</text><polygon fill="#FEFECE" filter="url(#f1ag9nwwa1kfnr)" points="309.5,367.0938,456.5,367.0938,468.5,379.0938,456.5,391.0938,309.5,391.0938,297.5,379.0938,309.5,367.0938" style="stroke:#A80036;stroke-width:1.5;"/><text fill="#000000" font-family="sans-serif" font-size="11" lengthAdjust="spacing" textLength="20" x="387" y="401.3042">yes</text><text fill="#000000" font-family="sans-serif" font-size="11" lengthAdjust="spacing" textLength="147" x="309.5" y="382.9019">listeners instanceof Array</text><polygon fill="#FEFECE" filter="url(#f1ag9nwwa1kfnr)" points="383,993.6953,395,1005.6953,383,1017.6953,371,1005.6953,383,993.6953" style="stroke:#A80036;stroke-width:1.5;"/><polygon fill="#FEFECE" filter="url(#f1ag9nwwa1kfnr)" points="343.5,1037.6953,432.5,1037.6953,422.5,1071.6641,333.5,1071.6641" style="stroke:#A80036;stroke-width:1.5;"/><text fill="#000000" font-family="sans-serif" font-size="12" lengthAdjust="spacing" textLength="79" x="343.5" y="1058.834">return result</text><ellipse cx="383" cy="1113.6641" fill="#FFFFFF" filter="url(#f1ag9nwwa1kfnr)" rx="10" ry="10" style="stroke:#000000;stroke-width:1.5;"/><line style="stroke:#000000;stroke-width:2.5;" x1="376.8128" x2="389.1872" y1="1107.4769" y2="1119.8512"/><line style="stroke:#000000;stroke-width:2.5;" x1="389.1872" x2="376.8128" y1="1107.4769" y2="1119.8512"/><line style="stroke:#A80036;stroke-width:1.5;" x1="383" x2="383" y1="131.2188" y2="151.2188"/><polygon fill="#A80036" points="379,141.2188,383,151.2188,387,141.2188,383,145.2188" style="stroke:#A80036;stroke-width:1.0;"/><line style="stroke:#A80036;stroke-width:1.5;" x1="383" x2="383" y1="185.1875" y2="205.1875"/><polygon fill="#A80036" points="379,195.1875,383,205.1875,387,195.1875,383,199.1875" style="stroke:#A80036;stroke-width:1.0;"/><line style="stroke:#A80036;stroke-width:1.5;" x1="383" x2="383" y1="239.1563" y2="259.1563"/><polygon fill="#A80036" points="379,249.1563,383,259.1563,387,249.1563,383,253.1563" style="stroke:#A80036;stroke-width:1.0;"/><line style="stroke:#A80036;stroke-width:1.5;" x1="383" x2="383" y1="293.125" y2="313.125"/><polygon fill="#A80036" points="379,303.125,383,313.125,387,303.125,383,307.125" style="stroke:#A80036;stroke-width:1.0;"/><line style="stroke:#A80036;stroke-width:1.5;" x1="383" x2="383" y1="649.8047" y2="669.8047"/><polygon fill="#A80036" points="379,659.8047,383,669.8047,387,659.8047,383,663.8047" style="stroke:#A80036;stroke-width:1.0;"/><line style="stroke:#A80036;stroke-width:1.5;" x1="383" x2="383" y1="751.3555" y2="775.7578"/><polygon fill="#A80036" points="379,765.7578,383,775.7578,387,765.7578,383,769.7578" style="stroke:#A80036;stroke-width:1.0;"/><line style="stroke:#A80036;stroke-width:1.5;" x1="432" x2="735" y1="739.3555" y2="739.3555"/><polygon fill="#A80036" points="731,782.7422,735,792.7422,739,782.7422,735,786.7422" style="stroke:#A80036;stroke-width:1.5;"/><line style="stroke:#A80036;stroke-width:1.5;" x1="735" x2="735" y1="739.3555" y2="841.7266"/><line style="stroke:#A80036;stroke-width:1.5;" x1="735" x2="395" y1="841.7266" y2="841.7266"/><polygon fill="#A80036" points="405,837.7266,395,841.7266,405,845.7266,401,841.7266" style="stroke:#A80036;stroke-width:1.0;"/><line style="stroke:#A80036;stroke-width:1.5;" x1="383" x2="383" y1="809.7266" y2="829.7266"/><polygon fill="#A80036" points="379,819.7266,383,829.7266,387,819.7266,383,823.7266" style="stroke:#A80036;stroke-width:1.0;"/><line style="stroke:#A80036;stroke-width:1.5;" x1="383" x2="383" y1="703.7734" y2="727.3555"/><polygon fill="#A80036" points="379,717.3555,383,727.3555,387,717.3555,383,721.3555" style="stroke:#A80036;stroke-width:1.0;"/><line style="stroke:#A80036;stroke-width:1.5;" x1="383" x2="383" y1="591.4336" y2="615.8359"/><polygon fill="#A80036" points="379,605.8359,383,615.8359,387,605.8359,383,609.8359" style="stroke:#A80036;stroke-width:1.0;"/><line style="stroke:#A80036;stroke-width:1.5;" x1="538.5" x2="753" y1="579.4336" y2="579.4336"/><polygon fill="#A80036" points="749,713.7734,753,723.7734,757,713.7734,753,717.7734" style="stroke:#A80036;stroke-width:1.5;"/><line style="stroke:#A80036;stroke-width:1.5;" x1="753" x2="753" y1="579.4336" y2="885.7266"/><line style="stroke:#A80036;stroke-width:1.5;" x1="753" x2="395" y1="885.7266" y2="885.7266"/><polygon fill="#A80036" points="405,881.7266,395,885.7266,405,889.7266,401,885.7266" style="stroke:#A80036;stroke-width:1.0;"/><line style="stroke:#A80036;stroke-width:1.5;" x1="383" x2="383" y1="853.7266" y2="873.7266"/><polygon fill="#A80036" points="379,863.7266,383,873.7266,387,863.7266,383,867.7266" style="stroke:#A80036;stroke-width:1.0;"/><line style="stroke:#A80036;stroke-width:1.5;" x1="383" x2="383" y1="547.4336" y2="567.4336"/><polygon fill="#A80036" points="379,557.4336,383,567.4336,387,557.4336,383,561.4336" style="stroke:#A80036;stroke-width:1.0;"/><line style="stroke:#A80036;stroke-width:1.5;" x1="383" x2="383" y1="493.4648" y2="513.4648"/><polygon fill="#A80036" points="379,503.4648,383,513.4648,387,503.4648,383,507.4648" style="stroke:#A80036;stroke-width:1.0;"/><line style="stroke:#A80036;stroke-width:1.5;" x1="383" x2="383" y1="897.7266" y2="907.7266"/><line style="stroke:#A80036;stroke-width:1.5;" x1="383" x2="771" y1="907.7266" y2="907.7266"/><polygon fill="#A80036" points="767,698.707,771,688.707,775,698.707,771,694.707" style="stroke:#A80036;stroke-width:1.5;"/><line style="stroke:#A80036;stroke-width:1.5;" x1="771" x2="771" y1="481.4648" y2="907.7266"/><line style="stroke:#A80036;stroke-width:1.5;" x1="771" x2="490.5" y1="481.4648" y2="481.4648"/><polygon fill="#A80036" points="500.5,477.4648,490.5,481.4648,500.5,485.4648,496.5,481.4648" style="stroke:#A80036;stroke-width:1.0;"/><line style="stroke:#A80036;stroke-width:1.5;" x1="275.5" x2="27" y1="481.4648" y2="481.4648"/><polygon fill="#A80036" points="23,684.707,27,694.707,31,684.707,27,688.707" style="stroke:#A80036;stroke-width:1.5;"/><line style="stroke:#A80036;stroke-width:1.5;" x1="27" x2="27" y1="481.4648" y2="919.7266"/><line style="stroke:#A80036;stroke-width:1.5;" x1="27" x2="383" y1="919.7266" y2="919.7266"/><line style="stroke:#A80036;stroke-width:1.5;" x1="383" x2="383" y1="919.7266" y2="939.7266"/><polygon fill="#A80036" points="379,929.7266,383,939.7266,387,929.7266,383,933.7266" style="stroke:#A80036;stroke-width:1.0;"/><line style="stroke:#A80036;stroke-width:1.5;" x1="383" x2="383" y1="449.4648" y2="469.4648"/><polygon fill="#A80036" points="379,459.4648,383,469.4648,387,459.4648,383,463.4648" style="stroke:#A80036;stroke-width:1.0;"/><line style="stroke:#A80036;stroke-width:1.5;" x1="383" x2="383" y1="391.0938" y2="415.4961"/><polygon fill="#A80036" points="379,405.4961,383,415.4961,387,405.4961,383,409.4961" style="stroke:#A80036;stroke-width:1.0;"/><line style="stroke:#A80036;stroke-width:1.5;" x1="468.5" x2="781" y1="379.0938" y2="379.0938"/><polygon fill="#A80036" points="777,678.707,781,688.707,785,678.707,781,682.707" style="stroke:#A80036;stroke-width:1.5;"/><line style="stroke:#A80036;stroke-width:1.5;" x1="781" x2="781" y1="379.0938" y2="1005.6953"/><line style="stroke:#A80036;stroke-width:1.5;" x1="781" x2="395" y1="1005.6953" y2="1005.6953"/><polygon fill="#A80036" points="405,1001.6953,395,1005.6953,405,1009.6953,401,1005.6953" style="stroke:#A80036;stroke-width:1.0;"/><line style="stroke:#A80036;stroke-width:1.5;" x1="383" x2="383" y1="973.6953" y2="993.6953"/><polygon fill="#A80036" points="379,983.6953,383,993.6953,387,983.6953,383,987.6953" style="stroke:#A80036;stroke-width:1.0;"/><line style="stroke:#A80036;stroke-width:1.5;" x1="383" x2="383" y1="347.0938" y2="367.0938"/><polygon fill="#A80036" points="379,357.0938,383,367.0938,387,357.0938,383,361.0938" style="stroke:#A80036;stroke-width:1.0;"/><line style="stroke:#A80036;stroke-width:1.5;" x1="383" x2="383" y1="1017.6953" y2="1037.6953"/><polygon fill="#A80036" points="379,1027.6953,383,1037.6953,387,1027.6953,383,1031.6953" style="stroke:#A80036;stroke-width:1.0;"/><line style="stroke:#A80036;stroke-width:1.5;" x1="383" x2="383" y1="50.9531" y2="97.25"/><polygon fill="#A80036" points="379,87.25,383,97.25,387,87.25,383,91.25" style="stroke:#A80036;stroke-width:1.0;"/><line style="stroke:#A80036;stroke-width:1.5;" x1="383" x2="383" y1="1071.6641" y2="1103.6641"/><polygon fill="#A80036" points="379,1093.6641,383,1103.6641,387,1093.6641,383,1097.6641" style="stroke:#A80036;stroke-width:1.0;"/><!--MD5=[2103add63676fb70499b9424420777a8]
@startuml Definition_internal.fireListeners
    title Definition: internal.fireListeners()

    start
        partition SyncTask {
            :binder, event, capture/
            :const target = event.[[./Definition_Event.currentTarget.svg currentTarget]])]
            :const map = internal.listenersMaps.get(target)]
            :const listeners = map.get(event.[[./Definition_Event.type.svg type]])]
            :let result = true]
            if (listeners instanceof Array) then (yes)
                :let listener]
                while(let i = 0; i < listeners.length; i++)
                    :listener = listeners[i] ]
                    if (listener.capture == capture && !listener.removed) then (yes)
                        :binder.passive = listener.passive]
                        :result = listener.callback.call(undefined, event) && result]
                        if (listener.once) then (yes)
                            :target.[[./Definition_EventTarget.removeEventListener.svg removeEventListener]](event.[[./Definition_Event.type.svg type]], listener.callback, listener.capture, listener.passive, listener.once)|
                        endif
                    endif
                endwhile
                :binder.passive = false]
            endif
            :return result/
        }
    end
@enduml

PlantUML version 1.2021.00(Sun Jan 10 12:25:05 EET 2021)
(GPL source distribution)
Java Runtime: OpenJDK Runtime Environment
JVM: OpenJDK 64-Bit Server VM
Default Encoding: UTF-8
Language: en
Country: US
--></g></svg>