<?xml version="1.0" encoding="UTF-8" standalone="no"?><svg xmlns="http://www.w3.org/2000/svg" xmlns:xlink="http://www.w3.org/1999/xlink" contentScriptType="application/ecmascript" contentStyleType="text/css" height="524px" preserveAspectRatio="none" style="width:373px;height:524px;" version="1.1" viewBox="0 0 373 524" width="373px" zoomAndPan="magnify"><defs><filter height="300%" id="ful76njcdjl1n" width="300%" x="-1" y="-1"><feGaussianBlur result="blurOut" stdDeviation="2.0"/><feColorMatrix in="blurOut" result="blurOut2" type="matrix" values="0 0 0 0 0 0 0 0 0 0 0 0 0 0 0 0 0 0 .4 0"/><feOffset dx="4.0" dy="4.0" in="blurOut2" result="blurOut3"/><feBlend in="SourceGraphic" in2="blurOut3" mode="normal"/></filter></defs><g><text fill="#000000" font-family="sans-serif" font-size="18" lengthAdjust="spacing" textLength="349" x="12" y="26.708">Definition: EventListener#constructor()</text><ellipse cx="184.5" cy="40.9531" fill="#000000" filter="url(#ful76njcdjl1n)" rx="10" ry="10" style="stroke:none;stroke-width:1.0;"/><rect fill="#FFFFFF" filter="url(#ful76njcdjl1n)" height="406.0781" style="stroke:#000000;stroke-width:2.0;" width="242" x="63.5" y="60.9531"/><path d="M139.5,60.9531 L139.5,70.25 L129.5,80.25 L63.5,80.25 " fill="none" style="stroke:#000000;stroke-width:2.0;"/><text fill="#000000" font-family="sans-serif" font-size="14" lengthAdjust="spacing" textLength="66" x="66.5" y="74.9482">SyncTask</text><polygon fill="#FEFECE" filter="url(#ful76njcdjl1n)" points="83.5,97.25,295.5,97.25,285.5,131.2188,73.5,131.2188" style="stroke:#A80036;stroke-width:1.5;"/><text fill="#000000" font-family="sans-serif" font-size="12" lengthAdjust="spacing" textLength="202" x="83.5" y="118.3887">callback, capture, passive, once</text><rect fill="#FEFECE" filter="url(#ful76njcdjl1n)" height="33.9688" style="stroke:#A80036;stroke-width:1.5;" width="70" x="149.5" y="151.2188"/><line style="stroke:#A80036;stroke-width:1.5;" x1="154.5" x2="154.5" y1="151.2188" y2="185.1875"/><line style="stroke:#A80036;stroke-width:1.5;" x1="214.5" x2="214.5" y1="151.2188" y2="185.1875"/><a href="./Definition_Monitorable.constructor.svg" target="_top" title="./Definition_Monitorable.constructor.svg" xlink:actuate="onRequest" xlink:href="./Definition_Monitorable.constructor.svg" xlink:show="new" xlink:title="./Definition_Monitorable.constructor.svg" xlink:type="simple"><text fill="#0000FF" font-family="sans-serif" font-size="12" lengthAdjust="spacing" text-decoration="underline" textLength="46" x="159.5" y="172.3574">super()</text></a><text fill="#000000" font-family="sans-serif" font-size="12" lengthAdjust="spacing" textLength="0" x="209.5" y="172.3574"/><rect fill="#FEFECE" filter="url(#ful76njcdjl1n)" height="33.9688" style="stroke:#A80036;stroke-width:1.5;" width="167" x="101" y="205.1875"/><text fill="#000000" font-family="sans-serif" font-size="12" lengthAdjust="spacing" textLength="147" x="111" y="226.3262">this.callback = callback</text><rect fill="#FEFECE" filter="url(#ful76njcdjl1n)" height="33.9688" style="stroke:#A80036;stroke-width:1.5;" width="163" x="103" y="259.1563"/><text fill="#000000" font-family="sans-serif" font-size="12" lengthAdjust="spacing" textLength="143" x="113" y="280.2949">this.capture = capture</text><rect fill="#FEFECE" filter="url(#ful76njcdjl1n)" height="33.9688" style="stroke:#A80036;stroke-width:1.5;" width="159" x="105" y="313.125"/><text fill="#000000" font-family="sans-serif" font-size="12" lengthAdjust="spacing" textLength="139" x="115" y="334.2637">this.passive = passive</text><rect fill="#FEFECE" filter="url(#ful76njcdjl1n)" height="33.9688" style="stroke:#A80036;stroke-width:1.5;" width="149" x="110" y="367.0938"/><text fill="#000000" font-family="sans-serif" font-size="12" lengthAdjust="spacing" textLength="129" x="120" y="388.2324">this.removed = false</text><rect fill="#FEFECE" filter="url(#ful76njcdjl1n)" height="33.9688" style="stroke:#A80036;stroke-width:1.5;" width="127" x="121" y="421.0625"/><text fill="#000000" font-family="sans-serif" font-size="12" lengthAdjust="spacing" textLength="107" x="131" y="442.2012">this.once = once</text><ellipse cx="184.5" cy="497.0313" fill="#FFFFFF" filter="url(#ful76njcdjl1n)" rx="10" ry="10" style="stroke:#000000;stroke-width:1.5;"/><line style="stroke:#000000;stroke-width:2.5;" x1="178.3128" x2="190.6872" y1="490.8441" y2="503.2184"/><line style="stroke:#000000;stroke-width:2.5;" x1="190.6872" x2="178.3128" y1="490.8441" y2="503.2184"/><line style="stroke:#A80036;stroke-width:1.5;" x1="184.5" x2="184.5" y1="131.2188" y2="151.2188"/><polygon fill="#A80036" points="180.5,141.2188,184.5,151.2188,188.5,141.2188,184.5,145.2188" style="stroke:#A80036;stroke-width:1.0;"/><line style="stroke:#A80036;stroke-width:1.5;" x1="184.5" x2="184.5" y1="185.1875" y2="205.1875"/><polygon fill="#A80036" points="180.5,195.1875,184.5,205.1875,188.5,195.1875,184.5,199.1875" style="stroke:#A80036;stroke-width:1.0;"/><line style="stroke:#A80036;stroke-width:1.5;" x1="184.5" x2="184.5" y1="239.1563" y2="259.1563"/><polygon fill="#A80036" points="180.5,249.1563,184.5,259.1563,188.5,249.1563,184.5,253.1563" style="stroke:#A80036;stroke-width:1.0;"/><line style="stroke:#A80036;stroke-width:1.5;" x1="184.5" x2="184.5" y1="293.125" y2="313.125"/><polygon fill="#A80036" points="180.5,303.125,184.5,313.125,188.5,303.125,184.5,307.125" style="stroke:#A80036;stroke-width:1.0;"/><line style="stroke:#A80036;stroke-width:1.5;" x1="184.5" x2="184.5" y1="347.0938" y2="367.0938"/><polygon fill="#A80036" points="180.5,357.0938,184.5,367.0938,188.5,357.0938,184.5,361.0938" style="stroke:#A80036;stroke-width:1.0;"/><line style="stroke:#A80036;stroke-width:1.5;" x1="184.5" x2="184.5" y1="401.0625" y2="421.0625"/><polygon fill="#A80036" points="180.5,411.0625,184.5,421.0625,188.5,411.0625,184.5,415.0625" style="stroke:#A80036;stroke-width:1.0;"/><line style="stroke:#A80036;stroke-width:1.5;" x1="184.5" x2="184.5" y1="50.9531" y2="97.25"/><polygon fill="#A80036" points="180.5,87.25,184.5,97.25,188.5,87.25,184.5,91.25" style="stroke:#A80036;stroke-width:1.0;"/><line style="stroke:#A80036;stroke-width:1.5;" x1="184.5" x2="184.5" y1="455.0313" y2="487.0313"/><polygon fill="#A80036" points="180.5,477.0313,184.5,487.0313,188.5,477.0313,184.5,481.0313" style="stroke:#A80036;stroke-width:1.0;"/><!--MD5=[0baddbfbb92dbc71a61db36b2be7f826]
@startuml Definition_EventListener.constructor
    title Definition: EventListener#constructor()

    start
        partition SyncTask {
            :callback, capture, passive, once/
            :[[./Definition_Monitorable.constructor.svg super()]] |
            :this.callback = callback]
            :this.capture = capture]
            :this.passive = passive]
            :this.removed = false]
            :this.once = once]
        }
    end
@enduml

PlantUML version 1.2021.00(Sun Jan 10 12:25:05 EET 2021)
(GPL source distribution)
Java Runtime: OpenJDK Runtime Environment
JVM: OpenJDK 64-Bit Server VM
Default Encoding: UTF-8
Language: en
Country: US
--></g></svg>