<?xml version="1.0" encoding="UTF-8" standalone="no"?><svg xmlns="http://www.w3.org/2000/svg" xmlns:xlink="http://www.w3.org/1999/xlink" contentScriptType="application/ecmascript" contentStyleType="text/css" height="254px" preserveAspectRatio="none" style="width:383px;height:254px;" version="1.1" viewBox="0 0 383 254" width="383px" zoomAndPan="magnify"><defs><filter height="300%" id="fg6wxki4qgt2d" width="300%" x="-1" y="-1"><feGaussianBlur result="blurOut" stdDeviation="2.0"/><feColorMatrix in="blurOut" result="blurOut2" type="matrix" values="0 0 0 0 0 0 0 0 0 0 0 0 0 0 0 0 0 0 .4 0"/><feOffset dx="4.0" dy="4.0" in="blurOut2" result="blurOut3"/><feBlend in="SourceGraphic" in2="blurOut3" mode="normal"/></filter></defs><g><text fill="#000000" font-family="sans-serif" font-size="18" lengthAdjust="spacing" textLength="359" x="12" y="26.708">Definition: EventListener#handleEvent()</text><ellipse cx="189.5" cy="40.9531" fill="#000000" filter="url(#fg6wxki4qgt2d)" rx="10" ry="10" style="stroke:none;stroke-width:1.0;"/><rect fill="#FFFFFF" filter="url(#fg6wxki4qgt2d)" height="136.2344" style="stroke:#000000;stroke-width:2.0;" width="163" x="108" y="60.9531"/><path d="M184,60.9531 L184,70.25 L174,80.25 L108,80.25 " fill="none" style="stroke:#000000;stroke-width:2.0;"/><text fill="#000000" font-family="sans-serif" font-size="14" lengthAdjust="spacing" textLength="66" x="111" y="74.9482">SyncTask</text><polygon fill="#FEFECE" filter="url(#fg6wxki4qgt2d)" points="172,97.25,217,97.25,207,131.2188,162,131.2188" style="stroke:#A80036;stroke-width:1.5;"/><text fill="#000000" font-family="sans-serif" font-size="12" lengthAdjust="spacing" textLength="35" x="172" y="118.3887">event</text><rect fill="#FEFECE" filter="url(#fg6wxki4qgt2d)" height="33.9688" style="stroke:#A80036;stroke-width:1.5;" width="143" x="118" y="151.2188"/><line style="stroke:#A80036;stroke-width:1.5;" x1="123" x2="123" y1="151.2188" y2="185.1875"/><line style="stroke:#A80036;stroke-width:1.5;" x1="256" x2="256" y1="151.2188" y2="185.1875"/><text fill="#000000" font-family="sans-serif" font-size="12" lengthAdjust="spacing" textLength="123" x="128" y="172.3574">this.callback(event)</text><ellipse cx="189.5" cy="227.1875" fill="#FFFFFF" filter="url(#fg6wxki4qgt2d)" rx="10" ry="10" style="stroke:#000000;stroke-width:1.5;"/><line style="stroke:#000000;stroke-width:2.5;" x1="183.3128" x2="195.6872" y1="221.0003" y2="233.3747"/><line style="stroke:#000000;stroke-width:2.5;" x1="195.6872" x2="183.3128" y1="221.0003" y2="233.3747"/><line style="stroke:#A80036;stroke-width:1.5;" x1="189.5" x2="189.5" y1="131.2188" y2="151.2188"/><polygon fill="#A80036" points="185.5,141.2188,189.5,151.2188,193.5,141.2188,189.5,145.2188" style="stroke:#A80036;stroke-width:1.0;"/><line style="stroke:#A80036;stroke-width:1.5;" x1="189.5" x2="189.5" y1="50.9531" y2="97.25"/><polygon fill="#A80036" points="185.5,87.25,189.5,97.25,193.5,87.25,189.5,91.25" style="stroke:#A80036;stroke-width:1.0;"/><line style="stroke:#A80036;stroke-width:1.5;" x1="189.5" x2="189.5" y1="185.1875" y2="217.1875"/><polygon fill="#A80036" points="185.5,207.1875,189.5,217.1875,193.5,207.1875,189.5,211.1875" style="stroke:#A80036;stroke-width:1.0;"/><!--MD5=[29f6ace1b569baede23cbb74ee969837]
@startuml Definition_EventListener.handleEvent
    title Definition: EventListener#handleEvent()

    start
        partition SyncTask {
            :event/
            :this.callback(event)|
        }
    end
@enduml

PlantUML version 1.2021.00(Sun Jan 10 12:25:05 EET 2021)
(GPL source distribution)
Java Runtime: OpenJDK Runtime Environment
JVM: OpenJDK 64-Bit Server VM
Default Encoding: UTF-8
Language: en
Country: US
--></g></svg>