<?xml version="1.0" encoding="UTF-8" standalone="no"?><svg xmlns="http://www.w3.org/2000/svg" xmlns:xlink="http://www.w3.org/1999/xlink" contentScriptType="application/ecmascript" contentStyleType="text/css" height="346px" preserveAspectRatio="none" style="width:355px;height:346px;" version="1.1" viewBox="0 0 355 346" width="355px" zoomAndPan="magnify"><defs><filter height="300%" id="f932dbsp1jr6t" width="300%" x="-1" y="-1"><feGaussianBlur result="blurOut" stdDeviation="2.0"/><feColorMatrix in="blurOut" result="blurOut2" type="matrix" values="0 0 0 0 0 0 0 0 0 0 0 0 0 0 0 0 0 0 .4 0"/><feOffset dx="4.0" dy="4.0" in="blurOut2" result="blurOut3"/><feBlend in="SourceGraphic" in2="blurOut3" mode="normal"/></filter></defs><g><text fill="#000000" font-family="sans-serif" font-size="18" lengthAdjust="spacing" textLength="331" x="12" y="26.708">Definition: Event#setBinderInternal()</text><ellipse cx="166.5" cy="40.9531" fill="#000000" filter="url(#f932dbsp1jr6t)" rx="10" ry="10" style="stroke:none;stroke-width:1.0;"/><rect fill="#FFFFFF" filter="url(#f932dbsp1jr6t)" height="228.6367" style="stroke:#000000;stroke-width:2.0;" width="233" x="59" y="60.9531"/><path d="M135,60.9531 L135,70.25 L125,80.25 L59,80.25 " fill="none" style="stroke:#000000;stroke-width:2.0;"/><text fill="#000000" font-family="sans-serif" font-size="14" lengthAdjust="spacing" textLength="66" x="62" y="74.9482">SyncTask</text><polygon fill="#FEFECE" filter="url(#f932dbsp1jr6t)" points="146.5,97.25,196.5,97.25,186.5,131.2188,136.5,131.2188" style="stroke:#A80036;stroke-width:1.5;"/><text fill="#000000" font-family="sans-serif" font-size="12" lengthAdjust="spacing" textLength="40" x="146.5" y="118.3887">binder</text><rect fill="#FEFECE" filter="url(#f932dbsp1jr6t)" height="33.9688" style="stroke:#A80036;stroke-width:1.5;" width="151" x="91" y="199.6211"/><text fill="#000000" font-family="sans-serif" font-size="12" lengthAdjust="spacing" textLength="131" x="101" y="220.7598">this._binder = binder</text><polygon fill="#FEFECE" filter="url(#f932dbsp1jr6t)" points="81,151.2188,252,151.2188,264,163.2188,252,175.2188,81,175.2188,69,163.2188,81,151.2188" style="stroke:#A80036;stroke-width:1.5;"/><text fill="#000000" font-family="sans-serif" font-size="11" lengthAdjust="spacing" textLength="20" x="170.5" y="185.4292">yes</text><text fill="#000000" font-family="sans-serif" font-size="11" lengthAdjust="spacing" textLength="171" x="81" y="167.0269">binder instanceof EventBinder</text><polygon fill="#FEFECE" filter="url(#f932dbsp1jr6t)" points="166.5,253.5898,178.5,265.5898,166.5,277.5898,154.5,265.5898,166.5,253.5898" style="stroke:#A80036;stroke-width:1.5;"/><ellipse cx="166.5" cy="319.5898" fill="#FFFFFF" filter="url(#f932dbsp1jr6t)" rx="10" ry="10" style="stroke:#000000;stroke-width:1.5;"/><line style="stroke:#000000;stroke-width:2.5;" x1="160.3128" x2="172.6872" y1="313.4027" y2="325.777"/><line style="stroke:#000000;stroke-width:2.5;" x1="172.6872" x2="160.3128" y1="313.4027" y2="325.777"/><line style="stroke:#A80036;stroke-width:1.5;" x1="166.5" x2="166.5" y1="175.2188" y2="199.6211"/><polygon fill="#A80036" points="162.5,189.6211,166.5,199.6211,170.5,189.6211,166.5,193.6211" style="stroke:#A80036;stroke-width:1.0;"/><line style="stroke:#A80036;stroke-width:1.5;" x1="264" x2="276" y1="163.2188" y2="163.2188"/><polygon fill="#A80036" points="272,206.6055,276,216.6055,280,206.6055,276,210.6055" style="stroke:#A80036;stroke-width:1.5;"/><line style="stroke:#A80036;stroke-width:1.5;" x1="276" x2="276" y1="163.2188" y2="265.5898"/><line style="stroke:#A80036;stroke-width:1.5;" x1="276" x2="178.5" y1="265.5898" y2="265.5898"/><polygon fill="#A80036" points="188.5,261.5898,178.5,265.5898,188.5,269.5898,184.5,265.5898" style="stroke:#A80036;stroke-width:1.0;"/><line style="stroke:#A80036;stroke-width:1.5;" x1="166.5" x2="166.5" y1="233.5898" y2="253.5898"/><polygon fill="#A80036" points="162.5,243.5898,166.5,253.5898,170.5,243.5898,166.5,247.5898" style="stroke:#A80036;stroke-width:1.0;"/><line style="stroke:#A80036;stroke-width:1.5;" x1="166.5" x2="166.5" y1="131.2188" y2="151.2188"/><polygon fill="#A80036" points="162.5,141.2188,166.5,151.2188,170.5,141.2188,166.5,145.2188" style="stroke:#A80036;stroke-width:1.0;"/><line style="stroke:#A80036;stroke-width:1.5;" x1="166.5" x2="166.5" y1="50.9531" y2="97.25"/><polygon fill="#A80036" points="162.5,87.25,166.5,97.25,170.5,87.25,166.5,91.25" style="stroke:#A80036;stroke-width:1.0;"/><line style="stroke:#A80036;stroke-width:1.5;" x1="166.5" x2="166.5" y1="277.5898" y2="309.5898"/><polygon fill="#A80036" points="162.5,299.5898,166.5,309.5898,170.5,299.5898,166.5,303.5898" style="stroke:#A80036;stroke-width:1.0;"/><!--MD5=[c00d3546d33c41e46a775c035549d295]
@startuml Definition_Event.setBinderInternal
    title Definition: Event#setBinderInternal()

    start
        partition SyncTask {
            :binder/
            if (binder instanceof EventBinder) then (yes)
                :this._binder = binder]
            endif
        }
    end
@enduml

PlantUML version 1.2021.00(Sun Jan 10 12:25:05 EET 2021)
(GPL source distribution)
Java Runtime: OpenJDK Runtime Environment
JVM: OpenJDK 64-Bit Server VM
Default Encoding: UTF-8
Language: en
Country: US
--></g></svg>