<?xml version="1.0" encoding="UTF-8" standalone="no"?><svg xmlns="http://www.w3.org/2000/svg" xmlns:xlink="http://www.w3.org/1999/xlink" contentScriptType="application/ecmascript" contentStyleType="text/css" height="650px" preserveAspectRatio="none" style="width:336px;height:650px;" version="1.1" viewBox="0 0 336 650" width="336px" zoomAndPan="magnify"><defs><filter height="300%" id="f18xmq1czutikg" width="300%" x="-1" y="-1"><feGaussianBlur result="blurOut" stdDeviation="2.0"/><feColorMatrix in="blurOut" result="blurOut2" type="matrix" values="0 0 0 0 0 0 0 0 0 0 0 0 0 0 0 0 0 0 .4 0"/><feOffset dx="4.0" dy="4.0" in="blurOut2" result="blurOut3"/><feBlend in="SourceGraphic" in2="blurOut3" mode="normal"/></filter></defs><g><text fill="#000000" font-family="sans-serif" font-size="18" lengthAdjust="spacingAndGlyphs" textLength="312" x="12" y="27.4023">Definition: NodeIndex#constructor()</text><ellipse cx="165.5" cy="41.1992" fill="#000000" filter="url(#f18xmq1czutikg)" rx="10" ry="10" style="stroke: none; stroke-width: 1.0;"/><rect fill="#FFFFFF" filter="url(#f18xmq1czutikg)" height="538.2402" style="stroke: #000000; stroke-width: 2.0;" width="200" x="68.5" y="61.6523"/><path d="M141.5,62.6523 L141.5,71.1406 L131.5,81.1406 L68.5,81.1406 " fill="none" style="stroke: #000000; stroke-width: 2.0;"/><text fill="#000000" font-family="sans-serif" font-size="14" lengthAdjust="spacingAndGlyphs" textLength="63" x="71.5" y="76.1875">SyncTask</text><polygon fill="#FEFECE" filter="url(#f18xmq1czutikg)" points="119.5,98.1406,221.5,98.1406,211.5,132.2734,109.5,132.2734" style="stroke: #A80036; stroke-width: 1.5;"/><text fill="#000000" font-family="sans-serif" font-size="12" lengthAdjust="spacingAndGlyphs" textLength="92" x="119.5" y="119.7422">parent, children</text><rect fill="#FEFECE" filter="url(#f18xmq1czutikg)" height="34.1328" style="stroke: #A80036; stroke-width: 1.5;" width="120" x="105.5" y="152.2734"/><text fill="#000000" font-family="sans-serif" font-size="12" lengthAdjust="spacingAndGlyphs" textLength="100" x="115.5" y="173.875">this.parent = null</text><rect fill="#FEFECE" filter="url(#f18xmq1czutikg)" height="34.1328" style="stroke: #A80036; stroke-width: 1.5;" width="120" x="105.5" y="206.4063"/><text fill="#000000" font-family="sans-serif" font-size="12" lengthAdjust="spacingAndGlyphs" textLength="96" x="115.5" y="228.0078">this.children = []</text><rect fill="#FEFECE" filter="url(#f18xmq1czutikg)" height="34.1328" style="stroke: #A80036; stroke-width: 1.5;" width="138" x="96.5" y="309.0166"/><text fill="#000000" font-family="sans-serif" font-size="12" lengthAdjust="spacingAndGlyphs" textLength="118" x="106.5" y="330.6182">this.parent = parent</text><polygon fill="#FEFECE" filter="url(#f18xmq1czutikg)" points="148,260.5391,183,260.5391,195,272.5391,183,284.5391,148,284.5391,136,272.5391,148,260.5391" style="stroke: #A80036; stroke-width: 1.5;"/><text fill="#000000" font-family="sans-serif" font-size="11" lengthAdjust="spacingAndGlyphs" textLength="18" x="169.5" y="295.1738">yes</text><text fill="#000000" font-family="sans-serif" font-size="11" lengthAdjust="spacingAndGlyphs" textLength="35" x="148" y="276.6963">parent</text><polygon fill="#FEFECE" filter="url(#f18xmq1czutikg)" points="165.5,363.1494,177.5,375.1494,165.5,387.1494,153.5,375.1494,165.5,363.1494" style="stroke: #A80036; stroke-width: 1.5;"/><rect fill="#FEFECE" filter="url(#f18xmq1czutikg)" height="34.1328" style="stroke: #A80036; stroke-width: 1.5;" width="154" x="88.5" y="455.627"/><text fill="#000000" font-family="sans-serif" font-size="12" lengthAdjust="spacingAndGlyphs" textLength="134" x="98.5" y="477.2285">this.children = children</text><polygon fill="#FEFECE" filter="url(#f18xmq1czutikg)" points="143.5,407.1494,187.5,407.1494,199.5,419.1494,187.5,431.1494,143.5,431.1494,131.5,419.1494,143.5,407.1494" style="stroke: #A80036; stroke-width: 1.5;"/><text fill="#000000" font-family="sans-serif" font-size="11" lengthAdjust="spacingAndGlyphs" textLength="18" x="169.5" y="441.7842">yes</text><text fill="#000000" font-family="sans-serif" font-size="11" lengthAdjust="spacingAndGlyphs" textLength="44" x="143.5" y="423.3066">children</text><polygon fill="#FEFECE" filter="url(#f18xmq1czutikg)" points="165.5,509.7598,177.5,521.7598,165.5,533.7598,153.5,521.7598,165.5,509.7598" style="stroke: #A80036; stroke-width: 1.5;"/><polygon fill="#FEFECE" filter="url(#f18xmq1czutikg)" points="155.5,553.7598,185.5,553.7598,175.5,587.8926,145.5,587.8926" style="stroke: #A80036; stroke-width: 1.5;"/><text fill="#000000" font-family="sans-serif" font-size="12" lengthAdjust="spacingAndGlyphs" textLength="20" x="155.5" y="575.3613">this</text><ellipse cx="165.5" cy="629.8926" fill="#FFFFFF" filter="url(#f18xmq1czutikg)" rx="10" ry="10" style="stroke: #000000; stroke-width: 1.5;"/><line style="stroke: #000000; stroke-width: 2.5;" x1="159.3128" x2="171.6872" y1="623.7054" y2="636.0798"/><line style="stroke: #000000; stroke-width: 2.5;" x1="171.6872" x2="159.3128" y1="623.7054" y2="636.0798"/><line style="stroke: #A80036; stroke-width: 1.5;" x1="165.5" x2="165.5" y1="132.2734" y2="152.2734"/><polygon fill="#A80036" points="161.5,142.2734,165.5,152.2734,169.5,142.2734,165.5,146.2734" style="stroke: #A80036; stroke-width: 1.0;"/><line style="stroke: #A80036; stroke-width: 1.5;" x1="165.5" x2="165.5" y1="186.4063" y2="206.4063"/><polygon fill="#A80036" points="161.5,196.4063,165.5,206.4063,169.5,196.4063,165.5,200.4063" style="stroke: #A80036; stroke-width: 1.0;"/><line style="stroke: #A80036; stroke-width: 1.5;" x1="165.5" x2="165.5" y1="284.5391" y2="309.0166"/><polygon fill="#A80036" points="161.5,299.0166,165.5,309.0166,169.5,299.0166,165.5,303.0166" style="stroke: #A80036; stroke-width: 1.0;"/><line style="stroke: #A80036; stroke-width: 1.5;" x1="195" x2="244.5" y1="272.5391" y2="272.5391"/><polygon fill="#A80036" points="240.5,316.083,244.5,326.083,248.5,316.083,244.5,320.083" style="stroke: #A80036; stroke-width: 1.5;"/><line style="stroke: #A80036; stroke-width: 1.5;" x1="244.5" x2="244.5" y1="272.5391" y2="375.1494"/><line style="stroke: #A80036; stroke-width: 1.5;" x1="244.5" x2="177.5" y1="375.1494" y2="375.1494"/><polygon fill="#A80036" points="187.5,371.1494,177.5,375.1494,187.5,379.1494,183.5,375.1494" style="stroke: #A80036; stroke-width: 1.0;"/><line style="stroke: #A80036; stroke-width: 1.5;" x1="165.5" x2="165.5" y1="343.1494" y2="363.1494"/><polygon fill="#A80036" points="161.5,353.1494,165.5,363.1494,169.5,353.1494,165.5,357.1494" style="stroke: #A80036; stroke-width: 1.0;"/><line style="stroke: #A80036; stroke-width: 1.5;" x1="165.5" x2="165.5" y1="240.5391" y2="260.5391"/><polygon fill="#A80036" points="161.5,250.5391,165.5,260.5391,169.5,250.5391,165.5,254.5391" style="stroke: #A80036; stroke-width: 1.0;"/><line style="stroke: #A80036; stroke-width: 1.5;" x1="165.5" x2="165.5" y1="431.1494" y2="455.627"/><polygon fill="#A80036" points="161.5,445.627,165.5,455.627,169.5,445.627,165.5,449.627" style="stroke: #A80036; stroke-width: 1.0;"/><line style="stroke: #A80036; stroke-width: 1.5;" x1="199.5" x2="252.5" y1="419.1494" y2="419.1494"/><polygon fill="#A80036" points="248.5,462.6934,252.5,472.6934,256.5,462.6934,252.5,466.6934" style="stroke: #A80036; stroke-width: 1.5;"/><line style="stroke: #A80036; stroke-width: 1.5;" x1="252.5" x2="252.5" y1="419.1494" y2="521.7598"/><line style="stroke: #A80036; stroke-width: 1.5;" x1="252.5" x2="177.5" y1="521.7598" y2="521.7598"/><polygon fill="#A80036" points="187.5,517.7598,177.5,521.7598,187.5,525.7598,183.5,521.7598" style="stroke: #A80036; stroke-width: 1.0;"/><line style="stroke: #A80036; stroke-width: 1.5;" x1="165.5" x2="165.5" y1="489.7598" y2="509.7598"/><polygon fill="#A80036" points="161.5,499.7598,165.5,509.7598,169.5,499.7598,165.5,503.7598" style="stroke: #A80036; stroke-width: 1.0;"/><line style="stroke: #A80036; stroke-width: 1.5;" x1="165.5" x2="165.5" y1="387.1494" y2="407.1494"/><polygon fill="#A80036" points="161.5,397.1494,165.5,407.1494,169.5,397.1494,165.5,401.1494" style="stroke: #A80036; stroke-width: 1.0;"/><line style="stroke: #A80036; stroke-width: 1.5;" x1="165.5" x2="165.5" y1="533.7598" y2="553.7598"/><polygon fill="#A80036" points="161.5,543.7598,165.5,553.7598,169.5,543.7598,165.5,547.7598" style="stroke: #A80036; stroke-width: 1.0;"/><line style="stroke: #A80036; stroke-width: 1.5;" x1="165.5" x2="165.5" y1="51.1992" y2="98.1406"/><polygon fill="#A80036" points="161.5,88.1406,165.5,98.1406,169.5,88.1406,165.5,92.1406" style="stroke: #A80036; stroke-width: 1.0;"/><line style="stroke: #A80036; stroke-width: 1.5;" x1="165.5" x2="165.5" y1="587.8926" y2="619.8926"/><polygon fill="#A80036" points="161.5,609.8926,165.5,619.8926,169.5,609.8926,165.5,613.8926" style="stroke: #A80036; stroke-width: 1.0;"/><!--
@startuml Definition_NodeIndex.constructor
    title Definition: NodeIndex#constructor()

    start
        partition SyncTask {
            :parent, children/
            :this.parent = null]
            :this.children = [] ]
            if (parent) then (yes)
                :this.parent = parent]
            endif
            if (children) then (yes)
                :this.children = children]
            endif
            :this/
        }
    end
@enduml

PlantUML version 1.2019.09(Mon Aug 26 19:19:51 EEST 2019)
(GPL source distribution)
Java Runtime: OpenJDK Runtime Environment
JVM: OpenJDK 64-Bit Server VM
Java Version: 13.0.1+9
Operating System: Mac OS X
OS Version: 10.15.3
Default Encoding: UTF-8
Language: en
Country: UA
--></g></svg>