<?xml version="1.0" encoding="UTF-8" standalone="no"?><svg xmlns="http://www.w3.org/2000/svg" xmlns:xlink="http://www.w3.org/1999/xlink" contentScriptType="application/ecmascript" contentStyleType="text/css" height="1434px" preserveAspectRatio="none" style="width:508px;height:1434px;" version="1.1" viewBox="0 0 508 1434" width="508px" zoomAndPan="magnify"><defs><filter height="300%" id="fiz4eq2stwmti" width="300%" x="-1" y="-1"><feGaussianBlur result="blurOut" stdDeviation="2.0"/><feColorMatrix in="blurOut" result="blurOut2" type="matrix" values="0 0 0 0 0 0 0 0 0 0 0 0 0 0 0 0 0 0 .4 0"/><feOffset dx="4.0" dy="4.0" in="blurOut2" result="blurOut3"/><feBlend in="SourceGraphic" in2="blurOut3" mode="normal"/></filter></defs><g><text fill="#000000" font-family="sans-serif" font-size="18" lengthAdjust="spacing" textLength="309" x="98.5" y="26.708">Definition: internal.dispatchEvent()</text><ellipse cx="242" cy="40.9531" fill="#000000" filter="url(#fiz4eq2stwmti)" rx="10" ry="10" style="stroke:none;stroke-width:1.0;"/><rect fill="#FFFFFF" filter="url(#fiz4eq2stwmti)" height="1316.5391" style="stroke:#000000;stroke-width:2.0;" width="480" x="11" y="60.9531"/><path d="M87,60.9531 L87,70.25 L77,80.25 L11,80.25 " fill="none" style="stroke:#000000;stroke-width:2.0;"/><text fill="#000000" font-family="sans-serif" font-size="14" lengthAdjust="spacing" textLength="66" x="14" y="74.9482">SyncTask</text><polygon fill="#FEFECE" filter="url(#fiz4eq2stwmti)" points="201,97.25,293,97.25,283,131.2188,191,131.2188" style="stroke:#A80036;stroke-width:1.5;"/><text fill="#000000" font-family="sans-serif" font-size="12" lengthAdjust="spacing" textLength="82" x="201" y="118.3887">target, event</text><rect fill="#FEFECE" filter="url(#fiz4eq2stwmti)" height="33.9688" style="stroke:#A80036;stroke-width:1.5;" width="329" x="77.5" y="151.2188"/><line style="stroke:#A80036;stroke-width:1.5;" x1="82.5" x2="82.5" y1="151.2188" y2="185.1875"/><line style="stroke:#A80036;stroke-width:1.5;" x1="401.5" x2="401.5" y1="151.2188" y2="185.1875"/><text fill="#000000" font-family="sans-serif" font-size="12" lengthAdjust="spacing" textLength="172" x="87.5" y="172.3574">const ancestors = internal.</text><a href="./Definition_internal.getAncestors.svg" target="_top" title="./Definition_internal.getAncestors.svg" xlink:actuate="onRequest" xlink:href="./Definition_internal.getAncestors.svg" xlink:show="new" xlink:title="./Definition_internal.getAncestors.svg" xlink:type="simple"><text fill="#0000FF" font-family="sans-serif" font-size="12" lengthAdjust="spacing" text-decoration="underline" textLength="84" x="259.5" y="172.3574">getAncestors</text></a><text fill="#000000" font-family="sans-serif" font-size="12" lengthAdjust="spacing" textLength="49" x="343.5" y="172.3574">(target)</text><rect fill="#FEFECE" filter="url(#fiz4eq2stwmti)" height="33.9688" style="stroke:#A80036;stroke-width:1.5;" width="391" x="46.5" y="205.1875"/><text fill="#000000" font-family="sans-serif" font-size="12" lengthAdjust="spacing" textLength="93" x="56.5" y="226.3262">const binder =</text><a href="./Definition_EventBinder.constructor.svg" target="_top" title="./Definition_EventBinder.constructor.svg" xlink:actuate="onRequest" xlink:href="./Definition_EventBinder.constructor.svg" xlink:show="new" xlink:title="./Definition_EventBinder.constructor.svg" xlink:type="simple"><text fill="#0000FF" font-family="sans-serif" font-size="12" lengthAdjust="spacing" text-decoration="underline" textLength="104" x="153.5" y="226.3262">new EventBinder</text></a><text fill="#000000" font-family="sans-serif" font-size="12" lengthAdjust="spacing" textLength="170" x="257.5" y="226.3262">(EventPhase.NONE, target)</text><rect fill="#FEFECE" filter="url(#fiz4eq2stwmti)" height="33.9688" style="stroke:#A80036;stroke-width:1.5;" width="217" x="133.5" y="259.1563"/><line style="stroke:#A80036;stroke-width:1.5;" x1="138.5" x2="138.5" y1="259.1563" y2="293.125"/><line style="stroke:#A80036;stroke-width:1.5;" x1="345.5" x2="345.5" y1="259.1563" y2="293.125"/><text fill="#000000" font-family="sans-serif" font-size="12" lengthAdjust="spacing" textLength="39" x="143.5" y="280.2949">event.</text><a href="./Definition_Event.setBinderInternal.svg" target="_top" title="./Definition_Event.setBinderInternal.svg" xlink:actuate="onRequest" xlink:href="./Definition_Event.setBinderInternal.svg" xlink:show="new" xlink:title="./Definition_Event.setBinderInternal.svg" xlink:type="simple"><text fill="#0000FF" font-family="sans-serif" font-size="12" lengthAdjust="spacing" text-decoration="underline" textLength="108" x="182.5" y="280.2949">setBinderInternal</text></a><text fill="#000000" font-family="sans-serif" font-size="12" lengthAdjust="spacing" textLength="50" x="290.5" y="280.2949">(binder)</text><rect fill="#FEFECE" filter="url(#fiz4eq2stwmti)" height="33.9688" style="stroke:#A80036;stroke-width:1.5;" width="120" x="182" y="313.125"/><text fill="#000000" font-family="sans-serif" font-size="12" lengthAdjust="spacing" textLength="100" x="192" y="334.2637">let result = true</text><rect fill="#FEFECE" filter="url(#fiz4eq2stwmti)" height="33.9688" style="stroke:#A80036;stroke-width:1.5;" width="86" x="199" y="367.0938"/><text fill="#000000" font-family="sans-serif" font-size="12" lengthAdjust="spacing" textLength="66" x="209" y="388.2324">let current</text><rect fill="#FEFECE" filter="url(#fiz4eq2stwmti)" height="33.9688" style="stroke:#A80036;stroke-width:1.5;" width="315" x="84.5" y="465.0625"/><text fill="#000000" font-family="sans-serif" font-size="12" lengthAdjust="spacing" textLength="295" x="94.5" y="486.2012">binder.phase = EventPhase.CAPTURING_PHASE</text><rect fill="#FEFECE" filter="url(#fiz4eq2stwmti)" height="33.9688" style="stroke:#A80036;stroke-width:1.5;" width="208" x="138" y="519.0313"/><text fill="#000000" font-family="sans-serif" font-size="12" lengthAdjust="spacing" textLength="184" x="148" y="540.1699">binder.current = ancestors[i]</text><rect fill="#FEFECE" filter="url(#fiz4eq2stwmti)" height="33.9688" style="stroke:#A80036;stroke-width:1.5;" width="398" x="43" y="573"/><line style="stroke:#A80036;stroke-width:1.5;" x1="48" x2="48" y1="573" y2="606.9688"/><line style="stroke:#A80036;stroke-width:1.5;" x1="436" x2="436" y1="573" y2="606.9688"/><text fill="#000000" font-family="sans-serif" font-size="12" lengthAdjust="spacing" textLength="106" x="53" y="594.1387">result = internal.</text><a href="./Definition_internal.fireListeners.svg" target="_top" title="./Definition_internal.fireListeners.svg" xlink:actuate="onRequest" xlink:href="./Definition_internal.fireListeners.svg" xlink:show="new" xlink:title="./Definition_internal.fireListeners.svg" xlink:type="simple"><text fill="#0000FF" font-family="sans-serif" font-size="12" lengthAdjust="spacing" text-decoration="underline" textLength="77" x="159" y="594.1387">fireListeners</text></a><text fill="#000000" font-family="sans-serif" font-size="12" lengthAdjust="spacing" textLength="191" x="236" y="594.1387">(binder, event, true) &amp;&amp; result</text><polygon fill="#FEFECE" filter="url(#fiz4eq2stwmti)" points="75.5,421.0625,408.5,421.0625,420.5,433.0625,408.5,445.0625,75.5,445.0625,63.5,433.0625,75.5,421.0625" style="stroke:#A80036;stroke-width:1.5;"/><text fill="#000000" font-family="sans-serif" font-size="11" lengthAdjust="spacing" textLength="333" x="75.5" y="436.8706">let i = ancestors.length - 1; !binder.stopped &amp;&amp; i &gt;= 0; i--</text><rect fill="#FEFECE" filter="url(#fiz4eq2stwmti)" height="33.9688" style="stroke:#A80036;stroke-width:1.5;" width="267" x="108.5" y="697.3711"/><text fill="#000000" font-family="sans-serif" font-size="12" lengthAdjust="spacing" textLength="247" x="118.5" y="718.5098">binder.phase = EventPhase.AT_TARGET</text><rect fill="#FEFECE" filter="url(#fiz4eq2stwmti)" height="33.9688" style="stroke:#A80036;stroke-width:1.5;" width="171" x="156.5" y="751.3398"/><text fill="#000000" font-family="sans-serif" font-size="12" lengthAdjust="spacing" textLength="147" x="166.5" y="772.4785">binder.current = target</text><rect fill="#FEFECE" filter="url(#fiz4eq2stwmti)" height="33.9688" style="stroke:#A80036;stroke-width:1.5;" width="398" x="43" y="805.3086"/><line style="stroke:#A80036;stroke-width:1.5;" x1="48" x2="48" y1="805.3086" y2="839.2773"/><line style="stroke:#A80036;stroke-width:1.5;" x1="436" x2="436" y1="805.3086" y2="839.2773"/><text fill="#000000" font-family="sans-serif" font-size="12" lengthAdjust="spacing" textLength="106" x="53" y="826.4473">result = internal.</text><a href="./Definition_internal.fireListeners.svg" target="_top" title="./Definition_internal.fireListeners.svg" xlink:actuate="onRequest" xlink:href="./Definition_internal.fireListeners.svg" xlink:show="new" xlink:title="./Definition_internal.fireListeners.svg" xlink:type="simple"><text fill="#0000FF" font-family="sans-serif" font-size="12" lengthAdjust="spacing" text-decoration="underline" textLength="77" x="159" y="826.4473">fireListeners</text></a><text fill="#000000" font-family="sans-serif" font-size="12" lengthAdjust="spacing" textLength="191" x="236" y="826.4473">(binder, event, true) &amp;&amp; result</text><rect fill="#FEFECE" filter="url(#fiz4eq2stwmti)" height="33.9688" style="stroke:#A80036;stroke-width:1.5;" width="402" x="41" y="907.6797"/><line style="stroke:#A80036;stroke-width:1.5;" x1="46" x2="46" y1="907.6797" y2="941.6484"/><line style="stroke:#A80036;stroke-width:1.5;" x1="438" x2="438" y1="907.6797" y2="941.6484"/><text fill="#000000" font-family="sans-serif" font-size="12" lengthAdjust="spacing" textLength="106" x="51" y="928.8184">result = internal.</text><a href="./Definition_internal.fireListeners.svg" target="_top" title="./Definition_internal.fireListeners.svg" xlink:actuate="onRequest" xlink:href="./Definition_internal.fireListeners.svg" xlink:show="new" xlink:title="./Definition_internal.fireListeners.svg" xlink:type="simple"><text fill="#0000FF" font-family="sans-serif" font-size="12" lengthAdjust="spacing" text-decoration="underline" textLength="77" x="157" y="928.8184">fireListeners</text></a><text fill="#000000" font-family="sans-serif" font-size="12" lengthAdjust="spacing" textLength="195" x="234" y="928.8184">(binder, event, false) &amp;&amp; result</text><polygon fill="#FEFECE" filter="url(#fiz4eq2stwmti)" points="197.5,859.2773,286.5,859.2773,298.5,871.2773,286.5,883.2773,197.5,883.2773,185.5,871.2773,197.5,859.2773" style="stroke:#A80036;stroke-width:1.5;"/><text fill="#000000" font-family="sans-serif" font-size="11" lengthAdjust="spacing" textLength="20" x="246" y="893.4878">yes</text><text fill="#000000" font-family="sans-serif" font-size="11" lengthAdjust="spacing" textLength="89" x="197.5" y="875.0854">!binder.stopped</text><polygon fill="#FEFECE" filter="url(#fiz4eq2stwmti)" points="242,961.6484,254,973.6484,242,985.6484,230,973.6484,242,961.6484" style="stroke:#A80036;stroke-width:1.5;"/><polygon fill="#FEFECE" filter="url(#fiz4eq2stwmti)" points="197.5,648.9688,286.5,648.9688,298.5,660.9688,286.5,672.9688,197.5,672.9688,185.5,660.9688,197.5,648.9688" style="stroke:#A80036;stroke-width:1.5;"/><text fill="#000000" font-family="sans-serif" font-size="11" lengthAdjust="spacing" textLength="20" x="246" y="683.1792">yes</text><text fill="#000000" font-family="sans-serif" font-size="11" lengthAdjust="spacing" textLength="89" x="197.5" y="664.7769">!binder.stopped</text><polygon fill="#FEFECE" filter="url(#fiz4eq2stwmti)" points="242,1005.6484,254,1017.6484,242,1029.6484,230,1017.6484,242,1005.6484" style="stroke:#A80036;stroke-width:1.5;"/><rect fill="#FEFECE" filter="url(#fiz4eq2stwmti)" height="33.9688" style="stroke:#A80036;stroke-width:1.5;" width="306" x="89" y="1093.6484"/><text fill="#000000" font-family="sans-serif" font-size="12" lengthAdjust="spacing" textLength="286" x="99" y="1114.7871">binder.phase = EventPhase.BUBBLING_PHASE</text><rect fill="#FEFECE" filter="url(#fiz4eq2stwmti)" height="33.9688" style="stroke:#A80036;stroke-width:1.5;" width="208" x="138" y="1147.6172"/><text fill="#000000" font-family="sans-serif" font-size="12" lengthAdjust="spacing" textLength="184" x="148" y="1168.7559">binder.current = ancestors[i]</text><rect fill="#FEFECE" filter="url(#fiz4eq2stwmti)" height="33.9688" style="stroke:#A80036;stroke-width:1.5;" width="406" x="39" y="1201.5859"/><line style="stroke:#A80036;stroke-width:1.5;" x1="44" x2="44" y1="1201.5859" y2="1235.5547"/><line style="stroke:#A80036;stroke-width:1.5;" x1="440" x2="440" y1="1201.5859" y2="1235.5547"/><text fill="#000000" font-family="sans-serif" font-size="12" lengthAdjust="spacing" textLength="106" x="49" y="1222.7246">result = internal.</text><a href="./Definition_internal.fireListeners.svg" target="_top" title="./Definition_internal.fireListeners.svg" xlink:actuate="onRequest" xlink:href="./Definition_internal.fireListeners.svg" xlink:show="new" xlink:title="./Definition_internal.fireListeners.svg" xlink:type="simple"><text fill="#0000FF" font-family="sans-serif" font-size="12" lengthAdjust="spacing" text-decoration="underline" textLength="77" x="155" y="1222.7246">fireListeners</text></a><text fill="#000000" font-family="sans-serif" font-size="12" lengthAdjust="spacing" textLength="199" x="232" y="1222.7246">(binder, event, false)  &amp;&amp; result</text><polygon fill="#FEFECE" filter="url(#fiz4eq2stwmti)" points="84.5,1049.6484,399.5,1049.6484,411.5,1061.6484,399.5,1073.6484,84.5,1073.6484,72.5,1061.6484,84.5,1049.6484" style="stroke:#A80036;stroke-width:1.5;"/><text fill="#000000" font-family="sans-serif" font-size="11" lengthAdjust="spacing" textLength="315" x="84.5" y="1065.4565">let i = 0; !binder.stopped &amp;&amp; i &lt; ancestors.length; i++</text><rect fill="#FEFECE" filter="url(#fiz4eq2stwmti)" height="33.9688" style="stroke:#A80036;stroke-width:1.5;" width="234" x="125" y="1277.5547"/><text fill="#000000" font-family="sans-serif" font-size="12" lengthAdjust="spacing" textLength="214" x="135" y="1298.6934">binder.phase = EventPhase.NONE</text><polygon fill="#FEFECE" filter="url(#fiz4eq2stwmti)" points="202.5,1331.5234,291.5,1331.5234,281.5,1365.4922,192.5,1365.4922" style="stroke:#A80036;stroke-width:1.5;"/><text fill="#000000" font-family="sans-serif" font-size="12" lengthAdjust="spacing" textLength="79" x="202.5" y="1352.6621">return result</text><ellipse cx="242" cy="1407.4922" fill="#FFFFFF" filter="url(#fiz4eq2stwmti)" rx="10" ry="10" style="stroke:#000000;stroke-width:1.5;"/><line style="stroke:#000000;stroke-width:2.5;" x1="235.8128" x2="248.1872" y1="1401.305" y2="1413.6794"/><line style="stroke:#000000;stroke-width:2.5;" x1="248.1872" x2="235.8128" y1="1401.305" y2="1413.6794"/><line style="stroke:#A80036;stroke-width:1.5;" x1="242" x2="242" y1="131.2188" y2="151.2188"/><polygon fill="#A80036" points="238,141.2188,242,151.2188,246,141.2188,242,145.2188" style="stroke:#A80036;stroke-width:1.0;"/><line style="stroke:#A80036;stroke-width:1.5;" x1="242" x2="242" y1="185.1875" y2="205.1875"/><polygon fill="#A80036" points="238,195.1875,242,205.1875,246,195.1875,242,199.1875" style="stroke:#A80036;stroke-width:1.0;"/><line style="stroke:#A80036;stroke-width:1.5;" x1="242" x2="242" y1="239.1563" y2="259.1563"/><polygon fill="#A80036" points="238,249.1563,242,259.1563,246,249.1563,242,253.1563" style="stroke:#A80036;stroke-width:1.0;"/><line style="stroke:#A80036;stroke-width:1.5;" x1="242" x2="242" y1="293.125" y2="313.125"/><polygon fill="#A80036" points="238,303.125,242,313.125,246,303.125,242,307.125" style="stroke:#A80036;stroke-width:1.0;"/><line style="stroke:#A80036;stroke-width:1.5;" x1="242" x2="242" y1="347.0938" y2="367.0938"/><polygon fill="#A80036" points="238,357.0938,242,367.0938,246,357.0938,242,361.0938" style="stroke:#A80036;stroke-width:1.0;"/><line style="stroke:#A80036;stroke-width:1.5;" x1="242" x2="242" y1="499.0313" y2="519.0313"/><polygon fill="#A80036" points="238,509.0313,242,519.0313,246,509.0313,242,513.0313" style="stroke:#A80036;stroke-width:1.0;"/><line style="stroke:#A80036;stroke-width:1.5;" x1="242" x2="242" y1="553" y2="573"/><polygon fill="#A80036" points="238,563,242,573,246,563,242,567" style="stroke:#A80036;stroke-width:1.0;"/><line style="stroke:#A80036;stroke-width:1.5;" x1="242" x2="242" y1="445.0625" y2="465.0625"/><polygon fill="#A80036" points="238,455.0625,242,465.0625,246,455.0625,242,459.0625" style="stroke:#A80036;stroke-width:1.0;"/><line style="stroke:#A80036;stroke-width:1.5;" x1="242" x2="242" y1="606.9688" y2="616.9688"/><line style="stroke:#A80036;stroke-width:1.5;" x1="242" x2="453" y1="616.9688" y2="616.9688"/><polygon fill="#A80036" points="449,534.0156,453,524.0156,457,534.0156,453,530.0156" style="stroke:#A80036;stroke-width:1.5;"/><line style="stroke:#A80036;stroke-width:1.5;" x1="453" x2="453" y1="433.0625" y2="616.9688"/><line style="stroke:#A80036;stroke-width:1.5;" x1="453" x2="420.5" y1="433.0625" y2="433.0625"/><polygon fill="#A80036" points="430.5,429.0625,420.5,433.0625,430.5,437.0625,426.5,433.0625" style="stroke:#A80036;stroke-width:1.0;"/><line style="stroke:#A80036;stroke-width:1.5;" x1="63.5" x2="31" y1="433.0625" y2="433.0625"/><polygon fill="#A80036" points="27,520.0156,31,530.0156,35,520.0156,31,524.0156" style="stroke:#A80036;stroke-width:1.5;"/><line style="stroke:#A80036;stroke-width:1.5;" x1="31" x2="31" y1="433.0625" y2="628.9688"/><line style="stroke:#A80036;stroke-width:1.5;" x1="31" x2="242" y1="628.9688" y2="628.9688"/><line style="stroke:#A80036;stroke-width:1.5;" x1="242" x2="242" y1="628.9688" y2="648.9688"/><polygon fill="#A80036" points="238,638.9688,242,648.9688,246,638.9688,242,642.9688" style="stroke:#A80036;stroke-width:1.0;"/><line style="stroke:#A80036;stroke-width:1.5;" x1="242" x2="242" y1="401.0625" y2="421.0625"/><polygon fill="#A80036" points="238,411.0625,242,421.0625,246,411.0625,242,415.0625" style="stroke:#A80036;stroke-width:1.0;"/><line style="stroke:#A80036;stroke-width:1.5;" x1="242" x2="242" y1="731.3398" y2="751.3398"/><polygon fill="#A80036" points="238,741.3398,242,751.3398,246,741.3398,242,745.3398" style="stroke:#A80036;stroke-width:1.0;"/><line style="stroke:#A80036;stroke-width:1.5;" x1="242" x2="242" y1="785.3086" y2="805.3086"/><polygon fill="#A80036" points="238,795.3086,242,805.3086,246,795.3086,242,799.3086" style="stroke:#A80036;stroke-width:1.0;"/><line style="stroke:#A80036;stroke-width:1.5;" x1="242" x2="242" y1="883.2773" y2="907.6797"/><polygon fill="#A80036" points="238,897.6797,242,907.6797,246,897.6797,242,901.6797" style="stroke:#A80036;stroke-width:1.0;"/><line style="stroke:#A80036;stroke-width:1.5;" x1="298.5" x2="453" y1="871.2773" y2="871.2773"/><polygon fill="#A80036" points="449,914.6641,453,924.6641,457,914.6641,453,918.6641" style="stroke:#A80036;stroke-width:1.5;"/><line style="stroke:#A80036;stroke-width:1.5;" x1="453" x2="453" y1="871.2773" y2="973.6484"/><line style="stroke:#A80036;stroke-width:1.5;" x1="453" x2="254" y1="973.6484" y2="973.6484"/><polygon fill="#A80036" points="264,969.6484,254,973.6484,264,977.6484,260,973.6484" style="stroke:#A80036;stroke-width:1.0;"/><line style="stroke:#A80036;stroke-width:1.5;" x1="242" x2="242" y1="941.6484" y2="961.6484"/><polygon fill="#A80036" points="238,951.6484,242,961.6484,246,951.6484,242,955.6484" style="stroke:#A80036;stroke-width:1.0;"/><line style="stroke:#A80036;stroke-width:1.5;" x1="242" x2="242" y1="839.2773" y2="859.2773"/><polygon fill="#A80036" points="238,849.2773,242,859.2773,246,849.2773,242,853.2773" style="stroke:#A80036;stroke-width:1.0;"/><line style="stroke:#A80036;stroke-width:1.5;" x1="242" x2="242" y1="672.9688" y2="697.3711"/><polygon fill="#A80036" points="238,687.3711,242,697.3711,246,687.3711,242,691.3711" style="stroke:#A80036;stroke-width:1.0;"/><line style="stroke:#A80036;stroke-width:1.5;" x1="298.5" x2="475" y1="660.9688" y2="660.9688"/><polygon fill="#A80036" points="471,826.2109,475,836.2109,479,826.2109,475,830.2109" style="stroke:#A80036;stroke-width:1.5;"/><line style="stroke:#A80036;stroke-width:1.5;" x1="475" x2="475" y1="660.9688" y2="1017.6484"/><line style="stroke:#A80036;stroke-width:1.5;" x1="475" x2="254" y1="1017.6484" y2="1017.6484"/><polygon fill="#A80036" points="264,1013.6484,254,1017.6484,264,1021.6484,260,1017.6484" style="stroke:#A80036;stroke-width:1.0;"/><line style="stroke:#A80036;stroke-width:1.5;" x1="242" x2="242" y1="985.6484" y2="1005.6484"/><polygon fill="#A80036" points="238,995.6484,242,1005.6484,246,995.6484,242,999.6484" style="stroke:#A80036;stroke-width:1.0;"/><line style="stroke:#A80036;stroke-width:1.5;" x1="242" x2="242" y1="1127.6172" y2="1147.6172"/><polygon fill="#A80036" points="238,1137.6172,242,1147.6172,246,1137.6172,242,1141.6172" style="stroke:#A80036;stroke-width:1.0;"/><line style="stroke:#A80036;stroke-width:1.5;" x1="242" x2="242" y1="1181.5859" y2="1201.5859"/><polygon fill="#A80036" points="238,1191.5859,242,1201.5859,246,1191.5859,242,1195.5859" style="stroke:#A80036;stroke-width:1.0;"/><line style="stroke:#A80036;stroke-width:1.5;" x1="242" x2="242" y1="1073.6484" y2="1093.6484"/><polygon fill="#A80036" points="238,1083.6484,242,1093.6484,246,1083.6484,242,1087.6484" style="stroke:#A80036;stroke-width:1.0;"/><line style="stroke:#A80036;stroke-width:1.5;" x1="242" x2="242" y1="1235.5547" y2="1245.5547"/><line style="stroke:#A80036;stroke-width:1.5;" x1="242" x2="457" y1="1245.5547" y2="1245.5547"/><polygon fill="#A80036" points="453,1162.6016,457,1152.6016,461,1162.6016,457,1158.6016" style="stroke:#A80036;stroke-width:1.5;"/><line style="stroke:#A80036;stroke-width:1.5;" x1="457" x2="457" y1="1061.6484" y2="1245.5547"/><line style="stroke:#A80036;stroke-width:1.5;" x1="457" x2="411.5" y1="1061.6484" y2="1061.6484"/><polygon fill="#A80036" points="421.5,1057.6484,411.5,1061.6484,421.5,1065.6484,417.5,1061.6484" style="stroke:#A80036;stroke-width:1.0;"/><line style="stroke:#A80036;stroke-width:1.5;" x1="72.5" x2="27" y1="1061.6484" y2="1061.6484"/><polygon fill="#A80036" points="23,1148.6016,27,1158.6016,31,1148.6016,27,1152.6016" style="stroke:#A80036;stroke-width:1.5;"/><line style="stroke:#A80036;stroke-width:1.5;" x1="27" x2="27" y1="1061.6484" y2="1257.5547"/><line style="stroke:#A80036;stroke-width:1.5;" x1="27" x2="242" y1="1257.5547" y2="1257.5547"/><line style="stroke:#A80036;stroke-width:1.5;" x1="242" x2="242" y1="1257.5547" y2="1277.5547"/><polygon fill="#A80036" points="238,1267.5547,242,1277.5547,246,1267.5547,242,1271.5547" style="stroke:#A80036;stroke-width:1.0;"/><line style="stroke:#A80036;stroke-width:1.5;" x1="242" x2="242" y1="1029.6484" y2="1049.6484"/><polygon fill="#A80036" points="238,1039.6484,242,1049.6484,246,1039.6484,242,1043.6484" style="stroke:#A80036;stroke-width:1.0;"/><line style="stroke:#A80036;stroke-width:1.5;" x1="242" x2="242" y1="1311.5234" y2="1331.5234"/><polygon fill="#A80036" points="238,1321.5234,242,1331.5234,246,1321.5234,242,1325.5234" style="stroke:#A80036;stroke-width:1.0;"/><line style="stroke:#A80036;stroke-width:1.5;" x1="242" x2="242" y1="50.9531" y2="97.25"/><polygon fill="#A80036" points="238,87.25,242,97.25,246,87.25,242,91.25" style="stroke:#A80036;stroke-width:1.0;"/><line style="stroke:#A80036;stroke-width:1.5;" x1="242" x2="242" y1="1365.4922" y2="1397.4922"/><polygon fill="#A80036" points="238,1387.4922,242,1397.4922,246,1387.4922,242,1391.4922" style="stroke:#A80036;stroke-width:1.0;"/><!--MD5=[4c967df84f593abbb92d7571b776eced]
@startuml Definition_internal.dispatchEvent
    title Definition: internal.dispatchEvent()

    start
        partition SyncTask {
            :target, event/
            :const ancestors = internal.[[./Definition_internal.getAncestors.svg getAncestors]](target) |
            :const binder = [[./Definition_EventBinder.constructor.svg new EventBinder]](EventPhase.NONE, target)]
            :event.[[./Definition_Event.setBinderInternal.svg setBinderInternal]](binder)|
            :let result = true]
            :let current]
            while (let i = ancestors.length - 1; !binder.stopped && i >= 0; i- -)
                :binder.phase = EventPhase.CAPTURING_PHASE]
                :binder.current = ancestors[i] ]
                :result = internal.[[./Definition_internal.fireListeners.svg fireListeners]](binder, event, true) && result |
            endwhile
            if (!binder.stopped) then (yes)
                :binder.phase = EventPhase.AT_TARGET]
                :binder.current = target ]
                :result = internal.[[./Definition_internal.fireListeners.svg fireListeners]](binder, event, true) && result |
                if (!binder.stopped) then (yes)
                    :result = internal.[[./Definition_internal.fireListeners.svg fireListeners]](binder, event, false) && result |
                endif
            endif
            while (let i = 0; !binder.stopped && i < ancestors.length; i++)
                :binder.phase = EventPhase.BUBBLING_PHASE]
                :binder.current = ancestors[i] ]
                :result = internal.[[./Definition_internal.fireListeners.svg fireListeners]](binder, event, false)  && result |
            endwhile
            :binder.phase = EventPhase.NONE]
            :return result/
        }
    end
@enduml

PlantUML version 1.2021.00(Sun Jan 10 12:25:05 EET 2021)
(GPL source distribution)
Java Runtime: OpenJDK Runtime Environment
JVM: OpenJDK 64-Bit Server VM
Default Encoding: UTF-8
Language: en
Country: US
--></g></svg>