<?xml version="1.0" encoding="UTF-8" standalone="no"?><svg xmlns="http://www.w3.org/2000/svg" xmlns:xlink="http://www.w3.org/1999/xlink" contentScriptType="application/ecmascript" contentStyleType="text/css" height="454px" preserveAspectRatio="none" style="width:422px;height:454px;" version="1.1" viewBox="0 0 422 454" width="422px" zoomAndPan="magnify"><defs><filter height="300%" id="f1lbuqc5ggghni" width="300%" x="-1" y="-1"><feGaussianBlur result="blurOut" stdDeviation="2.0"/><feColorMatrix in="blurOut" result="blurOut2" type="matrix" values="0 0 0 0 0 0 0 0 0 0 0 0 0 0 0 0 0 0 .4 0"/><feOffset dx="4.0" dy="4.0" in="blurOut2" result="blurOut3"/><feBlend in="SourceGraphic" in2="blurOut3" mode="normal"/></filter></defs><g><text fill="#000000" font-family="sans-serif" font-size="18" lengthAdjust="spacing" textLength="246" x="87" y="26.708">Definition: Node#contains()</text><ellipse cx="208" cy="40.9531" fill="#000000" filter="url(#f1lbuqc5ggghni)" rx="10" ry="10" style="stroke:none;stroke-width:1.0;"/><rect fill="#FFFFFF" filter="url(#f1lbuqc5ggghni)" height="336.5742" style="stroke:#000000;stroke-width:2.0;" width="394" x="11" y="60.9531"/><path d="M87,60.9531 L87,70.25 L77,80.25 L11,80.25 " fill="none" style="stroke:#000000;stroke-width:2.0;"/><text fill="#000000" font-family="sans-serif" font-size="14" lengthAdjust="spacing" textLength="66" x="14" y="74.9482">SyncTask</text><polygon fill="#FEFECE" filter="url(#f1lbuqc5ggghni)" points="174.5,97.25,251.5,97.25,241.5,131.2188,164.5,131.2188" style="stroke:#A80036;stroke-width:1.5;"/><text fill="#000000" font-family="sans-serif" font-size="12" lengthAdjust="spacing" textLength="67" x="174.5" y="118.3887">otherNode</text><rect fill="#FEFECE" filter="url(#f1lbuqc5ggghni)" height="33.9688" style="stroke:#A80036;stroke-width:1.5;" width="374" x="21" y="151.2188"/><text fill="#000000" font-family="sans-serif" font-size="12" lengthAdjust="spacing" textLength="354" x="31" y="172.3574">const children = internal.nodesIndices.get(this).children</text><polygon fill="#FEFECE" filter="url(#f1lbuqc5ggghni)" points="173.5,253.5898,252.5,253.5898,242.5,287.5586,163.5,287.5586" style="stroke:#A80036;stroke-width:1.5;"/><text fill="#000000" font-family="sans-serif" font-size="12" lengthAdjust="spacing" textLength="69" x="173.5" y="274.7285">return true</text><polygon fill="#FEFECE" filter="url(#f1lbuqc5ggghni)" points="112,205.1875,304,205.1875,316,217.1875,304,229.1875,112,229.1875,100,217.1875,112,205.1875" style="stroke:#A80036;stroke-width:1.5;"/><text fill="#000000" font-family="sans-serif" font-size="11" lengthAdjust="spacing" textLength="20" x="212" y="239.3979">yes</text><text fill="#000000" font-family="sans-serif" font-size="11" lengthAdjust="spacing" textLength="192" x="112" y="220.9956">children.indexOf(otherNode) &gt;= 0</text><polygon fill="#FEFECE" filter="url(#f1lbuqc5ggghni)" points="208,307.5586,220,319.5586,208,331.5586,196,319.5586,208,307.5586" style="stroke:#A80036;stroke-width:1.5;"/><polygon fill="#FEFECE" filter="url(#f1lbuqc5ggghni)" points="171.5,351.5586,254.5,351.5586,244.5,385.5273,161.5,385.5273" style="stroke:#A80036;stroke-width:1.5;"/><text fill="#000000" font-family="sans-serif" font-size="12" lengthAdjust="spacing" textLength="73" x="171.5" y="372.6973">return false</text><ellipse cx="208" cy="427.5273" fill="#FFFFFF" filter="url(#f1lbuqc5ggghni)" rx="10" ry="10" style="stroke:#000000;stroke-width:1.5;"/><line style="stroke:#000000;stroke-width:2.5;" x1="201.8128" x2="214.1872" y1="421.3402" y2="433.7145"/><line style="stroke:#000000;stroke-width:2.5;" x1="214.1872" x2="201.8128" y1="421.3402" y2="433.7145"/><line style="stroke:#A80036;stroke-width:1.5;" x1="208" x2="208" y1="131.2188" y2="151.2188"/><polygon fill="#A80036" points="204,141.2188,208,151.2188,212,141.2188,208,145.2188" style="stroke:#A80036;stroke-width:1.0;"/><line style="stroke:#A80036;stroke-width:1.5;" x1="208" x2="208" y1="229.1875" y2="253.5898"/><polygon fill="#A80036" points="204,243.5898,208,253.5898,212,243.5898,208,247.5898" style="stroke:#A80036;stroke-width:1.0;"/><line style="stroke:#A80036;stroke-width:1.5;" x1="316" x2="328" y1="217.1875" y2="217.1875"/><polygon fill="#A80036" points="324,260.5742,328,270.5742,332,260.5742,328,264.5742" style="stroke:#A80036;stroke-width:1.5;"/><line style="stroke:#A80036;stroke-width:1.5;" x1="328" x2="328" y1="217.1875" y2="319.5586"/><line style="stroke:#A80036;stroke-width:1.5;" x1="328" x2="220" y1="319.5586" y2="319.5586"/><polygon fill="#A80036" points="230,315.5586,220,319.5586,230,323.5586,226,319.5586" style="stroke:#A80036;stroke-width:1.0;"/><line style="stroke:#A80036;stroke-width:1.5;" x1="208" x2="208" y1="287.5586" y2="307.5586"/><polygon fill="#A80036" points="204,297.5586,208,307.5586,212,297.5586,208,301.5586" style="stroke:#A80036;stroke-width:1.0;"/><line style="stroke:#A80036;stroke-width:1.5;" x1="208" x2="208" y1="185.1875" y2="205.1875"/><polygon fill="#A80036" points="204,195.1875,208,205.1875,212,195.1875,208,199.1875" style="stroke:#A80036;stroke-width:1.0;"/><line style="stroke:#A80036;stroke-width:1.5;" x1="208" x2="208" y1="331.5586" y2="351.5586"/><polygon fill="#A80036" points="204,341.5586,208,351.5586,212,341.5586,208,345.5586" style="stroke:#A80036;stroke-width:1.0;"/><line style="stroke:#A80036;stroke-width:1.5;" x1="208" x2="208" y1="50.9531" y2="97.25"/><polygon fill="#A80036" points="204,87.25,208,97.25,212,87.25,208,91.25" style="stroke:#A80036;stroke-width:1.0;"/><line style="stroke:#A80036;stroke-width:1.5;" x1="208" x2="208" y1="385.5273" y2="417.5273"/><polygon fill="#A80036" points="204,407.5273,208,417.5273,212,407.5273,208,411.5273" style="stroke:#A80036;stroke-width:1.0;"/><!--MD5=[7d336e9758a92b35771b87f0c9c40cd4]
@startuml Definition_Node.contains
    title Definition: Node#contains()

    start
        partition SyncTask {
            :otherNode/
            :const children = internal.nodesIndices.get(this).children]
            if (children.indexOf(otherNode) >= 0) then (yes)
                :return true/
            endif
            :return false/
        }
    end
@enduml

PlantUML version 1.2021.00(Sun Jan 10 12:25:05 EET 2021)
(GPL source distribution)
Java Runtime: OpenJDK Runtime Environment
JVM: OpenJDK 64-Bit Server VM
Default Encoding: UTF-8
Language: en
Country: US
--></g></svg>