<?xml version="1.0" encoding="UTF-8" standalone="no"?><svg xmlns="http://www.w3.org/2000/svg" xmlns:xlink="http://www.w3.org/1999/xlink" contentScriptType="application/ecmascript" contentStyleType="text/css" height="308px" preserveAspectRatio="none" style="width:308px;height:308px;" version="1.1" viewBox="0 0 308 308" width="308px" zoomAndPan="magnify"><defs><filter height="300%" id="f1ouy5ssdbs6pu" width="300%" x="-1" y="-1"><feGaussianBlur result="blurOut" stdDeviation="2.0"/><feColorMatrix in="blurOut" result="blurOut2" type="matrix" values="0 0 0 0 0 0 0 0 0 0 0 0 0 0 0 0 0 0 .4 0"/><feOffset dx="4.0" dy="4.0" in="blurOut2" result="blurOut3"/><feBlend in="SourceGraphic" in2="blurOut3" mode="normal"/></filter></defs><g><text fill="#000000" font-family="sans-serif" font-size="18" lengthAdjust="spacing" textLength="284" x="12" y="26.708">Definition: Node#appendChild()</text><ellipse cx="152" cy="40.9531" fill="#000000" filter="url(#f1ouy5ssdbs6pu)" rx="10" ry="10" style="stroke:none;stroke-width:1.0;"/><rect fill="#FFFFFF" filter="url(#f1ouy5ssdbs6pu)" height="190.2031" style="stroke:#000000;stroke-width:2.0;" width="246" x="29" y="60.9531"/><path d="M105,60.9531 L105,70.25 L95,80.25 L29,80.25 " fill="none" style="stroke:#000000;stroke-width:2.0;"/><text fill="#000000" font-family="sans-serif" font-size="14" lengthAdjust="spacing" textLength="66" x="32" y="74.9482">SyncTask</text><polygon fill="#FEFECE" filter="url(#f1ouy5ssdbs6pu)" points="121,97.25,193,97.25,183,131.2188,111,131.2188" style="stroke:#A80036;stroke-width:1.5;"/><text fill="#000000" font-family="sans-serif" font-size="12" lengthAdjust="spacing" textLength="62" x="121" y="118.3887">childNode</text><rect fill="#FEFECE" filter="url(#f1ouy5ssdbs6pu)" height="33.9688" style="stroke:#A80036;stroke-width:1.5;" width="226" x="39" y="151.2188"/><line style="stroke:#A80036;stroke-width:1.5;" x1="44" x2="44" y1="151.2188" y2="185.1875"/><line style="stroke:#A80036;stroke-width:1.5;" x1="260" x2="260" y1="151.2188" y2="185.1875"/><a href="./Definition_Node.insertBefore.svg" target="_top" title="./Definition_Node.insertBefore.svg" xlink:actuate="onRequest" xlink:href="./Definition_Node.insertBefore.svg" xlink:show="new" xlink:title="./Definition_Node.insertBefore.svg" xlink:type="simple"><text fill="#0000FF" font-family="sans-serif" font-size="12" lengthAdjust="spacing" text-decoration="underline" textLength="104" x="49" y="172.3574">this.insertBefore</text></a><text fill="#000000" font-family="sans-serif" font-size="12" lengthAdjust="spacing" textLength="102" x="153" y="172.3574">(childNode, null)</text><polygon fill="#FEFECE" filter="url(#f1ouy5ssdbs6pu)" points="121,205.1875,193,205.1875,183,239.1563,111,239.1563" style="stroke:#A80036;stroke-width:1.5;"/><text fill="#000000" font-family="sans-serif" font-size="12" lengthAdjust="spacing" textLength="62" x="121" y="226.3262">childNode</text><ellipse cx="152" cy="281.1563" fill="#FFFFFF" filter="url(#f1ouy5ssdbs6pu)" rx="10" ry="10" style="stroke:#000000;stroke-width:1.5;"/><line style="stroke:#000000;stroke-width:2.5;" x1="145.8128" x2="158.1872" y1="274.9691" y2="287.3434"/><line style="stroke:#000000;stroke-width:2.5;" x1="158.1872" x2="145.8128" y1="274.9691" y2="287.3434"/><line style="stroke:#A80036;stroke-width:1.5;" x1="152" x2="152" y1="131.2188" y2="151.2188"/><polygon fill="#A80036" points="148,141.2188,152,151.2188,156,141.2188,152,145.2188" style="stroke:#A80036;stroke-width:1.0;"/><line style="stroke:#A80036;stroke-width:1.5;" x1="152" x2="152" y1="185.1875" y2="205.1875"/><polygon fill="#A80036" points="148,195.1875,152,205.1875,156,195.1875,152,199.1875" style="stroke:#A80036;stroke-width:1.0;"/><line style="stroke:#A80036;stroke-width:1.5;" x1="152" x2="152" y1="50.9531" y2="97.25"/><polygon fill="#A80036" points="148,87.25,152,97.25,156,87.25,152,91.25" style="stroke:#A80036;stroke-width:1.0;"/><line style="stroke:#A80036;stroke-width:1.5;" x1="152" x2="152" y1="239.1563" y2="271.1563"/><polygon fill="#A80036" points="148,261.1563,152,271.1563,156,261.1563,152,265.1563" style="stroke:#A80036;stroke-width:1.0;"/><!--MD5=[2ffa29edb08456999e53b58f2dab0edb]
@startuml Definition_Node.appendChild
    title Definition: Node#appendChild()

    start
        partition SyncTask {
            :childNode/
            :[[./Definition_Node.insertBefore.svg this.insertBefore]](childNode, null)|
            :childNode/
        }
    end
@enduml

PlantUML version 1.2021.00(Sun Jan 10 12:25:05 EET 2021)
(GPL source distribution)
Java Runtime: OpenJDK Runtime Environment
JVM: OpenJDK 64-Bit Server VM
Default Encoding: UTF-8
Language: en
Country: US
--></g></svg>